%TF.GenerationSoftware,KiCad,Pcbnew,7.0.6-7.0.6~ubuntu22.04.1*%
%TF.CreationDate,2023-08-04T06:45:17-03:00*%
%TF.ProjectId,RF_Board,52465f42-6f61-4726-942e-6b696361645f,rev?*%
%TF.SameCoordinates,Original*%
%TF.FileFunction,Paste,Top*%
%TF.FilePolarity,Positive*%
%FSLAX46Y46*%
G04 Gerber Fmt 4.6, Leading zero omitted, Abs format (unit mm)*
G04 Created by KiCad (PCBNEW 7.0.6-7.0.6~ubuntu22.04.1) date 2023-08-04 06:45:17*
%MOMM*%
%LPD*%
G01*
G04 APERTURE LIST*
G04 Aperture macros list*
%AMRoundRect*
0 Rectangle with rounded corners*
0 $1 Rounding radius*
0 $2 $3 $4 $5 $6 $7 $8 $9 X,Y pos of 4 corners*
0 Add a 4 corners polygon primitive as box body*
4,1,4,$2,$3,$4,$5,$6,$7,$8,$9,$2,$3,0*
0 Add four circle primitives for the rounded corners*
1,1,$1+$1,$2,$3*
1,1,$1+$1,$4,$5*
1,1,$1+$1,$6,$7*
1,1,$1+$1,$8,$9*
0 Add four rect primitives between the rounded corners*
20,1,$1+$1,$2,$3,$4,$5,0*
20,1,$1+$1,$4,$5,$6,$7,0*
20,1,$1+$1,$6,$7,$8,$9,0*
20,1,$1+$1,$8,$9,$2,$3,0*%
G04 Aperture macros list end*
%ADD10C,0.010000*%
%ADD11RoundRect,0.250000X-0.625000X0.375000X-0.625000X-0.375000X0.625000X-0.375000X0.625000X0.375000X0*%
%ADD12RoundRect,0.147500X0.172500X-0.147500X0.172500X0.147500X-0.172500X0.147500X-0.172500X-0.147500X0*%
%ADD13RoundRect,0.140000X-0.140000X-0.170000X0.140000X-0.170000X0.140000X0.170000X-0.140000X0.170000X0*%
%ADD14RoundRect,0.135000X0.135000X0.185000X-0.135000X0.185000X-0.135000X-0.185000X0.135000X-0.185000X0*%
%ADD15RoundRect,0.135000X-0.135000X-0.185000X0.135000X-0.185000X0.135000X0.185000X-0.135000X0.185000X0*%
%ADD16RoundRect,0.140000X0.170000X-0.140000X0.170000X0.140000X-0.170000X0.140000X-0.170000X-0.140000X0*%
%ADD17RoundRect,0.140000X-0.170000X0.140000X-0.170000X-0.140000X0.170000X-0.140000X0.170000X0.140000X0*%
%ADD18RoundRect,0.147500X-0.147500X-0.172500X0.147500X-0.172500X0.147500X0.172500X-0.147500X0.172500X0*%
%ADD19RoundRect,0.135000X-0.185000X0.135000X-0.185000X-0.135000X0.185000X-0.135000X0.185000X0.135000X0*%
%ADD20RoundRect,0.140000X0.140000X0.170000X-0.140000X0.170000X-0.140000X-0.170000X0.140000X-0.170000X0*%
%ADD21RoundRect,0.250000X0.625000X-0.375000X0.625000X0.375000X-0.625000X0.375000X-0.625000X-0.375000X0*%
%ADD22RoundRect,0.135000X0.185000X-0.135000X0.185000X0.135000X-0.185000X0.135000X-0.185000X-0.135000X0*%
%ADD23RoundRect,0.012800X-0.392200X-0.147200X0.392200X-0.147200X0.392200X0.147200X-0.392200X0.147200X0*%
%ADD24RoundRect,0.012800X0.147200X-0.392200X0.147200X0.392200X-0.147200X0.392200X-0.147200X-0.392200X0*%
%ADD25R,0.400000X1.350000*%
%ADD26R,2.100000X1.600000*%
%ADD27R,1.800000X1.900000*%
%ADD28R,1.900000X1.900000*%
%ADD29RoundRect,0.042000X-0.258000X0.943000X-0.258000X-0.943000X0.258000X-0.943000X0.258000X0.943000X0*%
%ADD30R,0.609600X0.863600*%
%ADD31R,1.050000X2.200000*%
%ADD32R,1.000000X1.050000*%
%ADD33RoundRect,0.037100X-0.317900X-0.227900X0.317900X-0.227900X0.317900X0.227900X-0.317900X0.227900X0*%
%ADD34RoundRect,0.065100X0.399900X-0.589900X0.399900X0.589900X-0.399900X0.589900X-0.399900X-0.589900X0*%
%ADD35RoundRect,0.314400X1.305600X-0.340600X1.305600X0.340600X-1.305600X0.340600X-1.305600X-0.340600X0*%
%ADD36RoundRect,0.109200X0.496106X0.452548X0.452548X0.496106X-0.496106X-0.452548X-0.452548X-0.496106X0*%
%ADD37RoundRect,0.109200X0.452548X-0.496106X0.496106X-0.452548X-0.452548X0.496106X-0.496106X0.452548X0*%
%ADD38R,1.700000X1.000000*%
%ADD39R,1.300000X1.900000*%
G04 APERTURE END LIST*
%TO.C,U2*%
D10*
X197560000Y-62740000D02*
X196080000Y-62740000D01*
X196080000Y-61260000D01*
X197560000Y-61260000D01*
X197560000Y-62740000D01*
G36*
X197560000Y-62740000D02*
G01*
X196080000Y-62740000D01*
X196080000Y-61260000D01*
X197560000Y-61260000D01*
X197560000Y-62740000D01*
G37*
X197560000Y-65100000D02*
X196080000Y-65100000D01*
X196080000Y-63620000D01*
X197560000Y-63620000D01*
X197560000Y-65100000D01*
G36*
X197560000Y-65100000D02*
G01*
X196080000Y-65100000D01*
X196080000Y-63620000D01*
X197560000Y-63620000D01*
X197560000Y-65100000D01*
G37*
X199920000Y-62740000D02*
X198440000Y-62740000D01*
X198440000Y-61260000D01*
X199920000Y-61260000D01*
X199920000Y-62740000D01*
G36*
X199920000Y-62740000D02*
G01*
X198440000Y-62740000D01*
X198440000Y-61260000D01*
X199920000Y-61260000D01*
X199920000Y-62740000D01*
G37*
X199920000Y-65100000D02*
X198440000Y-65100000D01*
X198440000Y-63620000D01*
X199920000Y-63620000D01*
X199920000Y-65100000D01*
G36*
X199920000Y-65100000D02*
G01*
X198440000Y-65100000D01*
X198440000Y-63620000D01*
X199920000Y-63620000D01*
X199920000Y-65100000D01*
G37*
%TD*%
D11*
%TO.C,D2*%
X211120000Y-84910000D03*
X211120000Y-87710000D03*
%TD*%
D12*
%TO.C,L4*%
X199940000Y-53655000D03*
X199940000Y-52685000D03*
%TD*%
D13*
%TO.C,C38*%
X199910000Y-51680000D03*
X200870000Y-51680000D03*
%TD*%
D14*
%TO.C,R1*%
X184630000Y-64540000D03*
X183610000Y-64540000D03*
%TD*%
D15*
%TO.C,R5*%
X204620000Y-90930000D03*
X205640000Y-90930000D03*
%TD*%
D16*
%TO.C,C8*%
X202340000Y-89270000D03*
X202340000Y-88310000D03*
%TD*%
D17*
%TO.C,C10*%
X194520000Y-57560000D03*
X194520000Y-58520000D03*
%TD*%
D16*
%TO.C,C7*%
X203730000Y-89270000D03*
X203730000Y-88310000D03*
%TD*%
D13*
%TO.C,C18*%
X203470000Y-67450000D03*
X204430000Y-67450000D03*
%TD*%
%TO.C,C21*%
X209680000Y-63860000D03*
X210640000Y-63860000D03*
%TD*%
D18*
%TO.C,L2*%
X202555000Y-60855000D03*
X203525000Y-60855000D03*
%TD*%
D19*
%TO.C,R9*%
X208470000Y-84920000D03*
X208470000Y-85940000D03*
%TD*%
D17*
%TO.C,C31*%
X193670000Y-79650000D03*
X193670000Y-80610000D03*
%TD*%
D20*
%TO.C,C32*%
X191440000Y-73910000D03*
X190480000Y-73910000D03*
%TD*%
D15*
%TO.C,R7*%
X204620000Y-93140000D03*
X205640000Y-93140000D03*
%TD*%
D19*
%TO.C,R2*%
X192870000Y-77510000D03*
X192870000Y-78530000D03*
%TD*%
D20*
%TO.C,C9*%
X204420000Y-66200000D03*
X203460000Y-66200000D03*
%TD*%
D21*
%TO.C,D1*%
X214510000Y-87710000D03*
X214510000Y-84910000D03*
%TD*%
D12*
%TO.C,L3*%
X199950000Y-56675000D03*
X199950000Y-55705000D03*
%TD*%
D20*
%TO.C,C15*%
X202530000Y-58610000D03*
X201570000Y-58610000D03*
%TD*%
D13*
%TO.C,C39*%
X211310000Y-91980000D03*
X212270000Y-91980000D03*
%TD*%
D16*
%TO.C,C13*%
X195790000Y-58485000D03*
X195790000Y-57525000D03*
%TD*%
D13*
%TO.C,C3*%
X191510000Y-60750000D03*
X192470000Y-60750000D03*
%TD*%
D20*
%TO.C,C36*%
X184410000Y-75620000D03*
X183450000Y-75620000D03*
%TD*%
D22*
%TO.C,R4*%
X213375000Y-79945000D03*
X213375000Y-78925000D03*
%TD*%
D16*
%TO.C,C33*%
X177800000Y-83170000D03*
X177800000Y-82210000D03*
%TD*%
D23*
%TO.C,U2*%
X195045000Y-61230000D03*
X195045000Y-61880000D03*
X195045000Y-62530000D03*
X195045000Y-63180000D03*
X195045000Y-63830000D03*
X195045000Y-64480000D03*
X195045000Y-65130000D03*
D24*
X196050000Y-66135000D03*
X196700000Y-66135000D03*
X197350000Y-66135000D03*
X198000000Y-66135000D03*
X198650000Y-66135000D03*
X199300000Y-66135000D03*
X199950000Y-66135000D03*
D23*
X200955000Y-65130000D03*
X200955000Y-64480000D03*
X200955000Y-63830000D03*
X200955000Y-63180000D03*
X200955000Y-62530000D03*
X200955000Y-61880000D03*
X200955000Y-61230000D03*
D24*
X199950000Y-60225000D03*
X199300000Y-60225000D03*
X198650000Y-60225000D03*
X198000000Y-60225000D03*
X197350000Y-60225000D03*
X196700000Y-60225000D03*
X196050000Y-60225000D03*
%TD*%
D15*
%TO.C,R13*%
X214170000Y-66520000D03*
X215190000Y-66520000D03*
%TD*%
D16*
%TO.C,C40*%
X181980000Y-86760000D03*
X181980000Y-85800000D03*
%TD*%
D25*
%TO.C,J1*%
X196700000Y-92885000D03*
X197350000Y-92885000D03*
X198000000Y-92885000D03*
X198650000Y-92885000D03*
X199300000Y-92885000D03*
D26*
X194900000Y-93010000D03*
X201100000Y-93010000D03*
D27*
X194200000Y-95560000D03*
D28*
X196800000Y-95560000D03*
X199200000Y-95560000D03*
D27*
X201800000Y-95560000D03*
%TD*%
D19*
%TO.C,R3*%
X214615000Y-78925000D03*
X214615000Y-79945000D03*
%TD*%
D20*
%TO.C,C19*%
X191360000Y-70890000D03*
X190400000Y-70890000D03*
%TD*%
D16*
%TO.C,C14*%
X196850000Y-58505000D03*
X196850000Y-57545000D03*
%TD*%
D17*
%TO.C,C20*%
X204830000Y-74710000D03*
X204830000Y-75670000D03*
%TD*%
D14*
%TO.C,R10*%
X185980000Y-92300000D03*
X184960000Y-92300000D03*
%TD*%
D13*
%TO.C,C4*%
X191510000Y-62920000D03*
X192470000Y-62920000D03*
%TD*%
D29*
%TO.C,U4*%
X187385000Y-85305000D03*
X186115000Y-85305000D03*
X184845000Y-85305000D03*
X183575000Y-85305000D03*
X183575000Y-90245000D03*
X184845000Y-90245000D03*
X186115000Y-90245000D03*
X187385000Y-90245000D03*
%TD*%
D30*
%TO.C,XTAL1*%
X191295000Y-66153900D03*
X192645000Y-66153900D03*
X192645000Y-64706100D03*
X191295000Y-64706100D03*
%TD*%
D13*
%TO.C,C12*%
X191510000Y-61835000D03*
X192470000Y-61835000D03*
%TD*%
D17*
%TO.C,C37*%
X186400000Y-60450000D03*
X186400000Y-61410000D03*
%TD*%
D13*
%TO.C,C17*%
X199930000Y-54690000D03*
X200890000Y-54690000D03*
%TD*%
D19*
%TO.C,R8*%
X216920000Y-84920000D03*
X216920000Y-85940000D03*
%TD*%
D31*
%TO.C,J2*%
X198465000Y-48800000D03*
D32*
X199940000Y-50325000D03*
D31*
X201415000Y-48800000D03*
%TD*%
D15*
%TO.C,R6*%
X204600000Y-92010000D03*
X205620000Y-92010000D03*
%TD*%
D14*
%TO.C,R12*%
X212190000Y-66390000D03*
X211170000Y-66390000D03*
%TD*%
D16*
%TO.C,C6*%
X192090000Y-89270000D03*
X192090000Y-88310000D03*
%TD*%
D20*
%TO.C,C35*%
X183330000Y-68550000D03*
X182370000Y-68550000D03*
%TD*%
D33*
%TO.C,U5*%
X212235000Y-62870000D03*
X212235000Y-63870000D03*
X212235000Y-64870000D03*
X214205000Y-64870000D03*
X214205000Y-63870000D03*
X214205000Y-62870000D03*
%TD*%
D34*
%TO.C,U3*%
X195710000Y-88835000D03*
X198000000Y-88835000D03*
X200290000Y-88835000D03*
D35*
X198000000Y-82145000D03*
%TD*%
D36*
%TO.C,U1*%
X193099750Y-74531163D03*
X193453303Y-74884716D03*
X193806857Y-75238269D03*
X194160410Y-75591823D03*
X194513964Y-75945376D03*
X194867517Y-76298930D03*
X195221070Y-76652483D03*
X195574624Y-77006036D03*
X195928177Y-77359590D03*
X196281731Y-77713143D03*
X196635284Y-78066697D03*
X196988837Y-78420250D03*
D37*
X199011163Y-78420250D03*
X199364716Y-78066697D03*
X199718269Y-77713143D03*
X200071823Y-77359590D03*
X200425376Y-77006036D03*
X200778930Y-76652483D03*
X201132483Y-76298930D03*
X201486036Y-75945376D03*
X201839590Y-75591823D03*
X202193143Y-75238269D03*
X202546697Y-74884716D03*
X202900250Y-74531163D03*
D36*
X202900250Y-72508837D03*
X202546697Y-72155284D03*
X202193143Y-71801731D03*
X201839590Y-71448177D03*
X201486036Y-71094624D03*
X201132483Y-70741070D03*
X200778930Y-70387517D03*
X200425376Y-70033964D03*
X200071823Y-69680410D03*
X199718269Y-69326857D03*
X199364716Y-68973303D03*
X199011163Y-68619750D03*
D37*
X196988837Y-68619750D03*
X196635284Y-68973303D03*
X196281731Y-69326857D03*
X195928177Y-69680410D03*
X195574624Y-70033964D03*
X195221070Y-70387517D03*
X194867517Y-70741070D03*
X194513964Y-71094624D03*
X194160410Y-71448177D03*
X193806857Y-71801731D03*
X193453303Y-72155284D03*
X193099750Y-72508837D03*
%TD*%
D16*
%TO.C,C34*%
X192740000Y-83150000D03*
X192740000Y-82190000D03*
%TD*%
D20*
%TO.C,C2*%
X189850000Y-66150000D03*
X188890000Y-66150000D03*
%TD*%
D17*
%TO.C,C16*%
X199960000Y-57660000D03*
X199960000Y-58620000D03*
%TD*%
%TO.C,C11*%
X193470000Y-57550000D03*
X193470000Y-58510000D03*
%TD*%
D18*
%TO.C,L1*%
X197935000Y-58570000D03*
X198905000Y-58570000D03*
%TD*%
D16*
%TO.C,C5*%
X193670000Y-89270000D03*
X193670000Y-88310000D03*
%TD*%
D38*
%TO.C,SW1*%
X178300000Y-58920000D03*
X184600000Y-58920000D03*
X178300000Y-62720000D03*
X184600000Y-62720000D03*
%TD*%
D20*
%TO.C,C1*%
X189840000Y-64680000D03*
X188880000Y-64680000D03*
%TD*%
D39*
%TO.C,Y2*%
X182440000Y-73650000D03*
X187940000Y-73650000D03*
X187940000Y-70450000D03*
X182440000Y-70450000D03*
%TD*%
D17*
%TO.C,C30*%
X194790000Y-79660000D03*
X194790000Y-80620000D03*
%TD*%
M02*
