M48
; DRILL file {KiCad 7.0.6-7.0.6~ubuntu22.04.1} date sex 04 ago 2023 06:45:15
; FORMAT={-:-/ absolute / inch / decimal}
; #@! TF.CreationDate,2023-08-04T06:45:15-03:00
; #@! TF.GenerationSoftware,Kicad,Pcbnew,7.0.6-7.0.6~ubuntu22.04.1
; #@! TF.FileFunction,Plated,1,4,PTH
FMAT,2
INCH
; #@! TA.AperFunction,Plated,PTH,ViaDrill
T1C0.0118
; #@! TA.AperFunction,Plated,PTH,ComponentDrill
T2C0.0268
; #@! TA.AperFunction,Plated,PTH,ComponentDrill
T3C0.0394
%
G90
G05
T1
X6.9996Y-3.3035
X7.1646Y-3.3508
X7.1657Y-3.4492
X7.1921Y-2.5402
X7.2461Y-2.6996
X7.2677Y-2.2563
X7.2858Y-2.9768
X7.3283Y-3.4232
X7.4205Y-3.3232
X7.4276Y-3.5547
X7.4362Y-2.5106
X7.437Y-2.6362
X7.4713Y-2.9102
X7.4787Y-3.2878
X7.4965Y-2.7555
X7.5091Y-2.4335
X7.5091Y-2.5705
X7.5094Y-2.3917
X7.5094Y-2.4764
X7.5346Y-2.7559
X7.5374Y-2.8807
X7.5626Y-3.4445
X7.563Y-3.5512
X7.5752Y-2.7976
X7.5799Y-3.7626
X7.587Y-3.3201
X7.5902Y-3.135
X7.5913Y-3.1728
X7.6083Y-2.4339
X7.6128Y-2.6047
X7.6169Y-2.2335
X7.6169Y-2.3307
X7.6252Y-3.4445
X7.6559Y-2.5862
X7.6559Y-2.8772
X7.6583Y-2.2335
X7.6583Y-2.3307
X7.6602Y-3.07
X7.6678Y-2.6713
X7.6866Y-2.8843
X7.688Y-2.6925
X7.6909Y-2.9488
X7.6945Y-3.0969
X7.7047Y-2.8398
X7.7047Y-3.4524
X7.7087Y-2.2331
X7.7098Y-3.1307
X7.7157Y-2.6673
X7.7181Y-3.1644
X7.7314Y-2.891
X7.7359Y-2.9752
X7.7362Y-1.9197
X7.7441Y-3.5945
X7.75Y-2.2331
X7.7591Y-2.7717
X7.7701Y-2.3358
X7.7831Y-2.6472
X7.7941Y-2.4894
X7.8016Y-2.7685
X7.8071Y-2.9898
X7.8183Y-2.3346
X7.8213Y-2.953
X7.8287Y-3.024
X7.8346Y-3.15
X7.8445Y-2.6512
X7.8469Y-3.6098
X7.8472Y-2.3346
X7.8559Y-2.953
X7.8701Y-3.1524
X7.8972Y-3.1874
X7.9044Y-2.6894
X7.9189Y-3.1327
X7.935Y-2.5642
X7.9382Y-2.1539
X7.9406Y-3.0571
X7.9445Y-2.0346
X7.9457Y-2.6632
X7.9594Y-3.1925
X7.9669Y-3.4496
X7.9701Y-2.7598
X7.9796Y-3.0664
X7.9839Y-2.5083
X7.9923Y-2.6738
X7.9992Y-1.922
X8.0063Y-3.7626
X8.0122Y-2.7748
X8.0138Y-2.987
X8.0189Y-2.4874
X8.0209Y-3.5496
X8.0213Y-3.4488
X8.0236Y-3.0287
X8.0248Y-3.6669
X8.026Y-2.8083
X8.0311Y-2.5772
X8.0409Y-2.7561
X8.0445Y-2.8587
X8.0449Y-2.3957
X8.0528Y-2.4618
X8.0638Y-2.9138
X8.065Y-3.0035
X8.0799Y-2.6551
X8.0807Y-2.6067
X8.102Y-2.8535
X8.1098Y-3.2335
X8.1106Y-3.1461
X8.122Y-2.7113
X8.1768Y-2.8547
X8.1846Y-3.1465
X8.1874Y-3.1811
X8.189Y-3.2339
X8.1915Y-3.0322
X8.2059Y-3.4193
X8.2161Y-2.5146
X8.2921Y-2.5445
X8.3122Y-3.5051
X8.3134Y-2.6504
X8.3189Y-3.5917
X8.3913Y-2.7199
X8.3913Y-3.6213
X8.472Y-2.6512
X8.4846Y-2.5154
X8.5083Y-2.7386
X8.5083Y-3.4528
X8.5555Y-2.8063
T2
X7.2Y-3.1634
X7.3921Y-3.1634
T3
X6.8898Y-2.6484
X6.8898Y-2.7484
X6.8898Y-2.8484
X6.8898Y-2.9484
X6.8898Y-3.0484
X6.8898Y-3.1484
X6.8898Y-3.2484
X6.8898Y-3.3484
X6.8898Y-3.4484
X6.8898Y-3.5484
X6.8898Y-3.6484
X7.249Y-3.7354
X7.349Y-3.7354
X8.2224Y-3.726
X8.3224Y-3.726
X8.3715Y-2.8061
X8.3715Y-2.9061
X8.3715Y-3.0061
X8.4224Y-3.726
X8.4715Y-2.8061
X8.4715Y-2.9061
X8.4715Y-3.0061
X8.5224Y-3.726
X8.7008Y-2.6484
X8.7008Y-2.7484
X8.7008Y-2.8484
X8.7008Y-2.9484
X8.7008Y-3.0484
X8.7008Y-3.1484
X8.7008Y-3.2484
X8.7008Y-3.3484
X8.7008Y-3.4484
X8.7008Y-3.5484
X8.7008Y-3.6484
T0
M30
