%TF.GenerationSoftware,KiCad,Pcbnew,7.0.6-7.0.6~ubuntu22.04.1*%
%TF.CreationDate,2023-08-04T06:45:17-03:00*%
%TF.ProjectId,RF_Board,52465f42-6f61-4726-942e-6b696361645f,rev?*%
%TF.SameCoordinates,Original*%
%TF.FileFunction,Copper,L1,Top*%
%TF.FilePolarity,Positive*%
%FSLAX46Y46*%
G04 Gerber Fmt 4.6, Leading zero omitted, Abs format (unit mm)*
G04 Created by KiCad (PCBNEW 7.0.6-7.0.6~ubuntu22.04.1) date 2023-08-04 06:45:17*
%MOMM*%
%LPD*%
G01*
G04 APERTURE LIST*
G04 Aperture macros list*
%AMRoundRect*
0 Rectangle with rounded corners*
0 $1 Rounding radius*
0 $2 $3 $4 $5 $6 $7 $8 $9 X,Y pos of 4 corners*
0 Add a 4 corners polygon primitive as box body*
4,1,4,$2,$3,$4,$5,$6,$7,$8,$9,$2,$3,0*
0 Add four circle primitives for the rounded corners*
1,1,$1+$1,$2,$3*
1,1,$1+$1,$4,$5*
1,1,$1+$1,$6,$7*
1,1,$1+$1,$8,$9*
0 Add four rect primitives between the rounded corners*
20,1,$1+$1,$2,$3,$4,$5,0*
20,1,$1+$1,$4,$5,$6,$7,0*
20,1,$1+$1,$6,$7,$8,$9,0*
20,1,$1+$1,$8,$9,$2,$3,0*%
G04 Aperture macros list end*
%TA.AperFunction,SMDPad,CuDef*%
%ADD10RoundRect,0.250000X-0.625000X0.375000X-0.625000X-0.375000X0.625000X-0.375000X0.625000X0.375000X0*%
%TD*%
%TA.AperFunction,SMDPad,CuDef*%
%ADD11RoundRect,0.147500X0.172500X-0.147500X0.172500X0.147500X-0.172500X0.147500X-0.172500X-0.147500X0*%
%TD*%
%TA.AperFunction,SMDPad,CuDef*%
%ADD12RoundRect,0.140000X-0.140000X-0.170000X0.140000X-0.170000X0.140000X0.170000X-0.140000X0.170000X0*%
%TD*%
%TA.AperFunction,ComponentPad*%
%ADD13R,1.700000X1.700000*%
%TD*%
%TA.AperFunction,ComponentPad*%
%ADD14O,1.700000X1.700000*%
%TD*%
%TA.AperFunction,SMDPad,CuDef*%
%ADD15RoundRect,0.135000X0.135000X0.185000X-0.135000X0.185000X-0.135000X-0.185000X0.135000X-0.185000X0*%
%TD*%
%TA.AperFunction,SMDPad,CuDef*%
%ADD16RoundRect,0.135000X-0.135000X-0.185000X0.135000X-0.185000X0.135000X0.185000X-0.135000X0.185000X0*%
%TD*%
%TA.AperFunction,SMDPad,CuDef*%
%ADD17RoundRect,0.140000X0.170000X-0.140000X0.170000X0.140000X-0.170000X0.140000X-0.170000X-0.140000X0*%
%TD*%
%TA.AperFunction,SMDPad,CuDef*%
%ADD18RoundRect,0.140000X-0.170000X0.140000X-0.170000X-0.140000X0.170000X-0.140000X0.170000X0.140000X0*%
%TD*%
%TA.AperFunction,SMDPad,CuDef*%
%ADD19RoundRect,0.147500X-0.147500X-0.172500X0.147500X-0.172500X0.147500X0.172500X-0.147500X0.172500X0*%
%TD*%
%TA.AperFunction,SMDPad,CuDef*%
%ADD20RoundRect,0.135000X-0.185000X0.135000X-0.185000X-0.135000X0.185000X-0.135000X0.185000X0.135000X0*%
%TD*%
%TA.AperFunction,SMDPad,CuDef*%
%ADD21RoundRect,0.140000X0.140000X0.170000X-0.140000X0.170000X-0.140000X-0.170000X0.140000X-0.170000X0*%
%TD*%
%TA.AperFunction,SMDPad,CuDef*%
%ADD22RoundRect,0.250000X0.625000X-0.375000X0.625000X0.375000X-0.625000X0.375000X-0.625000X-0.375000X0*%
%TD*%
%TA.AperFunction,SMDPad,CuDef*%
%ADD23RoundRect,0.135000X0.185000X-0.135000X0.185000X0.135000X-0.185000X0.135000X-0.185000X-0.135000X0*%
%TD*%
%TA.AperFunction,SMDPad,CuDef*%
%ADD24RoundRect,0.012800X-0.392200X-0.147200X0.392200X-0.147200X0.392200X0.147200X-0.392200X0.147200X0*%
%TD*%
%TA.AperFunction,SMDPad,CuDef*%
%ADD25RoundRect,0.012800X0.147200X-0.392200X0.147200X0.392200X-0.147200X0.392200X-0.147200X-0.392200X0*%
%TD*%
%TA.AperFunction,SMDPad,CuDef*%
%ADD26R,4.800000X4.800000*%
%TD*%
%TA.AperFunction,SMDPad,CuDef*%
%ADD27R,0.400000X1.350000*%
%TD*%
%TA.AperFunction,SMDPad,CuDef*%
%ADD28R,2.100000X1.600000*%
%TD*%
%TA.AperFunction,SMDPad,CuDef*%
%ADD29R,1.800000X1.900000*%
%TD*%
%TA.AperFunction,SMDPad,CuDef*%
%ADD30R,1.900000X1.900000*%
%TD*%
%TA.AperFunction,ComponentPad*%
%ADD31C,1.247000*%
%TD*%
%TA.AperFunction,SMDPad,CuDef*%
%ADD32RoundRect,0.042000X-0.258000X0.943000X-0.258000X-0.943000X0.258000X-0.943000X0.258000X0.943000X0*%
%TD*%
%TA.AperFunction,SMDPad,CuDef*%
%ADD33R,0.609600X0.863600*%
%TD*%
%TA.AperFunction,SMDPad,CuDef*%
%ADD34R,1.050000X2.200000*%
%TD*%
%TA.AperFunction,SMDPad,CuDef*%
%ADD35R,1.000000X1.050000*%
%TD*%
%TA.AperFunction,SMDPad,CuDef*%
%ADD36RoundRect,0.037100X-0.317900X-0.227900X0.317900X-0.227900X0.317900X0.227900X-0.317900X0.227900X0*%
%TD*%
%TA.AperFunction,SMDPad,CuDef*%
%ADD37RoundRect,0.065100X0.399900X-0.589900X0.399900X0.589900X-0.399900X0.589900X-0.399900X-0.589900X0*%
%TD*%
%TA.AperFunction,SMDPad,CuDef*%
%ADD38RoundRect,0.314400X1.305600X-0.340600X1.305600X0.340600X-1.305600X0.340600X-1.305600X-0.340600X0*%
%TD*%
%TA.AperFunction,SMDPad,CuDef*%
%ADD39RoundRect,0.109200X0.496106X0.452548X0.452548X0.496106X-0.496106X-0.452548X-0.452548X-0.496106X0*%
%TD*%
%TA.AperFunction,SMDPad,CuDef*%
%ADD40RoundRect,0.109200X0.452548X-0.496106X0.496106X-0.452548X-0.452548X0.496106X-0.496106X0.452548X0*%
%TD*%
%TA.AperFunction,SMDPad,CuDef*%
%ADD41R,1.700000X1.000000*%
%TD*%
%TA.AperFunction,SMDPad,CuDef*%
%ADD42R,1.300000X1.900000*%
%TD*%
%TA.AperFunction,ViaPad*%
%ADD43C,0.500000*%
%TD*%
%TA.AperFunction,Conductor*%
%ADD44C,0.349582*%
%TD*%
%TA.AperFunction,Conductor*%
%ADD45C,0.250000*%
%TD*%
%TA.AperFunction,Conductor*%
%ADD46C,0.152000*%
%TD*%
%TA.AperFunction,Conductor*%
%ADD47C,0.400000*%
%TD*%
%TA.AperFunction,Conductor*%
%ADD48C,0.200000*%
%TD*%
G04 APERTURE END LIST*
D10*
%TO.P,D2,1,K*%
%TO.N,Net-(D2-K)*%
X211120000Y-84910000D03*
%TO.P,D2,2,A*%
%TO.N,+3.3V*%
X211120000Y-87710000D03*
%TD*%
D11*
%TO.P,L4,1,1*%
%TO.N,Net-(C17-Pad1)*%
X199940000Y-53655000D03*
%TO.P,L4,2,2*%
%TO.N,Net-(C38-Pad1)*%
X199940000Y-52685000D03*
%TD*%
D12*
%TO.P,C38,1*%
%TO.N,Net-(C38-Pad1)*%
X199910000Y-51680000D03*
%TO.P,C38,2*%
%TO.N,Earth*%
X200870000Y-51680000D03*
%TD*%
D13*
%TO.P,J5,1,Pin_1*%
%TO.N,Net-(J5-Pin_1)*%
X184125000Y-94880000D03*
D14*
%TO.P,J5,2,Pin_2*%
%TO.N,Net-(J5-Pin_2)*%
X186665000Y-94880000D03*
%TD*%
D15*
%TO.P,R1,1*%
%TO.N,/NRST*%
X184630000Y-64540000D03*
%TO.P,R1,2*%
%TO.N,+3.3V*%
X183610000Y-64540000D03*
%TD*%
D16*
%TO.P,R5,1*%
%TO.N,/D1-*%
X204620000Y-90930000D03*
%TO.P,R5,2*%
%TO.N,/D-*%
X205640000Y-90930000D03*
%TD*%
D17*
%TO.P,C8,1*%
%TO.N,VBUS*%
X202340000Y-89270000D03*
%TO.P,C8,2*%
%TO.N,Earth*%
X202340000Y-88310000D03*
%TD*%
D18*
%TO.P,C10,1*%
%TO.N,Earth*%
X194520000Y-57560000D03*
%TO.P,C10,2*%
%TO.N,+3.3V*%
X194520000Y-58520000D03*
%TD*%
D17*
%TO.P,C7,1*%
%TO.N,VBUS*%
X203730000Y-89270000D03*
%TO.P,C7,2*%
%TO.N,Earth*%
X203730000Y-88310000D03*
%TD*%
D12*
%TO.P,C18,1*%
%TO.N,+3.3V*%
X203470000Y-67450000D03*
%TO.P,C18,2*%
%TO.N,Earth*%
X204430000Y-67450000D03*
%TD*%
%TO.P,C21,1*%
%TO.N,Earth*%
X209680000Y-63860000D03*
%TO.P,C21,2*%
%TO.N,+3.3V*%
X210640000Y-63860000D03*
%TD*%
D19*
%TO.P,L2,1,1*%
%TO.N,/RFI_HF*%
X202555000Y-60855000D03*
%TO.P,L2,2,2*%
%TO.N,Earth*%
X203525000Y-60855000D03*
%TD*%
D20*
%TO.P,R9,1*%
%TO.N,Net-(D2-K)*%
X208470000Y-84920000D03*
%TO.P,R9,2*%
%TO.N,Earth*%
X208470000Y-85940000D03*
%TD*%
D18*
%TO.P,C31,1*%
%TO.N,+3.3V*%
X193670000Y-79650000D03*
%TO.P,C31,2*%
%TO.N,Earth*%
X193670000Y-80610000D03*
%TD*%
D21*
%TO.P,C32,1*%
%TO.N,+3.3V*%
X191440000Y-73910000D03*
%TO.P,C32,2*%
%TO.N,Earth*%
X190480000Y-73910000D03*
%TD*%
D16*
%TO.P,R7,1*%
%TO.N,VBUS*%
X204620000Y-93140000D03*
%TO.P,R7,2*%
%TO.N,/D+*%
X205640000Y-93140000D03*
%TD*%
D13*
%TO.P,J7,1,Pin_1*%
%TO.N,+3.3V*%
X221000000Y-67270000D03*
D14*
%TO.P,J7,2,Pin_2*%
%TO.N,/PA8*%
X221000000Y-69810000D03*
%TO.P,J7,3,Pin_3*%
%TO.N,/PB15*%
X221000000Y-72350000D03*
%TO.P,J7,4,Pin_4*%
%TO.N,/PB14*%
X221000000Y-74890000D03*
%TO.P,J7,5,Pin_5*%
%TO.N,/PB13*%
X221000000Y-77430000D03*
%TO.P,J7,6,Pin_6*%
%TO.N,/PB12*%
X221000000Y-79970000D03*
%TO.P,J7,7,Pin_7*%
%TO.N,/PB11*%
X221000000Y-82510000D03*
%TO.P,J7,8,Pin_8*%
%TO.N,/PB1*%
X221000000Y-85050000D03*
%TO.P,J7,9,Pin_9*%
%TO.N,/PB0*%
X221000000Y-87590000D03*
%TO.P,J7,10,Pin_10*%
%TO.N,Earth*%
X221000000Y-90130000D03*
%TO.P,J7,11,Pin_11*%
X221000000Y-92670000D03*
%TD*%
D20*
%TO.P,R2,1*%
%TO.N,/OSC8_IN*%
X192870000Y-77510000D03*
%TO.P,R2,2*%
%TO.N,/OSC8_OUT*%
X192870000Y-78530000D03*
%TD*%
D13*
%TO.P,J4,1,Pin_1*%
%TO.N,+3.3V*%
X215175000Y-76355000D03*
D14*
%TO.P,J4,2,Pin_2*%
X212635000Y-76355000D03*
%TO.P,J4,3,Pin_3*%
%TO.N,/BOOT0*%
X215175000Y-73815000D03*
%TO.P,J4,4,Pin_4*%
%TO.N,/BOOT1*%
X212635000Y-73815000D03*
%TO.P,J4,5,Pin_5*%
%TO.N,Earth*%
X215175000Y-71275000D03*
%TO.P,J4,6,Pin_6*%
X212635000Y-71275000D03*
%TD*%
D21*
%TO.P,C9,1*%
%TO.N,Earth*%
X204420000Y-66200000D03*
%TO.P,C9,2*%
%TO.N,+3.3V*%
X203460000Y-66200000D03*
%TD*%
D22*
%TO.P,D1,1,K*%
%TO.N,Earth*%
X214510000Y-87710000D03*
%TO.P,D1,2,A*%
%TO.N,Net-(D1-A)*%
X214510000Y-84910000D03*
%TD*%
D13*
%TO.P,J3,1,Pin_1*%
%TO.N,+3.3V*%
X208850000Y-94640000D03*
D14*
%TO.P,J3,2,Pin_2*%
%TO.N,/SWDIO*%
X211390000Y-94640000D03*
%TO.P,J3,3,Pin_3*%
%TO.N,/SWCLK*%
X213930000Y-94640000D03*
%TO.P,J3,4,Pin_4*%
%TO.N,Earth*%
X216470000Y-94640000D03*
%TD*%
D11*
%TO.P,L3,1,1*%
%TO.N,Net-(C16-Pad1)*%
X199950000Y-56675000D03*
%TO.P,L3,2,2*%
%TO.N,Net-(C17-Pad1)*%
X199950000Y-55705000D03*
%TD*%
D21*
%TO.P,C15,1*%
%TO.N,/RFI_HF*%
X202530000Y-58610000D03*
%TO.P,C15,2*%
%TO.N,/RFO_HF*%
X201570000Y-58610000D03*
%TD*%
D12*
%TO.P,C39,1*%
%TO.N,+3.3V*%
X211310000Y-91980000D03*
%TO.P,C39,2*%
%TO.N,Earth*%
X212270000Y-91980000D03*
%TD*%
D17*
%TO.P,C13,1*%
%TO.N,/VR_PA*%
X195790000Y-58485000D03*
%TO.P,C13,2*%
%TO.N,Earth*%
X195790000Y-57525000D03*
%TD*%
D12*
%TO.P,C3,1*%
%TO.N,Earth*%
X191510000Y-60750000D03*
%TO.P,C3,2*%
%TO.N,Net-(U2-VR_ANA)*%
X192470000Y-60750000D03*
%TD*%
D21*
%TO.P,C36,1*%
%TO.N,Earth*%
X184410000Y-75620000D03*
%TO.P,C36,2*%
%TO.N,/OSC32_OUT*%
X183450000Y-75620000D03*
%TD*%
D23*
%TO.P,R4,1*%
%TO.N,Net-(U1-PB2)*%
X213375000Y-79945000D03*
%TO.P,R4,2*%
%TO.N,/BOOT1*%
X213375000Y-78925000D03*
%TD*%
D17*
%TO.P,C33,1*%
%TO.N,Earth*%
X177800000Y-83170000D03*
%TO.P,C33,2*%
%TO.N,/OSC8_IN*%
X177800000Y-82210000D03*
%TD*%
D24*
%TO.P,U2,1,RFI_LF*%
%TO.N,unconnected-(U2-RFI_LF-Pad1)*%
X195045000Y-61230000D03*
%TO.P,U2,2,VR_ANA*%
%TO.N,Net-(U2-VR_ANA)*%
X195045000Y-61880000D03*
%TO.P,U2,3,VBAT_ANA*%
%TO.N,+3.3V*%
X195045000Y-62530000D03*
%TO.P,U2,4,VR_DIG*%
%TO.N,Net-(U2-VR_DIG)*%
X195045000Y-63180000D03*
%TO.P,U2,5,XTA*%
%TO.N,/XTA*%
X195045000Y-63830000D03*
%TO.P,U2,6,XTB*%
%TO.N,/XTB*%
X195045000Y-64480000D03*
%TO.P,U2,7,NRESET*%
%TO.N,/NRESET*%
X195045000Y-65130000D03*
D25*
%TO.P,U2,8,DIO0*%
%TO.N,/DIO0*%
X196050000Y-66135000D03*
%TO.P,U2,9,DIO1/DCLK*%
%TO.N,/DIO1*%
X196700000Y-66135000D03*
%TO.P,U2,10,DIO2/DATA*%
%TO.N,/DIO2*%
X197350000Y-66135000D03*
%TO.P,U2,11,DIO3*%
%TO.N,/DIO3*%
X198000000Y-66135000D03*
%TO.P,U2,12,DIO4*%
%TO.N,/DIO4*%
X198650000Y-66135000D03*
%TO.P,U2,13,DIO5*%
%TO.N,/DIO5*%
X199300000Y-66135000D03*
%TO.P,U2,14,VBAT_DIG*%
%TO.N,+3.3V*%
X199950000Y-66135000D03*
D24*
%TO.P,U2,15,GND*%
%TO.N,Earth*%
X200955000Y-65130000D03*
%TO.P,U2,16,SCK*%
%TO.N,/PA5*%
X200955000Y-64480000D03*
%TO.P,U2,17,MISO*%
%TO.N,/MISO*%
X200955000Y-63830000D03*
%TO.P,U2,18,MOSI*%
%TO.N,/MOSI*%
X200955000Y-63180000D03*
%TO.P,U2,19,NSS*%
%TO.N,/NSS*%
X200955000Y-62530000D03*
%TO.P,U2,20,RXTX/RF_MOD*%
%TO.N,unconnected-(U2-RXTX{slash}RF_MOD-Pad20)*%
X200955000Y-61880000D03*
%TO.P,U2,21,RFI_HF(GND)*%
%TO.N,/RFI_HF*%
X200955000Y-61230000D03*
D25*
%TO.P,U2,22,RFO_HF(GND)*%
%TO.N,/RFO_HF*%
X199950000Y-60225000D03*
%TO.P,U2,23,GND*%
%TO.N,Earth*%
X199300000Y-60225000D03*
%TO.P,U2,24,VBAT_RF*%
%TO.N,+3.3V*%
X198650000Y-60225000D03*
%TO.P,U2,25,VR_PA*%
%TO.N,/VR_PA*%
X198000000Y-60225000D03*
%TO.P,U2,26,GND*%
%TO.N,Earth*%
X197350000Y-60225000D03*
%TO.P,U2,27,PA_BOOST*%
%TO.N,unconnected-(U2-PA_BOOST-Pad27)*%
X196700000Y-60225000D03*
%TO.P,U2,28,RFO_LF*%
%TO.N,unconnected-(U2-RFO_LF-Pad28)*%
X196050000Y-60225000D03*
D26*
%TO.P,U2,29,EXP*%
%TO.N,Earth*%
X198000000Y-63180000D03*
%TD*%
D16*
%TO.P,R13,1*%
%TO.N,/PB11*%
X214170000Y-66520000D03*
%TO.P,R13,2*%
%TO.N,+3.3V*%
X215190000Y-66520000D03*
%TD*%
D17*
%TO.P,C40,1*%
%TO.N,+3.3V*%
X181980000Y-86760000D03*
%TO.P,C40,2*%
%TO.N,Earth*%
X181980000Y-85800000D03*
%TD*%
D27*
%TO.P,J1,1,VUSB*%
%TO.N,VBUS*%
X196700000Y-92885000D03*
%TO.P,J1,2,D-*%
%TO.N,/D1-*%
X197350000Y-92885000D03*
%TO.P,J1,3,D+*%
%TO.N,/D1+*%
X198000000Y-92885000D03*
%TO.P,J1,4,ID*%
%TO.N,Earth*%
X198650000Y-92885000D03*
%TO.P,J1,5,GND*%
X199300000Y-92885000D03*
D28*
%TO.P,J1,SH1,SHIELD*%
X194900000Y-93010000D03*
%TO.P,J1,SH2,SHIELD*%
X201100000Y-93010000D03*
D29*
%TO.P,J1,SH3,SHIELD*%
X194200000Y-95560000D03*
D30*
%TO.P,J1,SH4,SHIELD*%
X196800000Y-95560000D03*
%TO.P,J1,SH5,SHIELD*%
X199200000Y-95560000D03*
D29*
%TO.P,J1,SH6,SHIELD*%
X201800000Y-95560000D03*
%TD*%
D20*
%TO.P,R3,1*%
%TO.N,/BOOT0*%
X214615000Y-78925000D03*
%TO.P,R3,2*%
%TO.N,Net-(U1-BOOT0)*%
X214615000Y-79945000D03*
%TD*%
D21*
%TO.P,C19,1*%
%TO.N,+3.3V*%
X191360000Y-70890000D03*
%TO.P,C19,2*%
%TO.N,Earth*%
X190400000Y-70890000D03*
%TD*%
D17*
%TO.P,C14,1*%
%TO.N,/VR_PA*%
X196850000Y-58505000D03*
%TO.P,C14,2*%
%TO.N,Earth*%
X196850000Y-57545000D03*
%TD*%
D18*
%TO.P,C20,1*%
%TO.N,+3.3V*%
X204830000Y-74710000D03*
%TO.P,C20,2*%
%TO.N,Earth*%
X204830000Y-75670000D03*
%TD*%
D15*
%TO.P,R10,1*%
%TO.N,Net-(J5-Pin_2)*%
X185980000Y-92300000D03*
%TO.P,R10,2*%
%TO.N,Net-(J5-Pin_1)*%
X184960000Y-92300000D03*
%TD*%
D13*
%TO.P,J6,1,Pin_1*%
%TO.N,/PA15*%
X175000000Y-67270000D03*
D14*
%TO.P,J6,2,Pin_2*%
%TO.N,/PB10*%
X175000000Y-69810000D03*
%TO.P,J6,3,Pin_3*%
%TO.N,/PA0*%
X175000000Y-72350000D03*
%TO.P,J6,4,Pin_4*%
%TO.N,/PA1*%
X175000000Y-74890000D03*
%TO.P,J6,5,Pin_5*%
%TO.N,/PA2*%
X175000000Y-77430000D03*
%TO.P,J6,6,Pin_6*%
%TO.N,/PA3*%
X175000000Y-79970000D03*
%TO.P,J6,7,Pin_7*%
%TO.N,/NSS*%
X175000000Y-82510000D03*
%TO.P,J6,8,Pin_8*%
%TO.N,/PA5*%
X175000000Y-85050000D03*
%TO.P,J6,9,Pin_9*%
%TO.N,/MISO*%
X175000000Y-87590000D03*
%TO.P,J6,10,Pin_10*%
%TO.N,/MOSI*%
X175000000Y-90130000D03*
%TO.P,J6,11,Pin_11*%
%TO.N,VBUS*%
X175000000Y-92670000D03*
%TD*%
D12*
%TO.P,C4,1*%
%TO.N,Earth*%
X191510000Y-62920000D03*
%TO.P,C4,2*%
%TO.N,Net-(U2-VR_DIG)*%
X192470000Y-62920000D03*
%TD*%
D31*
%TO.P,Y1,1,1*%
%TO.N,/OSC8_IN*%
X182880000Y-80350000D03*
%TO.P,Y1,2,CRYSTAL__2*%
%TO.N,/OSC8_OUT*%
X187760000Y-80350000D03*
%TD*%
D32*
%TO.P,U4,1,D*%
%TO.N,/CAN_TX*%
X187385000Y-85305000D03*
%TO.P,U4,2,GND*%
%TO.N,Earth*%
X186115000Y-85305000D03*
%TO.P,U4,3,VCC*%
%TO.N,+3.3V*%
X184845000Y-85305000D03*
%TO.P,U4,4,R*%
%TO.N,/CAN_RX*%
X183575000Y-85305000D03*
%TO.P,U4,5,VREF*%
%TO.N,unconnected-(U4-VREF-Pad5)*%
X183575000Y-90245000D03*
%TO.P,U4,6,CANL*%
%TO.N,Net-(J5-Pin_1)*%
X184845000Y-90245000D03*
%TO.P,U4,7,CANH*%
%TO.N,Net-(J5-Pin_2)*%
X186115000Y-90245000D03*
%TO.P,U4,8,RS*%
%TO.N,Earth*%
X187385000Y-90245000D03*
%TD*%
D33*
%TO.P,XTAL1,1,1*%
%TO.N,/XTB*%
X191295000Y-66153900D03*
%TO.P,XTAL1,2,2*%
%TO.N,Earth*%
X192645000Y-66153900D03*
%TO.P,XTAL1,3,3*%
%TO.N,/XTA*%
X192645000Y-64706100D03*
%TO.P,XTAL1,4,4*%
%TO.N,Earth*%
X191295000Y-64706100D03*
%TD*%
D12*
%TO.P,C12,1*%
%TO.N,Earth*%
X191510000Y-61835000D03*
%TO.P,C12,2*%
%TO.N,+3.3V*%
X192470000Y-61835000D03*
%TD*%
D18*
%TO.P,C37,1*%
%TO.N,Earth*%
X186400000Y-60450000D03*
%TO.P,C37,2*%
%TO.N,/NRST*%
X186400000Y-61410000D03*
%TD*%
D12*
%TO.P,C17,1*%
%TO.N,Net-(C17-Pad1)*%
X199930000Y-54690000D03*
%TO.P,C17,2*%
%TO.N,Earth*%
X200890000Y-54690000D03*
%TD*%
D20*
%TO.P,R8,1*%
%TO.N,Net-(D1-A)*%
X216920000Y-84920000D03*
%TO.P,R8,2*%
%TO.N,Net-(U1-PC13-TAMPER-RTC)*%
X216920000Y-85940000D03*
%TD*%
D34*
%TO.P,J2,1*%
%TO.N,Earth*%
X198465000Y-48800000D03*
D35*
%TO.P,J2,2*%
%TO.N,Net-(C38-Pad1)*%
X199940000Y-50325000D03*
D34*
%TO.P,J2,3*%
%TO.N,Earth*%
X201415000Y-48800000D03*
%TD*%
D16*
%TO.P,R6,1*%
%TO.N,/D1+*%
X204600000Y-92010000D03*
%TO.P,R6,2*%
%TO.N,/D+*%
X205620000Y-92010000D03*
%TD*%
D15*
%TO.P,R12,1*%
%TO.N,/PB10*%
X212190000Y-66390000D03*
%TO.P,R12,2*%
%TO.N,+3.3V*%
X211170000Y-66390000D03*
%TD*%
D17*
%TO.P,C6,1*%
%TO.N,+3.3V*%
X192090000Y-89270000D03*
%TO.P,C6,2*%
%TO.N,Earth*%
X192090000Y-88310000D03*
%TD*%
D21*
%TO.P,C35,1*%
%TO.N,Earth*%
X183330000Y-68550000D03*
%TO.P,C35,2*%
%TO.N,/OSC32_IN*%
X182370000Y-68550000D03*
%TD*%
D36*
%TO.P,U5,1,NC*%
%TO.N,unconnected-(U5-NC-Pad1)*%
X212235000Y-62870000D03*
%TO.P,U5,2,VDD*%
%TO.N,+3.3V*%
X212235000Y-63870000D03*
%TO.P,U5,3,SCL*%
%TO.N,/PB10*%
X212235000Y-64870000D03*
%TO.P,U5,4,SDA*%
%TO.N,/PB11*%
X214205000Y-64870000D03*
%TO.P,U5,5,GND*%
%TO.N,Earth*%
X214205000Y-63870000D03*
%TO.P,U5,6,NC*%
%TO.N,unconnected-(U5-NC-Pad6)*%
X214205000Y-62870000D03*
%TD*%
D37*
%TO.P,U3,1,GND/ADJ*%
%TO.N,Earth*%
X195710000Y-88835000D03*
%TO.P,U3,2,VOUT*%
%TO.N,+3.3V*%
X198000000Y-88835000D03*
%TO.P,U3,3,VIN*%
%TO.N,VBUS*%
X200290000Y-88835000D03*
D38*
%TO.P,U3,4*%
%TO.N,N/C*%
X198000000Y-82145000D03*
%TD*%
D39*
%TO.P,U1,1,VBAT*%
%TO.N,+3.3V*%
X193099750Y-74531163D03*
%TO.P,U1,2,PC13-TAMPER-RTC*%
%TO.N,Net-(U1-PC13-TAMPER-RTC)*%
X193453303Y-74884716D03*
%TO.P,U1,3,PC14-OSC32_IN*%
%TO.N,/OSC32_IN*%
X193806857Y-75238269D03*
%TO.P,U1,4,PC15-OSC32_OUT*%
%TO.N,/OSC32_OUT*%
X194160410Y-75591823D03*
%TO.P,U1,5,PD0_OSC_IN*%
%TO.N,/OSC8_IN*%
X194513964Y-75945376D03*
%TO.P,U1,6,PD1_OSC_OUT*%
%TO.N,/OSC8_OUT*%
X194867517Y-76298930D03*
%TO.P,U1,7,NRST*%
%TO.N,/NRST*%
X195221070Y-76652483D03*
%TO.P,U1,8,VSSA*%
%TO.N,Earth*%
X195574624Y-77006036D03*
%TO.P,U1,9,VDDA*%
%TO.N,+3.3V*%
X195928177Y-77359590D03*
%TO.P,U1,10,PA0_WKUP*%
%TO.N,/PA0*%
X196281731Y-77713143D03*
%TO.P,U1,11,PA1*%
%TO.N,/PA1*%
X196635284Y-78066697D03*
%TO.P,U1,12,PA2*%
%TO.N,/PA2*%
X196988837Y-78420250D03*
D40*
%TO.P,U1,13,PA3*%
%TO.N,/PA3*%
X199011163Y-78420250D03*
%TO.P,U1,14,PA4*%
%TO.N,/NSS*%
X199364716Y-78066697D03*
%TO.P,U1,15,PA5*%
%TO.N,/PA5*%
X199718269Y-77713143D03*
%TO.P,U1,16,PA6*%
%TO.N,/MISO*%
X200071823Y-77359590D03*
%TO.P,U1,17,PA7*%
%TO.N,/MOSI*%
X200425376Y-77006036D03*
%TO.P,U1,18,PB0*%
%TO.N,/PB0*%
X200778930Y-76652483D03*
%TO.P,U1,19,PB1*%
%TO.N,/PB1*%
X201132483Y-76298930D03*
%TO.P,U1,20,PB2*%
%TO.N,Net-(U1-PB2)*%
X201486036Y-75945376D03*
%TO.P,U1,21,PB10*%
%TO.N,/PB10*%
X201839590Y-75591823D03*
%TO.P,U1,22,PB11*%
%TO.N,/PB11*%
X202193143Y-75238269D03*
%TO.P,U1,23,VSS*%
%TO.N,Earth*%
X202546697Y-74884716D03*
%TO.P,U1,24,VDD*%
%TO.N,+3.3V*%
X202900250Y-74531163D03*
D39*
%TO.P,U1,25,PB12*%
%TO.N,/PB12*%
X202900250Y-72508837D03*
%TO.P,U1,26,PB13*%
%TO.N,/PB13*%
X202546697Y-72155284D03*
%TO.P,U1,27,PB14*%
%TO.N,/PB14*%
X202193143Y-71801731D03*
%TO.P,U1,28,PB15*%
%TO.N,/PB15*%
X201839590Y-71448177D03*
%TO.P,U1,29,PA8*%
%TO.N,/PA8*%
X201486036Y-71094624D03*
%TO.P,U1,30,PA9*%
%TO.N,/DIO4*%
X201132483Y-70741070D03*
%TO.P,U1,31,PA10*%
%TO.N,/DIO5*%
X200778930Y-70387517D03*
%TO.P,U1,32,PA11*%
%TO.N,/D-*%
X200425376Y-70033964D03*
%TO.P,U1,33,PA12*%
%TO.N,/D+*%
X200071823Y-69680410D03*
%TO.P,U1,34,PA13*%
%TO.N,/SWDIO*%
X199718269Y-69326857D03*
%TO.P,U1,35,VSS*%
%TO.N,Earth*%
X199364716Y-68973303D03*
%TO.P,U1,36,VDD*%
%TO.N,+3.3V*%
X199011163Y-68619750D03*
D40*
%TO.P,U1,37,PA14*%
%TO.N,/SWCLK*%
X196988837Y-68619750D03*
%TO.P,U1,38,PA15*%
%TO.N,/PA15*%
X196635284Y-68973303D03*
%TO.P,U1,39,PB3*%
%TO.N,/NRESET*%
X196281731Y-69326857D03*
%TO.P,U1,40,PB4*%
%TO.N,/DIO3*%
X195928177Y-69680410D03*
%TO.P,U1,41,PB5*%
%TO.N,/DIO2*%
X195574624Y-70033964D03*
%TO.P,U1,42,PB6*%
%TO.N,/DIO1*%
X195221070Y-70387517D03*
%TO.P,U1,43,PB7*%
%TO.N,/DIO0*%
X194867517Y-70741070D03*
%TO.P,U1,44,BOOT0*%
%TO.N,Net-(U1-BOOT0)*%
X194513964Y-71094624D03*
%TO.P,U1,45,PB8*%
%TO.N,/CAN_RX*%
X194160410Y-71448177D03*
%TO.P,U1,46,PB9*%
%TO.N,/CAN_TX*%
X193806857Y-71801731D03*
%TO.P,U1,47,VSS*%
%TO.N,Earth*%
X193453303Y-72155284D03*
%TO.P,U1,48,VDD*%
%TO.N,+3.3V*%
X193099750Y-72508837D03*
%TD*%
D17*
%TO.P,C34,1*%
%TO.N,Earth*%
X192740000Y-83150000D03*
%TO.P,C34,2*%
%TO.N,/OSC8_OUT*%
X192740000Y-82190000D03*
%TD*%
D21*
%TO.P,C2,1*%
%TO.N,/XTB*%
X189850000Y-66150000D03*
%TO.P,C2,2*%
%TO.N,Earth*%
X188890000Y-66150000D03*
%TD*%
D18*
%TO.P,C16,1*%
%TO.N,Net-(C16-Pad1)*%
X199960000Y-57660000D03*
%TO.P,C16,2*%
%TO.N,/RFO_HF*%
X199960000Y-58620000D03*
%TD*%
%TO.P,C11,1*%
%TO.N,Earth*%
X193470000Y-57550000D03*
%TO.P,C11,2*%
%TO.N,+3.3V*%
X193470000Y-58510000D03*
%TD*%
D19*
%TO.P,L1,1,1*%
%TO.N,/VR_PA*%
X197935000Y-58570000D03*
%TO.P,L1,2,2*%
%TO.N,/RFO_HF*%
X198905000Y-58570000D03*
%TD*%
D17*
%TO.P,C5,1*%
%TO.N,+3.3V*%
X193670000Y-89270000D03*
%TO.P,C5,2*%
%TO.N,Earth*%
X193670000Y-88310000D03*
%TD*%
D41*
%TO.P,SW1,1,1*%
%TO.N,Earth*%
X178300000Y-58920000D03*
X184600000Y-58920000D03*
%TO.P,SW1,2,2*%
%TO.N,/NRST*%
X178300000Y-62720000D03*
X184600000Y-62720000D03*
%TD*%
D21*
%TO.P,C1,1*%
%TO.N,/XTA*%
X189840000Y-64680000D03*
%TO.P,C1,2*%
%TO.N,Earth*%
X188880000Y-64680000D03*
%TD*%
D42*
%TO.P,Y2,1*%
%TO.N,/OSC32_OUT*%
X182440000Y-73650000D03*
%TO.P,Y2,2,NC*%
%TO.N,unconnected-(Y2-NC-Pad2)*%
X187940000Y-73650000D03*
%TO.P,Y2,3,NC*%
%TO.N,unconnected-(Y2-NC-Pad3)*%
X187940000Y-70450000D03*
%TO.P,Y2,4*%
%TO.N,/OSC32_IN*%
X182440000Y-70450000D03*
%TD*%
D18*
%TO.P,C30,1*%
%TO.N,+3.3V*%
X194790000Y-79660000D03*
%TO.P,C30,2*%
%TO.N,Earth*%
X194790000Y-80620000D03*
%TD*%
D43*
%TO.N,Earth*%
X217310000Y-71280000D03*
X193680000Y-87490000D03*
X193365500Y-66160000D03*
X190730000Y-61810000D03*
X188900000Y-66960000D03*
X203360000Y-95570000D03*
X194520000Y-56730000D03*
X208690000Y-63870000D03*
X205230000Y-67440000D03*
X197970000Y-63230000D03*
X201790000Y-51680000D03*
X213140000Y-91980000D03*
X193470000Y-56730000D03*
X201630000Y-54710000D03*
X203740000Y-87600000D03*
X205250000Y-66210000D03*
X204340000Y-60850000D03*
X190740000Y-62900000D03*
X192820000Y-80590000D03*
X192090000Y-87490000D03*
X204850000Y-76290000D03*
X202360000Y-87620000D03*
X199320000Y-59300000D03*
X181980000Y-85110000D03*
X208430000Y-86850000D03*
X185060000Y-75610000D03*
X197360000Y-59330000D03*
X192410000Y-71060000D03*
X190730000Y-65290000D03*
X215510000Y-63890000D03*
X192530000Y-95570000D03*
X201550000Y-65130000D03*
X199310000Y-91690000D03*
X194568005Y-77978005D03*
X189770000Y-73920000D03*
X192710000Y-84330000D03*
X203180000Y-48820000D03*
X203550000Y-75870000D03*
X188660000Y-90290000D03*
X213140000Y-69084500D03*
X196500000Y-48760000D03*
X201820000Y-67644500D03*
X177790000Y-83910000D03*
X184600000Y-57310000D03*
X190410000Y-69990000D03*
X195700000Y-87690000D03*
X186140000Y-86950000D03*
X188880000Y-63770000D03*
X196850000Y-56720000D03*
X184050000Y-68570000D03*
X195800000Y-56720000D03*
X190740000Y-60750000D03*
X216110000Y-87700000D03*
%TO.N,+3.3V*%
X193470000Y-59200000D03*
X211130000Y-89030000D03*
X191380000Y-70000000D03*
X191450000Y-73170000D03*
X203990000Y-65460000D03*
X215190000Y-67340000D03*
X210620000Y-64630000D03*
X198584291Y-59300000D03*
X211300000Y-91230000D03*
X192790000Y-79630000D03*
X192100000Y-90200000D03*
X182680000Y-64520000D03*
X204820000Y-74010000D03*
X193250000Y-61820000D03*
X194520000Y-59200000D03*
X203004500Y-67915500D03*
X182010000Y-87610000D03*
X211160000Y-67320000D03*
%TO.N,VBUS*%
X203730000Y-90160000D03*
X203830000Y-93140000D03*
X196700000Y-91300000D03*
%TO.N,/PA0*%
X195440000Y-78660000D03*
%TO.N,/PA1*%
X195830000Y-79520000D03*
%TO.N,/PA2*%
X196040665Y-80376165D03*
%TO.N,/PA3*%
X199000000Y-80010000D03*
%TO.N,/NSS*%
X199900000Y-80070000D03*
X198300000Y-75940000D03*
X204540000Y-62530000D03*
%TO.N,/PA5*%
X200590000Y-80960000D03*
X198849887Y-76810113D03*
X206300000Y-68867000D03*
%TO.N,/MISO*%
X201140000Y-79570000D03*
X198660000Y-75005500D03*
X202790000Y-63710000D03*
%TO.N,/MOSI*%
X202170000Y-81090000D03*
X203680000Y-63180000D03*
X199540000Y-75005500D03*
%TO.N,/PA8*%
X216110000Y-69560000D03*
X202440000Y-70100000D03*
%TO.N,/PA15*%
X194761000Y-67850000D03*
%TO.N,/PB0*%
X201690000Y-77650000D03*
%TO.N,/PB1*%
X202682845Y-77885355D03*
%TO.N,/PB10*%
X205790000Y-72480000D03*
X196378415Y-73431585D03*
X207690000Y-72510000D03*
%TO.N,/DIO3*%
X197080000Y-70400000D03*
X197690000Y-67240000D03*
%TO.N,/DIO5*%
X199250000Y-67340000D03*
X198160000Y-70320000D03*
%TO.N,/NRESET*%
X195275187Y-68390313D03*
X194460000Y-65690000D03*
%TO.N,/PB11*%
X203800000Y-76930000D03*
X208064869Y-77017329D03*
%TO.N,/PB12*%
X204330000Y-72610000D03*
%TO.N,/PB13*%
X203860000Y-71330000D03*
%TO.N,/PB14*%
X203510000Y-70480000D03*
%TO.N,/PB15*%
X204240000Y-70004500D03*
%TO.N,Net-(U1-BOOT0)*%
X195700000Y-72130000D03*
X207960000Y-80800000D03*
%TO.N,Net-(U1-PB2)*%
X207890000Y-79920000D03*
X206010000Y-79910000D03*
%TO.N,Net-(U1-PC13-TAMPER-RTC)*%
X205990000Y-82130000D03*
X196492500Y-75570000D03*
X208000000Y-82140000D03*
X195350000Y-74900000D03*
%TO.N,/SWCLK*%
X195980000Y-67749500D03*
%TO.N,/SWDIO*%
X200770593Y-68310593D03*
%TO.N,/CAN_RX*%
X195240000Y-73260000D03*
X189960000Y-83510000D03*
%TO.N,/CAN_TX*%
X188480000Y-84410000D03*
X194460000Y-73080000D03*
%TD*%
D44*
%TO.N,Earth*%
X203730000Y-87610000D02*
X203740000Y-87600000D01*
D45*
X204335000Y-60855000D02*
X204340000Y-60850000D01*
D46*
X217305000Y-71275000D02*
X217310000Y-71280000D01*
D45*
X208470000Y-85940000D02*
X208470000Y-86810000D01*
D44*
X184600000Y-58920000D02*
X184600000Y-57310000D01*
D45*
X200623513Y-67644500D02*
X200195593Y-68072420D01*
D44*
X199300000Y-92885000D02*
X198650000Y-92885000D01*
D45*
X201820000Y-67644500D02*
X200623513Y-67644500D01*
X190755000Y-61835000D02*
X190730000Y-61810000D01*
X195539974Y-77006036D02*
X194568005Y-77978005D01*
X186115000Y-86925000D02*
X186140000Y-86950000D01*
D44*
X201800000Y-95560000D02*
X203350000Y-95560000D01*
D45*
X192740000Y-84300000D02*
X192740000Y-83150000D01*
D44*
X200890000Y-54690000D02*
X201610000Y-54690000D01*
X202340000Y-87640000D02*
X202360000Y-87620000D01*
D45*
X185060000Y-75610000D02*
X184420000Y-75610000D01*
X177800000Y-83900000D02*
X177790000Y-83910000D01*
X193359400Y-66153900D02*
X193365500Y-66160000D01*
D44*
X199300000Y-91700000D02*
X199310000Y-91690000D01*
D45*
X193453303Y-72155284D02*
X192410000Y-71111981D01*
D47*
X192090000Y-88310000D02*
X192090000Y-87490000D01*
D45*
X184420000Y-75610000D02*
X184410000Y-75620000D01*
X188890000Y-66950000D02*
X188900000Y-66960000D01*
X192410000Y-71111981D02*
X192410000Y-71060000D01*
X191510000Y-61835000D02*
X190755000Y-61835000D01*
X181980000Y-85800000D02*
X181980000Y-85110000D01*
X204830000Y-76270000D02*
X204850000Y-76290000D01*
D44*
X201800000Y-95560000D02*
X201800000Y-93710000D01*
D45*
X190760000Y-62920000D02*
X190740000Y-62900000D01*
D44*
X214510000Y-87710000D02*
X216100000Y-87710000D01*
X201610000Y-54690000D02*
X201630000Y-54710000D01*
X212270000Y-91980000D02*
X213140000Y-91980000D01*
D45*
X197350000Y-60225000D02*
X197350000Y-59340000D01*
X201550000Y-65130000D02*
X200955000Y-65130000D01*
X205250000Y-66210000D02*
X205240000Y-66200000D01*
X192840000Y-80610000D02*
X192820000Y-80590000D01*
X198000000Y-63200000D02*
X197970000Y-63230000D01*
D44*
X195790000Y-57525000D02*
X195790000Y-56730000D01*
D45*
X191295000Y-64725000D02*
X190730000Y-65290000D01*
X186115000Y-85305000D02*
X186115000Y-86925000D01*
X203525000Y-60855000D02*
X204335000Y-60855000D01*
X193680000Y-80620000D02*
X193670000Y-80610000D01*
D44*
X201800000Y-93710000D02*
X201100000Y-93010000D01*
D47*
X195710000Y-87700000D02*
X195700000Y-87690000D01*
D44*
X202340000Y-88310000D02*
X202340000Y-87640000D01*
X198465000Y-48800000D02*
X196540000Y-48800000D01*
X193470000Y-57550000D02*
X193470000Y-56730000D01*
D45*
X190400000Y-70000000D02*
X190410000Y-69990000D01*
D44*
X194200000Y-93710000D02*
X194900000Y-93010000D01*
D45*
X202564716Y-74884716D02*
X203550000Y-75870000D01*
D44*
X194200000Y-95560000D02*
X192540000Y-95560000D01*
D45*
X188890000Y-66150000D02*
X188890000Y-66950000D01*
X200195593Y-68142426D02*
X199364716Y-68973303D01*
X191295000Y-64706100D02*
X191295000Y-64725000D01*
D44*
X194520000Y-57560000D02*
X194520000Y-56730000D01*
X194200000Y-95560000D02*
X201800000Y-95560000D01*
D45*
X197350000Y-59340000D02*
X197360000Y-59330000D01*
D44*
X201415000Y-48800000D02*
X203160000Y-48800000D01*
D45*
X184030000Y-68550000D02*
X184050000Y-68570000D01*
X195574624Y-77006036D02*
X195539974Y-77006036D01*
D46*
X212635000Y-71275000D02*
X212635000Y-69589500D01*
D45*
X194790000Y-80620000D02*
X194210000Y-80620000D01*
X190400000Y-70890000D02*
X190400000Y-70000000D01*
X205230000Y-67440000D02*
X204440000Y-67440000D01*
D44*
X199300000Y-92885000D02*
X199300000Y-91700000D01*
D45*
X214205000Y-63870000D02*
X215490000Y-63870000D01*
X209680000Y-63860000D02*
X208700000Y-63860000D01*
X190480000Y-73910000D02*
X189780000Y-73910000D01*
D44*
X178300000Y-58920000D02*
X184600000Y-58920000D01*
X196850000Y-57545000D02*
X196850000Y-56720000D01*
D46*
X215175000Y-71275000D02*
X217305000Y-71275000D01*
D45*
X199300000Y-60225000D02*
X199300000Y-59320000D01*
X204440000Y-67440000D02*
X204430000Y-67450000D01*
D44*
X195790000Y-56730000D02*
X195800000Y-56720000D01*
D45*
X205240000Y-66200000D02*
X204420000Y-66200000D01*
D44*
X216100000Y-87710000D02*
X216110000Y-87700000D01*
D45*
X215490000Y-63870000D02*
X215510000Y-63890000D01*
D44*
X203160000Y-48800000D02*
X203180000Y-48820000D01*
X201790000Y-51680000D02*
X200870000Y-51680000D01*
X203350000Y-95560000D02*
X203360000Y-95570000D01*
D45*
X183330000Y-68550000D02*
X184030000Y-68550000D01*
X208700000Y-63860000D02*
X208690000Y-63870000D01*
D46*
X212635000Y-69589500D02*
X213140000Y-69084500D01*
D45*
X188615000Y-90245000D02*
X188660000Y-90290000D01*
D44*
X186400000Y-60450000D02*
X186130000Y-60450000D01*
D45*
X204830000Y-75670000D02*
X204830000Y-76270000D01*
X208470000Y-86810000D02*
X208430000Y-86850000D01*
X202546697Y-74884716D02*
X202564716Y-74884716D01*
X187385000Y-90245000D02*
X188615000Y-90245000D01*
X192710000Y-84330000D02*
X192740000Y-84300000D01*
X188880000Y-64680000D02*
X188880000Y-63770000D01*
X177800000Y-83170000D02*
X177800000Y-83900000D01*
D44*
X203730000Y-88310000D02*
X203730000Y-87610000D01*
D45*
X192645000Y-66153900D02*
X193359400Y-66153900D01*
X191510000Y-60750000D02*
X190740000Y-60750000D01*
D44*
X194200000Y-95560000D02*
X194200000Y-93710000D01*
X186130000Y-60450000D02*
X184600000Y-58920000D01*
X192540000Y-95560000D02*
X192530000Y-95570000D01*
D45*
X200195593Y-68072420D02*
X200195593Y-68142426D01*
D47*
X195710000Y-88835000D02*
X195710000Y-87700000D01*
D45*
X189780000Y-73910000D02*
X189770000Y-73920000D01*
D47*
X193670000Y-87500000D02*
X193680000Y-87490000D01*
X193670000Y-88310000D02*
X193670000Y-87500000D01*
D45*
X199300000Y-59320000D02*
X199320000Y-59300000D01*
X198000000Y-63180000D02*
X198000000Y-63200000D01*
X194210000Y-80620000D02*
X193680000Y-80620000D01*
X193670000Y-80610000D02*
X192840000Y-80610000D01*
X191510000Y-62920000D02*
X190760000Y-62920000D01*
%TO.N,/XTB*%
X193890000Y-65267879D02*
X194677879Y-64480000D01*
X193027963Y-67240000D02*
X193890000Y-66377963D01*
X192381100Y-67240000D02*
X193027963Y-67240000D01*
X189853900Y-66153900D02*
X189850000Y-66150000D01*
X193890000Y-66377963D02*
X193890000Y-65267879D01*
X194677879Y-64480000D02*
X195045000Y-64480000D01*
X191295000Y-66153900D02*
X189853900Y-66153900D01*
X191295000Y-66153900D02*
X192381100Y-67240000D01*
%TO.N,Net-(U2-VR_ANA)*%
X195045000Y-61880000D02*
X194230000Y-61880000D01*
X193100000Y-60750000D02*
X192470000Y-60750000D01*
X194230000Y-61880000D02*
X193100000Y-60750000D01*
%TO.N,Net-(U2-VR_DIG)*%
X192730000Y-63180000D02*
X192470000Y-62920000D01*
X195045000Y-63180000D02*
X192730000Y-63180000D01*
%TO.N,+3.3V*%
X193670000Y-79650000D02*
X192810000Y-79650000D01*
X193670000Y-79650000D02*
X194780000Y-79650000D01*
X193099750Y-74519750D02*
X192490000Y-73910000D01*
X191440000Y-73910000D02*
X191440000Y-73180000D01*
X215190000Y-66520000D02*
X215190000Y-67340000D01*
X183840016Y-86760000D02*
X181980000Y-86760000D01*
D44*
X183610000Y-64540000D02*
X182700000Y-64540000D01*
D45*
X191440000Y-73180000D02*
X191450000Y-73170000D01*
X202900250Y-74531163D02*
X204651163Y-74531163D01*
X192470000Y-61835000D02*
X193235000Y-61835000D01*
X203990000Y-65460000D02*
X203460000Y-65990000D01*
X199950000Y-66135000D02*
X203395000Y-66135000D01*
D44*
X182700000Y-64540000D02*
X182680000Y-64520000D01*
D45*
X210640000Y-64610000D02*
X210620000Y-64630000D01*
X210640000Y-63860000D02*
X210640000Y-64610000D01*
X198650000Y-60225000D02*
X198650000Y-59365709D01*
X193099750Y-74531163D02*
X193099750Y-74519750D01*
X193165000Y-62530000D02*
X192470000Y-61835000D01*
D47*
X198000000Y-88835000D02*
X197895000Y-88835000D01*
D45*
X192810000Y-79650000D02*
X192790000Y-79630000D01*
X194520000Y-58520000D02*
X194520000Y-59200000D01*
X193470000Y-58510000D02*
X193470000Y-59200000D01*
X203004500Y-67915500D02*
X203470000Y-67450000D01*
D44*
X208850000Y-94440000D02*
X211310000Y-91980000D01*
D45*
X181980000Y-86760000D02*
X181980000Y-87580000D01*
X181980000Y-87580000D02*
X182010000Y-87610000D01*
X191360000Y-70020000D02*
X191380000Y-70000000D01*
D47*
X192090000Y-90190000D02*
X192100000Y-90200000D01*
D45*
X211170000Y-67310000D02*
X211160000Y-67320000D01*
X192978837Y-72508837D02*
X191360000Y-70890000D01*
D44*
X208850000Y-94640000D02*
X208850000Y-94440000D01*
D45*
X198650000Y-59365709D02*
X198584291Y-59300000D01*
D44*
X211120000Y-87710000D02*
X211120000Y-89020000D01*
D47*
X193670000Y-89650000D02*
X193670000Y-89270000D01*
D45*
X193099750Y-72508837D02*
X192978837Y-72508837D01*
D47*
X193670000Y-89270000D02*
X192090000Y-89270000D01*
D45*
X194790000Y-78497767D02*
X195928177Y-77359590D01*
X184845000Y-85755016D02*
X183840016Y-86760000D01*
D47*
X192090000Y-89270000D02*
X192090000Y-90190000D01*
D44*
X211310000Y-91980000D02*
X211310000Y-91240000D01*
D45*
X194780000Y-79650000D02*
X194790000Y-79660000D01*
X203395000Y-66135000D02*
X203460000Y-66200000D01*
X211170000Y-66390000D02*
X211170000Y-67310000D01*
X191360000Y-70890000D02*
X191360000Y-70020000D01*
X192490000Y-73910000D02*
X191440000Y-73910000D01*
X212225000Y-63860000D02*
X212235000Y-63870000D01*
X194790000Y-79660000D02*
X194790000Y-78497767D01*
X210640000Y-63860000D02*
X212225000Y-63860000D01*
D47*
X194430000Y-90410000D02*
X193670000Y-89650000D01*
D45*
X204830000Y-74710000D02*
X204830000Y-74020000D01*
X184845000Y-85305000D02*
X184845000Y-85755016D01*
D44*
X211310000Y-91240000D02*
X211300000Y-91230000D01*
D45*
X193235000Y-61835000D02*
X193250000Y-61820000D01*
X203460000Y-65990000D02*
X203460000Y-66200000D01*
X203090000Y-67070000D02*
X203470000Y-67450000D01*
X204651163Y-74531163D02*
X204830000Y-74710000D01*
D44*
X211120000Y-89020000D02*
X211130000Y-89030000D01*
D47*
X197895000Y-88835000D02*
X196320000Y-90410000D01*
D45*
X199011163Y-68619750D02*
X200560913Y-67070000D01*
X195045000Y-62530000D02*
X193165000Y-62530000D01*
X204830000Y-74020000D02*
X204820000Y-74010000D01*
X200560913Y-67070000D02*
X203090000Y-67070000D01*
D47*
X196320000Y-90410000D02*
X194430000Y-90410000D01*
%TO.N,VBUS*%
X203730000Y-90160000D02*
X203730000Y-89270000D01*
X200725000Y-89270000D02*
X200290000Y-88835000D01*
X202340000Y-89270000D02*
X200725000Y-89270000D01*
X203730000Y-89270000D02*
X202340000Y-89270000D01*
X196700000Y-92885000D02*
X196700000Y-91300000D01*
D45*
X204620000Y-93140000D02*
X203830000Y-93140000D01*
D44*
%TO.N,/VR_PA*%
X195790000Y-58485000D02*
X196830000Y-58485000D01*
X197935000Y-58570000D02*
X198010000Y-58645000D01*
X197870000Y-58505000D02*
X197935000Y-58570000D01*
X196830000Y-58485000D02*
X196850000Y-58505000D01*
X198010000Y-60215000D02*
X198000000Y-60225000D01*
X198010000Y-58645000D02*
X198010000Y-60215000D01*
X196850000Y-58505000D02*
X197870000Y-58505000D01*
%TO.N,/RFI_HF*%
X202555000Y-58635000D02*
X202555000Y-60855000D01*
X202530000Y-58610000D02*
X202555000Y-58635000D01*
X200955000Y-61230000D02*
X201765786Y-61230000D01*
X202472893Y-60937107D02*
X202555000Y-60855000D01*
X201765786Y-61229990D02*
G75*
G03*
X202472893Y-60937107I14J999990D01*
G01*
%TO.N,/RFO_HF*%
X198955000Y-58620000D02*
X198905000Y-58570000D01*
X199950000Y-60225000D02*
X199950000Y-58630000D01*
X199970000Y-58610000D02*
X199960000Y-58620000D01*
X199960000Y-58620000D02*
X198955000Y-58620000D01*
X199950000Y-58630000D02*
X199960000Y-58620000D01*
X201570000Y-58610000D02*
X199970000Y-58610000D01*
%TO.N,Net-(C16-Pad1)*%
X199960000Y-57660000D02*
X199960000Y-56685000D01*
X199960000Y-56685000D02*
X199950000Y-56675000D01*
%TO.N,Net-(C17-Pad1)*%
X199950000Y-55705000D02*
X199950000Y-54560000D01*
X199940000Y-53655000D02*
X199940000Y-54680000D01*
D45*
%TO.N,/OSC32_IN*%
X187805023Y-75815023D02*
X193230103Y-75815023D01*
X193230103Y-75815023D02*
X193806857Y-75238269D01*
X182440000Y-68620000D02*
X182370000Y-68550000D01*
X182440000Y-70450000D02*
X187805023Y-75815023D01*
X182440000Y-70450000D02*
X182440000Y-68620000D01*
%TO.N,/OSC32_OUT*%
X194160410Y-75591823D02*
X193072233Y-76680000D01*
X182440000Y-74610000D02*
X182440000Y-73650000D01*
X183450000Y-75620000D02*
X182440000Y-74610000D01*
X183450000Y-75870000D02*
X183450000Y-75620000D01*
X184260000Y-76680000D02*
X183450000Y-75870000D01*
X193072233Y-76680000D02*
X184260000Y-76680000D01*
D44*
%TO.N,/NRST*%
X184600000Y-62720000D02*
X178300000Y-62720000D01*
X185910000Y-61410000D02*
X184600000Y-62720000D01*
X186400000Y-61410000D02*
X185910000Y-61410000D01*
D46*
X189680000Y-69000000D02*
X185220000Y-64540000D01*
X192870000Y-73570000D02*
X191140000Y-71840000D01*
X195221070Y-76652483D02*
X195980000Y-75893553D01*
X191140000Y-71840000D02*
X190206000Y-71840000D01*
X194700000Y-73570000D02*
X192870000Y-73570000D01*
D44*
X184600000Y-62720000D02*
X184600000Y-64510000D01*
D46*
X189680000Y-71314000D02*
X189680000Y-69000000D01*
X190206000Y-71840000D02*
X189680000Y-71314000D01*
D44*
X184600000Y-64510000D02*
X184630000Y-64540000D01*
D46*
X195980000Y-75893553D02*
X195980000Y-74850000D01*
X195980000Y-74850000D02*
X194700000Y-73570000D01*
X185220000Y-64540000D02*
X184630000Y-64540000D01*
D44*
%TO.N,Net-(C38-Pad1)*%
X199940000Y-51710000D02*
X199940000Y-52685000D01*
X199910000Y-51680000D02*
X199910000Y-50355000D01*
X199910000Y-51680000D02*
X199940000Y-51710000D01*
X199910000Y-50355000D02*
X199940000Y-50325000D01*
D45*
%TO.N,Net-(D2-K)*%
X211110000Y-84920000D02*
X211120000Y-84910000D01*
X208470000Y-84920000D02*
X211110000Y-84920000D01*
D48*
%TO.N,/D1+*%
X199667414Y-90825000D02*
X203051525Y-90825000D01*
X198000000Y-92410000D02*
X197900000Y-92310000D01*
X203051525Y-90825000D02*
X203336505Y-91109980D01*
X203336505Y-91109980D02*
X203699980Y-91109980D01*
X197900000Y-92310000D02*
X197900000Y-92178200D01*
X203699980Y-91109980D02*
X204600000Y-92010000D01*
X198000000Y-92885000D02*
X198000000Y-92410000D01*
X197900000Y-92178200D02*
X198960307Y-91117893D01*
X199667414Y-90825010D02*
G75*
G03*
X198960307Y-91117893I-14J-999990D01*
G01*
%TO.N,/D1-*%
X197350000Y-92410000D02*
X197450000Y-92310000D01*
X197350000Y-92885000D02*
X197350000Y-92410000D01*
X204156397Y-90930000D02*
X204620000Y-90930000D01*
X197450000Y-92310000D02*
X197450000Y-91991800D01*
X203886397Y-90660000D02*
X204156397Y-90930000D01*
X197450000Y-91991800D02*
X198773907Y-90667893D01*
X203237893Y-90375000D02*
X203522893Y-90660000D01*
X199481014Y-90375000D02*
X203237893Y-90375000D01*
X203522893Y-90660000D02*
X203886397Y-90660000D01*
X199481014Y-90375010D02*
G75*
G03*
X198773907Y-90667893I-14J-999990D01*
G01*
D46*
%TO.N,/BOOT0*%
X214905000Y-78925000D02*
X214615000Y-78925000D01*
X216325000Y-74965000D02*
X216325000Y-77505000D01*
X215175000Y-73815000D02*
X216325000Y-74965000D01*
X216325000Y-77505000D02*
X214905000Y-78925000D01*
D48*
%TO.N,/BOOT1*%
X213785000Y-74965000D02*
X213785000Y-78515000D01*
X213785000Y-78515000D02*
X213375000Y-78925000D01*
X212635000Y-73815000D02*
X213785000Y-74965000D01*
D45*
%TO.N,Net-(J5-Pin_1)*%
X184845000Y-90245000D02*
X184845000Y-92185000D01*
X184125000Y-93135000D02*
X184960000Y-92300000D01*
X184125000Y-94880000D02*
X184125000Y-93135000D01*
X184845000Y-92185000D02*
X184960000Y-92300000D01*
%TO.N,Net-(J5-Pin_2)*%
X186665000Y-92985000D02*
X185980000Y-92300000D01*
X186115000Y-90245000D02*
X186115000Y-92165000D01*
X186665000Y-94880000D02*
X186665000Y-92985000D01*
X186115000Y-92165000D02*
X185980000Y-92300000D01*
D46*
%TO.N,/PA0*%
X196281731Y-77713143D02*
X196281731Y-77818269D01*
X196281731Y-77818269D02*
X195440000Y-78660000D01*
%TO.N,/PA1*%
X195966000Y-78854773D02*
X196635284Y-78185489D01*
X195830000Y-79520000D02*
X195966000Y-79384000D01*
X195966000Y-79384000D02*
X195966000Y-78854773D01*
X196635284Y-78185489D02*
X196635284Y-78066697D01*
%TO.N,/PA2*%
X196988837Y-79427993D02*
X196988837Y-78420250D01*
X196040665Y-80376165D02*
X196988837Y-79427993D01*
%TO.N,/PA3*%
X199011163Y-79998837D02*
X199000000Y-80010000D01*
X199011163Y-78420250D02*
X199011163Y-79998837D01*
%TO.N,/NSS*%
X200955000Y-62530000D02*
X204540000Y-62530000D01*
X198323887Y-75963887D02*
X198323887Y-77027990D01*
X198300000Y-75940000D02*
X198323887Y-75963887D01*
X199900000Y-78601981D02*
X199364716Y-78066697D01*
X199900000Y-80070000D02*
X199900000Y-78601981D01*
X198323887Y-77027990D02*
X199362594Y-78066697D01*
X199362594Y-78066697D02*
X199364716Y-78066697D01*
%TO.N,/PA5*%
X199718269Y-77713143D02*
X199718269Y-77678495D01*
X199718269Y-77678495D02*
X198849887Y-76810113D01*
X206790000Y-67076834D02*
X204193166Y-64480000D01*
X206300000Y-68867000D02*
X206790000Y-68377000D01*
X199718269Y-77713143D02*
X200590000Y-78584874D01*
X206790000Y-68377000D02*
X206790000Y-67076834D01*
X200590000Y-78584874D02*
X200590000Y-80960000D01*
X204193166Y-64480000D02*
X200955000Y-64480000D01*
%TO.N,/MISO*%
X199375887Y-76565887D02*
X199180000Y-76370000D01*
X198660000Y-75270000D02*
X198660000Y-75005500D01*
D48*
X202790000Y-63710000D02*
X202670000Y-63830000D01*
D46*
X200071823Y-77359590D02*
X201140000Y-78427767D01*
X199375887Y-76663654D02*
X199375887Y-76565887D01*
X199180000Y-76370000D02*
X199180000Y-75790000D01*
X199180000Y-75790000D02*
X198660000Y-75270000D01*
X201140000Y-78427767D02*
X201140000Y-79570000D01*
X202670000Y-63830000D02*
X200955000Y-63830000D01*
X200071823Y-77359590D02*
X199375887Y-76663654D01*
%TO.N,/MOSI*%
X200955000Y-63180000D02*
X203680000Y-63180000D01*
X202170000Y-78959963D02*
X202170000Y-81090000D01*
X200953129Y-77533789D02*
X200953129Y-77743092D01*
X200953129Y-77743092D02*
X202170000Y-78959963D01*
X200425376Y-77006036D02*
X200953129Y-77533789D01*
X199540000Y-75005500D02*
X199540000Y-76120660D01*
X199540000Y-76120660D02*
X200425376Y-77006036D01*
%TO.N,/PA8*%
X220720000Y-69530000D02*
X221000000Y-69810000D01*
X201486036Y-71053964D02*
X202440000Y-70100000D01*
X216140000Y-69530000D02*
X220720000Y-69530000D01*
X216110000Y-69560000D02*
X216140000Y-69530000D01*
X201486036Y-71094624D02*
X201486036Y-71053964D01*
D48*
%TO.N,/D-*%
X206356496Y-90637107D02*
X206635000Y-90358603D01*
X205640000Y-90930000D02*
X205649389Y-90930000D01*
X200425376Y-69998609D02*
X200425376Y-70033964D01*
X201266092Y-69157893D02*
X200425376Y-69998609D01*
X206635000Y-90358603D02*
X206635000Y-71207414D01*
X206342107Y-70500307D02*
X204999693Y-69157893D01*
X204292586Y-68865000D02*
X201973199Y-68865000D01*
X205649389Y-90929992D02*
G75*
G03*
X206356496Y-90637107I11J999992D01*
G01*
X201973199Y-68864999D02*
G75*
G03*
X201266092Y-69157893I1J-1000001D01*
G01*
X204999700Y-69157886D02*
G75*
G03*
X204292586Y-68865000I-707100J-707114D01*
G01*
X206634990Y-71207414D02*
G75*
G03*
X206342107Y-70500307I-999990J14D01*
G01*
%TO.N,/D+*%
X205620000Y-93120000D02*
X205640000Y-93140000D01*
X207085000Y-90130786D02*
X207085000Y-71021014D01*
X204478986Y-68415000D02*
X201786801Y-68415000D01*
X205620000Y-92010000D02*
X205620000Y-93120000D01*
X201079694Y-68707893D02*
X200107177Y-69680410D01*
X205620000Y-92010000D02*
X206792107Y-90837893D01*
X206792107Y-70313907D02*
X205186093Y-68707893D01*
X200107177Y-69680410D02*
X200071823Y-69680410D01*
X207084990Y-71021014D02*
G75*
G03*
X206792107Y-70313907I-999990J14D01*
G01*
X201786801Y-68415001D02*
G75*
G03*
X201079694Y-68707893I-1J-999999D01*
G01*
X205186100Y-68707886D02*
G75*
G03*
X204478986Y-68415000I-707100J-707114D01*
G01*
X206792114Y-90837900D02*
G75*
G03*
X207085000Y-90130786I-707114J707100D01*
G01*
D46*
%TO.N,/PA15*%
X195407334Y-67850000D02*
X196530637Y-68973303D01*
X194761000Y-67850000D02*
X195407334Y-67850000D01*
X196530637Y-68973303D02*
X196635284Y-68973303D01*
%TO.N,/PB0*%
X201690000Y-77563553D02*
X200778930Y-76652483D01*
X201690000Y-77650000D02*
X201690000Y-77563553D01*
%TO.N,/PB1*%
X202682845Y-77849292D02*
X201132483Y-76298930D01*
X202682845Y-77885355D02*
X202682845Y-77849292D01*
%TO.N,/PB10*%
X207690000Y-71463166D02*
X212190000Y-66963166D01*
X204403166Y-77410000D02*
X203606834Y-77410000D01*
X203606834Y-77410000D02*
X201839590Y-75642756D01*
X199679352Y-73431585D02*
X201839590Y-75591823D01*
X205790000Y-72480000D02*
X205790000Y-76023166D01*
X212190000Y-66963166D02*
X212190000Y-66390000D01*
X207690000Y-72510000D02*
X207690000Y-71463166D01*
X212190000Y-66390000D02*
X212190000Y-64915000D01*
X205790000Y-76023166D02*
X204403166Y-77410000D01*
X196378415Y-73431585D02*
X199679352Y-73431585D01*
X201839590Y-75642756D02*
X201839590Y-75591823D01*
X212190000Y-64915000D02*
X212235000Y-64870000D01*
%TO.N,/DIO0*%
X194807226Y-66135000D02*
X193508000Y-67434226D01*
X193508000Y-69381553D02*
X194867517Y-70741070D01*
X196050000Y-66135000D02*
X194807226Y-66135000D01*
X193508000Y-67434226D02*
X193508000Y-69381553D01*
%TO.N,/DIO1*%
X196700000Y-66460000D02*
X196238500Y-66921500D01*
X196700000Y-66135000D02*
X196700000Y-66460000D01*
X194518530Y-66921500D02*
X193860000Y-67580030D01*
X193860000Y-69026447D02*
X194972168Y-70138615D01*
X193860000Y-67580030D02*
X193860000Y-69026447D01*
X196238500Y-66921500D02*
X194518530Y-66921500D01*
%TO.N,/DIO2*%
X194664334Y-67273500D02*
X194285000Y-67652834D01*
X194285000Y-68744340D02*
X195325722Y-69785062D01*
X197350000Y-66135000D02*
X197350000Y-66432825D01*
X196509325Y-67273500D02*
X194664334Y-67273500D01*
X194285000Y-67652834D02*
X194285000Y-68744340D01*
X197350000Y-66432825D02*
X196509325Y-67273500D01*
%TO.N,/DIO3*%
X198000000Y-66135000D02*
X198000000Y-66930000D01*
X196647767Y-70400000D02*
X195928177Y-69680410D01*
X197080000Y-70400000D02*
X196647767Y-70400000D01*
X198000000Y-66930000D02*
X197690000Y-67240000D01*
%TO.N,/DIO4*%
X197580000Y-70800000D02*
X198520000Y-71740000D01*
X198650000Y-66135000D02*
X198650000Y-67480000D01*
X198650000Y-67480000D02*
X197860000Y-68270000D01*
X200133553Y-71740000D02*
X201132483Y-70741070D01*
X197870143Y-68660143D02*
X197870143Y-69231854D01*
X197870143Y-69231854D02*
X197580000Y-69521997D01*
X197580000Y-69521997D02*
X197580000Y-70800000D01*
X198520000Y-71740000D02*
X200133553Y-71740000D01*
X197860000Y-68650000D02*
X197870143Y-68660143D01*
X197860000Y-68270000D02*
X197860000Y-68650000D01*
%TO.N,/DIO5*%
X200778930Y-70387517D02*
X200778930Y-70506309D01*
X199560000Y-71210000D02*
X199050000Y-71210000D01*
X199250000Y-66185000D02*
X199300000Y-66135000D01*
X200778930Y-70506309D02*
X200075239Y-71210000D01*
X200075239Y-71210000D02*
X199560000Y-71210000D01*
X199050000Y-71210000D02*
X198160000Y-70320000D01*
X199250000Y-67340000D02*
X199250000Y-66185000D01*
%TO.N,/NRESET*%
X195683978Y-68799104D02*
X195753978Y-68799104D01*
X195045000Y-65130000D02*
X195020000Y-65130000D01*
X195020000Y-65130000D02*
X194460000Y-65690000D01*
X195275187Y-68390313D02*
X195683978Y-68799104D01*
X195753978Y-68799104D02*
X196281731Y-69326857D01*
%TO.N,/PB11*%
X214170000Y-64905000D02*
X214205000Y-64870000D01*
X203800000Y-76930000D02*
X203800000Y-76845126D01*
X203800000Y-76845126D02*
X202193143Y-75238269D01*
X210390000Y-74692198D02*
X210390000Y-70280000D01*
X208064869Y-77017329D02*
X210390000Y-74692198D01*
X214170000Y-66520000D02*
X214170000Y-64905000D01*
X210410000Y-70280000D02*
X214170000Y-66520000D01*
X210390000Y-70280000D02*
X210410000Y-70280000D01*
%TO.N,/PB12*%
X203001413Y-72610000D02*
X202900250Y-72508837D01*
X204330000Y-72610000D02*
X203001413Y-72610000D01*
%TO.N,/PB13*%
X203371981Y-71330000D02*
X203860000Y-71330000D01*
X202546697Y-72155284D02*
X203371981Y-71330000D01*
%TO.N,/PB14*%
X202193143Y-71796857D02*
X203510000Y-70480000D01*
X202193143Y-71801731D02*
X202193143Y-71796857D01*
%TO.N,/PB15*%
X204240000Y-70004500D02*
X203283267Y-70004500D01*
X203283267Y-70004500D02*
X201839590Y-71448177D01*
%TO.N,Net-(U1-BOOT0)*%
X195549340Y-72130000D02*
X194513964Y-71094624D01*
D48*
X195700000Y-72130000D02*
X195549340Y-72130000D01*
D46*
X213760000Y-80800000D02*
X207960000Y-80800000D01*
D48*
X214615000Y-79945000D02*
X213760000Y-80800000D01*
D46*
%TO.N,Net-(U1-PB2)*%
X205450660Y-79910000D02*
X201486036Y-75945376D01*
X213350000Y-79920000D02*
X207890000Y-79920000D01*
X206010000Y-79910000D02*
X205450660Y-79910000D01*
D48*
X213375000Y-79945000D02*
X213350000Y-79920000D01*
D46*
%TO.N,Net-(U1-PC13-TAMPER-RTC)*%
X196530000Y-75607500D02*
X196492500Y-75570000D01*
X194806963Y-74356963D02*
X193981056Y-74356963D01*
X218600000Y-84780000D02*
X215960000Y-82140000D01*
X193981056Y-74356963D02*
X193453303Y-74884716D01*
X197870143Y-76950143D02*
X196530000Y-75610000D01*
X197870143Y-79990143D02*
X197870143Y-76950143D01*
X216920000Y-85940000D02*
X217440000Y-85940000D01*
X196530000Y-75610000D02*
X196530000Y-75607500D01*
X200696834Y-82130000D02*
X199052834Y-80486000D01*
X205990000Y-82130000D02*
X200696834Y-82130000D01*
X199052834Y-80486000D02*
X198366000Y-80486000D01*
X217440000Y-85940000D02*
X218600000Y-84780000D01*
X195350000Y-74900000D02*
X194806963Y-74356963D01*
X198366000Y-80486000D02*
X197870143Y-79990143D01*
X215960000Y-82140000D02*
X208000000Y-82140000D01*
D45*
%TO.N,/OSC8_IN*%
X192870000Y-77510000D02*
X185720000Y-77510000D01*
X185720000Y-77510000D02*
X182880000Y-80350000D01*
X192949340Y-77510000D02*
X194513964Y-75945376D01*
X182880000Y-80350000D02*
X181020000Y-82210000D01*
X181020000Y-82210000D02*
X177800000Y-82210000D01*
X192870000Y-77510000D02*
X192949340Y-77510000D01*
%TO.N,/OSC8_OUT*%
X192870000Y-78530000D02*
X189580000Y-78530000D01*
X192870000Y-78530000D02*
X193515000Y-77885000D01*
X189600000Y-82190000D02*
X192740000Y-82190000D01*
X193515000Y-77885000D02*
X193515000Y-77651447D01*
X187760000Y-80350000D02*
X189600000Y-82190000D01*
X193515000Y-77651447D02*
X194867517Y-76298930D01*
X189580000Y-78530000D02*
X187760000Y-80350000D01*
%TO.N,/XTA*%
X191890000Y-63850000D02*
X190670000Y-63850000D01*
X190670000Y-63850000D02*
X189840000Y-64680000D01*
X192645000Y-64706100D02*
X192645000Y-64605000D01*
X193521100Y-63830000D02*
X195045000Y-63830000D01*
X192645000Y-64605000D02*
X191890000Y-63850000D01*
X192645000Y-64706100D02*
X193521100Y-63830000D01*
D46*
%TO.N,/SWCLK*%
X196118587Y-67749500D02*
X196988837Y-68619750D01*
%TO.N,/SWDIO*%
X199718269Y-69326857D02*
X199754329Y-69326857D01*
X199754329Y-69326857D02*
X200770593Y-68310593D01*
%TO.N,/CAN_RX*%
X195240000Y-72527767D02*
X195240000Y-73260000D01*
X183575000Y-84854984D02*
X184919984Y-83510000D01*
D45*
X183575000Y-85305000D02*
X183575000Y-84854984D01*
D46*
X184919984Y-83510000D02*
X189960000Y-83510000D01*
X194160410Y-71448177D02*
X195240000Y-72527767D01*
D45*
%TO.N,/CAN_TX*%
X187385000Y-85305000D02*
X187585000Y-85305000D01*
D46*
X187585000Y-85305000D02*
X188480000Y-84410000D01*
X194460000Y-72454874D02*
X193806857Y-71801731D01*
X194460000Y-73080000D02*
X194460000Y-72454874D01*
D45*
%TO.N,Net-(D1-A)*%
X214510000Y-84910000D02*
X216910000Y-84910000D01*
X216910000Y-84910000D02*
X216920000Y-84920000D01*
%TD*%
M02*
