%TF.GenerationSoftware,KiCad,Pcbnew,7.0.6-7.0.6~ubuntu22.04.1*%
%TF.CreationDate,2023-08-04T06:45:17-03:00*%
%TF.ProjectId,RF_Board,52465f42-6f61-4726-942e-6b696361645f,rev?*%
%TF.SameCoordinates,Original*%
%TF.FileFunction,Copper,L3,Inr*%
%TF.FilePolarity,Positive*%
%FSLAX46Y46*%
G04 Gerber Fmt 4.6, Leading zero omitted, Abs format (unit mm)*
G04 Created by KiCad (PCBNEW 7.0.6-7.0.6~ubuntu22.04.1) date 2023-08-04 06:45:17*
%MOMM*%
%LPD*%
G01*
G04 APERTURE LIST*
%TA.AperFunction,ComponentPad*%
%ADD10R,1.700000X1.700000*%
%TD*%
%TA.AperFunction,ComponentPad*%
%ADD11O,1.700000X1.700000*%
%TD*%
%TA.AperFunction,ComponentPad*%
%ADD12C,1.247000*%
%TD*%
%TA.AperFunction,ViaPad*%
%ADD13C,0.500000*%
%TD*%
G04 APERTURE END LIST*
D10*
%TO.N,Net-(J5-Pin_1)*%
%TO.C,J5*%
X184125000Y-94880000D03*
D11*
%TO.N,Net-(J5-Pin_2)*%
X186665000Y-94880000D03*
%TD*%
D10*
%TO.N,+3.3V*%
%TO.C,J7*%
X221000000Y-67270000D03*
D11*
%TO.N,/PA8*%
X221000000Y-69810000D03*
%TO.N,/PB15*%
X221000000Y-72350000D03*
%TO.N,/PB14*%
X221000000Y-74890000D03*
%TO.N,/PB13*%
X221000000Y-77430000D03*
%TO.N,/PB12*%
X221000000Y-79970000D03*
%TO.N,/PB11*%
X221000000Y-82510000D03*
%TO.N,/PB1*%
X221000000Y-85050000D03*
%TO.N,/PB0*%
X221000000Y-87590000D03*
%TO.N,Earth*%
X221000000Y-90130000D03*
X221000000Y-92670000D03*
%TD*%
D10*
%TO.N,+3.3V*%
%TO.C,J4*%
X215175000Y-76355000D03*
D11*
X212635000Y-76355000D03*
%TO.N,/BOOT0*%
X215175000Y-73815000D03*
%TO.N,/BOOT1*%
X212635000Y-73815000D03*
%TO.N,Earth*%
X215175000Y-71275000D03*
X212635000Y-71275000D03*
%TD*%
D10*
%TO.N,+3.3V*%
%TO.C,J3*%
X208850000Y-94640000D03*
D11*
%TO.N,/SWDIO*%
X211390000Y-94640000D03*
%TO.N,/SWCLK*%
X213930000Y-94640000D03*
%TO.N,Earth*%
X216470000Y-94640000D03*
%TD*%
D10*
%TO.N,/PA15*%
%TO.C,J6*%
X175000000Y-67270000D03*
D11*
%TO.N,/PB10*%
X175000000Y-69810000D03*
%TO.N,/PA0*%
X175000000Y-72350000D03*
%TO.N,/PA1*%
X175000000Y-74890000D03*
%TO.N,/PA2*%
X175000000Y-77430000D03*
%TO.N,/PA3*%
X175000000Y-79970000D03*
%TO.N,/NSS*%
X175000000Y-82510000D03*
%TO.N,/PA5*%
X175000000Y-85050000D03*
%TO.N,/MISO*%
X175000000Y-87590000D03*
%TO.N,/MOSI*%
X175000000Y-90130000D03*
%TO.N,VBUS*%
X175000000Y-92670000D03*
%TD*%
D12*
%TO.N,/OSC8_IN*%
%TO.C,Y1*%
X182880000Y-80350000D03*
%TO.N,/OSC8_OUT*%
X187760000Y-80350000D03*
%TD*%
D13*
%TO.N,Earth*%
X217310000Y-71280000D03*
X193680000Y-87490000D03*
X193365500Y-66160000D03*
X190730000Y-61810000D03*
X188900000Y-66960000D03*
X203360000Y-95570000D03*
X194520000Y-56730000D03*
X208690000Y-63870000D03*
X205230000Y-67440000D03*
X197970000Y-63230000D03*
X201790000Y-51680000D03*
X213140000Y-91980000D03*
X193470000Y-56730000D03*
X201630000Y-54710000D03*
X203740000Y-87600000D03*
X205250000Y-66210000D03*
X204340000Y-60850000D03*
X190740000Y-62900000D03*
X192820000Y-80590000D03*
X192090000Y-87490000D03*
X204850000Y-76290000D03*
X202360000Y-87620000D03*
X199320000Y-59300000D03*
X181980000Y-85110000D03*
X208430000Y-86850000D03*
X185060000Y-75610000D03*
X197360000Y-59330000D03*
X192410000Y-71060000D03*
X190730000Y-65290000D03*
X215510000Y-63890000D03*
X192530000Y-95570000D03*
X201550000Y-65130000D03*
X199310000Y-91690000D03*
X194568005Y-77978005D03*
X189770000Y-73920000D03*
X192710000Y-84330000D03*
X203180000Y-48820000D03*
X203550000Y-75870000D03*
X188660000Y-90290000D03*
X213140000Y-69084500D03*
X196500000Y-48760000D03*
X201820000Y-67644500D03*
X177790000Y-83910000D03*
X184600000Y-57310000D03*
X190410000Y-69990000D03*
X195700000Y-87690000D03*
X186140000Y-86950000D03*
X188880000Y-63770000D03*
X196850000Y-56720000D03*
X184050000Y-68570000D03*
X195800000Y-56720000D03*
X190740000Y-60750000D03*
X216110000Y-87700000D03*
%TO.N,+3.3V*%
X193470000Y-59200000D03*
X211130000Y-89030000D03*
X191380000Y-70000000D03*
X191450000Y-73170000D03*
X203990000Y-65460000D03*
X215190000Y-67340000D03*
X210620000Y-64630000D03*
X198584291Y-59300000D03*
X211300000Y-91230000D03*
X192790000Y-79630000D03*
X192100000Y-90200000D03*
X182680000Y-64520000D03*
X204820000Y-74010000D03*
X193250000Y-61820000D03*
X194520000Y-59200000D03*
X203004500Y-67915500D03*
X182010000Y-87610000D03*
X211160000Y-67320000D03*
%TO.N,VBUS*%
X203730000Y-90160000D03*
X203830000Y-93140000D03*
X196700000Y-91300000D03*
%TO.N,/PA0*%
X195440000Y-78660000D03*
%TO.N,/PA1*%
X195830000Y-79520000D03*
%TO.N,/PA2*%
X196040665Y-80376165D03*
%TO.N,/PA3*%
X199000000Y-80010000D03*
%TO.N,/NSS*%
X199900000Y-80070000D03*
X198300000Y-75940000D03*
X204540000Y-62530000D03*
%TO.N,/PA5*%
X200590000Y-80960000D03*
X198849887Y-76810113D03*
X206300000Y-68867000D03*
%TO.N,/MISO*%
X201140000Y-79570000D03*
X198660000Y-75005500D03*
X202790000Y-63710000D03*
%TO.N,/MOSI*%
X202170000Y-81090000D03*
X203680000Y-63180000D03*
X199540000Y-75005500D03*
%TO.N,/PA8*%
X216110000Y-69560000D03*
X202440000Y-70100000D03*
%TO.N,/PA15*%
X194761000Y-67850000D03*
%TO.N,/PB0*%
X201690000Y-77650000D03*
%TO.N,/PB1*%
X202682845Y-77885355D03*
%TO.N,/PB10*%
X205790000Y-72480000D03*
X196378415Y-73431585D03*
X207690000Y-72510000D03*
%TO.N,/DIO3*%
X197080000Y-70400000D03*
X197690000Y-67240000D03*
%TO.N,/DIO5*%
X199250000Y-67340000D03*
X198160000Y-70320000D03*
%TO.N,/NRESET*%
X195275187Y-68390313D03*
X194460000Y-65690000D03*
%TO.N,/PB11*%
X203800000Y-76930000D03*
X208064869Y-77017329D03*
%TO.N,/PB12*%
X204330000Y-72610000D03*
%TO.N,/PB13*%
X203860000Y-71330000D03*
%TO.N,/PB14*%
X203510000Y-70480000D03*
%TO.N,/PB15*%
X204240000Y-70004500D03*
%TO.N,Net-(U1-BOOT0)*%
X195700000Y-72130000D03*
X207960000Y-80800000D03*
%TO.N,Net-(U1-PB2)*%
X207890000Y-79920000D03*
X206010000Y-79910000D03*
%TO.N,Net-(U1-PC13-TAMPER-RTC)*%
X205990000Y-82130000D03*
X196492500Y-75570000D03*
X208000000Y-82140000D03*
X195350000Y-74900000D03*
%TO.N,/SWCLK*%
X195980000Y-67749500D03*
%TO.N,/SWDIO*%
X200770593Y-68310593D03*
%TO.N,/CAN_RX*%
X195240000Y-73260000D03*
X189960000Y-83510000D03*
%TO.N,/CAN_TX*%
X188480000Y-84410000D03*
X194460000Y-73080000D03*
%TD*%
%TA.AperFunction,Conductor*%
%TO.N,VBUS*%
G36*
X206130098Y-87720211D02*
G01*
X206176406Y-87772530D01*
X206187879Y-87816885D01*
X206206352Y-88090890D01*
X206239860Y-88587933D01*
X206240000Y-88592085D01*
X206240000Y-96575500D01*
X206220315Y-96642539D01*
X206167511Y-96688294D01*
X206116000Y-96699500D01*
X173424500Y-96699500D01*
X173357461Y-96679815D01*
X173311706Y-96627011D01*
X173300500Y-96575500D01*
X173300500Y-95777870D01*
X182774500Y-95777870D01*
X182774501Y-95777876D01*
X182780908Y-95837483D01*
X182831202Y-95972328D01*
X182831206Y-95972335D01*
X182917452Y-96087544D01*
X182917455Y-96087547D01*
X183032664Y-96173793D01*
X183032671Y-96173797D01*
X183167517Y-96224091D01*
X183167516Y-96224091D01*
X183174444Y-96224835D01*
X183227127Y-96230500D01*
X185022872Y-96230499D01*
X185082483Y-96224091D01*
X185217331Y-96173796D01*
X185332546Y-96087546D01*
X185418796Y-95972331D01*
X185467810Y-95840916D01*
X185509681Y-95784984D01*
X185575145Y-95760566D01*
X185643418Y-95775417D01*
X185671673Y-95796569D01*
X185793599Y-95918495D01*
X185890384Y-95986264D01*
X185987165Y-96054032D01*
X185987167Y-96054033D01*
X185987170Y-96054035D01*
X186201337Y-96153903D01*
X186201343Y-96153904D01*
X186201344Y-96153905D01*
X186256285Y-96168626D01*
X186429592Y-96215063D01*
X186606034Y-96230500D01*
X186664999Y-96235659D01*
X186665000Y-96235659D01*
X186665001Y-96235659D01*
X186723966Y-96230500D01*
X186900408Y-96215063D01*
X187128663Y-96153903D01*
X187342830Y-96054035D01*
X187536401Y-95918495D01*
X187703495Y-95751401D01*
X187830512Y-95570002D01*
X191774751Y-95570002D01*
X191793685Y-95738056D01*
X191849545Y-95897694D01*
X191849547Y-95897697D01*
X191939518Y-96040884D01*
X191939523Y-96040890D01*
X192059109Y-96160476D01*
X192059115Y-96160481D01*
X192202302Y-96250452D01*
X192202305Y-96250454D01*
X192202309Y-96250455D01*
X192202310Y-96250456D01*
X192274913Y-96275860D01*
X192361943Y-96306314D01*
X192529997Y-96325249D01*
X192530000Y-96325249D01*
X192530003Y-96325249D01*
X192698056Y-96306314D01*
X192698059Y-96306313D01*
X192857690Y-96250456D01*
X192857692Y-96250454D01*
X192857694Y-96250454D01*
X192857697Y-96250452D01*
X193000884Y-96160481D01*
X193000885Y-96160480D01*
X193000890Y-96160477D01*
X193120477Y-96040890D01*
X193120481Y-96040884D01*
X193210452Y-95897697D01*
X193210454Y-95897694D01*
X193210454Y-95897692D01*
X193210456Y-95897690D01*
X193266313Y-95738059D01*
X193266313Y-95738058D01*
X193266314Y-95738056D01*
X193285249Y-95570002D01*
X202604751Y-95570002D01*
X202623685Y-95738056D01*
X202679545Y-95897694D01*
X202679547Y-95897697D01*
X202769518Y-96040884D01*
X202769523Y-96040890D01*
X202889109Y-96160476D01*
X202889115Y-96160481D01*
X203032302Y-96250452D01*
X203032305Y-96250454D01*
X203032309Y-96250455D01*
X203032310Y-96250456D01*
X203104913Y-96275860D01*
X203191943Y-96306314D01*
X203359997Y-96325249D01*
X203360000Y-96325249D01*
X203360003Y-96325249D01*
X203528056Y-96306314D01*
X203528059Y-96306313D01*
X203687690Y-96250456D01*
X203687692Y-96250454D01*
X203687694Y-96250454D01*
X203687697Y-96250452D01*
X203830884Y-96160481D01*
X203830885Y-96160480D01*
X203830890Y-96160477D01*
X203950477Y-96040890D01*
X203950481Y-96040884D01*
X204040452Y-95897697D01*
X204040454Y-95897694D01*
X204040454Y-95897692D01*
X204040456Y-95897690D01*
X204096313Y-95738059D01*
X204096313Y-95738058D01*
X204096314Y-95738056D01*
X204115249Y-95570002D01*
X204115249Y-95569997D01*
X204096314Y-95401943D01*
X204040454Y-95242305D01*
X204040452Y-95242302D01*
X203950481Y-95099115D01*
X203950476Y-95099109D01*
X203830890Y-94979523D01*
X203830884Y-94979518D01*
X203687697Y-94889547D01*
X203687694Y-94889545D01*
X203528056Y-94833685D01*
X203360003Y-94814751D01*
X203359997Y-94814751D01*
X203191943Y-94833685D01*
X203032305Y-94889545D01*
X203032302Y-94889547D01*
X202889115Y-94979518D01*
X202889109Y-94979523D01*
X202769523Y-95099109D01*
X202769518Y-95099115D01*
X202679547Y-95242302D01*
X202679545Y-95242305D01*
X202623685Y-95401943D01*
X202604751Y-95569997D01*
X202604751Y-95570002D01*
X193285249Y-95570002D01*
X193285249Y-95569997D01*
X193266314Y-95401943D01*
X193210454Y-95242305D01*
X193210452Y-95242302D01*
X193120481Y-95099115D01*
X193120476Y-95099109D01*
X193000890Y-94979523D01*
X193000884Y-94979518D01*
X192857697Y-94889547D01*
X192857694Y-94889545D01*
X192698056Y-94833685D01*
X192530003Y-94814751D01*
X192529997Y-94814751D01*
X192361943Y-94833685D01*
X192202305Y-94889545D01*
X192202302Y-94889547D01*
X192059115Y-94979518D01*
X192059109Y-94979523D01*
X191939523Y-95099109D01*
X191939518Y-95099115D01*
X191849547Y-95242302D01*
X191849545Y-95242305D01*
X191793685Y-95401943D01*
X191774751Y-95569997D01*
X191774751Y-95570002D01*
X187830512Y-95570002D01*
X187839035Y-95557830D01*
X187938903Y-95343663D01*
X188000063Y-95115408D01*
X188020659Y-94880000D01*
X188000063Y-94644592D01*
X187938903Y-94416337D01*
X187839035Y-94202171D01*
X187703495Y-94008599D01*
X187703494Y-94008597D01*
X187536402Y-93841506D01*
X187536395Y-93841501D01*
X187342834Y-93705967D01*
X187342830Y-93705965D01*
X187342828Y-93705964D01*
X187128663Y-93606097D01*
X187128659Y-93606096D01*
X187128655Y-93606094D01*
X186900413Y-93544938D01*
X186900403Y-93544936D01*
X186665001Y-93524341D01*
X186664999Y-93524341D01*
X186429596Y-93544936D01*
X186429586Y-93544938D01*
X186201344Y-93606094D01*
X186201335Y-93606098D01*
X185987171Y-93705964D01*
X185987169Y-93705965D01*
X185793600Y-93841503D01*
X185671673Y-93963430D01*
X185610350Y-93996914D01*
X185540658Y-93991930D01*
X185484725Y-93950058D01*
X185467810Y-93919081D01*
X185418797Y-93787671D01*
X185418793Y-93787664D01*
X185332547Y-93672455D01*
X185332544Y-93672452D01*
X185217335Y-93586206D01*
X185217328Y-93586202D01*
X185082482Y-93535908D01*
X185082483Y-93535908D01*
X185022883Y-93529501D01*
X185022881Y-93529500D01*
X185022873Y-93529500D01*
X185022864Y-93529500D01*
X183227129Y-93529500D01*
X183227123Y-93529501D01*
X183167516Y-93535908D01*
X183032671Y-93586202D01*
X183032664Y-93586206D01*
X182917455Y-93672452D01*
X182917452Y-93672455D01*
X182831206Y-93787664D01*
X182831202Y-93787671D01*
X182780908Y-93922517D01*
X182774501Y-93982116D01*
X182774500Y-93982135D01*
X182774500Y-95777870D01*
X173300500Y-95777870D01*
X173300500Y-91444000D01*
X173320185Y-91376961D01*
X173372989Y-91331206D01*
X173424500Y-91320000D01*
X174181069Y-91320000D01*
X174248108Y-91339685D01*
X174293863Y-91392489D01*
X174303807Y-91461647D01*
X174274782Y-91525203D01*
X174252192Y-91545575D01*
X174128927Y-91631886D01*
X174128920Y-91631891D01*
X173961891Y-91798920D01*
X173961886Y-91798926D01*
X173826400Y-91992420D01*
X173826399Y-91992422D01*
X173726570Y-92206507D01*
X173726567Y-92206513D01*
X173669364Y-92419999D01*
X173669364Y-92420000D01*
X174566314Y-92420000D01*
X174540507Y-92460156D01*
X174500000Y-92598111D01*
X174500000Y-92741889D01*
X174540507Y-92879844D01*
X174566314Y-92920000D01*
X173669364Y-92920000D01*
X173726567Y-93133486D01*
X173726570Y-93133492D01*
X173826399Y-93347578D01*
X173961894Y-93541082D01*
X174128917Y-93708105D01*
X174322421Y-93843600D01*
X174536507Y-93943429D01*
X174536516Y-93943433D01*
X174750000Y-94000634D01*
X174750000Y-93105501D01*
X174857685Y-93154680D01*
X174964237Y-93170000D01*
X175035763Y-93170000D01*
X175142315Y-93154680D01*
X175250000Y-93105501D01*
X175250000Y-94000633D01*
X175463483Y-93943433D01*
X175463492Y-93943429D01*
X175677578Y-93843600D01*
X175871082Y-93708105D01*
X176038105Y-93541082D01*
X176173600Y-93347578D01*
X176273429Y-93133492D01*
X176273432Y-93133486D01*
X176330636Y-92920000D01*
X175433686Y-92920000D01*
X175459493Y-92879844D01*
X175500000Y-92741889D01*
X175500000Y-92598111D01*
X175459493Y-92460156D01*
X175433686Y-92420000D01*
X176330636Y-92420000D01*
X176330635Y-92419999D01*
X176273432Y-92206513D01*
X176273429Y-92206507D01*
X176173600Y-91992422D01*
X176173599Y-91992420D01*
X176038113Y-91798926D01*
X176038108Y-91798920D01*
X175929190Y-91690002D01*
X198554751Y-91690002D01*
X198573685Y-91858056D01*
X198629545Y-92017694D01*
X198629547Y-92017697D01*
X198719518Y-92160884D01*
X198719523Y-92160890D01*
X198839109Y-92280476D01*
X198839115Y-92280481D01*
X198982302Y-92370452D01*
X198982305Y-92370454D01*
X198982309Y-92370455D01*
X198982310Y-92370456D01*
X199054913Y-92395860D01*
X199141943Y-92426314D01*
X199309997Y-92445249D01*
X199310000Y-92445249D01*
X199310003Y-92445249D01*
X199478056Y-92426314D01*
X199478059Y-92426313D01*
X199637690Y-92370456D01*
X199637692Y-92370454D01*
X199637694Y-92370454D01*
X199637697Y-92370452D01*
X199780884Y-92280481D01*
X199780885Y-92280480D01*
X199780890Y-92280477D01*
X199900477Y-92160890D01*
X199990452Y-92017697D01*
X199990454Y-92017694D01*
X199990454Y-92017692D01*
X199990456Y-92017690D01*
X200046313Y-91858059D01*
X200046313Y-91858058D01*
X200046314Y-91858056D01*
X200065249Y-91690002D01*
X200065249Y-91689997D01*
X200046314Y-91521943D01*
X200001016Y-91392489D01*
X199990456Y-91362310D01*
X199990455Y-91362309D01*
X199990454Y-91362305D01*
X199990452Y-91362302D01*
X199900481Y-91219115D01*
X199900476Y-91219109D01*
X199780890Y-91099523D01*
X199780884Y-91099518D01*
X199637697Y-91009547D01*
X199637694Y-91009545D01*
X199478056Y-90953685D01*
X199310003Y-90934751D01*
X199309997Y-90934751D01*
X199141943Y-90953685D01*
X198982305Y-91009545D01*
X198982302Y-91009547D01*
X198839115Y-91099518D01*
X198839109Y-91099523D01*
X198719523Y-91219109D01*
X198719518Y-91219115D01*
X198629547Y-91362302D01*
X198629545Y-91362305D01*
X198573685Y-91521943D01*
X198554751Y-91689997D01*
X198554751Y-91690002D01*
X175929190Y-91690002D01*
X175871078Y-91631890D01*
X175747807Y-91545574D01*
X175704182Y-91490997D01*
X175696990Y-91421499D01*
X175728512Y-91359144D01*
X175788742Y-91323731D01*
X175818931Y-91320000D01*
X195320000Y-91320000D01*
X195320000Y-90504295D01*
X195339685Y-90437256D01*
X195392489Y-90391501D01*
X195444293Y-90380295D01*
X199530000Y-90390000D01*
X199530000Y-90389999D01*
X199530000Y-87892701D01*
X199549685Y-87825662D01*
X199602489Y-87779907D01*
X199652692Y-87768708D01*
X201520747Y-87749044D01*
X201587988Y-87768022D01*
X201634296Y-87820341D01*
X201639092Y-87832083D01*
X201679544Y-87947692D01*
X201679547Y-87947697D01*
X201769518Y-88090884D01*
X201769523Y-88090890D01*
X201889109Y-88210476D01*
X201889115Y-88210481D01*
X202032302Y-88300452D01*
X202032305Y-88300454D01*
X202032309Y-88300455D01*
X202032310Y-88300456D01*
X202104913Y-88325860D01*
X202191943Y-88356314D01*
X202359997Y-88375249D01*
X202360000Y-88375249D01*
X202360003Y-88375249D01*
X202528056Y-88356314D01*
X202531100Y-88355249D01*
X202687690Y-88300456D01*
X202687692Y-88300454D01*
X202687694Y-88300454D01*
X202687697Y-88300452D01*
X202830884Y-88210481D01*
X202830885Y-88210480D01*
X202830890Y-88210477D01*
X202950477Y-88090890D01*
X202952271Y-88088033D01*
X202953912Y-88086582D01*
X202954820Y-88085444D01*
X202955019Y-88085602D01*
X203004598Y-88041740D01*
X203073650Y-88031085D01*
X203137502Y-88059453D01*
X203144950Y-88066317D01*
X203269109Y-88190476D01*
X203269115Y-88190481D01*
X203412302Y-88280452D01*
X203412305Y-88280454D01*
X203412309Y-88280455D01*
X203412310Y-88280456D01*
X203440889Y-88290456D01*
X203571943Y-88336314D01*
X203739997Y-88355249D01*
X203740000Y-88355249D01*
X203740003Y-88355249D01*
X203908056Y-88336314D01*
X203908059Y-88336313D01*
X204067690Y-88280456D01*
X204067692Y-88280454D01*
X204067694Y-88280454D01*
X204067697Y-88280452D01*
X204210884Y-88190481D01*
X204210885Y-88190480D01*
X204210890Y-88190477D01*
X204330477Y-88070890D01*
X204330481Y-88070884D01*
X204420452Y-87927697D01*
X204420455Y-87927692D01*
X204432699Y-87892701D01*
X204465182Y-87799869D01*
X204505903Y-87743095D01*
X204570855Y-87717347D01*
X204580907Y-87716832D01*
X206062855Y-87701233D01*
X206130098Y-87720211D01*
G37*
%TD.AperFunction*%
%TD*%
%TA.AperFunction,Conductor*%
%TO.N,+3.3V*%
G36*
X214715507Y-76145156D02*
G01*
X214675000Y-76283111D01*
X214675000Y-76426889D01*
X214715507Y-76564844D01*
X214741314Y-76605000D01*
X213068686Y-76605000D01*
X213094493Y-76564844D01*
X213135000Y-76426889D01*
X213135000Y-76283111D01*
X213094493Y-76145156D01*
X213068686Y-76105000D01*
X214741314Y-76105000D01*
X214715507Y-76145156D01*
G37*
%TD.AperFunction*%
%TA.AperFunction,Conductor*%
G36*
X222642539Y-47320185D02*
G01*
X222688294Y-47372989D01*
X222699500Y-47424500D01*
X222699500Y-96575500D01*
X222679815Y-96642539D01*
X222627011Y-96688294D01*
X222575500Y-96699500D01*
X206869500Y-96699500D01*
X206802461Y-96679815D01*
X206756706Y-96627011D01*
X206745500Y-96575500D01*
X206745500Y-95537844D01*
X207500000Y-95537844D01*
X207506401Y-95597372D01*
X207506403Y-95597379D01*
X207556645Y-95732086D01*
X207556649Y-95732093D01*
X207642809Y-95847187D01*
X207642812Y-95847190D01*
X207757906Y-95933350D01*
X207757913Y-95933354D01*
X207892620Y-95983596D01*
X207892627Y-95983598D01*
X207952155Y-95989999D01*
X207952172Y-95990000D01*
X208600000Y-95990000D01*
X208600000Y-95075501D01*
X208707685Y-95124680D01*
X208814237Y-95140000D01*
X208885763Y-95140000D01*
X208992315Y-95124680D01*
X209100000Y-95075501D01*
X209100000Y-95990000D01*
X209747828Y-95990000D01*
X209747844Y-95989999D01*
X209807372Y-95983598D01*
X209807379Y-95983596D01*
X209942086Y-95933354D01*
X209942093Y-95933350D01*
X210057187Y-95847190D01*
X210057190Y-95847187D01*
X210143350Y-95732093D01*
X210143354Y-95732086D01*
X210192422Y-95600529D01*
X210234293Y-95544595D01*
X210299757Y-95520178D01*
X210368030Y-95535030D01*
X210396285Y-95556181D01*
X210518599Y-95678495D01*
X210595135Y-95732086D01*
X210712165Y-95814032D01*
X210712167Y-95814033D01*
X210712170Y-95814035D01*
X210926337Y-95913903D01*
X211154592Y-95975063D01*
X211325319Y-95990000D01*
X211389999Y-95995659D01*
X211390000Y-95995659D01*
X211390001Y-95995659D01*
X211454681Y-95990000D01*
X211625408Y-95975063D01*
X211853663Y-95913903D01*
X212067830Y-95814035D01*
X212261401Y-95678495D01*
X212428495Y-95511401D01*
X212558424Y-95325842D01*
X212613002Y-95282217D01*
X212682500Y-95275023D01*
X212744855Y-95306546D01*
X212761575Y-95325842D01*
X212891500Y-95511395D01*
X212891505Y-95511401D01*
X213058599Y-95678495D01*
X213135135Y-95732086D01*
X213252165Y-95814032D01*
X213252167Y-95814033D01*
X213252170Y-95814035D01*
X213466337Y-95913903D01*
X213694592Y-95975063D01*
X213865319Y-95990000D01*
X213929999Y-95995659D01*
X213930000Y-95995659D01*
X213930001Y-95995659D01*
X213994681Y-95990000D01*
X214165408Y-95975063D01*
X214393663Y-95913903D01*
X214607830Y-95814035D01*
X214801401Y-95678495D01*
X214968495Y-95511401D01*
X215098424Y-95325842D01*
X215153002Y-95282217D01*
X215222500Y-95275023D01*
X215284855Y-95306546D01*
X215301575Y-95325842D01*
X215431500Y-95511395D01*
X215431505Y-95511401D01*
X215598599Y-95678495D01*
X215675135Y-95732086D01*
X215792165Y-95814032D01*
X215792167Y-95814033D01*
X215792170Y-95814035D01*
X216006337Y-95913903D01*
X216234592Y-95975063D01*
X216405319Y-95990000D01*
X216469999Y-95995659D01*
X216470000Y-95995659D01*
X216470001Y-95995659D01*
X216534681Y-95990000D01*
X216705408Y-95975063D01*
X216933663Y-95913903D01*
X217147830Y-95814035D01*
X217341401Y-95678495D01*
X217508495Y-95511401D01*
X217644035Y-95317830D01*
X217743903Y-95103663D01*
X217805063Y-94875408D01*
X217825659Y-94640000D01*
X217805063Y-94404592D01*
X217743903Y-94176337D01*
X217644035Y-93962171D01*
X217638425Y-93954158D01*
X217508494Y-93768597D01*
X217341402Y-93601506D01*
X217341395Y-93601501D01*
X217147834Y-93465967D01*
X217147830Y-93465965D01*
X217076727Y-93432809D01*
X216933663Y-93366097D01*
X216933659Y-93366096D01*
X216933655Y-93366094D01*
X216705413Y-93304938D01*
X216705403Y-93304936D01*
X216470001Y-93284341D01*
X216469999Y-93284341D01*
X216234596Y-93304936D01*
X216234586Y-93304938D01*
X216006344Y-93366094D01*
X216006335Y-93366098D01*
X215792171Y-93465964D01*
X215792169Y-93465965D01*
X215598597Y-93601505D01*
X215431505Y-93768597D01*
X215301575Y-93954158D01*
X215246998Y-93997783D01*
X215177500Y-94004977D01*
X215115145Y-93973454D01*
X215098425Y-93954158D01*
X214968494Y-93768597D01*
X214801402Y-93601506D01*
X214801395Y-93601501D01*
X214607834Y-93465967D01*
X214607830Y-93465965D01*
X214536727Y-93432809D01*
X214393663Y-93366097D01*
X214393659Y-93366096D01*
X214393655Y-93366094D01*
X214165413Y-93304938D01*
X214165403Y-93304936D01*
X213930001Y-93284341D01*
X213929999Y-93284341D01*
X213694596Y-93304936D01*
X213694586Y-93304938D01*
X213466344Y-93366094D01*
X213466335Y-93366098D01*
X213252171Y-93465964D01*
X213252169Y-93465965D01*
X213058597Y-93601505D01*
X212891505Y-93768597D01*
X212761575Y-93954158D01*
X212706998Y-93997783D01*
X212637500Y-94004977D01*
X212575145Y-93973454D01*
X212558425Y-93954158D01*
X212428494Y-93768597D01*
X212261402Y-93601506D01*
X212261395Y-93601501D01*
X212067834Y-93465967D01*
X212067830Y-93465965D01*
X211996727Y-93432809D01*
X211853663Y-93366097D01*
X211853659Y-93366096D01*
X211853655Y-93366094D01*
X211625413Y-93304938D01*
X211625403Y-93304936D01*
X211390001Y-93284341D01*
X211389999Y-93284341D01*
X211154596Y-93304936D01*
X211154586Y-93304938D01*
X210926344Y-93366094D01*
X210926335Y-93366098D01*
X210712171Y-93465964D01*
X210712169Y-93465965D01*
X210518600Y-93601503D01*
X210396284Y-93723819D01*
X210334961Y-93757303D01*
X210265269Y-93752319D01*
X210209336Y-93710447D01*
X210192421Y-93679470D01*
X210143354Y-93547913D01*
X210143350Y-93547906D01*
X210057190Y-93432812D01*
X210057187Y-93432809D01*
X209942093Y-93346649D01*
X209942086Y-93346645D01*
X209807379Y-93296403D01*
X209807372Y-93296401D01*
X209747844Y-93290000D01*
X209100000Y-93290000D01*
X209100000Y-94204498D01*
X208992315Y-94155320D01*
X208885763Y-94140000D01*
X208814237Y-94140000D01*
X208707685Y-94155320D01*
X208600000Y-94204498D01*
X208600000Y-93290000D01*
X207952155Y-93290000D01*
X207892627Y-93296401D01*
X207892620Y-93296403D01*
X207757913Y-93346645D01*
X207757906Y-93346649D01*
X207642812Y-93432809D01*
X207642809Y-93432812D01*
X207556649Y-93547906D01*
X207556645Y-93547913D01*
X207506403Y-93682620D01*
X207506401Y-93682627D01*
X207500000Y-93742155D01*
X207500000Y-94390000D01*
X208416314Y-94390000D01*
X208390507Y-94430156D01*
X208350000Y-94568111D01*
X208350000Y-94711889D01*
X208390507Y-94849844D01*
X208416314Y-94890000D01*
X207500000Y-94890000D01*
X207500000Y-95537844D01*
X206745500Y-95537844D01*
X206745500Y-91980002D01*
X212384751Y-91980002D01*
X212403685Y-92148056D01*
X212459545Y-92307694D01*
X212459547Y-92307697D01*
X212549518Y-92450884D01*
X212549523Y-92450890D01*
X212669109Y-92570476D01*
X212669115Y-92570481D01*
X212812302Y-92660452D01*
X212812305Y-92660454D01*
X212812309Y-92660455D01*
X212812310Y-92660456D01*
X212884913Y-92685860D01*
X212971943Y-92716314D01*
X213139997Y-92735249D01*
X213140000Y-92735249D01*
X213140003Y-92735249D01*
X213308056Y-92716314D01*
X213308059Y-92716313D01*
X213440415Y-92670000D01*
X219644341Y-92670000D01*
X219664936Y-92905403D01*
X219664938Y-92905413D01*
X219726094Y-93133655D01*
X219726096Y-93133659D01*
X219726097Y-93133663D01*
X219796360Y-93284341D01*
X219825965Y-93347830D01*
X219825967Y-93347834D01*
X219838756Y-93366098D01*
X219961505Y-93541401D01*
X220128599Y-93708495D01*
X220214436Y-93768599D01*
X220322165Y-93844032D01*
X220322167Y-93844033D01*
X220322170Y-93844035D01*
X220536337Y-93943903D01*
X220764592Y-94005063D01*
X220952918Y-94021539D01*
X220999999Y-94025659D01*
X221000000Y-94025659D01*
X221000001Y-94025659D01*
X221039234Y-94022226D01*
X221235408Y-94005063D01*
X221463663Y-93943903D01*
X221677830Y-93844035D01*
X221871401Y-93708495D01*
X222038495Y-93541401D01*
X222174035Y-93347830D01*
X222273903Y-93133663D01*
X222335063Y-92905408D01*
X222355659Y-92670000D01*
X222335063Y-92434592D01*
X222273903Y-92206337D01*
X222174035Y-91992171D01*
X222165515Y-91980002D01*
X222038494Y-91798597D01*
X221871402Y-91631506D01*
X221871396Y-91631501D01*
X221685842Y-91501575D01*
X221642217Y-91446998D01*
X221635023Y-91377500D01*
X221666546Y-91315145D01*
X221685842Y-91298425D01*
X221764016Y-91243687D01*
X221871401Y-91168495D01*
X222038495Y-91001401D01*
X222174035Y-90807830D01*
X222273903Y-90593663D01*
X222335063Y-90365408D01*
X222355659Y-90130000D01*
X222335063Y-89894592D01*
X222273903Y-89666337D01*
X222174035Y-89452171D01*
X222038495Y-89258599D01*
X222038494Y-89258597D01*
X221871402Y-89091506D01*
X221871401Y-89091505D01*
X221685842Y-88961575D01*
X221685841Y-88961574D01*
X221642216Y-88906997D01*
X221635024Y-88837498D01*
X221666546Y-88775144D01*
X221685836Y-88758428D01*
X221871401Y-88628495D01*
X222038495Y-88461401D01*
X222174035Y-88267830D01*
X222273903Y-88053663D01*
X222335063Y-87825408D01*
X222355659Y-87590000D01*
X222355336Y-87586313D01*
X222338850Y-87397876D01*
X222335063Y-87354592D01*
X222283542Y-87162310D01*
X222273905Y-87126344D01*
X222273904Y-87126343D01*
X222273903Y-87126337D01*
X222174035Y-86912171D01*
X222165176Y-86899518D01*
X222038494Y-86718597D01*
X221871402Y-86551506D01*
X221871396Y-86551501D01*
X221685842Y-86421575D01*
X221642217Y-86366998D01*
X221635023Y-86297500D01*
X221666546Y-86235145D01*
X221685842Y-86218425D01*
X221835423Y-86113687D01*
X221871401Y-86088495D01*
X222038495Y-85921401D01*
X222174035Y-85727830D01*
X222273903Y-85513663D01*
X222335063Y-85285408D01*
X222355659Y-85050000D01*
X222335063Y-84814592D01*
X222273903Y-84586337D01*
X222174035Y-84372171D01*
X222161838Y-84354751D01*
X222038494Y-84178597D01*
X221871402Y-84011506D01*
X221871401Y-84011505D01*
X221685842Y-83881575D01*
X221685841Y-83881574D01*
X221642216Y-83826997D01*
X221635024Y-83757498D01*
X221666546Y-83695144D01*
X221685836Y-83678428D01*
X221871401Y-83548495D01*
X222038495Y-83381401D01*
X222174035Y-83187830D01*
X222273903Y-82973663D01*
X222335063Y-82745408D01*
X222355659Y-82510000D01*
X222335063Y-82274592D01*
X222273903Y-82046337D01*
X222174035Y-81832171D01*
X222169934Y-81826313D01*
X222038494Y-81638597D01*
X221871402Y-81471506D01*
X221871396Y-81471501D01*
X221685842Y-81341575D01*
X221642217Y-81286998D01*
X221635023Y-81217500D01*
X221666546Y-81155145D01*
X221685842Y-81138425D01*
X221796573Y-81060890D01*
X221871401Y-81008495D01*
X222038495Y-80841401D01*
X222174035Y-80647830D01*
X222273903Y-80433663D01*
X222335063Y-80205408D01*
X222355659Y-79970000D01*
X222335063Y-79734592D01*
X222282684Y-79539109D01*
X222273905Y-79506344D01*
X222273904Y-79506343D01*
X222273903Y-79506337D01*
X222174035Y-79292171D01*
X222171699Y-79288834D01*
X222038494Y-79098597D01*
X221871402Y-78931506D01*
X221871401Y-78931505D01*
X221723665Y-78828059D01*
X221685841Y-78801574D01*
X221642216Y-78746997D01*
X221635024Y-78677498D01*
X221666546Y-78615144D01*
X221685836Y-78598428D01*
X221871401Y-78468495D01*
X222038495Y-78301401D01*
X222174035Y-78107830D01*
X222273903Y-77893663D01*
X222335063Y-77665408D01*
X222355659Y-77430000D01*
X222335063Y-77194592D01*
X222273903Y-76966337D01*
X222174035Y-76752171D01*
X222130247Y-76689634D01*
X222038494Y-76558597D01*
X221871402Y-76391506D01*
X221871396Y-76391501D01*
X221685842Y-76261575D01*
X221642217Y-76206998D01*
X221635023Y-76137500D01*
X221666546Y-76075145D01*
X221685842Y-76058425D01*
X221823115Y-75962305D01*
X221871401Y-75928495D01*
X222038495Y-75761401D01*
X222174035Y-75567830D01*
X222273903Y-75353663D01*
X222335063Y-75125408D01*
X222355659Y-74890000D01*
X222353226Y-74862197D01*
X222337846Y-74686401D01*
X222335063Y-74654592D01*
X222273903Y-74426337D01*
X222174035Y-74212171D01*
X222140087Y-74163687D01*
X222038494Y-74018597D01*
X221871402Y-73851506D01*
X221871401Y-73851505D01*
X221685842Y-73721575D01*
X221685841Y-73721574D01*
X221642216Y-73666997D01*
X221635024Y-73597498D01*
X221666546Y-73535144D01*
X221685836Y-73518428D01*
X221871401Y-73388495D01*
X222038495Y-73221401D01*
X222174035Y-73027830D01*
X222273903Y-72813663D01*
X222335063Y-72585408D01*
X222355659Y-72350000D01*
X222355106Y-72343685D01*
X222343932Y-72215962D01*
X222335063Y-72114592D01*
X222273903Y-71886337D01*
X222174035Y-71672171D01*
X222164894Y-71659115D01*
X222038494Y-71478597D01*
X221871402Y-71311506D01*
X221871396Y-71311501D01*
X221685842Y-71181575D01*
X221642217Y-71126998D01*
X221635023Y-71057500D01*
X221666546Y-70995145D01*
X221685842Y-70978425D01*
X221739830Y-70940622D01*
X221871401Y-70848495D01*
X222038495Y-70681401D01*
X222174035Y-70487830D01*
X222273903Y-70273663D01*
X222335063Y-70045408D01*
X222355659Y-69810000D01*
X222335063Y-69574592D01*
X222273903Y-69346337D01*
X222174035Y-69132171D01*
X222170152Y-69126626D01*
X222038496Y-68938600D01*
X221979440Y-68879544D01*
X221916179Y-68816283D01*
X221882696Y-68754963D01*
X221887680Y-68685271D01*
X221929551Y-68629337D01*
X221960529Y-68612422D01*
X222092086Y-68563354D01*
X222092093Y-68563350D01*
X222207187Y-68477190D01*
X222207190Y-68477187D01*
X222293350Y-68362093D01*
X222293354Y-68362086D01*
X222343596Y-68227379D01*
X222343598Y-68227372D01*
X222349999Y-68167844D01*
X222350000Y-68167827D01*
X222350000Y-67520000D01*
X221433686Y-67520000D01*
X221459493Y-67479844D01*
X221500000Y-67341889D01*
X221500000Y-67198111D01*
X221459493Y-67060156D01*
X221433686Y-67020000D01*
X222350000Y-67020000D01*
X222350000Y-66372172D01*
X222349999Y-66372155D01*
X222343598Y-66312627D01*
X222343596Y-66312620D01*
X222293354Y-66177913D01*
X222293350Y-66177906D01*
X222207190Y-66062812D01*
X222207187Y-66062809D01*
X222092093Y-65976649D01*
X222092086Y-65976645D01*
X221957379Y-65926403D01*
X221957372Y-65926401D01*
X221897844Y-65920000D01*
X221250000Y-65920000D01*
X221250000Y-66834498D01*
X221142315Y-66785320D01*
X221035763Y-66770000D01*
X220964237Y-66770000D01*
X220857685Y-66785320D01*
X220750000Y-66834498D01*
X220750000Y-65920000D01*
X220102155Y-65920000D01*
X220042627Y-65926401D01*
X220042620Y-65926403D01*
X219907913Y-65976645D01*
X219907906Y-65976649D01*
X219792812Y-66062809D01*
X219792809Y-66062812D01*
X219706649Y-66177906D01*
X219706645Y-66177913D01*
X219656403Y-66312620D01*
X219656401Y-66312627D01*
X219650000Y-66372155D01*
X219650000Y-67020000D01*
X220566314Y-67020000D01*
X220540507Y-67060156D01*
X220500000Y-67198111D01*
X220500000Y-67341889D01*
X220540507Y-67479844D01*
X220566314Y-67520000D01*
X219650000Y-67520000D01*
X219650000Y-68167844D01*
X219656401Y-68227372D01*
X219656403Y-68227379D01*
X219706645Y-68362086D01*
X219706649Y-68362093D01*
X219792809Y-68477187D01*
X219792812Y-68477190D01*
X219907906Y-68563350D01*
X219907913Y-68563354D01*
X220039470Y-68612421D01*
X220095403Y-68654292D01*
X220119821Y-68719756D01*
X220104970Y-68788029D01*
X220083819Y-68816284D01*
X219961503Y-68938600D01*
X219825965Y-69132169D01*
X219825964Y-69132171D01*
X219726098Y-69346335D01*
X219726094Y-69346344D01*
X219664938Y-69574586D01*
X219664936Y-69574596D01*
X219644341Y-69809999D01*
X219644341Y-69810000D01*
X219664936Y-70045403D01*
X219664938Y-70045413D01*
X219726094Y-70273655D01*
X219726096Y-70273659D01*
X219726097Y-70273663D01*
X219813400Y-70460884D01*
X219825965Y-70487830D01*
X219825967Y-70487834D01*
X219900990Y-70594977D01*
X219953838Y-70670452D01*
X219961501Y-70681395D01*
X219961506Y-70681402D01*
X220128597Y-70848493D01*
X220128603Y-70848498D01*
X220314158Y-70978425D01*
X220357783Y-71033002D01*
X220364977Y-71102500D01*
X220333454Y-71164855D01*
X220314158Y-71181575D01*
X220128597Y-71311505D01*
X219961505Y-71478597D01*
X219825965Y-71672169D01*
X219825964Y-71672171D01*
X219726098Y-71886335D01*
X219726094Y-71886344D01*
X219664938Y-72114586D01*
X219664936Y-72114596D01*
X219644341Y-72349999D01*
X219644341Y-72350000D01*
X219664936Y-72585403D01*
X219664938Y-72585413D01*
X219726094Y-72813655D01*
X219726096Y-72813659D01*
X219726097Y-72813663D01*
X219825964Y-73027829D01*
X219825965Y-73027830D01*
X219825967Y-73027834D01*
X219902525Y-73137169D01*
X219957942Y-73216313D01*
X219961501Y-73221395D01*
X219961506Y-73221402D01*
X220128597Y-73388493D01*
X220128603Y-73388498D01*
X220314158Y-73518425D01*
X220357783Y-73573002D01*
X220364977Y-73642500D01*
X220333454Y-73704855D01*
X220314158Y-73721575D01*
X220128597Y-73851505D01*
X219961505Y-74018597D01*
X219825965Y-74212169D01*
X219825964Y-74212171D01*
X219726098Y-74426335D01*
X219726094Y-74426344D01*
X219664938Y-74654586D01*
X219664936Y-74654596D01*
X219644341Y-74889999D01*
X219644341Y-74890000D01*
X219664936Y-75125403D01*
X219664938Y-75125413D01*
X219726094Y-75353655D01*
X219726096Y-75353659D01*
X219726097Y-75353663D01*
X219814063Y-75542307D01*
X219825965Y-75567830D01*
X219825967Y-75567834D01*
X219919871Y-75701941D01*
X219961048Y-75760749D01*
X219961501Y-75761395D01*
X219961506Y-75761402D01*
X220128597Y-75928493D01*
X220128603Y-75928498D01*
X220314158Y-76058425D01*
X220357783Y-76113002D01*
X220364977Y-76182500D01*
X220333454Y-76244855D01*
X220314158Y-76261575D01*
X220128597Y-76391505D01*
X219961505Y-76558597D01*
X219825965Y-76752169D01*
X219825964Y-76752171D01*
X219726098Y-76966335D01*
X219726094Y-76966344D01*
X219664938Y-77194586D01*
X219664936Y-77194596D01*
X219644341Y-77429999D01*
X219644341Y-77430000D01*
X219664936Y-77665403D01*
X219664938Y-77665413D01*
X219726094Y-77893655D01*
X219726096Y-77893659D01*
X219726097Y-77893663D01*
X219800589Y-78053411D01*
X219825965Y-78107830D01*
X219825967Y-78107834D01*
X219961501Y-78301395D01*
X219961506Y-78301402D01*
X220128597Y-78468493D01*
X220128603Y-78468498D01*
X220314158Y-78598425D01*
X220357783Y-78653002D01*
X220364977Y-78722500D01*
X220333454Y-78784855D01*
X220314158Y-78801575D01*
X220128597Y-78931505D01*
X219961505Y-79098597D01*
X219825965Y-79292169D01*
X219825964Y-79292171D01*
X219752780Y-79449115D01*
X219728520Y-79501142D01*
X219726098Y-79506335D01*
X219726094Y-79506344D01*
X219664938Y-79734586D01*
X219664936Y-79734596D01*
X219644341Y-79969999D01*
X219644341Y-79970000D01*
X219664936Y-80205403D01*
X219664938Y-80205413D01*
X219726094Y-80433655D01*
X219726096Y-80433659D01*
X219726097Y-80433663D01*
X219803884Y-80600477D01*
X219825965Y-80647830D01*
X219825967Y-80647834D01*
X219961501Y-80841395D01*
X219961506Y-80841402D01*
X220128597Y-81008493D01*
X220128603Y-81008498D01*
X220314158Y-81138425D01*
X220357783Y-81193002D01*
X220364977Y-81262500D01*
X220333454Y-81324855D01*
X220314158Y-81341575D01*
X220128597Y-81471505D01*
X219961505Y-81638597D01*
X219825965Y-81832169D01*
X219825964Y-81832171D01*
X219726098Y-82046335D01*
X219726094Y-82046344D01*
X219664938Y-82274586D01*
X219664936Y-82274596D01*
X219644341Y-82509999D01*
X219644341Y-82510000D01*
X219664936Y-82745403D01*
X219664938Y-82745413D01*
X219726094Y-82973655D01*
X219726096Y-82973659D01*
X219726097Y-82973663D01*
X219756615Y-83039109D01*
X219825965Y-83187830D01*
X219825967Y-83187834D01*
X219961501Y-83381395D01*
X219961506Y-83381402D01*
X220128597Y-83548493D01*
X220128603Y-83548498D01*
X220314158Y-83678425D01*
X220357783Y-83733002D01*
X220364977Y-83802500D01*
X220333454Y-83864855D01*
X220314158Y-83881575D01*
X220128597Y-84011505D01*
X219961505Y-84178597D01*
X219825965Y-84372169D01*
X219825964Y-84372171D01*
X219726098Y-84586335D01*
X219726094Y-84586344D01*
X219664938Y-84814586D01*
X219664936Y-84814596D01*
X219644341Y-85049999D01*
X219644341Y-85050000D01*
X219664936Y-85285403D01*
X219664938Y-85285413D01*
X219726094Y-85513655D01*
X219726096Y-85513659D01*
X219726097Y-85513663D01*
X219757443Y-85580884D01*
X219825965Y-85727830D01*
X219825967Y-85727834D01*
X219961501Y-85921395D01*
X219961506Y-85921402D01*
X220128597Y-86088493D01*
X220128603Y-86088498D01*
X220314158Y-86218425D01*
X220357783Y-86273002D01*
X220364977Y-86342500D01*
X220333454Y-86404855D01*
X220314158Y-86421575D01*
X220128597Y-86551505D01*
X219961505Y-86718597D01*
X219825965Y-86912169D01*
X219825964Y-86912171D01*
X219726098Y-87126335D01*
X219726094Y-87126344D01*
X219664938Y-87354586D01*
X219664936Y-87354596D01*
X219644341Y-87589999D01*
X219644341Y-87590000D01*
X219664936Y-87825403D01*
X219664938Y-87825413D01*
X219726094Y-88053655D01*
X219726096Y-88053659D01*
X219726097Y-88053663D01*
X219776095Y-88160884D01*
X219825965Y-88267830D01*
X219825967Y-88267834D01*
X219961501Y-88461395D01*
X219961506Y-88461402D01*
X220128597Y-88628493D01*
X220128603Y-88628498D01*
X220314158Y-88758425D01*
X220357783Y-88813002D01*
X220364977Y-88882500D01*
X220333454Y-88944855D01*
X220314158Y-88961575D01*
X220128597Y-89091505D01*
X219961505Y-89258597D01*
X219825965Y-89452169D01*
X219825964Y-89452171D01*
X219726098Y-89666335D01*
X219726094Y-89666344D01*
X219664938Y-89894586D01*
X219664936Y-89894596D01*
X219644341Y-90129999D01*
X219644341Y-90130000D01*
X219664936Y-90365403D01*
X219664938Y-90365413D01*
X219726094Y-90593655D01*
X219726096Y-90593659D01*
X219726097Y-90593663D01*
X219808771Y-90770957D01*
X219825965Y-90807830D01*
X219825967Y-90807834D01*
X219961501Y-91001395D01*
X219961506Y-91001402D01*
X220128597Y-91168493D01*
X220128603Y-91168498D01*
X220314158Y-91298425D01*
X220357783Y-91353002D01*
X220364977Y-91422500D01*
X220333454Y-91484855D01*
X220314158Y-91501575D01*
X220128597Y-91631505D01*
X219961505Y-91798597D01*
X219825965Y-91992169D01*
X219825964Y-91992171D01*
X219726098Y-92206335D01*
X219726094Y-92206344D01*
X219664938Y-92434586D01*
X219664936Y-92434596D01*
X219644341Y-92669999D01*
X219644341Y-92670000D01*
X213440415Y-92670000D01*
X213467690Y-92660456D01*
X213467692Y-92660454D01*
X213467694Y-92660454D01*
X213467697Y-92660452D01*
X213610884Y-92570481D01*
X213610885Y-92570480D01*
X213610890Y-92570477D01*
X213730477Y-92450890D01*
X213730481Y-92450884D01*
X213820452Y-92307697D01*
X213820454Y-92307694D01*
X213820454Y-92307692D01*
X213820456Y-92307690D01*
X213876313Y-92148059D01*
X213876313Y-92148058D01*
X213876314Y-92148056D01*
X213895249Y-91980002D01*
X213895249Y-91979997D01*
X213876314Y-91811943D01*
X213820454Y-91652305D01*
X213820452Y-91652302D01*
X213730481Y-91509115D01*
X213730476Y-91509109D01*
X213610890Y-91389523D01*
X213610884Y-91389518D01*
X213467697Y-91299547D01*
X213467694Y-91299545D01*
X213308056Y-91243685D01*
X213140003Y-91224751D01*
X213139997Y-91224751D01*
X212971943Y-91243685D01*
X212812305Y-91299545D01*
X212812302Y-91299547D01*
X212669115Y-91389518D01*
X212669109Y-91389523D01*
X212549523Y-91509109D01*
X212549518Y-91509115D01*
X212459547Y-91652302D01*
X212459545Y-91652305D01*
X212403685Y-91811943D01*
X212384751Y-91979997D01*
X212384751Y-91980002D01*
X206745500Y-91980002D01*
X206745500Y-88583566D01*
X206744787Y-88562408D01*
X206744787Y-88562407D01*
X206692234Y-87782883D01*
X206678840Y-87700002D01*
X215354751Y-87700002D01*
X215373685Y-87868056D01*
X215429545Y-88027694D01*
X215429547Y-88027697D01*
X215519518Y-88170884D01*
X215519523Y-88170890D01*
X215639109Y-88290476D01*
X215639115Y-88290481D01*
X215782302Y-88380452D01*
X215782305Y-88380454D01*
X215782309Y-88380455D01*
X215782310Y-88380456D01*
X215854913Y-88405860D01*
X215941943Y-88436314D01*
X216109997Y-88455249D01*
X216110000Y-88455249D01*
X216110003Y-88455249D01*
X216278056Y-88436314D01*
X216278059Y-88436313D01*
X216437690Y-88380456D01*
X216437692Y-88380454D01*
X216437694Y-88380454D01*
X216437697Y-88380452D01*
X216580884Y-88290481D01*
X216580885Y-88290480D01*
X216580890Y-88290477D01*
X216700477Y-88170890D01*
X216700752Y-88170452D01*
X216790452Y-88027697D01*
X216790454Y-88027694D01*
X216790454Y-88027692D01*
X216790456Y-88027690D01*
X216846313Y-87868059D01*
X216846313Y-87868058D01*
X216846314Y-87868056D01*
X216865249Y-87700002D01*
X216865249Y-87699997D01*
X216846314Y-87531943D01*
X216794958Y-87385177D01*
X216790456Y-87372310D01*
X216790455Y-87372309D01*
X216790454Y-87372305D01*
X216790452Y-87372302D01*
X216700481Y-87229115D01*
X216700476Y-87229109D01*
X216580890Y-87109523D01*
X216580884Y-87109518D01*
X216437697Y-87019547D01*
X216437694Y-87019545D01*
X216278056Y-86963685D01*
X216110003Y-86944751D01*
X216109997Y-86944751D01*
X215941943Y-86963685D01*
X215782305Y-87019545D01*
X215782302Y-87019547D01*
X215639115Y-87109518D01*
X215639109Y-87109523D01*
X215519523Y-87229109D01*
X215519518Y-87229115D01*
X215429547Y-87372302D01*
X215429545Y-87372305D01*
X215373685Y-87531943D01*
X215354751Y-87699997D01*
X215354751Y-87700002D01*
X206678840Y-87700002D01*
X206677272Y-87690297D01*
X206668933Y-87658059D01*
X206665801Y-87645948D01*
X206660215Y-87630454D01*
X206633989Y-87557708D01*
X206554931Y-87437494D01*
X206554929Y-87437492D01*
X206554928Y-87437490D01*
X206519868Y-87397880D01*
X206508623Y-87385175D01*
X206398902Y-87292105D01*
X206361139Y-87275337D01*
X206267407Y-87233717D01*
X206267405Y-87233716D01*
X206267402Y-87233715D01*
X206267395Y-87233713D01*
X206267392Y-87233712D01*
X206200160Y-87214737D01*
X206196387Y-87214215D01*
X206196084Y-87214195D01*
X206194430Y-87213975D01*
X206172120Y-87211006D01*
X206057528Y-87195760D01*
X204579938Y-87211314D01*
X204565308Y-87211468D01*
X204544990Y-87212509D01*
X204524514Y-87213975D01*
X204524502Y-87213976D01*
X204488674Y-87222540D01*
X204418895Y-87218979D01*
X204362119Y-87178257D01*
X204354856Y-87167909D01*
X204350223Y-87160535D01*
X204330477Y-87129110D01*
X204210890Y-87009523D01*
X204210884Y-87009518D01*
X204067697Y-86919547D01*
X204067694Y-86919545D01*
X203908056Y-86863685D01*
X203786609Y-86850002D01*
X207674751Y-86850002D01*
X207693685Y-87018056D01*
X207749545Y-87177694D01*
X207749547Y-87177697D01*
X207839518Y-87320884D01*
X207839523Y-87320890D01*
X207959109Y-87440476D01*
X207959115Y-87440481D01*
X208102302Y-87530452D01*
X208102305Y-87530454D01*
X208102309Y-87530455D01*
X208102310Y-87530456D01*
X208106560Y-87531943D01*
X208261943Y-87586314D01*
X208429997Y-87605249D01*
X208430000Y-87605249D01*
X208430003Y-87605249D01*
X208598056Y-87586314D01*
X208598059Y-87586313D01*
X208757690Y-87530456D01*
X208757692Y-87530454D01*
X208757694Y-87530454D01*
X208757697Y-87530452D01*
X208900884Y-87440481D01*
X208900885Y-87440480D01*
X208900890Y-87440477D01*
X209020477Y-87320890D01*
X209020981Y-87320088D01*
X209110452Y-87177697D01*
X209110454Y-87177694D01*
X209110454Y-87177692D01*
X209110456Y-87177690D01*
X209166313Y-87018059D01*
X209166313Y-87018058D01*
X209166314Y-87018056D01*
X209185249Y-86850002D01*
X209185249Y-86849997D01*
X209166314Y-86681943D01*
X209110454Y-86522305D01*
X209110452Y-86522302D01*
X209020481Y-86379115D01*
X209020476Y-86379109D01*
X208900890Y-86259523D01*
X208900884Y-86259518D01*
X208757697Y-86169547D01*
X208757694Y-86169545D01*
X208598056Y-86113685D01*
X208430003Y-86094751D01*
X208429997Y-86094751D01*
X208261943Y-86113685D01*
X208102305Y-86169545D01*
X208102302Y-86169547D01*
X207959115Y-86259518D01*
X207959109Y-86259523D01*
X207839523Y-86379109D01*
X207839518Y-86379115D01*
X207749547Y-86522302D01*
X207749545Y-86522305D01*
X207693685Y-86681943D01*
X207674751Y-86849997D01*
X207674751Y-86850002D01*
X203786609Y-86850002D01*
X203740003Y-86844751D01*
X203739997Y-86844751D01*
X203571943Y-86863685D01*
X203412305Y-86919545D01*
X203412302Y-86919547D01*
X203269115Y-87009518D01*
X203269109Y-87009523D01*
X203149523Y-87129109D01*
X203149522Y-87129111D01*
X203147722Y-87131976D01*
X203146077Y-87133430D01*
X203145180Y-87134556D01*
X203144982Y-87134398D01*
X203095386Y-87178266D01*
X203026332Y-87188912D01*
X202962485Y-87160535D01*
X202955049Y-87153682D01*
X202830890Y-87029523D01*
X202830884Y-87029518D01*
X202687697Y-86939547D01*
X202687694Y-86939545D01*
X202528056Y-86883685D01*
X202360003Y-86864751D01*
X202359997Y-86864751D01*
X202191943Y-86883685D01*
X202032305Y-86939545D01*
X202032302Y-86939547D01*
X201889115Y-87029518D01*
X201889109Y-87029523D01*
X201769522Y-87149110D01*
X201737526Y-87200032D01*
X201685191Y-87246323D01*
X201616178Y-87256977D01*
X201515420Y-87243571D01*
X199647370Y-87263235D01*
X199542630Y-87275335D01*
X199542621Y-87275337D01*
X199492427Y-87286534D01*
X199392495Y-87320088D01*
X199271462Y-87397871D01*
X199271451Y-87397880D01*
X199218659Y-87443624D01*
X199124433Y-87552365D01*
X199124430Y-87552369D01*
X199064664Y-87683235D01*
X199044978Y-87750276D01*
X199044976Y-87750281D01*
X199024500Y-87892702D01*
X199024500Y-89759000D01*
X199004815Y-89826039D01*
X198952011Y-89871794D01*
X198900206Y-89883000D01*
X195445495Y-89874795D01*
X195337422Y-89886221D01*
X195337414Y-89886222D01*
X195285609Y-89897428D01*
X195182495Y-89931682D01*
X195182493Y-89931683D01*
X195061462Y-90009465D01*
X195061451Y-90009474D01*
X195008659Y-90055218D01*
X194914433Y-90163959D01*
X194914430Y-90163963D01*
X194854664Y-90294829D01*
X194834978Y-90361870D01*
X194834976Y-90361875D01*
X194814500Y-90504296D01*
X194814500Y-90690500D01*
X194794815Y-90757539D01*
X194742011Y-90803294D01*
X194690500Y-90814500D01*
X189441154Y-90814500D01*
X189374115Y-90794815D01*
X189328360Y-90742011D01*
X189318416Y-90672853D01*
X189336159Y-90624530D01*
X189340454Y-90617693D01*
X189340453Y-90617693D01*
X189340456Y-90617690D01*
X189396313Y-90458059D01*
X189396313Y-90458058D01*
X189396314Y-90458056D01*
X189415249Y-90290002D01*
X189415249Y-90289997D01*
X189396314Y-90121943D01*
X189340454Y-89962305D01*
X189340452Y-89962302D01*
X189250481Y-89819115D01*
X189250476Y-89819109D01*
X189130890Y-89699523D01*
X189130884Y-89699518D01*
X188987697Y-89609547D01*
X188987694Y-89609545D01*
X188828056Y-89553685D01*
X188660003Y-89534751D01*
X188659997Y-89534751D01*
X188491943Y-89553685D01*
X188332305Y-89609545D01*
X188332302Y-89609547D01*
X188189115Y-89699518D01*
X188189109Y-89699523D01*
X188069523Y-89819109D01*
X188069518Y-89819115D01*
X187979547Y-89962302D01*
X187979545Y-89962305D01*
X187923685Y-90121943D01*
X187904751Y-90289997D01*
X187904751Y-90290002D01*
X187923685Y-90458056D01*
X187979545Y-90617693D01*
X187983841Y-90624530D01*
X188002840Y-90691767D01*
X187982471Y-90758602D01*
X187929202Y-90803815D01*
X187878846Y-90814500D01*
X176365566Y-90814500D01*
X176298527Y-90794815D01*
X176252772Y-90742011D01*
X176242828Y-90672853D01*
X176253184Y-90638096D01*
X176273900Y-90593669D01*
X176273903Y-90593663D01*
X176335063Y-90365408D01*
X176355659Y-90130000D01*
X176335063Y-89894592D01*
X176273903Y-89666337D01*
X176174035Y-89452171D01*
X176038495Y-89258599D01*
X176038494Y-89258597D01*
X175871402Y-89091506D01*
X175871396Y-89091501D01*
X175685842Y-88961575D01*
X175642217Y-88906998D01*
X175635023Y-88837500D01*
X175666546Y-88775145D01*
X175685842Y-88758425D01*
X175708026Y-88742891D01*
X175871401Y-88628495D01*
X176038495Y-88461401D01*
X176174035Y-88267830D01*
X176273903Y-88053663D01*
X176335063Y-87825408D01*
X176355659Y-87590000D01*
X176355336Y-87586313D01*
X176338850Y-87397876D01*
X176335063Y-87354592D01*
X176283542Y-87162310D01*
X176273905Y-87126344D01*
X176273904Y-87126343D01*
X176273903Y-87126337D01*
X176191676Y-86950002D01*
X185384751Y-86950002D01*
X185403685Y-87118056D01*
X185459545Y-87277694D01*
X185459547Y-87277697D01*
X185549518Y-87420884D01*
X185549523Y-87420890D01*
X185669109Y-87540476D01*
X185669115Y-87540481D01*
X185812302Y-87630452D01*
X185812305Y-87630454D01*
X185812309Y-87630455D01*
X185812310Y-87630456D01*
X185856567Y-87645942D01*
X185971943Y-87686314D01*
X186139997Y-87705249D01*
X186140000Y-87705249D01*
X186140003Y-87705249D01*
X186308056Y-87686314D01*
X186316855Y-87683235D01*
X186467690Y-87630456D01*
X186467692Y-87630454D01*
X186467694Y-87630454D01*
X186467697Y-87630452D01*
X186610884Y-87540481D01*
X186610885Y-87540480D01*
X186610890Y-87540477D01*
X186661365Y-87490002D01*
X191334751Y-87490002D01*
X191353685Y-87658056D01*
X191409545Y-87817694D01*
X191409547Y-87817697D01*
X191499518Y-87960884D01*
X191499523Y-87960890D01*
X191619109Y-88080476D01*
X191619115Y-88080481D01*
X191762302Y-88170452D01*
X191762305Y-88170454D01*
X191762309Y-88170455D01*
X191762310Y-88170456D01*
X191834913Y-88195860D01*
X191921943Y-88226314D01*
X192089997Y-88245249D01*
X192090000Y-88245249D01*
X192090003Y-88245249D01*
X192258056Y-88226314D01*
X192258059Y-88226313D01*
X192417690Y-88170456D01*
X192417692Y-88170454D01*
X192417694Y-88170454D01*
X192417697Y-88170452D01*
X192560884Y-88080481D01*
X192560885Y-88080480D01*
X192560890Y-88080477D01*
X192680477Y-87960890D01*
X192723323Y-87892702D01*
X192770454Y-87817694D01*
X192773279Y-87811829D01*
X192820100Y-87759968D01*
X192887526Y-87741654D01*
X192954151Y-87762700D01*
X192996721Y-87811829D01*
X192999545Y-87817694D01*
X193089518Y-87960884D01*
X193089523Y-87960890D01*
X193209109Y-88080476D01*
X193209115Y-88080481D01*
X193352302Y-88170452D01*
X193352305Y-88170454D01*
X193352309Y-88170455D01*
X193352310Y-88170456D01*
X193424913Y-88195860D01*
X193511943Y-88226314D01*
X193679997Y-88245249D01*
X193680000Y-88245249D01*
X193680003Y-88245249D01*
X193848056Y-88226314D01*
X193848059Y-88226313D01*
X194007690Y-88170456D01*
X194007692Y-88170454D01*
X194007694Y-88170454D01*
X194007697Y-88170452D01*
X194150884Y-88080481D01*
X194150885Y-88080480D01*
X194150890Y-88080477D01*
X194270477Y-87960890D01*
X194313323Y-87892702D01*
X194360452Y-87817697D01*
X194360454Y-87817694D01*
X194360454Y-87817692D01*
X194360456Y-87817690D01*
X194405136Y-87690002D01*
X194944751Y-87690002D01*
X194963685Y-87858056D01*
X195019545Y-88017694D01*
X195019547Y-88017697D01*
X195109518Y-88160884D01*
X195109523Y-88160890D01*
X195229109Y-88280476D01*
X195229115Y-88280481D01*
X195372302Y-88370452D01*
X195372305Y-88370454D01*
X195372309Y-88370455D01*
X195372310Y-88370456D01*
X195400883Y-88380454D01*
X195531943Y-88426314D01*
X195699997Y-88445249D01*
X195700000Y-88445249D01*
X195700003Y-88445249D01*
X195868056Y-88426314D01*
X195868059Y-88426313D01*
X196027690Y-88370456D01*
X196027692Y-88370454D01*
X196027694Y-88370454D01*
X196027697Y-88370452D01*
X196170884Y-88280481D01*
X196170885Y-88280480D01*
X196170890Y-88280477D01*
X196290477Y-88160890D01*
X196357858Y-88053655D01*
X196380452Y-88017697D01*
X196380454Y-88017694D01*
X196380454Y-88017692D01*
X196380456Y-88017690D01*
X196436313Y-87858059D01*
X196436313Y-87858058D01*
X196436314Y-87858056D01*
X196455249Y-87690002D01*
X196455249Y-87689997D01*
X196436314Y-87521943D01*
X196380454Y-87362305D01*
X196380452Y-87362302D01*
X196290481Y-87219115D01*
X196290476Y-87219109D01*
X196170890Y-87099523D01*
X196170884Y-87099518D01*
X196027697Y-87009547D01*
X196027694Y-87009545D01*
X195868056Y-86953685D01*
X195700003Y-86934751D01*
X195699997Y-86934751D01*
X195531943Y-86953685D01*
X195372305Y-87009545D01*
X195372302Y-87009547D01*
X195229115Y-87099518D01*
X195229109Y-87099523D01*
X195109523Y-87219109D01*
X195109518Y-87219115D01*
X195019547Y-87362302D01*
X195019545Y-87362305D01*
X194963685Y-87521943D01*
X194944751Y-87689997D01*
X194944751Y-87690002D01*
X194405136Y-87690002D01*
X194416313Y-87658059D01*
X194416313Y-87658058D01*
X194416314Y-87658056D01*
X194435249Y-87490002D01*
X194435249Y-87489997D01*
X194416314Y-87321943D01*
X194372161Y-87195761D01*
X194360456Y-87162310D01*
X194360455Y-87162309D01*
X194360454Y-87162305D01*
X194360452Y-87162302D01*
X194270481Y-87019115D01*
X194270476Y-87019109D01*
X194150890Y-86899523D01*
X194150884Y-86899518D01*
X194007697Y-86809547D01*
X194007694Y-86809545D01*
X193848056Y-86753685D01*
X193680003Y-86734751D01*
X193679997Y-86734751D01*
X193511943Y-86753685D01*
X193352305Y-86809545D01*
X193352302Y-86809547D01*
X193209115Y-86899518D01*
X193209109Y-86899523D01*
X193089523Y-87019109D01*
X193089518Y-87019115D01*
X192999548Y-87162301D01*
X192996720Y-87168174D01*
X192949897Y-87220033D01*
X192882470Y-87238345D01*
X192815846Y-87217297D01*
X192773280Y-87168174D01*
X192770457Y-87162315D01*
X192770456Y-87162310D01*
X192770451Y-87162302D01*
X192770451Y-87162301D01*
X192680481Y-87019115D01*
X192680476Y-87019109D01*
X192560890Y-86899523D01*
X192560884Y-86899518D01*
X192417697Y-86809547D01*
X192417694Y-86809545D01*
X192258056Y-86753685D01*
X192090003Y-86734751D01*
X192089997Y-86734751D01*
X191921943Y-86753685D01*
X191762305Y-86809545D01*
X191762302Y-86809547D01*
X191619115Y-86899518D01*
X191619109Y-86899523D01*
X191499523Y-87019109D01*
X191499518Y-87019115D01*
X191409547Y-87162302D01*
X191409545Y-87162305D01*
X191353685Y-87321943D01*
X191334751Y-87489997D01*
X191334751Y-87490002D01*
X186661365Y-87490002D01*
X186730477Y-87420890D01*
X186752917Y-87385177D01*
X186820452Y-87277697D01*
X186820454Y-87277694D01*
X186820454Y-87277692D01*
X186820456Y-87277690D01*
X186876313Y-87118059D01*
X186876313Y-87118058D01*
X186876314Y-87118056D01*
X186895249Y-86950002D01*
X186895249Y-86949997D01*
X186876314Y-86781943D01*
X186820454Y-86622305D01*
X186820452Y-86622302D01*
X186730481Y-86479115D01*
X186730476Y-86479109D01*
X186610890Y-86359523D01*
X186610884Y-86359518D01*
X186467697Y-86269547D01*
X186467694Y-86269545D01*
X186308056Y-86213685D01*
X186140003Y-86194751D01*
X186139997Y-86194751D01*
X185971943Y-86213685D01*
X185812305Y-86269545D01*
X185812302Y-86269547D01*
X185669115Y-86359518D01*
X185669109Y-86359523D01*
X185549523Y-86479109D01*
X185549518Y-86479115D01*
X185459547Y-86622302D01*
X185459545Y-86622305D01*
X185403685Y-86781943D01*
X185384751Y-86949997D01*
X185384751Y-86950002D01*
X176191676Y-86950002D01*
X176174035Y-86912171D01*
X176165176Y-86899518D01*
X176038494Y-86718597D01*
X175871402Y-86551506D01*
X175871396Y-86551501D01*
X175685842Y-86421575D01*
X175642217Y-86366998D01*
X175635023Y-86297500D01*
X175666546Y-86235145D01*
X175685842Y-86218425D01*
X175835423Y-86113687D01*
X175871401Y-86088495D01*
X176038495Y-85921401D01*
X176174035Y-85727830D01*
X176273903Y-85513663D01*
X176335063Y-85285408D01*
X176350409Y-85110002D01*
X181224751Y-85110002D01*
X181243685Y-85278056D01*
X181299545Y-85437694D01*
X181299547Y-85437697D01*
X181389518Y-85580884D01*
X181389523Y-85580890D01*
X181509109Y-85700476D01*
X181509115Y-85700481D01*
X181652302Y-85790452D01*
X181652305Y-85790454D01*
X181652309Y-85790455D01*
X181652310Y-85790456D01*
X181724913Y-85815860D01*
X181811943Y-85846314D01*
X181979997Y-85865249D01*
X181980000Y-85865249D01*
X181980003Y-85865249D01*
X182148056Y-85846314D01*
X182148059Y-85846313D01*
X182307690Y-85790456D01*
X182307692Y-85790454D01*
X182307694Y-85790454D01*
X182307697Y-85790452D01*
X182450884Y-85700481D01*
X182450885Y-85700480D01*
X182450890Y-85700477D01*
X182570477Y-85580890D01*
X182660452Y-85437697D01*
X182660454Y-85437694D01*
X182660454Y-85437692D01*
X182660456Y-85437690D01*
X182716313Y-85278059D01*
X182716313Y-85278058D01*
X182716314Y-85278056D01*
X182735249Y-85110002D01*
X182735249Y-85109997D01*
X182716314Y-84941943D01*
X182660454Y-84782305D01*
X182660452Y-84782302D01*
X182570481Y-84639115D01*
X182570476Y-84639109D01*
X182450890Y-84519523D01*
X182450884Y-84519518D01*
X182307697Y-84429547D01*
X182307694Y-84429545D01*
X182251844Y-84410002D01*
X187724751Y-84410002D01*
X187743685Y-84578056D01*
X187799545Y-84737694D01*
X187799547Y-84737697D01*
X187889518Y-84880884D01*
X187889523Y-84880890D01*
X188009109Y-85000476D01*
X188009115Y-85000481D01*
X188152302Y-85090452D01*
X188152305Y-85090454D01*
X188152309Y-85090455D01*
X188152310Y-85090456D01*
X188208155Y-85109997D01*
X188311943Y-85146314D01*
X188479997Y-85165249D01*
X188480000Y-85165249D01*
X188480003Y-85165249D01*
X188648056Y-85146314D01*
X188648059Y-85146313D01*
X188807690Y-85090456D01*
X188807692Y-85090454D01*
X188807694Y-85090454D01*
X188807697Y-85090452D01*
X188950884Y-85000481D01*
X188950885Y-85000480D01*
X188950890Y-85000477D01*
X189070477Y-84880890D01*
X189120745Y-84800890D01*
X189160452Y-84737697D01*
X189160454Y-84737694D01*
X189160454Y-84737692D01*
X189160456Y-84737690D01*
X189216313Y-84578059D01*
X189216313Y-84578058D01*
X189216314Y-84578056D01*
X189235249Y-84410002D01*
X189235249Y-84409997D01*
X189226235Y-84330002D01*
X191954751Y-84330002D01*
X191973685Y-84498056D01*
X192029545Y-84657694D01*
X192029547Y-84657697D01*
X192119518Y-84800884D01*
X192119523Y-84800890D01*
X192239109Y-84920476D01*
X192239115Y-84920481D01*
X192382302Y-85010452D01*
X192382305Y-85010454D01*
X192382309Y-85010455D01*
X192382310Y-85010456D01*
X192454913Y-85035860D01*
X192541943Y-85066314D01*
X192709997Y-85085249D01*
X192710000Y-85085249D01*
X192710003Y-85085249D01*
X192878056Y-85066314D01*
X192924679Y-85050000D01*
X193037690Y-85010456D01*
X193037692Y-85010454D01*
X193037694Y-85010454D01*
X193037697Y-85010452D01*
X193180884Y-84920481D01*
X193180885Y-84920480D01*
X193180890Y-84920477D01*
X193300477Y-84800890D01*
X193340186Y-84737694D01*
X193390452Y-84657697D01*
X193390454Y-84657694D01*
X193390454Y-84657692D01*
X193390456Y-84657690D01*
X193446313Y-84498059D01*
X193446313Y-84498058D01*
X193446314Y-84498056D01*
X193465249Y-84330002D01*
X193465249Y-84329997D01*
X193446314Y-84161943D01*
X193390454Y-84002305D01*
X193390452Y-84002302D01*
X193300481Y-83859115D01*
X193300476Y-83859109D01*
X193180890Y-83739523D01*
X193180884Y-83739518D01*
X193037697Y-83649547D01*
X193037694Y-83649545D01*
X192878056Y-83593685D01*
X192710003Y-83574751D01*
X192709997Y-83574751D01*
X192541943Y-83593685D01*
X192382305Y-83649545D01*
X192382302Y-83649547D01*
X192239115Y-83739518D01*
X192239109Y-83739523D01*
X192119523Y-83859109D01*
X192119518Y-83859115D01*
X192029547Y-84002302D01*
X192029545Y-84002305D01*
X191973685Y-84161943D01*
X191954751Y-84329997D01*
X191954751Y-84330002D01*
X189226235Y-84330002D01*
X189216313Y-84241940D01*
X189216313Y-84241938D01*
X189172767Y-84117492D01*
X189169205Y-84047713D01*
X189203933Y-83987086D01*
X189265927Y-83954858D01*
X189335502Y-83961263D01*
X189377489Y-83988856D01*
X189489109Y-84100476D01*
X189489115Y-84100481D01*
X189632302Y-84190452D01*
X189632305Y-84190454D01*
X189632309Y-84190455D01*
X189632310Y-84190456D01*
X189704913Y-84215860D01*
X189791943Y-84246314D01*
X189959997Y-84265249D01*
X189960000Y-84265249D01*
X189960003Y-84265249D01*
X190128056Y-84246314D01*
X190140548Y-84241943D01*
X190287690Y-84190456D01*
X190287692Y-84190454D01*
X190287694Y-84190454D01*
X190287697Y-84190452D01*
X190430884Y-84100481D01*
X190430885Y-84100480D01*
X190430890Y-84100477D01*
X190550477Y-83980890D01*
X190562810Y-83961263D01*
X190640452Y-83837697D01*
X190640454Y-83837694D01*
X190640454Y-83837692D01*
X190640456Y-83837690D01*
X190696313Y-83678059D01*
X190696313Y-83678058D01*
X190696314Y-83678056D01*
X190715249Y-83510002D01*
X190715249Y-83509997D01*
X190696314Y-83341943D01*
X190642389Y-83187834D01*
X190640456Y-83182310D01*
X190640455Y-83182309D01*
X190640454Y-83182305D01*
X190640452Y-83182302D01*
X190550481Y-83039115D01*
X190550476Y-83039109D01*
X190430890Y-82919523D01*
X190430884Y-82919518D01*
X190287697Y-82829547D01*
X190287694Y-82829545D01*
X190128056Y-82773685D01*
X189960003Y-82754751D01*
X189959997Y-82754751D01*
X189791943Y-82773685D01*
X189632305Y-82829545D01*
X189632302Y-82829547D01*
X189489115Y-82919518D01*
X189489109Y-82919523D01*
X189369523Y-83039109D01*
X189369518Y-83039115D01*
X189279547Y-83182302D01*
X189279545Y-83182305D01*
X189223685Y-83341943D01*
X189204751Y-83509997D01*
X189204751Y-83510002D01*
X189223686Y-83678057D01*
X189267233Y-83802508D01*
X189270794Y-83872286D01*
X189236065Y-83932914D01*
X189174072Y-83965141D01*
X189104496Y-83958736D01*
X189062510Y-83931143D01*
X188950890Y-83819523D01*
X188950884Y-83819518D01*
X188807697Y-83729547D01*
X188807694Y-83729545D01*
X188648056Y-83673685D01*
X188480003Y-83654751D01*
X188479997Y-83654751D01*
X188311943Y-83673685D01*
X188152305Y-83729545D01*
X188152302Y-83729547D01*
X188009115Y-83819518D01*
X188009109Y-83819523D01*
X187889523Y-83939109D01*
X187889518Y-83939115D01*
X187799547Y-84082302D01*
X187799545Y-84082305D01*
X187743685Y-84241943D01*
X187724751Y-84409997D01*
X187724751Y-84410002D01*
X182251844Y-84410002D01*
X182148056Y-84373685D01*
X181980003Y-84354751D01*
X181979997Y-84354751D01*
X181811943Y-84373685D01*
X181652305Y-84429545D01*
X181652302Y-84429547D01*
X181509115Y-84519518D01*
X181509109Y-84519523D01*
X181389523Y-84639109D01*
X181389518Y-84639115D01*
X181299547Y-84782302D01*
X181299545Y-84782305D01*
X181243685Y-84941943D01*
X181224751Y-85109997D01*
X181224751Y-85110002D01*
X176350409Y-85110002D01*
X176355659Y-85050000D01*
X176335063Y-84814592D01*
X176273903Y-84586337D01*
X176174035Y-84372171D01*
X176161838Y-84354751D01*
X176038494Y-84178597D01*
X175871402Y-84011506D01*
X175871396Y-84011501D01*
X175726440Y-83910002D01*
X177034751Y-83910002D01*
X177053685Y-84078056D01*
X177109545Y-84237694D01*
X177109547Y-84237697D01*
X177199518Y-84380884D01*
X177199523Y-84380890D01*
X177319109Y-84500476D01*
X177319115Y-84500481D01*
X177462302Y-84590452D01*
X177462305Y-84590454D01*
X177462309Y-84590455D01*
X177462310Y-84590456D01*
X177534913Y-84615860D01*
X177621943Y-84646314D01*
X177789997Y-84665249D01*
X177790000Y-84665249D01*
X177790003Y-84665249D01*
X177958056Y-84646314D01*
X177958059Y-84646313D01*
X178117690Y-84590456D01*
X178117692Y-84590454D01*
X178117694Y-84590454D01*
X178117697Y-84590452D01*
X178260884Y-84500481D01*
X178260885Y-84500480D01*
X178260890Y-84500477D01*
X178380477Y-84380890D01*
X178385957Y-84372169D01*
X178470452Y-84237697D01*
X178470454Y-84237694D01*
X178470454Y-84237692D01*
X178470456Y-84237690D01*
X178526313Y-84078059D01*
X178526313Y-84078058D01*
X178526314Y-84078056D01*
X178545249Y-83910002D01*
X178545249Y-83909997D01*
X178526314Y-83741943D01*
X178470454Y-83582305D01*
X178470452Y-83582302D01*
X178380481Y-83439115D01*
X178380476Y-83439109D01*
X178260890Y-83319523D01*
X178260884Y-83319518D01*
X178117697Y-83229547D01*
X178117694Y-83229545D01*
X177958056Y-83173685D01*
X177790003Y-83154751D01*
X177789997Y-83154751D01*
X177621943Y-83173685D01*
X177462305Y-83229545D01*
X177462302Y-83229547D01*
X177319115Y-83319518D01*
X177319109Y-83319523D01*
X177199523Y-83439109D01*
X177199518Y-83439115D01*
X177109547Y-83582302D01*
X177109545Y-83582305D01*
X177053685Y-83741943D01*
X177034751Y-83909997D01*
X177034751Y-83910002D01*
X175726440Y-83910002D01*
X175685842Y-83881575D01*
X175642217Y-83826998D01*
X175635023Y-83757500D01*
X175666546Y-83695145D01*
X175685842Y-83678425D01*
X175823115Y-83582305D01*
X175871401Y-83548495D01*
X176038495Y-83381401D01*
X176174035Y-83187830D01*
X176273903Y-82973663D01*
X176335063Y-82745408D01*
X176355659Y-82510000D01*
X176335063Y-82274592D01*
X176296321Y-82130002D01*
X205234751Y-82130002D01*
X205253685Y-82298056D01*
X205309545Y-82457694D01*
X205309547Y-82457697D01*
X205399518Y-82600884D01*
X205399523Y-82600890D01*
X205519109Y-82720476D01*
X205519115Y-82720481D01*
X205662302Y-82810452D01*
X205662305Y-82810454D01*
X205662309Y-82810455D01*
X205662310Y-82810456D01*
X205690883Y-82820454D01*
X205821943Y-82866314D01*
X205989997Y-82885249D01*
X205990000Y-82885249D01*
X205990003Y-82885249D01*
X206158056Y-82866314D01*
X206158059Y-82866313D01*
X206317690Y-82810456D01*
X206317692Y-82810454D01*
X206317694Y-82810454D01*
X206317697Y-82810452D01*
X206460884Y-82720481D01*
X206460885Y-82720480D01*
X206460890Y-82720477D01*
X206580477Y-82600890D01*
X206580481Y-82600884D01*
X206670452Y-82457697D01*
X206670454Y-82457694D01*
X206670454Y-82457692D01*
X206670456Y-82457690D01*
X206726313Y-82298059D01*
X206726313Y-82298058D01*
X206726314Y-82298056D01*
X206745249Y-82130002D01*
X206745249Y-82129997D01*
X206726314Y-81961943D01*
X206670454Y-81802305D01*
X206670452Y-81802302D01*
X206580481Y-81659115D01*
X206580476Y-81659109D01*
X206460890Y-81539523D01*
X206460884Y-81539518D01*
X206317697Y-81449547D01*
X206317694Y-81449545D01*
X206158056Y-81393685D01*
X205990003Y-81374751D01*
X205989997Y-81374751D01*
X205821943Y-81393685D01*
X205662305Y-81449545D01*
X205662302Y-81449547D01*
X205519115Y-81539518D01*
X205519109Y-81539523D01*
X205399523Y-81659109D01*
X205399518Y-81659115D01*
X205309547Y-81802302D01*
X205309545Y-81802305D01*
X205253685Y-81961943D01*
X205234751Y-82129997D01*
X205234751Y-82130002D01*
X176296321Y-82130002D01*
X176273903Y-82046337D01*
X176174035Y-81832171D01*
X176169934Y-81826313D01*
X176038494Y-81638597D01*
X175871402Y-81471506D01*
X175871396Y-81471501D01*
X175685842Y-81341575D01*
X175642217Y-81286998D01*
X175635023Y-81217500D01*
X175666546Y-81155145D01*
X175685842Y-81138425D01*
X175796573Y-81060890D01*
X175871401Y-81008495D01*
X176038495Y-80841401D01*
X176174035Y-80647830D01*
X176273903Y-80433663D01*
X176296320Y-80350000D01*
X181751185Y-80350000D01*
X181770404Y-80557414D01*
X181770404Y-80557416D01*
X181770405Y-80557419D01*
X181817160Y-80721746D01*
X181827412Y-80757778D01*
X181920262Y-80944245D01*
X182045797Y-81110480D01*
X182199736Y-81250813D01*
X182199738Y-81250815D01*
X182376840Y-81360472D01*
X182376846Y-81360475D01*
X182413697Y-81374751D01*
X182571085Y-81435723D01*
X182775846Y-81474000D01*
X182775848Y-81474000D01*
X182984152Y-81474000D01*
X182984154Y-81474000D01*
X183188915Y-81435723D01*
X183383156Y-81360474D01*
X183560263Y-81250814D01*
X183714204Y-81110478D01*
X183839738Y-80944245D01*
X183932589Y-80757775D01*
X183989595Y-80557419D01*
X184008815Y-80350000D01*
X186631185Y-80350000D01*
X186650404Y-80557414D01*
X186650404Y-80557416D01*
X186650405Y-80557419D01*
X186697160Y-80721746D01*
X186707412Y-80757778D01*
X186800262Y-80944245D01*
X186925797Y-81110480D01*
X187079736Y-81250813D01*
X187079738Y-81250815D01*
X187256840Y-81360472D01*
X187256846Y-81360475D01*
X187293697Y-81374751D01*
X187451085Y-81435723D01*
X187655846Y-81474000D01*
X187655848Y-81474000D01*
X187864152Y-81474000D01*
X187864154Y-81474000D01*
X188068915Y-81435723D01*
X188263156Y-81360474D01*
X188440263Y-81250814D01*
X188594204Y-81110478D01*
X188719738Y-80944245D01*
X188812589Y-80757775D01*
X188860324Y-80590002D01*
X192064751Y-80590002D01*
X192083685Y-80758056D01*
X192139545Y-80917694D01*
X192139547Y-80917697D01*
X192229518Y-81060884D01*
X192229523Y-81060890D01*
X192349109Y-81180476D01*
X192349115Y-81180481D01*
X192492302Y-81270452D01*
X192492305Y-81270454D01*
X192492309Y-81270455D01*
X192492310Y-81270456D01*
X192539585Y-81286998D01*
X192651943Y-81326314D01*
X192819997Y-81345249D01*
X192820000Y-81345249D01*
X192820003Y-81345249D01*
X192988056Y-81326314D01*
X192992226Y-81324855D01*
X193147690Y-81270456D01*
X193147692Y-81270454D01*
X193147694Y-81270454D01*
X193147697Y-81270452D01*
X193290884Y-81180481D01*
X193290885Y-81180480D01*
X193290890Y-81180477D01*
X193410477Y-81060890D01*
X193410481Y-81060884D01*
X193500452Y-80917697D01*
X193500454Y-80917694D01*
X193500454Y-80917692D01*
X193500456Y-80917690D01*
X193556313Y-80758059D01*
X193556313Y-80758058D01*
X193556314Y-80758056D01*
X193575249Y-80590002D01*
X193575249Y-80589997D01*
X193556314Y-80421943D01*
X193500454Y-80262305D01*
X193500452Y-80262302D01*
X193410481Y-80119115D01*
X193410476Y-80119109D01*
X193290890Y-79999523D01*
X193290884Y-79999518D01*
X193147697Y-79909547D01*
X193147694Y-79909545D01*
X192988056Y-79853685D01*
X192820003Y-79834751D01*
X192819997Y-79834751D01*
X192651943Y-79853685D01*
X192492305Y-79909545D01*
X192492302Y-79909547D01*
X192349115Y-79999518D01*
X192349109Y-79999523D01*
X192229523Y-80119109D01*
X192229518Y-80119115D01*
X192139547Y-80262302D01*
X192139545Y-80262305D01*
X192083685Y-80421943D01*
X192064751Y-80589997D01*
X192064751Y-80590002D01*
X188860324Y-80590002D01*
X188869595Y-80557419D01*
X188888815Y-80350000D01*
X188869595Y-80142581D01*
X188812589Y-79942225D01*
X188719738Y-79755755D01*
X188659512Y-79676003D01*
X188594202Y-79589519D01*
X188440263Y-79449186D01*
X188440261Y-79449184D01*
X188263159Y-79339527D01*
X188263153Y-79339524D01*
X188093200Y-79273685D01*
X188068915Y-79264277D01*
X187864154Y-79226000D01*
X187655846Y-79226000D01*
X187451085Y-79264277D01*
X187451082Y-79264277D01*
X187451082Y-79264278D01*
X187256846Y-79339524D01*
X187256840Y-79339527D01*
X187079738Y-79449184D01*
X187079736Y-79449186D01*
X186925797Y-79589519D01*
X186800262Y-79755754D01*
X186707412Y-79942221D01*
X186650404Y-80142585D01*
X186631185Y-80349999D01*
X186631185Y-80350000D01*
X184008815Y-80350000D01*
X183989595Y-80142581D01*
X183932589Y-79942225D01*
X183839738Y-79755755D01*
X183779512Y-79676003D01*
X183714202Y-79589519D01*
X183560263Y-79449186D01*
X183560261Y-79449184D01*
X183383159Y-79339527D01*
X183383153Y-79339524D01*
X183213200Y-79273685D01*
X183188915Y-79264277D01*
X182984154Y-79226000D01*
X182775846Y-79226000D01*
X182571085Y-79264277D01*
X182571082Y-79264277D01*
X182571082Y-79264278D01*
X182376846Y-79339524D01*
X182376840Y-79339527D01*
X182199738Y-79449184D01*
X182199736Y-79449186D01*
X182045797Y-79589519D01*
X181920262Y-79755754D01*
X181827412Y-79942221D01*
X181770404Y-80142585D01*
X181751185Y-80349999D01*
X181751185Y-80350000D01*
X176296320Y-80350000D01*
X176335063Y-80205408D01*
X176355659Y-79970000D01*
X176335063Y-79734592D01*
X176282684Y-79539109D01*
X176273905Y-79506344D01*
X176273904Y-79506343D01*
X176273903Y-79506337D01*
X176174035Y-79292171D01*
X176171699Y-79288834D01*
X176038494Y-79098597D01*
X175871402Y-78931506D01*
X175871396Y-78931501D01*
X175685842Y-78801575D01*
X175642217Y-78746998D01*
X175635023Y-78677500D01*
X175666546Y-78615145D01*
X175685842Y-78598425D01*
X175732425Y-78565807D01*
X175871401Y-78468495D01*
X176038495Y-78301401D01*
X176174035Y-78107830D01*
X176234573Y-77978007D01*
X193812756Y-77978007D01*
X193831690Y-78146061D01*
X193887550Y-78305699D01*
X193887552Y-78305702D01*
X193977523Y-78448889D01*
X193977528Y-78448895D01*
X194097114Y-78568481D01*
X194097120Y-78568486D01*
X194240307Y-78658457D01*
X194240310Y-78658459D01*
X194240314Y-78658460D01*
X194240315Y-78658461D01*
X194294720Y-78677498D01*
X194399948Y-78714319D01*
X194498276Y-78725397D01*
X194568005Y-78733254D01*
X194569058Y-78733135D01*
X194569736Y-78733254D01*
X194574969Y-78733254D01*
X194574969Y-78734169D01*
X194637879Y-78745180D01*
X194689265Y-78792522D01*
X194700978Y-78821630D01*
X194701388Y-78821487D01*
X194703686Y-78828056D01*
X194703687Y-78828059D01*
X194725768Y-78891164D01*
X194759544Y-78987692D01*
X194759547Y-78987697D01*
X194849518Y-79130884D01*
X194849523Y-79130890D01*
X194969110Y-79250477D01*
X195030154Y-79288834D01*
X195076445Y-79341169D01*
X195087402Y-79407711D01*
X195074751Y-79519996D01*
X195074751Y-79520002D01*
X195093685Y-79688056D01*
X195149545Y-79847694D01*
X195149547Y-79847697D01*
X195239518Y-79990884D01*
X195239523Y-79990890D01*
X195288758Y-80040125D01*
X195322243Y-80101448D01*
X195318119Y-80168759D01*
X195304351Y-80208106D01*
X195285416Y-80376162D01*
X195285416Y-80376167D01*
X195304350Y-80544221D01*
X195360210Y-80703859D01*
X195360212Y-80703862D01*
X195450183Y-80847049D01*
X195450188Y-80847055D01*
X195569774Y-80966641D01*
X195569780Y-80966646D01*
X195712967Y-81056617D01*
X195712970Y-81056619D01*
X195712974Y-81056620D01*
X195712975Y-81056621D01*
X195785578Y-81082025D01*
X195872608Y-81112479D01*
X196040662Y-81131414D01*
X196040665Y-81131414D01*
X196040668Y-81131414D01*
X196208721Y-81112479D01*
X196214440Y-81110478D01*
X196368355Y-81056621D01*
X196368357Y-81056619D01*
X196368359Y-81056619D01*
X196368362Y-81056617D01*
X196511549Y-80966646D01*
X196511550Y-80966645D01*
X196511555Y-80966642D01*
X196631142Y-80847055D01*
X196634695Y-80841401D01*
X196721117Y-80703862D01*
X196721119Y-80703859D01*
X196721119Y-80703857D01*
X196721121Y-80703855D01*
X196776978Y-80544224D01*
X196776978Y-80544223D01*
X196776979Y-80544221D01*
X196795914Y-80376167D01*
X196795914Y-80376162D01*
X196776979Y-80208108D01*
X196721119Y-80048470D01*
X196721117Y-80048467D01*
X196696948Y-80010002D01*
X198244751Y-80010002D01*
X198263685Y-80178056D01*
X198319545Y-80337694D01*
X198319547Y-80337697D01*
X198409518Y-80480884D01*
X198409523Y-80480890D01*
X198529109Y-80600476D01*
X198529115Y-80600481D01*
X198672302Y-80690452D01*
X198672305Y-80690454D01*
X198672309Y-80690455D01*
X198672310Y-80690456D01*
X198744913Y-80715860D01*
X198831943Y-80746314D01*
X198999997Y-80765249D01*
X199000000Y-80765249D01*
X199000003Y-80765249D01*
X199168059Y-80746313D01*
X199168061Y-80746313D01*
X199238268Y-80721746D01*
X199327690Y-80690456D01*
X199336281Y-80685057D01*
X199403516Y-80666056D01*
X199468227Y-80685056D01*
X199526618Y-80721746D01*
X199572310Y-80750456D01*
X199713905Y-80800002D01*
X199731944Y-80806314D01*
X199738730Y-80807863D01*
X199738163Y-80810345D01*
X199791743Y-80832852D01*
X199831305Y-80890442D01*
X199836678Y-80942895D01*
X199834751Y-80960001D01*
X199834751Y-80960002D01*
X199853685Y-81128056D01*
X199909545Y-81287694D01*
X199909547Y-81287697D01*
X199999518Y-81430884D01*
X199999523Y-81430890D01*
X200119109Y-81550476D01*
X200119115Y-81550481D01*
X200262302Y-81640452D01*
X200262305Y-81640454D01*
X200262309Y-81640455D01*
X200262310Y-81640456D01*
X200315635Y-81659115D01*
X200421943Y-81696314D01*
X200589997Y-81715249D01*
X200590000Y-81715249D01*
X200590003Y-81715249D01*
X200758056Y-81696314D01*
X200758059Y-81696313D01*
X200917690Y-81640456D01*
X200917692Y-81640454D01*
X200917694Y-81640454D01*
X200917697Y-81640452D01*
X201060884Y-81550481D01*
X201060885Y-81550480D01*
X201060890Y-81550477D01*
X201180477Y-81430890D01*
X201244968Y-81328252D01*
X201297302Y-81281963D01*
X201366355Y-81271315D01*
X201430204Y-81299690D01*
X201467002Y-81353271D01*
X201489542Y-81417686D01*
X201489547Y-81417697D01*
X201579518Y-81560884D01*
X201579523Y-81560890D01*
X201699109Y-81680476D01*
X201699115Y-81680481D01*
X201842302Y-81770452D01*
X201842305Y-81770454D01*
X201842309Y-81770455D01*
X201842310Y-81770456D01*
X201914913Y-81795860D01*
X202001943Y-81826314D01*
X202169997Y-81845249D01*
X202170000Y-81845249D01*
X202170003Y-81845249D01*
X202338056Y-81826314D01*
X202378077Y-81812310D01*
X202497690Y-81770456D01*
X202497692Y-81770454D01*
X202497694Y-81770454D01*
X202497697Y-81770452D01*
X202640884Y-81680481D01*
X202640885Y-81680480D01*
X202640890Y-81680477D01*
X202760477Y-81560890D01*
X202760481Y-81560884D01*
X202850452Y-81417697D01*
X202850454Y-81417694D01*
X202850454Y-81417692D01*
X202850456Y-81417690D01*
X202906313Y-81258059D01*
X202906313Y-81258058D01*
X202906314Y-81258056D01*
X202925249Y-81090002D01*
X202925249Y-81089997D01*
X202906314Y-80921943D01*
X202866396Y-80807863D01*
X202850456Y-80762310D01*
X202850455Y-80762309D01*
X202850454Y-80762305D01*
X202850452Y-80762302D01*
X202760481Y-80619115D01*
X202760476Y-80619109D01*
X202640890Y-80499523D01*
X202640884Y-80499518D01*
X202497697Y-80409547D01*
X202497694Y-80409545D01*
X202338056Y-80353685D01*
X202170003Y-80334751D01*
X202169997Y-80334751D01*
X202001943Y-80353685D01*
X201842305Y-80409545D01*
X201842302Y-80409547D01*
X201699115Y-80499518D01*
X201699109Y-80499523D01*
X201579523Y-80619109D01*
X201579521Y-80619112D01*
X201515031Y-80721746D01*
X201462696Y-80768037D01*
X201393643Y-80778684D01*
X201329794Y-80750309D01*
X201292996Y-80696727D01*
X201290801Y-80690455D01*
X201270456Y-80632310D01*
X201270225Y-80631943D01*
X201186641Y-80498920D01*
X201167641Y-80431684D01*
X201188008Y-80364848D01*
X201241276Y-80319634D01*
X201277748Y-80309728D01*
X201308059Y-80306313D01*
X201467690Y-80250456D01*
X201467692Y-80250454D01*
X201467694Y-80250454D01*
X201467697Y-80250452D01*
X201610884Y-80160481D01*
X201610885Y-80160480D01*
X201610890Y-80160477D01*
X201730477Y-80040890D01*
X201730958Y-80040125D01*
X201812720Y-79910002D01*
X205254751Y-79910002D01*
X205273685Y-80078056D01*
X205329545Y-80237694D01*
X205329547Y-80237697D01*
X205419518Y-80380884D01*
X205419523Y-80380890D01*
X205539109Y-80500476D01*
X205539115Y-80500481D01*
X205682302Y-80590452D01*
X205682305Y-80590454D01*
X205682309Y-80590455D01*
X205682310Y-80590456D01*
X205710946Y-80600476D01*
X205841943Y-80646314D01*
X206009997Y-80665249D01*
X206010000Y-80665249D01*
X206010003Y-80665249D01*
X206178056Y-80646314D01*
X206219126Y-80631943D01*
X206337690Y-80590456D01*
X206337692Y-80590454D01*
X206337694Y-80590454D01*
X206337697Y-80590452D01*
X206480884Y-80500481D01*
X206480885Y-80500480D01*
X206480890Y-80500477D01*
X206600477Y-80380890D01*
X206607438Y-80369812D01*
X206690452Y-80237697D01*
X206690454Y-80237694D01*
X206690454Y-80237692D01*
X206690456Y-80237690D01*
X206746313Y-80078059D01*
X206746313Y-80078058D01*
X206746314Y-80078056D01*
X206764122Y-79920002D01*
X207134751Y-79920002D01*
X207153685Y-80088056D01*
X207179027Y-80160477D01*
X207206047Y-80237697D01*
X207209545Y-80247692D01*
X207273948Y-80350188D01*
X207292948Y-80417424D01*
X207281675Y-80465679D01*
X207281844Y-80465738D01*
X207281296Y-80467302D01*
X207280677Y-80469955D01*
X207279547Y-80472300D01*
X207223685Y-80631943D01*
X207204751Y-80799997D01*
X207204751Y-80800002D01*
X207223685Y-80968056D01*
X207279545Y-81127694D01*
X207279547Y-81127697D01*
X207369518Y-81270884D01*
X207369523Y-81270890D01*
X207489110Y-81390477D01*
X207489115Y-81390480D01*
X207491362Y-81392272D01*
X207492438Y-81393805D01*
X207494034Y-81395401D01*
X207493754Y-81395680D01*
X207531503Y-81449460D01*
X207534353Y-81519271D01*
X207501732Y-81576901D01*
X207409518Y-81669115D01*
X207319547Y-81812302D01*
X207319545Y-81812305D01*
X207263685Y-81971943D01*
X207244751Y-82139997D01*
X207244751Y-82140002D01*
X207263685Y-82308056D01*
X207319545Y-82467694D01*
X207319547Y-82467697D01*
X207409518Y-82610884D01*
X207409523Y-82610890D01*
X207529109Y-82730476D01*
X207529115Y-82730481D01*
X207672302Y-82820452D01*
X207672305Y-82820454D01*
X207672309Y-82820455D01*
X207672310Y-82820456D01*
X207698285Y-82829545D01*
X207831943Y-82876314D01*
X207999997Y-82895249D01*
X208000000Y-82895249D01*
X208000003Y-82895249D01*
X208168056Y-82876314D01*
X208168059Y-82876313D01*
X208327690Y-82820456D01*
X208327692Y-82820454D01*
X208327694Y-82820454D01*
X208327697Y-82820452D01*
X208470884Y-82730481D01*
X208470885Y-82730480D01*
X208470890Y-82730477D01*
X208590477Y-82610890D01*
X208590481Y-82610884D01*
X208680452Y-82467697D01*
X208680454Y-82467694D01*
X208680454Y-82467692D01*
X208680456Y-82467690D01*
X208736313Y-82308059D01*
X208736313Y-82308058D01*
X208736314Y-82308056D01*
X208755249Y-82140002D01*
X208755249Y-82139997D01*
X208736314Y-81971943D01*
X208691982Y-81845249D01*
X208680456Y-81812310D01*
X208680455Y-81812309D01*
X208680454Y-81812305D01*
X208680452Y-81812302D01*
X208590481Y-81669115D01*
X208590476Y-81669109D01*
X208470892Y-81549525D01*
X208470890Y-81549523D01*
X208470887Y-81549521D01*
X208468636Y-81547726D01*
X208467560Y-81546193D01*
X208465966Y-81544599D01*
X208466245Y-81544319D01*
X208428496Y-81490537D01*
X208425646Y-81420726D01*
X208458265Y-81363101D01*
X208550477Y-81270890D01*
X208555749Y-81262500D01*
X208640452Y-81127697D01*
X208640454Y-81127694D01*
X208640454Y-81127692D01*
X208640456Y-81127690D01*
X208696313Y-80968059D01*
X208696313Y-80968058D01*
X208696314Y-80968056D01*
X208715249Y-80800002D01*
X208715249Y-80799997D01*
X208696314Y-80631943D01*
X208670235Y-80557414D01*
X208640456Y-80472310D01*
X208640454Y-80472307D01*
X208640454Y-80472306D01*
X208576052Y-80369812D01*
X208557051Y-80302575D01*
X208568326Y-80254323D01*
X208568156Y-80254264D01*
X208568712Y-80252672D01*
X208569332Y-80250023D01*
X208570452Y-80247696D01*
X208570456Y-80247690D01*
X208626313Y-80088059D01*
X208636289Y-79999518D01*
X208645249Y-79920002D01*
X208645249Y-79919997D01*
X208626314Y-79751943D01*
X208570454Y-79592305D01*
X208570452Y-79592302D01*
X208480481Y-79449115D01*
X208480476Y-79449109D01*
X208360890Y-79329523D01*
X208360884Y-79329518D01*
X208217697Y-79239547D01*
X208217694Y-79239545D01*
X208058056Y-79183685D01*
X207890003Y-79164751D01*
X207889997Y-79164751D01*
X207721943Y-79183685D01*
X207562305Y-79239545D01*
X207562302Y-79239547D01*
X207419115Y-79329518D01*
X207419109Y-79329523D01*
X207299523Y-79449109D01*
X207299518Y-79449115D01*
X207209547Y-79592302D01*
X207209545Y-79592305D01*
X207153685Y-79751943D01*
X207134751Y-79919997D01*
X207134751Y-79920002D01*
X206764122Y-79920002D01*
X206765249Y-79910002D01*
X206765249Y-79909997D01*
X206746314Y-79741943D01*
X206693952Y-79592302D01*
X206690456Y-79582310D01*
X206690455Y-79582309D01*
X206690454Y-79582305D01*
X206690452Y-79582302D01*
X206600481Y-79439115D01*
X206600476Y-79439109D01*
X206480890Y-79319523D01*
X206480884Y-79319518D01*
X206337697Y-79229547D01*
X206337694Y-79229545D01*
X206178056Y-79173685D01*
X206010003Y-79154751D01*
X206009997Y-79154751D01*
X205841943Y-79173685D01*
X205682305Y-79229545D01*
X205682302Y-79229547D01*
X205539115Y-79319518D01*
X205539109Y-79319523D01*
X205419523Y-79439109D01*
X205419518Y-79439115D01*
X205329547Y-79582302D01*
X205329545Y-79582305D01*
X205273685Y-79741943D01*
X205254751Y-79909997D01*
X205254751Y-79910002D01*
X201812720Y-79910002D01*
X201820452Y-79897697D01*
X201820454Y-79897694D01*
X201820454Y-79897692D01*
X201820456Y-79897690D01*
X201876313Y-79738059D01*
X201876313Y-79738058D01*
X201876314Y-79738056D01*
X201895249Y-79570002D01*
X201895249Y-79569997D01*
X201876314Y-79401943D01*
X201831435Y-79273687D01*
X201820456Y-79242310D01*
X201820455Y-79242309D01*
X201820454Y-79242305D01*
X201820452Y-79242302D01*
X201730481Y-79099115D01*
X201730476Y-79099109D01*
X201610890Y-78979523D01*
X201610884Y-78979518D01*
X201467697Y-78889547D01*
X201467694Y-78889545D01*
X201308056Y-78833685D01*
X201140003Y-78814751D01*
X201139997Y-78814751D01*
X200971943Y-78833685D01*
X200812305Y-78889545D01*
X200812302Y-78889547D01*
X200669115Y-78979518D01*
X200669109Y-78979523D01*
X200549523Y-79099109D01*
X200549518Y-79099115D01*
X200459547Y-79242302D01*
X200459542Y-79242313D01*
X200426876Y-79335667D01*
X200386155Y-79392443D01*
X200321202Y-79418190D01*
X200252640Y-79404734D01*
X200243863Y-79399706D01*
X200227692Y-79389545D01*
X200227691Y-79389544D01*
X200227690Y-79389544D01*
X200189370Y-79376135D01*
X200068056Y-79333685D01*
X199900003Y-79314751D01*
X199899997Y-79314751D01*
X199731943Y-79333685D01*
X199572305Y-79389545D01*
X199572304Y-79389546D01*
X199563712Y-79394945D01*
X199496475Y-79413943D01*
X199431772Y-79394943D01*
X199327692Y-79329545D01*
X199327691Y-79329544D01*
X199327690Y-79329544D01*
X199285414Y-79314751D01*
X199168056Y-79273685D01*
X199000003Y-79254751D01*
X198999997Y-79254751D01*
X198831943Y-79273685D01*
X198672305Y-79329545D01*
X198672302Y-79329547D01*
X198529115Y-79419518D01*
X198529109Y-79419523D01*
X198409523Y-79539109D01*
X198409518Y-79539115D01*
X198319547Y-79682302D01*
X198319545Y-79682305D01*
X198263685Y-79841943D01*
X198244751Y-80009997D01*
X198244751Y-80010002D01*
X196696948Y-80010002D01*
X196631146Y-79905280D01*
X196631141Y-79905274D01*
X196581905Y-79856038D01*
X196548420Y-79794715D01*
X196552544Y-79727406D01*
X196566313Y-79688059D01*
X196567426Y-79678172D01*
X196585249Y-79520002D01*
X196585249Y-79519997D01*
X196566314Y-79351943D01*
X196523485Y-79229544D01*
X196510456Y-79192310D01*
X196510455Y-79192309D01*
X196510454Y-79192305D01*
X196510452Y-79192302D01*
X196420481Y-79049115D01*
X196420476Y-79049109D01*
X196300888Y-78929521D01*
X196300886Y-78929520D01*
X196239844Y-78891164D01*
X196193554Y-78838830D01*
X196182597Y-78772287D01*
X196195249Y-78660002D01*
X196195249Y-78659997D01*
X196176314Y-78491943D01*
X196120454Y-78332305D01*
X196120452Y-78332302D01*
X196030481Y-78189115D01*
X196030476Y-78189109D01*
X195910890Y-78069523D01*
X195910884Y-78069518D01*
X195767697Y-77979547D01*
X195767694Y-77979545D01*
X195608056Y-77923685D01*
X195440003Y-77904751D01*
X195439992Y-77904751D01*
X195438917Y-77904872D01*
X195438227Y-77904751D01*
X195433037Y-77904751D01*
X195433037Y-77903841D01*
X195370097Y-77892809D01*
X195318723Y-77845453D01*
X195307027Y-77816375D01*
X195306618Y-77816519D01*
X195284616Y-77753642D01*
X195248461Y-77650315D01*
X195248460Y-77650314D01*
X195248459Y-77650310D01*
X195248457Y-77650307D01*
X195248265Y-77650002D01*
X200934751Y-77650002D01*
X200953685Y-77818056D01*
X201009545Y-77977694D01*
X201009547Y-77977697D01*
X201099518Y-78120884D01*
X201099523Y-78120890D01*
X201219109Y-78240476D01*
X201219115Y-78240481D01*
X201362302Y-78330452D01*
X201362305Y-78330454D01*
X201362309Y-78330455D01*
X201362310Y-78330456D01*
X201434913Y-78355860D01*
X201521943Y-78386314D01*
X201689997Y-78405249D01*
X201690000Y-78405249D01*
X201690003Y-78405249D01*
X201858059Y-78386313D01*
X201858061Y-78386313D01*
X201980364Y-78343517D01*
X202050143Y-78339955D01*
X202109000Y-78372877D01*
X202211954Y-78475831D01*
X202211960Y-78475836D01*
X202355147Y-78565807D01*
X202355150Y-78565809D01*
X202355154Y-78565810D01*
X202355155Y-78565811D01*
X202362800Y-78568486D01*
X202514788Y-78621669D01*
X202682842Y-78640604D01*
X202682845Y-78640604D01*
X202682848Y-78640604D01*
X202850901Y-78621669D01*
X202850904Y-78621668D01*
X203010535Y-78565811D01*
X203010537Y-78565809D01*
X203010539Y-78565809D01*
X203010542Y-78565807D01*
X203153729Y-78475836D01*
X203153730Y-78475835D01*
X203153735Y-78475832D01*
X203273322Y-78356245D01*
X203283558Y-78339955D01*
X203363297Y-78213052D01*
X203363299Y-78213049D01*
X203363299Y-78213047D01*
X203363301Y-78213045D01*
X203419158Y-78053414D01*
X203419158Y-78053413D01*
X203419159Y-78053411D01*
X203438094Y-77885357D01*
X203438094Y-77885352D01*
X203426540Y-77782813D01*
X203438594Y-77713991D01*
X203485943Y-77662612D01*
X203553553Y-77644987D01*
X203590715Y-77651888D01*
X203631939Y-77666313D01*
X203799997Y-77685249D01*
X203800000Y-77685249D01*
X203800003Y-77685249D01*
X203968056Y-77666314D01*
X203970645Y-77665408D01*
X204127690Y-77610456D01*
X204127692Y-77610454D01*
X204127694Y-77610454D01*
X204127697Y-77610452D01*
X204270884Y-77520481D01*
X204270885Y-77520480D01*
X204270890Y-77520477D01*
X204390477Y-77400890D01*
X204425581Y-77345023D01*
X204480452Y-77257697D01*
X204480455Y-77257691D01*
X204480456Y-77257690D01*
X204533732Y-77105432D01*
X204574454Y-77048658D01*
X204639406Y-77022910D01*
X204678374Y-77025499D01*
X204681937Y-77026311D01*
X204681941Y-77026313D01*
X204737224Y-77032542D01*
X204849997Y-77045249D01*
X204850000Y-77045249D01*
X204850003Y-77045249D01*
X205018056Y-77026314D01*
X205043728Y-77017331D01*
X207309620Y-77017331D01*
X207328554Y-77185385D01*
X207384414Y-77345023D01*
X207384416Y-77345026D01*
X207474387Y-77488213D01*
X207474392Y-77488219D01*
X207593978Y-77607805D01*
X207593984Y-77607810D01*
X207737171Y-77697781D01*
X207737174Y-77697783D01*
X207737178Y-77697784D01*
X207737179Y-77697785D01*
X207792939Y-77717296D01*
X207896812Y-77753643D01*
X208064866Y-77772578D01*
X208064869Y-77772578D01*
X208064872Y-77772578D01*
X208232925Y-77753643D01*
X208232928Y-77753642D01*
X208392559Y-77697785D01*
X208392561Y-77697783D01*
X208392563Y-77697783D01*
X208392566Y-77697781D01*
X208535753Y-77607810D01*
X208535754Y-77607809D01*
X208535759Y-77607806D01*
X208655346Y-77488219D01*
X208655350Y-77488213D01*
X208745321Y-77345026D01*
X208745323Y-77345023D01*
X208745323Y-77345021D01*
X208745325Y-77345019D01*
X208801182Y-77185388D01*
X208801182Y-77185387D01*
X208801183Y-77185385D01*
X208820118Y-77017331D01*
X208820118Y-77017326D01*
X208801183Y-76849272D01*
X208745323Y-76689634D01*
X208745321Y-76689631D01*
X208655350Y-76546444D01*
X208655345Y-76546438D01*
X208535759Y-76426852D01*
X208535753Y-76426847D01*
X208392566Y-76336876D01*
X208392563Y-76336874D01*
X208232925Y-76281014D01*
X208064872Y-76262080D01*
X208064866Y-76262080D01*
X207896812Y-76281014D01*
X207737174Y-76336874D01*
X207737171Y-76336876D01*
X207593984Y-76426847D01*
X207593978Y-76426852D01*
X207474392Y-76546438D01*
X207474387Y-76546444D01*
X207384416Y-76689631D01*
X207384414Y-76689634D01*
X207328554Y-76849272D01*
X207309620Y-77017326D01*
X207309620Y-77017331D01*
X205043728Y-77017331D01*
X205043734Y-77017329D01*
X205177690Y-76970456D01*
X205177692Y-76970454D01*
X205177694Y-76970454D01*
X205177697Y-76970452D01*
X205320884Y-76880481D01*
X205320885Y-76880480D01*
X205320890Y-76880477D01*
X205440477Y-76760890D01*
X205452444Y-76741845D01*
X205530452Y-76617697D01*
X205530454Y-76617694D01*
X205530454Y-76617692D01*
X205530456Y-76617690D01*
X205586313Y-76458059D01*
X205586313Y-76458058D01*
X205586314Y-76458056D01*
X205605249Y-76290002D01*
X205605249Y-76289997D01*
X205586314Y-76121943D01*
X205530454Y-75962305D01*
X205530452Y-75962302D01*
X205440481Y-75819115D01*
X205440476Y-75819109D01*
X205320890Y-75699523D01*
X205320884Y-75699518D01*
X205177697Y-75609547D01*
X205177694Y-75609545D01*
X205018056Y-75553685D01*
X204850003Y-75534751D01*
X204849997Y-75534751D01*
X204681943Y-75553685D01*
X204522307Y-75609545D01*
X204434003Y-75665031D01*
X204366767Y-75684031D01*
X204299931Y-75663663D01*
X204254717Y-75610396D01*
X204250989Y-75600991D01*
X204230455Y-75542307D01*
X204230452Y-75542302D01*
X204140481Y-75399115D01*
X204140476Y-75399109D01*
X204020890Y-75279523D01*
X204020884Y-75279518D01*
X203877697Y-75189547D01*
X203877694Y-75189545D01*
X203718056Y-75133685D01*
X203550003Y-75114751D01*
X203549997Y-75114751D01*
X203381943Y-75133685D01*
X203222305Y-75189545D01*
X203222302Y-75189547D01*
X203079115Y-75279518D01*
X203079109Y-75279523D01*
X202959523Y-75399109D01*
X202959518Y-75399115D01*
X202869547Y-75542302D01*
X202869545Y-75542305D01*
X202813685Y-75701943D01*
X202794751Y-75869997D01*
X202794751Y-75870002D01*
X202813685Y-76038056D01*
X202869545Y-76197694D01*
X202869547Y-76197697D01*
X202959518Y-76340884D01*
X202959523Y-76340890D01*
X203079112Y-76460479D01*
X203080743Y-76461780D01*
X203081519Y-76462886D01*
X203084034Y-76465401D01*
X203083593Y-76465841D01*
X203120879Y-76518971D01*
X203123724Y-76588783D01*
X203120465Y-76599675D01*
X203063686Y-76761942D01*
X203044751Y-76929997D01*
X203044751Y-76930003D01*
X203056304Y-77032542D01*
X203044249Y-77101364D01*
X202996900Y-77152743D01*
X202929290Y-77170367D01*
X202892130Y-77163467D01*
X202850902Y-77149041D01*
X202682848Y-77130106D01*
X202682842Y-77130106D01*
X202514787Y-77149041D01*
X202392479Y-77191838D01*
X202322700Y-77195399D01*
X202263844Y-77162477D01*
X202160890Y-77059523D01*
X202160884Y-77059518D01*
X202017697Y-76969547D01*
X202017694Y-76969545D01*
X201858056Y-76913685D01*
X201690003Y-76894751D01*
X201689997Y-76894751D01*
X201521943Y-76913685D01*
X201362305Y-76969545D01*
X201362302Y-76969547D01*
X201219115Y-77059518D01*
X201219109Y-77059523D01*
X201099523Y-77179109D01*
X201099518Y-77179115D01*
X201009547Y-77322302D01*
X201009545Y-77322305D01*
X200953685Y-77481943D01*
X200934751Y-77649997D01*
X200934751Y-77650002D01*
X195248265Y-77650002D01*
X195158486Y-77507120D01*
X195158481Y-77507114D01*
X195038895Y-77387528D01*
X195038889Y-77387523D01*
X194895702Y-77297552D01*
X194895699Y-77297550D01*
X194736061Y-77241690D01*
X194568008Y-77222756D01*
X194568002Y-77222756D01*
X194399948Y-77241690D01*
X194240310Y-77297550D01*
X194240307Y-77297552D01*
X194097120Y-77387523D01*
X194097114Y-77387528D01*
X193977528Y-77507114D01*
X193977523Y-77507120D01*
X193887552Y-77650307D01*
X193887550Y-77650310D01*
X193831690Y-77809948D01*
X193812756Y-77978002D01*
X193812756Y-77978007D01*
X176234573Y-77978007D01*
X176273903Y-77893663D01*
X176335063Y-77665408D01*
X176355659Y-77430000D01*
X176335063Y-77194592D01*
X176273903Y-76966337D01*
X176174035Y-76752171D01*
X176130247Y-76689634D01*
X176038494Y-76558597D01*
X175871402Y-76391506D01*
X175871401Y-76391505D01*
X175727088Y-76290456D01*
X175685841Y-76261574D01*
X175642216Y-76206997D01*
X175635024Y-76137498D01*
X175666546Y-76075144D01*
X175685836Y-76058428D01*
X175871401Y-75928495D01*
X176038495Y-75761401D01*
X176144506Y-75610002D01*
X184304751Y-75610002D01*
X184323685Y-75778056D01*
X184379545Y-75937694D01*
X184379547Y-75937697D01*
X184469518Y-76080884D01*
X184469523Y-76080890D01*
X184589109Y-76200476D01*
X184589115Y-76200481D01*
X184732302Y-76290452D01*
X184732305Y-76290454D01*
X184732309Y-76290455D01*
X184732310Y-76290456D01*
X184777627Y-76306313D01*
X184891943Y-76346314D01*
X185059997Y-76365249D01*
X185060000Y-76365249D01*
X185060003Y-76365249D01*
X185228056Y-76346314D01*
X185248324Y-76339222D01*
X185387690Y-76290456D01*
X185387692Y-76290454D01*
X185387694Y-76290454D01*
X185387697Y-76290452D01*
X185530884Y-76200481D01*
X185530885Y-76200480D01*
X185530890Y-76200477D01*
X185650477Y-76080890D01*
X185654087Y-76075145D01*
X185740452Y-75937697D01*
X185740454Y-75937694D01*
X185740454Y-75937692D01*
X185740456Y-75937690D01*
X185796313Y-75778059D01*
X185796313Y-75778058D01*
X185796314Y-75778056D01*
X185815249Y-75610002D01*
X185815249Y-75609997D01*
X185796314Y-75441943D01*
X185752556Y-75316890D01*
X185740456Y-75282310D01*
X185740455Y-75282309D01*
X185740454Y-75282305D01*
X185740452Y-75282302D01*
X185650481Y-75139115D01*
X185650476Y-75139109D01*
X185530890Y-75019523D01*
X185530884Y-75019518D01*
X185387697Y-74929547D01*
X185387694Y-74929545D01*
X185228056Y-74873685D01*
X185060003Y-74854751D01*
X185059997Y-74854751D01*
X184891943Y-74873685D01*
X184732305Y-74929545D01*
X184732302Y-74929547D01*
X184589115Y-75019518D01*
X184589109Y-75019523D01*
X184469523Y-75139109D01*
X184469518Y-75139115D01*
X184379547Y-75282302D01*
X184379545Y-75282305D01*
X184323685Y-75441943D01*
X184304751Y-75609997D01*
X184304751Y-75610002D01*
X176144506Y-75610002D01*
X176174035Y-75567830D01*
X176273903Y-75353663D01*
X176335063Y-75125408D01*
X176355659Y-74890000D01*
X176353226Y-74862197D01*
X176337846Y-74686401D01*
X176335063Y-74654592D01*
X176273903Y-74426337D01*
X176174035Y-74212171D01*
X176140087Y-74163687D01*
X176038494Y-74018597D01*
X175939898Y-73920002D01*
X189014751Y-73920002D01*
X189033685Y-74088056D01*
X189089545Y-74247694D01*
X189089547Y-74247697D01*
X189179518Y-74390884D01*
X189179523Y-74390890D01*
X189299109Y-74510476D01*
X189299115Y-74510481D01*
X189442302Y-74600452D01*
X189442305Y-74600454D01*
X189442309Y-74600455D01*
X189442310Y-74600456D01*
X189514913Y-74625860D01*
X189601943Y-74656314D01*
X189769997Y-74675249D01*
X189770000Y-74675249D01*
X189770003Y-74675249D01*
X189938056Y-74656314D01*
X189942977Y-74654592D01*
X190097690Y-74600456D01*
X190097692Y-74600454D01*
X190097694Y-74600454D01*
X190097697Y-74600452D01*
X190240884Y-74510481D01*
X190240885Y-74510480D01*
X190240890Y-74510477D01*
X190360477Y-74390890D01*
X190401849Y-74325047D01*
X190450452Y-74247697D01*
X190450454Y-74247694D01*
X190450454Y-74247692D01*
X190450456Y-74247690D01*
X190506313Y-74088059D01*
X190506313Y-74088058D01*
X190506314Y-74088056D01*
X190525249Y-73920002D01*
X190525249Y-73919997D01*
X190506314Y-73751943D01*
X190450454Y-73592305D01*
X190450452Y-73592302D01*
X190360481Y-73449115D01*
X190360476Y-73449109D01*
X190240890Y-73329523D01*
X190240884Y-73329518D01*
X190097697Y-73239547D01*
X190097694Y-73239545D01*
X189938056Y-73183685D01*
X189770003Y-73164751D01*
X189769997Y-73164751D01*
X189601943Y-73183685D01*
X189442305Y-73239545D01*
X189442302Y-73239547D01*
X189299115Y-73329518D01*
X189299109Y-73329523D01*
X189179523Y-73449109D01*
X189179518Y-73449115D01*
X189089547Y-73592302D01*
X189089545Y-73592305D01*
X189033685Y-73751943D01*
X189014751Y-73919997D01*
X189014751Y-73920002D01*
X175939898Y-73920002D01*
X175871402Y-73851506D01*
X175871396Y-73851501D01*
X175685842Y-73721575D01*
X175642217Y-73666998D01*
X175635023Y-73597500D01*
X175666546Y-73535145D01*
X175685842Y-73518425D01*
X175708026Y-73502891D01*
X175871401Y-73388495D01*
X176038495Y-73221401D01*
X176137504Y-73080002D01*
X193704751Y-73080002D01*
X193723685Y-73248056D01*
X193779545Y-73407694D01*
X193779547Y-73407697D01*
X193869518Y-73550884D01*
X193869523Y-73550890D01*
X193989109Y-73670476D01*
X193989115Y-73670481D01*
X194132302Y-73760452D01*
X194132305Y-73760454D01*
X194132309Y-73760455D01*
X194132310Y-73760456D01*
X194204913Y-73785860D01*
X194291943Y-73816314D01*
X194459997Y-73835249D01*
X194460000Y-73835249D01*
X194460003Y-73835249D01*
X194628054Y-73816314D01*
X194628055Y-73816313D01*
X194628059Y-73816313D01*
X194633697Y-73814339D01*
X194703475Y-73810777D01*
X194762333Y-73843700D01*
X194769109Y-73850476D01*
X194769115Y-73850481D01*
X194912302Y-73940452D01*
X194912305Y-73940454D01*
X194912309Y-73940455D01*
X194912310Y-73940456D01*
X194948605Y-73953156D01*
X195031617Y-73982203D01*
X195088393Y-74022925D01*
X195114140Y-74087878D01*
X195100684Y-74156440D01*
X195052297Y-74206842D01*
X195031621Y-74216285D01*
X195022312Y-74219542D01*
X195022302Y-74219547D01*
X194879115Y-74309518D01*
X194879109Y-74309523D01*
X194759523Y-74429109D01*
X194759518Y-74429115D01*
X194669547Y-74572302D01*
X194669545Y-74572305D01*
X194613685Y-74731943D01*
X194594751Y-74899997D01*
X194594751Y-74900002D01*
X194613685Y-75068056D01*
X194669545Y-75227694D01*
X194669547Y-75227697D01*
X194759518Y-75370884D01*
X194759523Y-75370890D01*
X194879109Y-75490476D01*
X194879115Y-75490481D01*
X195022302Y-75580452D01*
X195022305Y-75580454D01*
X195022309Y-75580455D01*
X195022310Y-75580456D01*
X195066664Y-75595976D01*
X195181943Y-75636314D01*
X195349997Y-75655249D01*
X195350000Y-75655249D01*
X195350003Y-75655249D01*
X195518056Y-75636314D01*
X195577865Y-75615386D01*
X195589359Y-75611363D01*
X195659138Y-75607803D01*
X195719766Y-75642532D01*
X195751993Y-75704525D01*
X195753534Y-75714521D01*
X195756186Y-75738056D01*
X195812045Y-75897694D01*
X195812047Y-75897697D01*
X195902018Y-76040884D01*
X195902023Y-76040890D01*
X196021609Y-76160476D01*
X196021615Y-76160481D01*
X196164802Y-76250452D01*
X196164805Y-76250454D01*
X196164809Y-76250455D01*
X196164810Y-76250456D01*
X196198030Y-76262080D01*
X196324443Y-76306314D01*
X196492497Y-76325249D01*
X196492500Y-76325249D01*
X196492503Y-76325249D01*
X196660556Y-76306314D01*
X196660559Y-76306313D01*
X196820190Y-76250456D01*
X196820192Y-76250454D01*
X196820194Y-76250454D01*
X196820197Y-76250452D01*
X196963384Y-76160481D01*
X196963385Y-76160480D01*
X196963390Y-76160477D01*
X197082977Y-76040890D01*
X197119342Y-75983016D01*
X197146370Y-75940002D01*
X197544751Y-75940002D01*
X197563685Y-76108056D01*
X197619545Y-76267694D01*
X197619547Y-76267697D01*
X197709518Y-76410884D01*
X197709523Y-76410890D01*
X197829109Y-76530476D01*
X197829115Y-76530481D01*
X197972302Y-76620452D01*
X197972305Y-76620454D01*
X197972309Y-76620455D01*
X197972310Y-76620456D01*
X198017219Y-76636170D01*
X198073995Y-76676892D01*
X198099742Y-76741845D01*
X198099484Y-76767094D01*
X198094638Y-76810108D01*
X198094638Y-76810115D01*
X198113572Y-76978169D01*
X198169432Y-77137807D01*
X198169434Y-77137810D01*
X198259405Y-77280997D01*
X198259410Y-77281003D01*
X198378996Y-77400589D01*
X198379002Y-77400594D01*
X198522189Y-77490565D01*
X198522192Y-77490567D01*
X198522196Y-77490568D01*
X198522197Y-77490569D01*
X198594800Y-77515973D01*
X198681830Y-77546427D01*
X198849884Y-77565362D01*
X198849887Y-77565362D01*
X198849890Y-77565362D01*
X199017943Y-77546427D01*
X199017946Y-77546426D01*
X199177577Y-77490569D01*
X199177579Y-77490567D01*
X199177581Y-77490567D01*
X199177584Y-77490565D01*
X199320771Y-77400594D01*
X199320772Y-77400593D01*
X199320777Y-77400590D01*
X199440364Y-77281003D01*
X199458058Y-77252844D01*
X199530339Y-77137810D01*
X199530341Y-77137807D01*
X199530341Y-77137805D01*
X199530343Y-77137803D01*
X199586200Y-76978172D01*
X199586200Y-76978171D01*
X199586201Y-76978169D01*
X199605136Y-76810115D01*
X199605136Y-76810110D01*
X199586201Y-76642056D01*
X199530341Y-76482418D01*
X199530339Y-76482415D01*
X199440368Y-76339228D01*
X199440363Y-76339222D01*
X199320777Y-76219636D01*
X199320771Y-76219631D01*
X199177586Y-76129661D01*
X199177575Y-76129656D01*
X199132667Y-76113942D01*
X199075891Y-76073220D01*
X199050144Y-76008268D01*
X199050402Y-75983016D01*
X199055249Y-75940001D01*
X199055249Y-75939997D01*
X199041092Y-75814355D01*
X199053146Y-75745533D01*
X199100495Y-75694154D01*
X199168105Y-75676529D01*
X199205061Y-75685583D01*
X199205736Y-75683656D01*
X199257998Y-75701943D01*
X199371941Y-75741813D01*
X199413955Y-75746547D01*
X199539997Y-75760749D01*
X199540000Y-75760749D01*
X199540003Y-75760749D01*
X199708056Y-75741814D01*
X199786055Y-75714521D01*
X199867690Y-75685956D01*
X199867692Y-75685954D01*
X199867694Y-75685954D01*
X199867697Y-75685952D01*
X200010884Y-75595981D01*
X200010885Y-75595980D01*
X200010890Y-75595977D01*
X200130477Y-75476390D01*
X200135048Y-75469115D01*
X200220452Y-75333197D01*
X200220454Y-75333194D01*
X200220454Y-75333192D01*
X200220456Y-75333190D01*
X200276313Y-75173559D01*
X200276313Y-75173558D01*
X200276314Y-75173556D01*
X200295249Y-75005502D01*
X200295249Y-75005497D01*
X200276314Y-74837443D01*
X200220454Y-74677805D01*
X200220452Y-74677802D01*
X200130481Y-74534615D01*
X200130476Y-74534609D01*
X200010890Y-74415023D01*
X200010884Y-74415018D01*
X199867697Y-74325047D01*
X199867694Y-74325045D01*
X199708056Y-74269185D01*
X199540003Y-74250251D01*
X199539997Y-74250251D01*
X199371943Y-74269185D01*
X199212308Y-74325044D01*
X199165971Y-74354160D01*
X199098734Y-74373159D01*
X199034029Y-74354160D01*
X198987691Y-74325044D01*
X198828056Y-74269185D01*
X198660003Y-74250251D01*
X198659997Y-74250251D01*
X198491943Y-74269185D01*
X198332305Y-74325045D01*
X198332302Y-74325047D01*
X198189115Y-74415018D01*
X198189109Y-74415023D01*
X198069523Y-74534609D01*
X198069518Y-74534615D01*
X197979547Y-74677802D01*
X197979545Y-74677805D01*
X197923685Y-74837443D01*
X197904751Y-75005497D01*
X197904751Y-75005502D01*
X197923686Y-75173556D01*
X197923687Y-75173561D01*
X197924457Y-75175762D01*
X197924533Y-75177270D01*
X197925235Y-75180341D01*
X197924696Y-75180463D01*
X197928014Y-75245541D01*
X197893281Y-75306166D01*
X197873386Y-75321701D01*
X197829113Y-75349520D01*
X197829111Y-75349521D01*
X197709523Y-75469109D01*
X197709518Y-75469115D01*
X197619547Y-75612302D01*
X197619545Y-75612305D01*
X197563685Y-75771943D01*
X197544751Y-75939997D01*
X197544751Y-75940002D01*
X197146370Y-75940002D01*
X197172952Y-75897697D01*
X197172954Y-75897694D01*
X197172954Y-75897692D01*
X197172956Y-75897690D01*
X197228813Y-75738059D01*
X197228813Y-75738058D01*
X197228814Y-75738056D01*
X197247749Y-75570002D01*
X197247749Y-75569997D01*
X197228814Y-75401943D01*
X197195300Y-75306166D01*
X197172956Y-75242310D01*
X197172955Y-75242309D01*
X197172954Y-75242305D01*
X197172952Y-75242302D01*
X197082981Y-75099115D01*
X197082976Y-75099109D01*
X196963390Y-74979523D01*
X196963384Y-74979518D01*
X196820197Y-74889547D01*
X196820194Y-74889545D01*
X196660556Y-74833685D01*
X196492503Y-74814751D01*
X196492497Y-74814751D01*
X196324442Y-74833686D01*
X196253139Y-74858636D01*
X196183360Y-74862197D01*
X196122733Y-74827468D01*
X196090506Y-74765475D01*
X196088966Y-74755491D01*
X196086313Y-74731941D01*
X196030456Y-74572310D01*
X196030455Y-74572309D01*
X196030454Y-74572305D01*
X196030452Y-74572302D01*
X195940481Y-74429115D01*
X195940476Y-74429109D01*
X195820890Y-74309523D01*
X195820884Y-74309518D01*
X195677697Y-74219547D01*
X195677686Y-74219542D01*
X195558382Y-74177795D01*
X195501606Y-74137073D01*
X195475859Y-74072121D01*
X195489316Y-74003559D01*
X195537703Y-73953156D01*
X195558384Y-73943712D01*
X195567690Y-73940456D01*
X195567694Y-73940454D01*
X195628136Y-73902475D01*
X195642544Y-73893421D01*
X195709779Y-73874421D01*
X195776615Y-73894788D01*
X195796197Y-73910734D01*
X195907524Y-74022061D01*
X195907530Y-74022066D01*
X196050717Y-74112037D01*
X196050720Y-74112039D01*
X196050724Y-74112040D01*
X196050725Y-74112041D01*
X196122263Y-74137073D01*
X196210358Y-74167899D01*
X196378412Y-74186834D01*
X196378415Y-74186834D01*
X196378418Y-74186834D01*
X196546471Y-74167899D01*
X196579219Y-74156440D01*
X196706105Y-74112041D01*
X196706107Y-74112039D01*
X196706109Y-74112039D01*
X196706112Y-74112037D01*
X196849299Y-74022066D01*
X196849300Y-74022065D01*
X196849305Y-74022062D01*
X196968892Y-73902475D01*
X196973722Y-73894788D01*
X197023857Y-73815000D01*
X211279341Y-73815000D01*
X211299936Y-74050403D01*
X211299938Y-74050413D01*
X211361094Y-74278655D01*
X211361096Y-74278659D01*
X211361097Y-74278663D01*
X211415632Y-74395613D01*
X211460965Y-74492830D01*
X211460967Y-74492834D01*
X211569281Y-74647521D01*
X211596501Y-74686396D01*
X211596506Y-74686402D01*
X211763597Y-74853493D01*
X211763603Y-74853498D01*
X211815732Y-74889999D01*
X211943585Y-74979523D01*
X211949594Y-74983730D01*
X211993219Y-75038307D01*
X212000413Y-75107805D01*
X211968890Y-75170160D01*
X211949595Y-75186880D01*
X211763922Y-75316890D01*
X211763920Y-75316891D01*
X211596891Y-75483920D01*
X211596886Y-75483926D01*
X211461400Y-75677420D01*
X211461399Y-75677422D01*
X211361570Y-75891507D01*
X211361567Y-75891513D01*
X211304364Y-76104999D01*
X211304364Y-76105000D01*
X212201314Y-76105000D01*
X212175507Y-76145156D01*
X212135000Y-76283111D01*
X212135000Y-76426889D01*
X212175507Y-76564844D01*
X212201314Y-76605000D01*
X211304364Y-76605000D01*
X211361567Y-76818486D01*
X211361570Y-76818492D01*
X211461399Y-77032578D01*
X211596894Y-77226082D01*
X211763917Y-77393105D01*
X211957421Y-77528600D01*
X212171507Y-77628429D01*
X212171516Y-77628433D01*
X212385000Y-77685634D01*
X212385000Y-76790501D01*
X212492685Y-76839680D01*
X212599237Y-76855000D01*
X212670763Y-76855000D01*
X212777315Y-76839680D01*
X212885000Y-76790501D01*
X212885000Y-77685634D01*
X213098483Y-77628433D01*
X213098492Y-77628429D01*
X213312578Y-77528600D01*
X213506078Y-77393108D01*
X213628521Y-77270665D01*
X213689844Y-77237180D01*
X213759536Y-77242164D01*
X213815470Y-77284035D01*
X213832385Y-77315013D01*
X213881645Y-77447086D01*
X213881649Y-77447093D01*
X213967809Y-77562187D01*
X213967812Y-77562190D01*
X214082906Y-77648350D01*
X214082913Y-77648354D01*
X214217620Y-77698596D01*
X214217627Y-77698598D01*
X214277155Y-77704999D01*
X214277172Y-77705000D01*
X214925000Y-77705000D01*
X214925000Y-76790501D01*
X215032685Y-76839680D01*
X215139237Y-76855000D01*
X215210763Y-76855000D01*
X215317315Y-76839680D01*
X215425000Y-76790501D01*
X215425000Y-77705000D01*
X216072828Y-77705000D01*
X216072844Y-77704999D01*
X216132372Y-77698598D01*
X216132379Y-77698596D01*
X216267086Y-77648354D01*
X216267093Y-77648350D01*
X216382187Y-77562190D01*
X216382190Y-77562187D01*
X216468350Y-77447093D01*
X216468354Y-77447086D01*
X216518596Y-77312379D01*
X216518598Y-77312372D01*
X216524999Y-77252844D01*
X216525000Y-77252827D01*
X216525000Y-76605000D01*
X215608686Y-76605000D01*
X215634493Y-76564844D01*
X215675000Y-76426889D01*
X215675000Y-76283111D01*
X215634493Y-76145156D01*
X215608686Y-76105000D01*
X216525000Y-76105000D01*
X216525000Y-75457172D01*
X216524999Y-75457155D01*
X216518598Y-75397627D01*
X216518596Y-75397620D01*
X216468354Y-75262913D01*
X216468350Y-75262906D01*
X216382190Y-75147812D01*
X216382187Y-75147809D01*
X216267093Y-75061649D01*
X216267088Y-75061646D01*
X216135528Y-75012577D01*
X216079595Y-74970705D01*
X216055178Y-74905241D01*
X216070030Y-74836968D01*
X216091175Y-74808720D01*
X216213495Y-74686401D01*
X216349035Y-74492830D01*
X216448903Y-74278663D01*
X216510063Y-74050408D01*
X216530659Y-73815000D01*
X216510063Y-73579592D01*
X216448903Y-73351337D01*
X216349035Y-73137171D01*
X216343425Y-73129158D01*
X216213494Y-72943597D01*
X216046402Y-72776506D01*
X216046396Y-72776501D01*
X215860842Y-72646575D01*
X215817217Y-72591998D01*
X215810023Y-72522500D01*
X215841546Y-72460145D01*
X215860842Y-72443425D01*
X215947163Y-72382982D01*
X216046401Y-72313495D01*
X216213495Y-72146401D01*
X216349035Y-71952830D01*
X216448903Y-71738663D01*
X216453948Y-71719831D01*
X216490311Y-71660171D01*
X216553157Y-71629640D01*
X216622533Y-71637932D01*
X216676412Y-71682415D01*
X216678717Y-71685949D01*
X216719521Y-71750888D01*
X216839109Y-71870476D01*
X216839115Y-71870481D01*
X216982302Y-71960452D01*
X216982305Y-71960454D01*
X216982309Y-71960455D01*
X216982310Y-71960456D01*
X216986560Y-71961943D01*
X217141943Y-72016314D01*
X217309997Y-72035249D01*
X217310000Y-72035249D01*
X217310003Y-72035249D01*
X217478056Y-72016314D01*
X217494809Y-72010452D01*
X217637690Y-71960456D01*
X217637692Y-71960454D01*
X217637694Y-71960454D01*
X217637697Y-71960452D01*
X217780884Y-71870481D01*
X217780885Y-71870480D01*
X217780890Y-71870477D01*
X217900477Y-71750890D01*
X217907033Y-71740456D01*
X217990452Y-71607697D01*
X217990454Y-71607694D01*
X217990454Y-71607692D01*
X217990456Y-71607690D01*
X218046313Y-71448059D01*
X218046313Y-71448058D01*
X218046314Y-71448056D01*
X218065249Y-71280002D01*
X218065249Y-71279997D01*
X218046314Y-71111943D01*
X218007302Y-71000454D01*
X217990456Y-70952310D01*
X217990455Y-70952309D01*
X217990454Y-70952305D01*
X217990452Y-70952302D01*
X217900481Y-70809115D01*
X217900476Y-70809109D01*
X217780890Y-70689523D01*
X217780884Y-70689518D01*
X217637697Y-70599547D01*
X217637694Y-70599545D01*
X217478056Y-70543685D01*
X217310003Y-70524751D01*
X217309997Y-70524751D01*
X217141943Y-70543685D01*
X216982305Y-70599545D01*
X216982302Y-70599547D01*
X216839115Y-70689518D01*
X216839109Y-70689523D01*
X216719523Y-70809109D01*
X216719521Y-70809112D01*
X216680596Y-70871060D01*
X216628261Y-70917351D01*
X216559207Y-70927998D01*
X216495359Y-70899622D01*
X216456988Y-70841232D01*
X216455828Y-70837181D01*
X216448904Y-70811341D01*
X216448903Y-70811337D01*
X216349035Y-70597171D01*
X216347498Y-70594976D01*
X216259758Y-70469669D01*
X216237431Y-70403463D01*
X216254441Y-70335696D01*
X216305389Y-70287883D01*
X216320370Y-70281507D01*
X216437690Y-70240456D01*
X216437692Y-70240455D01*
X216437697Y-70240452D01*
X216580884Y-70150481D01*
X216580885Y-70150480D01*
X216580890Y-70150477D01*
X216700477Y-70030890D01*
X216719197Y-70001098D01*
X216790452Y-69887697D01*
X216790454Y-69887694D01*
X216790454Y-69887692D01*
X216790456Y-69887690D01*
X216846313Y-69728059D01*
X216846313Y-69728058D01*
X216846314Y-69728056D01*
X216865249Y-69560002D01*
X216865249Y-69559997D01*
X216846314Y-69391943D01*
X216797540Y-69252556D01*
X216790456Y-69232310D01*
X216790455Y-69232309D01*
X216790454Y-69232305D01*
X216790452Y-69232302D01*
X216700481Y-69089115D01*
X216700476Y-69089109D01*
X216580890Y-68969523D01*
X216580884Y-68969518D01*
X216437697Y-68879547D01*
X216437694Y-68879545D01*
X216278056Y-68823685D01*
X216110003Y-68804751D01*
X216109997Y-68804751D01*
X215941943Y-68823685D01*
X215782305Y-68879545D01*
X215782302Y-68879547D01*
X215639115Y-68969518D01*
X215639109Y-68969523D01*
X215519523Y-69089109D01*
X215519518Y-69089115D01*
X215429547Y-69232302D01*
X215429545Y-69232305D01*
X215373685Y-69391943D01*
X215354751Y-69559997D01*
X215354751Y-69560002D01*
X215373686Y-69728057D01*
X215385597Y-69762098D01*
X215389158Y-69831877D01*
X215354429Y-69892504D01*
X215292435Y-69924731D01*
X215257748Y-69926580D01*
X215175002Y-69919341D01*
X215174999Y-69919341D01*
X214939596Y-69939936D01*
X214939586Y-69939938D01*
X214711344Y-70001094D01*
X214711335Y-70001098D01*
X214497171Y-70100964D01*
X214497169Y-70100965D01*
X214303597Y-70236505D01*
X214136505Y-70403597D01*
X214006575Y-70589158D01*
X213951998Y-70632783D01*
X213882500Y-70639977D01*
X213820145Y-70608454D01*
X213803425Y-70589158D01*
X213673494Y-70403597D01*
X213506402Y-70236506D01*
X213506395Y-70236501D01*
X213312834Y-70100967D01*
X213312831Y-70100965D01*
X213312830Y-70100965D01*
X213227460Y-70061156D01*
X213175021Y-70014983D01*
X213155869Y-69947790D01*
X213176085Y-69880909D01*
X213229251Y-69835574D01*
X213265977Y-69825554D01*
X213308059Y-69820813D01*
X213467690Y-69764956D01*
X213467692Y-69764954D01*
X213467694Y-69764954D01*
X213467697Y-69764952D01*
X213610884Y-69674981D01*
X213610885Y-69674980D01*
X213610890Y-69674977D01*
X213730477Y-69555390D01*
X213730481Y-69555384D01*
X213820452Y-69412197D01*
X213820454Y-69412194D01*
X213820454Y-69412192D01*
X213820456Y-69412190D01*
X213876313Y-69252559D01*
X213876313Y-69252558D01*
X213876314Y-69252556D01*
X213895249Y-69084502D01*
X213895249Y-69084497D01*
X213876314Y-68916443D01*
X213820454Y-68756805D01*
X213820452Y-68756802D01*
X213730481Y-68613615D01*
X213730476Y-68613609D01*
X213610890Y-68494023D01*
X213610884Y-68494018D01*
X213467697Y-68404047D01*
X213467694Y-68404045D01*
X213308056Y-68348185D01*
X213140003Y-68329251D01*
X213139997Y-68329251D01*
X212971943Y-68348185D01*
X212812305Y-68404045D01*
X212812302Y-68404047D01*
X212669115Y-68494018D01*
X212669109Y-68494023D01*
X212549523Y-68613609D01*
X212549518Y-68613615D01*
X212459547Y-68756802D01*
X212459545Y-68756805D01*
X212403685Y-68916443D01*
X212384751Y-69084497D01*
X212384751Y-69084502D01*
X212403685Y-69252556D01*
X212459545Y-69412194D01*
X212459547Y-69412197D01*
X212549518Y-69555384D01*
X212549523Y-69555390D01*
X212669112Y-69674979D01*
X212693813Y-69690499D01*
X212740105Y-69742833D01*
X212750754Y-69811886D01*
X212722379Y-69875735D01*
X212663989Y-69914107D01*
X212638650Y-69919021D01*
X212399596Y-69939936D01*
X212399586Y-69939938D01*
X212171344Y-70001094D01*
X212171335Y-70001098D01*
X211957171Y-70100964D01*
X211957169Y-70100965D01*
X211763597Y-70236505D01*
X211596505Y-70403597D01*
X211460965Y-70597169D01*
X211460964Y-70597171D01*
X211390400Y-70748496D01*
X211362136Y-70809110D01*
X211361098Y-70811335D01*
X211361094Y-70811344D01*
X211299938Y-71039586D01*
X211299936Y-71039596D01*
X211279341Y-71274999D01*
X211279341Y-71275000D01*
X211299936Y-71510403D01*
X211299938Y-71510413D01*
X211361094Y-71738655D01*
X211361096Y-71738659D01*
X211361097Y-71738663D01*
X211435525Y-71898273D01*
X211460965Y-71952830D01*
X211460967Y-71952834D01*
X211540427Y-72066313D01*
X211596501Y-72146396D01*
X211596506Y-72146402D01*
X211763597Y-72313493D01*
X211763603Y-72313498D01*
X211949158Y-72443425D01*
X211992783Y-72498002D01*
X211999977Y-72567500D01*
X211968454Y-72629855D01*
X211949158Y-72646575D01*
X211763597Y-72776505D01*
X211596505Y-72943597D01*
X211460965Y-73137169D01*
X211460964Y-73137171D01*
X211361098Y-73351335D01*
X211361094Y-73351344D01*
X211299938Y-73579586D01*
X211299936Y-73579596D01*
X211279341Y-73814999D01*
X211279341Y-73815000D01*
X197023857Y-73815000D01*
X197058867Y-73759282D01*
X197058869Y-73759279D01*
X197058869Y-73759277D01*
X197058871Y-73759275D01*
X197114728Y-73599644D01*
X197114728Y-73599643D01*
X197114729Y-73599641D01*
X197133664Y-73431587D01*
X197133664Y-73431582D01*
X197114729Y-73263528D01*
X197058869Y-73103890D01*
X197058867Y-73103887D01*
X196968896Y-72960700D01*
X196968891Y-72960694D01*
X196849305Y-72841108D01*
X196849299Y-72841103D01*
X196706112Y-72751132D01*
X196706109Y-72751130D01*
X196546471Y-72695271D01*
X196448123Y-72684189D01*
X196383710Y-72657122D01*
X196344155Y-72599527D01*
X196342018Y-72529690D01*
X196357015Y-72494996D01*
X196366438Y-72480000D01*
X196380456Y-72457690D01*
X196436313Y-72298059D01*
X196436313Y-72298058D01*
X196436314Y-72298056D01*
X196455249Y-72130002D01*
X196455249Y-72129997D01*
X196436314Y-71961943D01*
X196401166Y-71861496D01*
X196380456Y-71802310D01*
X196380455Y-71802309D01*
X196380454Y-71802305D01*
X196380452Y-71802302D01*
X196290481Y-71659115D01*
X196290476Y-71659109D01*
X196170890Y-71539523D01*
X196170884Y-71539518D01*
X196027697Y-71449547D01*
X196027694Y-71449545D01*
X195868056Y-71393685D01*
X195700003Y-71374751D01*
X195699997Y-71374751D01*
X195531943Y-71393685D01*
X195372305Y-71449545D01*
X195372302Y-71449547D01*
X195229115Y-71539518D01*
X195229109Y-71539523D01*
X195109523Y-71659109D01*
X195109518Y-71659115D01*
X195019547Y-71802302D01*
X195019545Y-71802305D01*
X194963685Y-71961943D01*
X194944751Y-72129997D01*
X194944751Y-72130004D01*
X194960753Y-72272034D01*
X194948698Y-72340856D01*
X194901349Y-72392235D01*
X194833738Y-72409859D01*
X194794787Y-72400341D01*
X194794262Y-72401844D01*
X194787691Y-72399544D01*
X194787690Y-72399544D01*
X194740358Y-72382982D01*
X194628056Y-72343685D01*
X194460003Y-72324751D01*
X194459997Y-72324751D01*
X194291943Y-72343685D01*
X194132305Y-72399545D01*
X194132302Y-72399547D01*
X193989115Y-72489518D01*
X193989109Y-72489523D01*
X193869523Y-72609109D01*
X193869518Y-72609115D01*
X193779547Y-72752302D01*
X193779545Y-72752305D01*
X193723685Y-72911943D01*
X193704751Y-73079997D01*
X193704751Y-73080002D01*
X176137504Y-73080002D01*
X176174035Y-73027830D01*
X176273903Y-72813663D01*
X176335063Y-72585408D01*
X176355659Y-72350000D01*
X176355106Y-72343685D01*
X176343932Y-72215962D01*
X176335063Y-72114592D01*
X176273903Y-71886337D01*
X176174035Y-71672171D01*
X176164894Y-71659115D01*
X176038494Y-71478597D01*
X175871402Y-71311506D01*
X175871401Y-71311505D01*
X175685842Y-71181575D01*
X175685841Y-71181574D01*
X175642216Y-71126997D01*
X175635283Y-71060002D01*
X191654751Y-71060002D01*
X191673685Y-71228056D01*
X191729545Y-71387694D01*
X191729547Y-71387697D01*
X191819518Y-71530884D01*
X191819523Y-71530890D01*
X191939109Y-71650476D01*
X191939115Y-71650481D01*
X192082302Y-71740452D01*
X192082305Y-71740454D01*
X192082309Y-71740455D01*
X192082310Y-71740456D01*
X192112129Y-71750890D01*
X192241943Y-71796314D01*
X192409997Y-71815249D01*
X192410000Y-71815249D01*
X192410003Y-71815249D01*
X192578056Y-71796314D01*
X192588676Y-71792598D01*
X192737690Y-71740456D01*
X192737692Y-71740454D01*
X192737694Y-71740454D01*
X192737697Y-71740452D01*
X192880884Y-71650481D01*
X192880885Y-71650480D01*
X192880890Y-71650477D01*
X193000477Y-71530890D01*
X193033335Y-71478597D01*
X193090452Y-71387697D01*
X193090454Y-71387694D01*
X193090454Y-71387692D01*
X193090456Y-71387690D01*
X193146313Y-71228059D01*
X193146313Y-71228058D01*
X193146314Y-71228056D01*
X193165249Y-71060002D01*
X193165249Y-71059997D01*
X193146314Y-70891943D01*
X193107302Y-70780454D01*
X193090456Y-70732310D01*
X193090455Y-70732309D01*
X193090454Y-70732305D01*
X193090452Y-70732302D01*
X193000481Y-70589115D01*
X193000476Y-70589109D01*
X192880890Y-70469523D01*
X192880884Y-70469518D01*
X192770251Y-70400002D01*
X196324751Y-70400002D01*
X196343685Y-70568056D01*
X196399545Y-70727694D01*
X196399547Y-70727697D01*
X196489518Y-70870884D01*
X196489523Y-70870890D01*
X196609109Y-70990476D01*
X196609115Y-70990481D01*
X196752302Y-71080452D01*
X196752305Y-71080454D01*
X196752309Y-71080455D01*
X196752310Y-71080456D01*
X196824913Y-71105860D01*
X196911943Y-71136314D01*
X197079997Y-71155249D01*
X197080000Y-71155249D01*
X197080003Y-71155249D01*
X197248056Y-71136314D01*
X197248059Y-71136313D01*
X197407690Y-71080456D01*
X197407692Y-71080454D01*
X197407694Y-71080454D01*
X197407697Y-71080452D01*
X197550884Y-70990481D01*
X197550885Y-70990480D01*
X197550890Y-70990477D01*
X197583433Y-70957933D01*
X197644753Y-70924449D01*
X197714445Y-70929433D01*
X197737082Y-70940620D01*
X197764639Y-70957935D01*
X197832306Y-71000454D01*
X197832307Y-71000454D01*
X197832310Y-71000456D01*
X197925322Y-71033002D01*
X197991943Y-71056314D01*
X198159997Y-71075249D01*
X198160000Y-71075249D01*
X198160003Y-71075249D01*
X198328056Y-71056314D01*
X198328059Y-71056313D01*
X198487690Y-71000456D01*
X198487692Y-71000454D01*
X198487694Y-71000454D01*
X198487697Y-71000452D01*
X198630884Y-70910481D01*
X198630885Y-70910480D01*
X198630890Y-70910477D01*
X198750477Y-70790890D01*
X198757033Y-70780456D01*
X198840452Y-70647697D01*
X198840454Y-70647694D01*
X198840454Y-70647692D01*
X198840456Y-70647690D01*
X198896313Y-70488059D01*
X198896313Y-70488058D01*
X198896314Y-70488056D01*
X198915249Y-70320002D01*
X198915249Y-70319997D01*
X198896314Y-70151943D01*
X198878139Y-70100002D01*
X201684751Y-70100002D01*
X201703685Y-70268056D01*
X201759545Y-70427694D01*
X201759547Y-70427697D01*
X201849518Y-70570884D01*
X201849523Y-70570890D01*
X201969109Y-70690476D01*
X201969115Y-70690481D01*
X202112302Y-70780452D01*
X202112305Y-70780454D01*
X202112309Y-70780455D01*
X202112310Y-70780456D01*
X202142112Y-70790884D01*
X202271943Y-70836314D01*
X202439997Y-70855249D01*
X202440000Y-70855249D01*
X202440003Y-70855249D01*
X202608059Y-70836313D01*
X202608060Y-70836313D01*
X202711030Y-70800282D01*
X202780808Y-70796719D01*
X202841436Y-70831448D01*
X202856974Y-70851345D01*
X202919523Y-70950890D01*
X203039110Y-71070477D01*
X203061746Y-71084700D01*
X203108037Y-71137035D01*
X203118994Y-71203577D01*
X203104751Y-71329995D01*
X203104751Y-71330002D01*
X203123685Y-71498056D01*
X203179545Y-71657694D01*
X203179547Y-71657697D01*
X203269518Y-71800884D01*
X203269523Y-71800890D01*
X203389109Y-71920476D01*
X203389115Y-71920481D01*
X203532302Y-72010452D01*
X203532307Y-72010455D01*
X203532310Y-72010456D01*
X203621678Y-72041727D01*
X203678453Y-72082447D01*
X203704201Y-72147400D01*
X203690745Y-72215962D01*
X203685717Y-72224740D01*
X203649545Y-72282307D01*
X203593685Y-72441943D01*
X203574751Y-72609997D01*
X203574751Y-72610002D01*
X203593685Y-72778056D01*
X203649545Y-72937694D01*
X203649547Y-72937697D01*
X203739518Y-73080884D01*
X203739523Y-73080890D01*
X203859109Y-73200476D01*
X203859115Y-73200481D01*
X204002302Y-73290452D01*
X204002305Y-73290454D01*
X204002309Y-73290455D01*
X204002310Y-73290456D01*
X204074913Y-73315860D01*
X204161943Y-73346314D01*
X204329997Y-73365249D01*
X204330000Y-73365249D01*
X204330003Y-73365249D01*
X204498056Y-73346314D01*
X204546042Y-73329523D01*
X204657690Y-73290456D01*
X204657692Y-73290454D01*
X204657694Y-73290454D01*
X204657697Y-73290452D01*
X204800884Y-73200481D01*
X204800885Y-73200480D01*
X204800890Y-73200477D01*
X204920477Y-73080890D01*
X204996158Y-72960444D01*
X205048493Y-72914154D01*
X205117547Y-72903506D01*
X205181395Y-72931881D01*
X205198097Y-72949102D01*
X205199522Y-72950889D01*
X205319109Y-73070476D01*
X205319115Y-73070481D01*
X205462302Y-73160452D01*
X205462305Y-73160454D01*
X205462309Y-73160455D01*
X205462310Y-73160456D01*
X205497539Y-73172783D01*
X205621943Y-73216314D01*
X205789997Y-73235249D01*
X205790000Y-73235249D01*
X205790003Y-73235249D01*
X205958056Y-73216314D01*
X205958059Y-73216313D01*
X206117690Y-73160456D01*
X206117692Y-73160454D01*
X206117694Y-73160454D01*
X206117697Y-73160452D01*
X206260884Y-73070481D01*
X206260885Y-73070480D01*
X206260890Y-73070477D01*
X206380477Y-72950890D01*
X206380481Y-72950884D01*
X206470452Y-72807697D01*
X206470454Y-72807694D01*
X206470454Y-72807692D01*
X206470456Y-72807690D01*
X206526313Y-72648059D01*
X206526313Y-72648058D01*
X206526314Y-72648056D01*
X206541869Y-72510002D01*
X206934751Y-72510002D01*
X206953685Y-72678056D01*
X207009545Y-72837694D01*
X207009547Y-72837697D01*
X207099518Y-72980884D01*
X207099523Y-72980890D01*
X207219109Y-73100476D01*
X207219115Y-73100481D01*
X207362302Y-73190452D01*
X207362305Y-73190454D01*
X207362309Y-73190455D01*
X207362310Y-73190456D01*
X207390946Y-73200476D01*
X207521943Y-73246314D01*
X207689997Y-73265249D01*
X207690000Y-73265249D01*
X207690003Y-73265249D01*
X207858056Y-73246314D01*
X207877401Y-73239545D01*
X208017690Y-73190456D01*
X208017692Y-73190454D01*
X208017694Y-73190454D01*
X208017697Y-73190452D01*
X208160884Y-73100481D01*
X208160885Y-73100480D01*
X208160890Y-73100477D01*
X208280477Y-72980890D01*
X208280481Y-72980884D01*
X208370452Y-72837697D01*
X208370454Y-72837694D01*
X208370454Y-72837692D01*
X208370456Y-72837690D01*
X208426313Y-72678059D01*
X208426313Y-72678058D01*
X208426314Y-72678056D01*
X208445249Y-72510002D01*
X208445249Y-72509997D01*
X208426314Y-72341943D01*
X208382231Y-72215962D01*
X208370456Y-72182310D01*
X208370455Y-72182309D01*
X208370454Y-72182305D01*
X208370452Y-72182302D01*
X208280481Y-72039115D01*
X208280476Y-72039109D01*
X208160890Y-71919523D01*
X208160884Y-71919518D01*
X208017697Y-71829547D01*
X208017694Y-71829545D01*
X207858056Y-71773685D01*
X207690003Y-71754751D01*
X207689997Y-71754751D01*
X207521943Y-71773685D01*
X207362305Y-71829545D01*
X207362302Y-71829547D01*
X207219115Y-71919518D01*
X207219109Y-71919523D01*
X207099523Y-72039109D01*
X207099518Y-72039115D01*
X207009547Y-72182302D01*
X207009545Y-72182305D01*
X206953685Y-72341943D01*
X206934751Y-72509997D01*
X206934751Y-72510002D01*
X206541869Y-72510002D01*
X206545249Y-72480002D01*
X206545249Y-72479997D01*
X206526314Y-72311943D01*
X206480952Y-72182305D01*
X206470456Y-72152310D01*
X206470455Y-72152309D01*
X206470454Y-72152305D01*
X206470452Y-72152302D01*
X206380481Y-72009115D01*
X206380476Y-72009109D01*
X206260890Y-71889523D01*
X206260884Y-71889518D01*
X206117697Y-71799547D01*
X206117694Y-71799545D01*
X205958056Y-71743685D01*
X205790003Y-71724751D01*
X205789997Y-71724751D01*
X205621943Y-71743685D01*
X205462305Y-71799545D01*
X205462302Y-71799547D01*
X205319115Y-71889518D01*
X205319109Y-71889523D01*
X205199523Y-72009109D01*
X205199521Y-72009112D01*
X205123840Y-72129555D01*
X205071505Y-72175846D01*
X205002451Y-72186493D01*
X204938603Y-72158117D01*
X204921900Y-72140895D01*
X204920479Y-72139113D01*
X204920477Y-72139110D01*
X204800890Y-72019523D01*
X204800884Y-72019518D01*
X204657697Y-71929547D01*
X204657691Y-71929544D01*
X204568322Y-71898273D01*
X204511546Y-71857551D01*
X204485798Y-71792598D01*
X204499254Y-71724037D01*
X204504272Y-71715276D01*
X204540456Y-71657690D01*
X204596313Y-71498059D01*
X204596313Y-71498058D01*
X204596314Y-71498056D01*
X204615249Y-71330002D01*
X204615249Y-71329997D01*
X204596314Y-71161943D01*
X204567800Y-71080456D01*
X204540456Y-71002310D01*
X204540454Y-71002307D01*
X204540454Y-71002306D01*
X204464625Y-70881626D01*
X204445624Y-70814389D01*
X204465991Y-70747554D01*
X204519259Y-70702339D01*
X204528657Y-70698614D01*
X204567690Y-70684956D01*
X204567693Y-70684953D01*
X204567697Y-70684952D01*
X204710884Y-70594981D01*
X204710885Y-70594980D01*
X204710890Y-70594977D01*
X204830477Y-70475390D01*
X204834072Y-70469669D01*
X204920452Y-70332197D01*
X204920454Y-70332194D01*
X204920454Y-70332192D01*
X204920456Y-70332190D01*
X204976313Y-70172559D01*
X204976313Y-70172558D01*
X204976314Y-70172556D01*
X204995249Y-70004502D01*
X204995249Y-70004497D01*
X204976314Y-69836443D01*
X204935410Y-69719547D01*
X204920456Y-69676810D01*
X204920455Y-69676809D01*
X204920454Y-69676805D01*
X204920452Y-69676802D01*
X204830481Y-69533615D01*
X204830476Y-69533609D01*
X204710890Y-69414023D01*
X204710884Y-69414018D01*
X204567697Y-69324047D01*
X204567694Y-69324045D01*
X204408056Y-69268185D01*
X204240003Y-69249251D01*
X204239997Y-69249251D01*
X204071943Y-69268185D01*
X203912305Y-69324045D01*
X203912302Y-69324047D01*
X203769115Y-69414018D01*
X203769109Y-69414023D01*
X203649521Y-69533611D01*
X203562670Y-69671834D01*
X203510336Y-69718124D01*
X203471561Y-69729081D01*
X203341944Y-69743685D01*
X203238970Y-69779718D01*
X203169191Y-69783279D01*
X203108563Y-69748550D01*
X203093021Y-69728648D01*
X203092649Y-69728056D01*
X203030477Y-69629110D01*
X202910890Y-69509523D01*
X202910884Y-69509518D01*
X202767697Y-69419547D01*
X202767694Y-69419545D01*
X202608056Y-69363685D01*
X202440003Y-69344751D01*
X202439997Y-69344751D01*
X202271943Y-69363685D01*
X202112305Y-69419545D01*
X202112302Y-69419547D01*
X201969115Y-69509518D01*
X201969109Y-69509523D01*
X201849523Y-69629109D01*
X201849518Y-69629115D01*
X201759547Y-69772302D01*
X201759545Y-69772305D01*
X201703685Y-69931943D01*
X201684751Y-70099997D01*
X201684751Y-70100002D01*
X198878139Y-70100002D01*
X198853956Y-70030890D01*
X198840456Y-69992310D01*
X198840455Y-69992309D01*
X198840454Y-69992305D01*
X198840452Y-69992302D01*
X198750481Y-69849115D01*
X198750476Y-69849109D01*
X198630890Y-69729523D01*
X198630884Y-69729518D01*
X198487697Y-69639547D01*
X198487694Y-69639545D01*
X198328056Y-69583685D01*
X198160003Y-69564751D01*
X198159997Y-69564751D01*
X197991943Y-69583685D01*
X197832305Y-69639545D01*
X197832302Y-69639547D01*
X197689115Y-69729518D01*
X197689108Y-69729524D01*
X197656566Y-69762066D01*
X197595242Y-69795551D01*
X197525551Y-69790565D01*
X197502913Y-69779377D01*
X197407692Y-69719545D01*
X197407694Y-69719545D01*
X197248056Y-69663685D01*
X197080003Y-69644751D01*
X197079997Y-69644751D01*
X196911943Y-69663685D01*
X196752305Y-69719545D01*
X196752302Y-69719547D01*
X196609115Y-69809518D01*
X196609109Y-69809523D01*
X196489523Y-69929109D01*
X196489518Y-69929115D01*
X196399547Y-70072302D01*
X196399545Y-70072305D01*
X196343685Y-70231943D01*
X196324751Y-70399997D01*
X196324751Y-70400002D01*
X192770251Y-70400002D01*
X192737697Y-70379547D01*
X192737694Y-70379545D01*
X192578056Y-70323685D01*
X192410003Y-70304751D01*
X192409997Y-70304751D01*
X192241943Y-70323685D01*
X192082305Y-70379545D01*
X192082302Y-70379547D01*
X191939115Y-70469518D01*
X191939109Y-70469523D01*
X191819523Y-70589109D01*
X191819518Y-70589115D01*
X191729547Y-70732302D01*
X191729545Y-70732305D01*
X191673685Y-70891943D01*
X191654751Y-71059997D01*
X191654751Y-71060002D01*
X175635283Y-71060002D01*
X175635024Y-71057498D01*
X175666546Y-70995144D01*
X175685836Y-70978428D01*
X175871401Y-70848495D01*
X176038495Y-70681401D01*
X176174035Y-70487830D01*
X176273903Y-70273663D01*
X176335063Y-70045408D01*
X176339911Y-69990002D01*
X189654751Y-69990002D01*
X189673685Y-70158056D01*
X189729545Y-70317694D01*
X189729547Y-70317697D01*
X189819518Y-70460884D01*
X189819523Y-70460890D01*
X189939109Y-70580476D01*
X189939115Y-70580481D01*
X190082302Y-70670452D01*
X190082305Y-70670454D01*
X190082309Y-70670455D01*
X190082310Y-70670456D01*
X190154913Y-70695860D01*
X190241943Y-70726314D01*
X190409997Y-70745249D01*
X190410000Y-70745249D01*
X190410003Y-70745249D01*
X190578056Y-70726314D01*
X190578059Y-70726313D01*
X190737690Y-70670456D01*
X190737692Y-70670454D01*
X190737694Y-70670454D01*
X190737697Y-70670452D01*
X190880884Y-70580481D01*
X190880885Y-70580480D01*
X190880890Y-70580477D01*
X191000477Y-70460890D01*
X191038739Y-70399997D01*
X191090452Y-70317697D01*
X191090454Y-70317694D01*
X191090454Y-70317692D01*
X191090456Y-70317690D01*
X191146313Y-70158059D01*
X191146313Y-70158058D01*
X191146314Y-70158056D01*
X191165249Y-69990002D01*
X191165249Y-69989997D01*
X191146314Y-69821943D01*
X191094888Y-69674976D01*
X191090456Y-69662310D01*
X191090455Y-69662309D01*
X191090454Y-69662305D01*
X191090452Y-69662302D01*
X191000481Y-69519115D01*
X191000476Y-69519109D01*
X190880890Y-69399523D01*
X190880884Y-69399518D01*
X190737697Y-69309547D01*
X190737694Y-69309545D01*
X190578056Y-69253685D01*
X190410003Y-69234751D01*
X190409997Y-69234751D01*
X190241943Y-69253685D01*
X190082305Y-69309545D01*
X190082302Y-69309547D01*
X189939115Y-69399518D01*
X189939109Y-69399523D01*
X189819523Y-69519109D01*
X189819518Y-69519115D01*
X189729547Y-69662302D01*
X189729545Y-69662305D01*
X189673685Y-69821943D01*
X189654751Y-69989997D01*
X189654751Y-69990002D01*
X176339911Y-69990002D01*
X176355659Y-69810000D01*
X176335063Y-69574592D01*
X176273903Y-69346337D01*
X176174035Y-69132171D01*
X176170152Y-69126626D01*
X176038496Y-68938600D01*
X175979440Y-68879544D01*
X175916567Y-68816671D01*
X175883084Y-68755351D01*
X175888068Y-68685659D01*
X175929939Y-68629725D01*
X175960915Y-68612810D01*
X176075692Y-68570002D01*
X183294751Y-68570002D01*
X183313685Y-68738056D01*
X183369545Y-68897694D01*
X183369547Y-68897697D01*
X183459518Y-69040884D01*
X183459523Y-69040890D01*
X183579109Y-69160476D01*
X183579115Y-69160481D01*
X183722302Y-69250452D01*
X183722305Y-69250454D01*
X183722309Y-69250455D01*
X183722310Y-69250456D01*
X183731544Y-69253687D01*
X183881943Y-69306314D01*
X184049997Y-69325249D01*
X184050000Y-69325249D01*
X184050003Y-69325249D01*
X184218056Y-69306314D01*
X184218059Y-69306313D01*
X184377690Y-69250456D01*
X184377692Y-69250454D01*
X184377694Y-69250454D01*
X184377697Y-69250452D01*
X184520884Y-69160481D01*
X184520885Y-69160480D01*
X184520890Y-69160477D01*
X184640477Y-69040890D01*
X184644143Y-69035056D01*
X184730452Y-68897697D01*
X184730454Y-68897694D01*
X184730454Y-68897692D01*
X184730456Y-68897690D01*
X184786313Y-68738059D01*
X184786313Y-68738058D01*
X184786314Y-68738056D01*
X184805249Y-68570002D01*
X184805249Y-68569997D01*
X184786314Y-68401943D01*
X184754348Y-68310590D01*
X184730456Y-68242310D01*
X184730455Y-68242309D01*
X184730454Y-68242305D01*
X184730452Y-68242302D01*
X184640481Y-68099115D01*
X184640476Y-68099109D01*
X184520890Y-67979523D01*
X184520884Y-67979518D01*
X184377697Y-67889547D01*
X184377694Y-67889545D01*
X184264687Y-67850002D01*
X194005751Y-67850002D01*
X194024685Y-68018056D01*
X194080545Y-68177694D01*
X194080547Y-68177697D01*
X194170518Y-68320884D01*
X194170523Y-68320890D01*
X194290109Y-68440476D01*
X194290115Y-68440481D01*
X194433306Y-68530455D01*
X194486106Y-68548930D01*
X194542882Y-68589651D01*
X194562194Y-68625018D01*
X194594731Y-68718006D01*
X194684705Y-68861197D01*
X194684710Y-68861203D01*
X194804296Y-68980789D01*
X194804302Y-68980794D01*
X194947489Y-69070765D01*
X194947492Y-69070767D01*
X194947496Y-69070768D01*
X194947497Y-69070769D01*
X194986730Y-69084497D01*
X195107130Y-69126627D01*
X195275184Y-69145562D01*
X195275187Y-69145562D01*
X195275190Y-69145562D01*
X195443243Y-69126627D01*
X195443246Y-69126626D01*
X195602877Y-69070769D01*
X195602879Y-69070767D01*
X195602881Y-69070767D01*
X195602884Y-69070765D01*
X195746071Y-68980794D01*
X195746072Y-68980793D01*
X195746077Y-68980790D01*
X195865664Y-68861203D01*
X195889237Y-68823687D01*
X195955639Y-68718010D01*
X195955642Y-68718004D01*
X195955643Y-68718003D01*
X196006593Y-68572394D01*
X196047315Y-68515619D01*
X196109751Y-68490129D01*
X196148059Y-68485813D01*
X196307690Y-68429956D01*
X196307693Y-68429953D01*
X196307697Y-68429952D01*
X196450884Y-68339981D01*
X196450885Y-68339980D01*
X196450890Y-68339977D01*
X196480272Y-68310595D01*
X200015344Y-68310595D01*
X200034278Y-68478649D01*
X200090138Y-68638287D01*
X200090140Y-68638290D01*
X200180111Y-68781477D01*
X200180116Y-68781483D01*
X200299702Y-68901069D01*
X200299708Y-68901074D01*
X200442895Y-68991045D01*
X200442898Y-68991047D01*
X200442902Y-68991048D01*
X200442903Y-68991049D01*
X200515506Y-69016453D01*
X200602536Y-69046907D01*
X200770590Y-69065842D01*
X200770593Y-69065842D01*
X200770596Y-69065842D01*
X200938649Y-69046907D01*
X200955862Y-69040884D01*
X201098283Y-68991049D01*
X201098285Y-68991047D01*
X201098287Y-68991047D01*
X201098290Y-68991045D01*
X201241477Y-68901074D01*
X201241478Y-68901073D01*
X201241483Y-68901070D01*
X201275551Y-68867002D01*
X205544751Y-68867002D01*
X205563685Y-69035056D01*
X205619545Y-69194694D01*
X205619547Y-69194697D01*
X205709518Y-69337884D01*
X205709523Y-69337890D01*
X205829109Y-69457476D01*
X205829115Y-69457481D01*
X205972302Y-69547452D01*
X205972305Y-69547454D01*
X205972309Y-69547455D01*
X205972310Y-69547456D01*
X206008159Y-69560000D01*
X206131943Y-69603314D01*
X206299997Y-69622249D01*
X206300000Y-69622249D01*
X206300003Y-69622249D01*
X206468056Y-69603314D01*
X206468059Y-69603313D01*
X206627690Y-69547456D01*
X206627692Y-69547454D01*
X206627694Y-69547454D01*
X206627697Y-69547452D01*
X206770884Y-69457481D01*
X206770885Y-69457480D01*
X206770890Y-69457477D01*
X206890477Y-69337890D01*
X206899175Y-69324047D01*
X206980452Y-69194697D01*
X206980454Y-69194694D01*
X206980454Y-69194692D01*
X206980456Y-69194690D01*
X207036313Y-69035059D01*
X207036313Y-69035058D01*
X207036314Y-69035056D01*
X207055249Y-68867002D01*
X207055249Y-68866997D01*
X207036314Y-68698943D01*
X206992033Y-68572395D01*
X206980456Y-68539310D01*
X206980455Y-68539309D01*
X206980454Y-68539305D01*
X206980452Y-68539302D01*
X206890481Y-68396115D01*
X206890476Y-68396109D01*
X206770890Y-68276523D01*
X206770884Y-68276518D01*
X206627697Y-68186547D01*
X206627694Y-68186545D01*
X206468056Y-68130685D01*
X206300003Y-68111751D01*
X206299997Y-68111751D01*
X206131943Y-68130685D01*
X205972305Y-68186545D01*
X205972302Y-68186547D01*
X205829115Y-68276518D01*
X205829109Y-68276523D01*
X205709523Y-68396109D01*
X205709518Y-68396115D01*
X205619547Y-68539302D01*
X205619545Y-68539305D01*
X205563685Y-68698943D01*
X205544751Y-68866997D01*
X205544751Y-68867002D01*
X201275551Y-68867002D01*
X201361070Y-68781483D01*
X201376573Y-68756810D01*
X201451045Y-68638290D01*
X201451047Y-68638287D01*
X201451047Y-68638285D01*
X201451049Y-68638283D01*
X201506906Y-68478652D01*
X201506906Y-68478650D01*
X201506907Y-68478648D01*
X201507718Y-68475095D01*
X201508873Y-68473027D01*
X201509206Y-68472079D01*
X201509372Y-68472137D01*
X201541821Y-68414113D01*
X201603480Y-68381250D01*
X201644836Y-68381674D01*
X201645021Y-68380034D01*
X201819997Y-68399749D01*
X201820000Y-68399749D01*
X201820003Y-68399749D01*
X201988056Y-68380814D01*
X202040866Y-68362335D01*
X202147690Y-68324956D01*
X202147692Y-68324954D01*
X202147694Y-68324954D01*
X202147697Y-68324952D01*
X202290884Y-68234981D01*
X202290885Y-68234980D01*
X202290890Y-68234977D01*
X202410477Y-68115390D01*
X202412764Y-68111751D01*
X202500452Y-67972197D01*
X202500454Y-67972194D01*
X202500454Y-67972192D01*
X202500456Y-67972190D01*
X202556313Y-67812559D01*
X202556313Y-67812558D01*
X202556314Y-67812556D01*
X202575249Y-67644502D01*
X202575249Y-67644497D01*
X202556314Y-67476443D01*
X202543563Y-67440002D01*
X204474751Y-67440002D01*
X204493685Y-67608056D01*
X204549545Y-67767694D01*
X204549547Y-67767697D01*
X204639518Y-67910884D01*
X204639523Y-67910890D01*
X204759109Y-68030476D01*
X204759115Y-68030481D01*
X204902302Y-68120452D01*
X204902305Y-68120454D01*
X204902309Y-68120455D01*
X204902310Y-68120456D01*
X204931543Y-68130685D01*
X205061943Y-68176314D01*
X205229997Y-68195249D01*
X205230000Y-68195249D01*
X205230003Y-68195249D01*
X205398056Y-68176314D01*
X205398059Y-68176313D01*
X205557690Y-68120456D01*
X205557692Y-68120454D01*
X205557694Y-68120454D01*
X205557697Y-68120452D01*
X205700884Y-68030481D01*
X205700885Y-68030480D01*
X205700890Y-68030477D01*
X205820477Y-67910890D01*
X205868987Y-67833687D01*
X205910452Y-67767697D01*
X205910454Y-67767694D01*
X205910454Y-67767692D01*
X205910456Y-67767690D01*
X205966313Y-67608059D01*
X205966313Y-67608058D01*
X205966314Y-67608056D01*
X205985249Y-67440002D01*
X205985249Y-67439997D01*
X205966314Y-67271943D01*
X205910454Y-67112305D01*
X205910452Y-67112302D01*
X205820481Y-66969115D01*
X205820476Y-66969109D01*
X205774048Y-66922681D01*
X205740563Y-66861358D01*
X205745547Y-66791666D01*
X205774048Y-66747319D01*
X205794049Y-66727318D01*
X205840477Y-66680890D01*
X205853890Y-66659544D01*
X205930452Y-66537697D01*
X205930454Y-66537694D01*
X205930454Y-66537692D01*
X205930456Y-66537690D01*
X205986313Y-66378059D01*
X205986313Y-66378058D01*
X205986314Y-66378056D01*
X206005249Y-66210002D01*
X206005249Y-66209997D01*
X205986314Y-66041943D01*
X205945712Y-65925909D01*
X205930456Y-65882310D01*
X205930455Y-65882309D01*
X205930454Y-65882305D01*
X205930452Y-65882302D01*
X205840481Y-65739115D01*
X205840476Y-65739109D01*
X205720890Y-65619523D01*
X205720884Y-65619518D01*
X205577697Y-65529547D01*
X205577694Y-65529545D01*
X205418056Y-65473685D01*
X205250003Y-65454751D01*
X205249997Y-65454751D01*
X205081943Y-65473685D01*
X204922305Y-65529545D01*
X204922302Y-65529547D01*
X204779115Y-65619518D01*
X204779109Y-65619523D01*
X204659523Y-65739109D01*
X204659518Y-65739115D01*
X204569547Y-65882302D01*
X204569545Y-65882305D01*
X204513685Y-66041943D01*
X204494751Y-66209997D01*
X204494751Y-66210002D01*
X204513685Y-66378056D01*
X204569545Y-66537694D01*
X204569547Y-66537697D01*
X204659518Y-66680884D01*
X204659523Y-66680890D01*
X204705951Y-66727318D01*
X204739436Y-66788641D01*
X204734452Y-66858333D01*
X204705952Y-66902679D01*
X204639524Y-66969108D01*
X204639518Y-66969115D01*
X204549547Y-67112302D01*
X204549545Y-67112305D01*
X204493685Y-67271943D01*
X204474751Y-67439997D01*
X204474751Y-67440002D01*
X202543563Y-67440002D01*
X202500454Y-67316805D01*
X202500452Y-67316802D01*
X202410481Y-67173615D01*
X202410476Y-67173609D01*
X202290890Y-67054023D01*
X202290884Y-67054018D01*
X202147697Y-66964047D01*
X202147694Y-66964045D01*
X201988056Y-66908185D01*
X201820003Y-66889251D01*
X201819997Y-66889251D01*
X201651943Y-66908185D01*
X201492305Y-66964045D01*
X201492302Y-66964047D01*
X201349115Y-67054018D01*
X201349109Y-67054023D01*
X201229523Y-67173609D01*
X201229518Y-67173615D01*
X201139547Y-67316802D01*
X201139544Y-67316807D01*
X201083685Y-67476446D01*
X201082872Y-67480011D01*
X201081714Y-67482080D01*
X201081388Y-67483013D01*
X201081224Y-67482955D01*
X201048762Y-67540988D01*
X200987099Y-67573844D01*
X200945755Y-67573426D01*
X200945572Y-67575059D01*
X200770596Y-67555344D01*
X200770590Y-67555344D01*
X200602536Y-67574278D01*
X200442898Y-67630138D01*
X200442895Y-67630140D01*
X200299708Y-67720111D01*
X200299702Y-67720116D01*
X200180116Y-67839702D01*
X200180111Y-67839708D01*
X200090140Y-67982895D01*
X200090138Y-67982898D01*
X200034278Y-68142536D01*
X200015344Y-68310590D01*
X200015344Y-68310595D01*
X196480272Y-68310595D01*
X196570477Y-68220390D01*
X196591742Y-68186547D01*
X196660452Y-68077197D01*
X196660454Y-68077194D01*
X196660454Y-68077192D01*
X196660456Y-68077190D01*
X196716313Y-67917559D01*
X196716313Y-67917558D01*
X196716314Y-67917556D01*
X196735249Y-67749502D01*
X196735249Y-67749497D01*
X196716314Y-67581443D01*
X196679572Y-67476441D01*
X196660456Y-67421810D01*
X196660455Y-67421809D01*
X196660454Y-67421805D01*
X196660452Y-67421802D01*
X196570481Y-67278615D01*
X196570476Y-67278609D01*
X196531869Y-67240002D01*
X196934751Y-67240002D01*
X196953685Y-67408056D01*
X197009545Y-67567694D01*
X197009547Y-67567697D01*
X197099518Y-67710884D01*
X197099523Y-67710890D01*
X197219109Y-67830476D01*
X197219115Y-67830481D01*
X197362302Y-67920452D01*
X197362305Y-67920454D01*
X197362309Y-67920455D01*
X197362310Y-67920456D01*
X197390946Y-67930476D01*
X197521943Y-67976314D01*
X197689997Y-67995249D01*
X197690000Y-67995249D01*
X197690003Y-67995249D01*
X197858056Y-67976314D01*
X197869842Y-67972190D01*
X198017690Y-67920456D01*
X198017692Y-67920454D01*
X198017694Y-67920454D01*
X198017697Y-67920452D01*
X198160884Y-67830481D01*
X198160885Y-67830480D01*
X198160890Y-67830477D01*
X198280477Y-67710890D01*
X198338865Y-67617965D01*
X198391197Y-67571677D01*
X198460251Y-67561028D01*
X198524099Y-67589403D01*
X198560898Y-67642983D01*
X198569544Y-67667691D01*
X198569547Y-67667697D01*
X198659518Y-67810884D01*
X198659523Y-67810890D01*
X198779109Y-67930476D01*
X198779115Y-67930481D01*
X198922302Y-68020452D01*
X198922305Y-68020454D01*
X198922309Y-68020455D01*
X198922310Y-68020456D01*
X198950946Y-68030476D01*
X199081943Y-68076314D01*
X199249997Y-68095249D01*
X199250000Y-68095249D01*
X199250003Y-68095249D01*
X199418056Y-68076314D01*
X199418059Y-68076313D01*
X199577690Y-68020456D01*
X199577692Y-68020454D01*
X199577694Y-68020454D01*
X199577697Y-68020452D01*
X199720884Y-67930481D01*
X199720885Y-67930480D01*
X199720890Y-67930477D01*
X199840477Y-67810890D01*
X199867622Y-67767690D01*
X199930452Y-67667697D01*
X199930454Y-67667694D01*
X199930455Y-67667691D01*
X199930456Y-67667690D01*
X199986313Y-67508059D01*
X199986313Y-67508058D01*
X199986314Y-67508056D01*
X200005249Y-67340002D01*
X200005249Y-67339997D01*
X199986314Y-67171943D01*
X199930454Y-67012305D01*
X199930452Y-67012302D01*
X199840481Y-66869115D01*
X199840476Y-66869109D01*
X199720890Y-66749523D01*
X199720884Y-66749518D01*
X199577697Y-66659547D01*
X199577694Y-66659545D01*
X199418056Y-66603685D01*
X199250003Y-66584751D01*
X199249997Y-66584751D01*
X199081943Y-66603685D01*
X198922305Y-66659545D01*
X198922302Y-66659547D01*
X198779115Y-66749518D01*
X198779109Y-66749523D01*
X198659523Y-66869109D01*
X198659521Y-66869112D01*
X198601135Y-66962032D01*
X198548800Y-67008323D01*
X198479747Y-67018970D01*
X198415899Y-66990595D01*
X198379101Y-66937014D01*
X198370457Y-66912313D01*
X198370452Y-66912302D01*
X198280481Y-66769115D01*
X198280476Y-66769109D01*
X198160890Y-66649523D01*
X198160884Y-66649518D01*
X198017697Y-66559547D01*
X198017694Y-66559545D01*
X197858056Y-66503685D01*
X197690003Y-66484751D01*
X197689997Y-66484751D01*
X197521943Y-66503685D01*
X197362305Y-66559545D01*
X197362302Y-66559547D01*
X197219115Y-66649518D01*
X197219109Y-66649523D01*
X197099523Y-66769109D01*
X197099518Y-66769115D01*
X197009547Y-66912302D01*
X197009545Y-66912305D01*
X196953685Y-67071943D01*
X196934751Y-67239997D01*
X196934751Y-67240002D01*
X196531869Y-67240002D01*
X196450890Y-67159023D01*
X196450884Y-67159018D01*
X196307697Y-67069047D01*
X196307694Y-67069045D01*
X196148056Y-67013185D01*
X195980003Y-66994251D01*
X195979997Y-66994251D01*
X195811943Y-67013185D01*
X195652305Y-67069045D01*
X195652302Y-67069047D01*
X195509115Y-67159018D01*
X195509108Y-67159024D01*
X195407929Y-67260202D01*
X195346606Y-67293686D01*
X195276914Y-67288701D01*
X195237649Y-67263466D01*
X195237333Y-67263864D01*
X195233453Y-67260770D01*
X195232568Y-67260201D01*
X195231890Y-67259523D01*
X195231884Y-67259518D01*
X195088697Y-67169547D01*
X195088694Y-67169545D01*
X194929056Y-67113685D01*
X194761003Y-67094751D01*
X194760997Y-67094751D01*
X194592943Y-67113685D01*
X194433305Y-67169545D01*
X194433302Y-67169547D01*
X194290115Y-67259518D01*
X194290109Y-67259523D01*
X194170523Y-67379109D01*
X194170518Y-67379115D01*
X194080547Y-67522302D01*
X194080545Y-67522305D01*
X194024685Y-67681943D01*
X194005751Y-67849997D01*
X194005751Y-67850002D01*
X184264687Y-67850002D01*
X184218056Y-67833685D01*
X184050003Y-67814751D01*
X184049997Y-67814751D01*
X183881943Y-67833685D01*
X183722305Y-67889545D01*
X183722302Y-67889547D01*
X183579115Y-67979518D01*
X183579109Y-67979523D01*
X183459523Y-68099109D01*
X183459518Y-68099115D01*
X183369547Y-68242302D01*
X183369545Y-68242305D01*
X183313685Y-68401943D01*
X183294751Y-68569997D01*
X183294751Y-68570002D01*
X176075692Y-68570002D01*
X176092331Y-68563796D01*
X176207546Y-68477546D01*
X176293796Y-68362331D01*
X176344091Y-68227483D01*
X176350500Y-68167873D01*
X176350499Y-66960002D01*
X188144751Y-66960002D01*
X188163685Y-67128056D01*
X188219545Y-67287694D01*
X188219547Y-67287697D01*
X188309518Y-67430884D01*
X188309523Y-67430890D01*
X188429109Y-67550476D01*
X188429115Y-67550481D01*
X188572302Y-67640452D01*
X188572305Y-67640454D01*
X188572309Y-67640455D01*
X188572310Y-67640456D01*
X188583873Y-67644502D01*
X188731943Y-67696314D01*
X188899997Y-67715249D01*
X188900000Y-67715249D01*
X188900003Y-67715249D01*
X189068056Y-67696314D01*
X189068059Y-67696313D01*
X189227690Y-67640456D01*
X189227692Y-67640454D01*
X189227694Y-67640454D01*
X189227697Y-67640452D01*
X189370884Y-67550481D01*
X189370885Y-67550480D01*
X189370890Y-67550477D01*
X189490477Y-67430890D01*
X189490481Y-67430884D01*
X189580452Y-67287697D01*
X189580454Y-67287694D01*
X189580454Y-67287692D01*
X189580456Y-67287690D01*
X189636313Y-67128059D01*
X189636313Y-67128058D01*
X189636314Y-67128056D01*
X189655249Y-66960002D01*
X189655249Y-66959997D01*
X189636314Y-66791943D01*
X189597453Y-66680884D01*
X189580456Y-66632310D01*
X189580455Y-66632309D01*
X189580454Y-66632305D01*
X189580452Y-66632302D01*
X189490481Y-66489115D01*
X189490476Y-66489109D01*
X189370890Y-66369523D01*
X189370884Y-66369518D01*
X189227697Y-66279547D01*
X189227694Y-66279545D01*
X189068056Y-66223685D01*
X188900003Y-66204751D01*
X188899997Y-66204751D01*
X188731943Y-66223685D01*
X188572305Y-66279545D01*
X188572302Y-66279547D01*
X188429115Y-66369518D01*
X188429109Y-66369523D01*
X188309523Y-66489109D01*
X188309518Y-66489115D01*
X188219547Y-66632302D01*
X188219545Y-66632305D01*
X188163685Y-66791943D01*
X188144751Y-66959997D01*
X188144751Y-66960002D01*
X176350499Y-66960002D01*
X176350499Y-66372128D01*
X176344091Y-66312517D01*
X176332142Y-66280481D01*
X176293797Y-66177671D01*
X176293793Y-66177664D01*
X176280571Y-66160002D01*
X192610251Y-66160002D01*
X192629185Y-66328056D01*
X192685045Y-66487694D01*
X192685047Y-66487697D01*
X192775018Y-66630884D01*
X192775023Y-66630890D01*
X192894609Y-66750476D01*
X192894615Y-66750481D01*
X193037802Y-66840452D01*
X193037805Y-66840454D01*
X193037809Y-66840455D01*
X193037810Y-66840456D01*
X193088900Y-66858333D01*
X193197443Y-66896314D01*
X193365497Y-66915249D01*
X193365500Y-66915249D01*
X193365503Y-66915249D01*
X193533556Y-66896314D01*
X193553741Y-66889251D01*
X193693190Y-66840456D01*
X193693192Y-66840454D01*
X193693194Y-66840454D01*
X193693197Y-66840452D01*
X193836384Y-66750481D01*
X193836385Y-66750480D01*
X193836390Y-66750477D01*
X193955977Y-66630890D01*
X194000805Y-66559547D01*
X194045952Y-66487697D01*
X194045953Y-66487696D01*
X194045953Y-66487693D01*
X194045956Y-66487690D01*
X194050967Y-66473367D01*
X194091684Y-66416593D01*
X194156636Y-66390843D01*
X194208964Y-66397279D01*
X194291939Y-66426313D01*
X194459997Y-66445249D01*
X194460000Y-66445249D01*
X194460003Y-66445249D01*
X194628056Y-66426314D01*
X194655837Y-66416593D01*
X194787690Y-66370456D01*
X194787692Y-66370454D01*
X194787694Y-66370454D01*
X194787697Y-66370452D01*
X194930884Y-66280481D01*
X194930885Y-66280480D01*
X194930890Y-66280477D01*
X195050477Y-66160890D01*
X195112330Y-66062452D01*
X195140452Y-66017697D01*
X195140454Y-66017694D01*
X195140454Y-66017692D01*
X195140456Y-66017690D01*
X195196313Y-65858059D01*
X195196313Y-65858058D01*
X195196314Y-65858056D01*
X195215249Y-65690002D01*
X195215249Y-65689997D01*
X195196314Y-65521943D01*
X195155307Y-65404751D01*
X195140456Y-65362310D01*
X195140455Y-65362309D01*
X195140454Y-65362305D01*
X195140452Y-65362302D01*
X195050481Y-65219115D01*
X195050476Y-65219109D01*
X194961369Y-65130002D01*
X200794751Y-65130002D01*
X200813685Y-65298056D01*
X200869545Y-65457694D01*
X200869547Y-65457697D01*
X200959518Y-65600884D01*
X200959523Y-65600890D01*
X201079109Y-65720476D01*
X201079115Y-65720481D01*
X201222302Y-65810452D01*
X201222305Y-65810454D01*
X201222309Y-65810455D01*
X201222310Y-65810456D01*
X201294913Y-65835860D01*
X201381943Y-65866314D01*
X201549997Y-65885249D01*
X201550000Y-65885249D01*
X201550003Y-65885249D01*
X201718056Y-65866314D01*
X201718059Y-65866313D01*
X201877690Y-65810456D01*
X201877692Y-65810454D01*
X201877694Y-65810454D01*
X201877697Y-65810452D01*
X202020884Y-65720481D01*
X202020885Y-65720480D01*
X202020890Y-65720477D01*
X202140477Y-65600890D01*
X202140481Y-65600884D01*
X202230452Y-65457697D01*
X202230454Y-65457694D01*
X202230454Y-65457692D01*
X202230456Y-65457690D01*
X202286313Y-65298059D01*
X202286313Y-65298058D01*
X202286314Y-65298056D01*
X202305249Y-65130002D01*
X202305249Y-65129997D01*
X202286314Y-64961943D01*
X202236336Y-64819115D01*
X202230456Y-64802310D01*
X202230455Y-64802309D01*
X202230454Y-64802305D01*
X202230452Y-64802302D01*
X202140481Y-64659115D01*
X202140476Y-64659109D01*
X202020890Y-64539523D01*
X202020884Y-64539518D01*
X201877697Y-64449547D01*
X201877694Y-64449545D01*
X201718056Y-64393685D01*
X201550003Y-64374751D01*
X201549997Y-64374751D01*
X201381943Y-64393685D01*
X201222305Y-64449545D01*
X201222302Y-64449547D01*
X201079115Y-64539518D01*
X201079109Y-64539523D01*
X200959523Y-64659109D01*
X200959518Y-64659115D01*
X200869547Y-64802302D01*
X200869545Y-64802305D01*
X200813685Y-64961943D01*
X200794751Y-65129997D01*
X200794751Y-65130002D01*
X194961369Y-65130002D01*
X194930890Y-65099523D01*
X194930884Y-65099518D01*
X194787697Y-65009547D01*
X194787694Y-65009545D01*
X194628056Y-64953685D01*
X194460003Y-64934751D01*
X194459997Y-64934751D01*
X194291943Y-64953685D01*
X194132305Y-65009545D01*
X194132302Y-65009547D01*
X193989115Y-65099518D01*
X193989109Y-65099523D01*
X193869523Y-65219109D01*
X193869518Y-65219115D01*
X193779548Y-65362300D01*
X193779544Y-65362309D01*
X193774530Y-65376638D01*
X193733806Y-65433412D01*
X193668853Y-65459157D01*
X193616536Y-65452721D01*
X193533557Y-65423686D01*
X193365503Y-65404751D01*
X193365497Y-65404751D01*
X193197443Y-65423685D01*
X193037805Y-65479545D01*
X193037802Y-65479547D01*
X192894615Y-65569518D01*
X192894609Y-65569523D01*
X192775023Y-65689109D01*
X192775018Y-65689115D01*
X192685047Y-65832302D01*
X192685045Y-65832305D01*
X192629185Y-65991943D01*
X192610251Y-66159997D01*
X192610251Y-66160002D01*
X176280571Y-66160002D01*
X176207547Y-66062455D01*
X176207544Y-66062452D01*
X176092335Y-65976206D01*
X176092328Y-65976202D01*
X175957482Y-65925908D01*
X175957483Y-65925908D01*
X175897883Y-65919501D01*
X175897881Y-65919500D01*
X175897873Y-65919500D01*
X175897864Y-65919500D01*
X174102129Y-65919500D01*
X174102123Y-65919501D01*
X174042516Y-65925908D01*
X173907671Y-65976202D01*
X173907664Y-65976206D01*
X173792455Y-66062452D01*
X173792452Y-66062455D01*
X173706206Y-66177664D01*
X173706202Y-66177671D01*
X173655908Y-66312517D01*
X173649501Y-66372116D01*
X173649501Y-66372123D01*
X173649500Y-66372135D01*
X173649500Y-68167870D01*
X173649501Y-68167876D01*
X173655908Y-68227483D01*
X173706202Y-68362328D01*
X173706206Y-68362335D01*
X173792452Y-68477544D01*
X173792455Y-68477547D01*
X173907664Y-68563793D01*
X173907671Y-68563797D01*
X174039081Y-68612810D01*
X174095015Y-68654681D01*
X174119432Y-68720145D01*
X174104580Y-68788418D01*
X174083430Y-68816673D01*
X173961503Y-68938600D01*
X173825965Y-69132169D01*
X173825964Y-69132171D01*
X173726098Y-69346335D01*
X173726094Y-69346344D01*
X173664938Y-69574586D01*
X173664936Y-69574596D01*
X173644341Y-69809999D01*
X173644341Y-69810000D01*
X173664936Y-70045403D01*
X173664938Y-70045413D01*
X173726094Y-70273655D01*
X173726096Y-70273659D01*
X173726097Y-70273663D01*
X173813400Y-70460884D01*
X173825965Y-70487830D01*
X173825967Y-70487834D01*
X173900990Y-70594977D01*
X173953838Y-70670452D01*
X173961501Y-70681395D01*
X173961506Y-70681402D01*
X174128597Y-70848493D01*
X174128603Y-70848498D01*
X174314158Y-70978425D01*
X174357783Y-71033002D01*
X174364977Y-71102500D01*
X174333454Y-71164855D01*
X174314158Y-71181575D01*
X174128597Y-71311505D01*
X173961505Y-71478597D01*
X173825965Y-71672169D01*
X173825964Y-71672171D01*
X173726098Y-71886335D01*
X173726094Y-71886344D01*
X173664938Y-72114586D01*
X173664936Y-72114596D01*
X173644341Y-72349999D01*
X173644341Y-72350000D01*
X173664936Y-72585403D01*
X173664938Y-72585413D01*
X173726094Y-72813655D01*
X173726096Y-72813659D01*
X173726097Y-72813663D01*
X173825964Y-73027830D01*
X173825965Y-73027830D01*
X173825967Y-73027834D01*
X173902525Y-73137169D01*
X173957942Y-73216313D01*
X173961501Y-73221395D01*
X173961506Y-73221402D01*
X174128597Y-73388493D01*
X174128603Y-73388498D01*
X174314158Y-73518425D01*
X174357783Y-73573002D01*
X174364977Y-73642500D01*
X174333454Y-73704855D01*
X174314158Y-73721575D01*
X174128597Y-73851505D01*
X173961505Y-74018597D01*
X173825965Y-74212169D01*
X173825964Y-74212171D01*
X173726098Y-74426335D01*
X173726094Y-74426344D01*
X173664938Y-74654586D01*
X173664936Y-74654596D01*
X173644341Y-74889999D01*
X173644341Y-74890000D01*
X173664936Y-75125403D01*
X173664938Y-75125413D01*
X173726094Y-75353655D01*
X173726096Y-75353659D01*
X173726097Y-75353663D01*
X173814063Y-75542307D01*
X173825965Y-75567830D01*
X173825967Y-75567834D01*
X173919871Y-75701941D01*
X173961048Y-75760749D01*
X173961501Y-75761395D01*
X173961506Y-75761402D01*
X174128597Y-75928493D01*
X174128603Y-75928498D01*
X174314158Y-76058425D01*
X174357783Y-76113002D01*
X174364977Y-76182500D01*
X174333454Y-76244855D01*
X174314158Y-76261575D01*
X174128597Y-76391505D01*
X173961505Y-76558597D01*
X173825965Y-76752169D01*
X173825964Y-76752171D01*
X173726098Y-76966335D01*
X173726094Y-76966344D01*
X173664938Y-77194586D01*
X173664936Y-77194596D01*
X173644341Y-77429999D01*
X173644341Y-77430000D01*
X173664936Y-77665403D01*
X173664938Y-77665413D01*
X173726094Y-77893655D01*
X173726096Y-77893659D01*
X173726097Y-77893663D01*
X173800589Y-78053411D01*
X173825965Y-78107830D01*
X173825967Y-78107834D01*
X173961501Y-78301395D01*
X173961506Y-78301402D01*
X174128597Y-78468493D01*
X174128603Y-78468498D01*
X174314158Y-78598425D01*
X174357783Y-78653002D01*
X174364977Y-78722500D01*
X174333454Y-78784855D01*
X174314158Y-78801575D01*
X174128597Y-78931505D01*
X173961505Y-79098597D01*
X173825965Y-79292169D01*
X173825964Y-79292171D01*
X173752780Y-79449115D01*
X173728520Y-79501142D01*
X173726098Y-79506335D01*
X173726094Y-79506344D01*
X173664938Y-79734586D01*
X173664936Y-79734596D01*
X173644341Y-79969999D01*
X173644341Y-79970000D01*
X173664936Y-80205403D01*
X173664938Y-80205413D01*
X173726094Y-80433655D01*
X173726096Y-80433659D01*
X173726097Y-80433663D01*
X173803884Y-80600477D01*
X173825965Y-80647830D01*
X173825967Y-80647834D01*
X173961501Y-80841395D01*
X173961506Y-80841402D01*
X174128597Y-81008493D01*
X174128603Y-81008498D01*
X174314158Y-81138425D01*
X174357783Y-81193002D01*
X174364977Y-81262500D01*
X174333454Y-81324855D01*
X174314158Y-81341575D01*
X174128597Y-81471505D01*
X173961505Y-81638597D01*
X173825965Y-81832169D01*
X173825964Y-81832171D01*
X173726098Y-82046335D01*
X173726094Y-82046344D01*
X173664938Y-82274586D01*
X173664936Y-82274596D01*
X173644341Y-82509999D01*
X173644341Y-82510000D01*
X173664936Y-82745403D01*
X173664938Y-82745413D01*
X173726094Y-82973655D01*
X173726096Y-82973659D01*
X173726097Y-82973663D01*
X173756615Y-83039109D01*
X173825965Y-83187830D01*
X173825967Y-83187834D01*
X173961501Y-83381395D01*
X173961506Y-83381402D01*
X174128597Y-83548493D01*
X174128603Y-83548498D01*
X174314158Y-83678425D01*
X174357783Y-83733002D01*
X174364977Y-83802500D01*
X174333454Y-83864855D01*
X174314158Y-83881575D01*
X174128597Y-84011505D01*
X173961505Y-84178597D01*
X173825965Y-84372169D01*
X173825964Y-84372171D01*
X173726098Y-84586335D01*
X173726094Y-84586344D01*
X173664938Y-84814586D01*
X173664936Y-84814596D01*
X173644341Y-85049999D01*
X173644341Y-85050000D01*
X173664936Y-85285403D01*
X173664938Y-85285413D01*
X173726094Y-85513655D01*
X173726096Y-85513659D01*
X173726097Y-85513663D01*
X173757443Y-85580884D01*
X173825965Y-85727830D01*
X173825967Y-85727834D01*
X173961501Y-85921395D01*
X173961506Y-85921402D01*
X174128597Y-86088493D01*
X174128603Y-86088498D01*
X174314158Y-86218425D01*
X174357783Y-86273002D01*
X174364977Y-86342500D01*
X174333454Y-86404855D01*
X174314158Y-86421575D01*
X174128597Y-86551505D01*
X173961505Y-86718597D01*
X173825965Y-86912169D01*
X173825964Y-86912171D01*
X173726098Y-87126335D01*
X173726094Y-87126344D01*
X173664938Y-87354586D01*
X173664936Y-87354596D01*
X173644341Y-87589999D01*
X173644341Y-87590000D01*
X173664936Y-87825403D01*
X173664938Y-87825413D01*
X173726094Y-88053655D01*
X173726096Y-88053659D01*
X173726097Y-88053663D01*
X173776095Y-88160884D01*
X173825965Y-88267830D01*
X173825967Y-88267834D01*
X173961501Y-88461395D01*
X173961506Y-88461402D01*
X174128597Y-88628493D01*
X174128603Y-88628498D01*
X174314158Y-88758425D01*
X174357783Y-88813002D01*
X174364977Y-88882500D01*
X174333454Y-88944855D01*
X174314158Y-88961575D01*
X174128597Y-89091505D01*
X173961505Y-89258597D01*
X173825965Y-89452169D01*
X173825964Y-89452171D01*
X173726098Y-89666335D01*
X173726094Y-89666344D01*
X173664938Y-89894586D01*
X173664936Y-89894596D01*
X173644341Y-90129999D01*
X173644341Y-90130000D01*
X173664936Y-90365403D01*
X173664938Y-90365413D01*
X173726094Y-90593655D01*
X173726099Y-90593669D01*
X173746816Y-90638096D01*
X173757308Y-90707173D01*
X173728788Y-90770957D01*
X173670311Y-90809196D01*
X173634434Y-90814500D01*
X173424500Y-90814500D01*
X173357461Y-90794815D01*
X173311706Y-90742011D01*
X173300500Y-90690500D01*
X173300500Y-65290002D01*
X189974751Y-65290002D01*
X189993685Y-65458056D01*
X190049545Y-65617694D01*
X190049547Y-65617697D01*
X190139518Y-65760884D01*
X190139523Y-65760890D01*
X190259109Y-65880476D01*
X190259115Y-65880481D01*
X190402302Y-65970452D01*
X190402305Y-65970454D01*
X190402309Y-65970455D01*
X190402310Y-65970456D01*
X190420009Y-65976649D01*
X190561943Y-66026314D01*
X190729997Y-66045249D01*
X190730000Y-66045249D01*
X190730003Y-66045249D01*
X190898056Y-66026314D01*
X190922682Y-66017697D01*
X191057690Y-65970456D01*
X191057692Y-65970454D01*
X191057694Y-65970454D01*
X191057697Y-65970452D01*
X191200884Y-65880481D01*
X191200885Y-65880480D01*
X191200890Y-65880477D01*
X191320477Y-65760890D01*
X191334159Y-65739115D01*
X191410452Y-65617697D01*
X191410454Y-65617694D01*
X191410454Y-65617692D01*
X191410456Y-65617690D01*
X191466313Y-65458059D01*
X191466313Y-65458058D01*
X191466314Y-65458056D01*
X191485249Y-65290002D01*
X191485249Y-65289997D01*
X191466314Y-65121943D01*
X191410454Y-64962305D01*
X191410452Y-64962302D01*
X191320481Y-64819115D01*
X191320476Y-64819109D01*
X191200890Y-64699523D01*
X191200884Y-64699518D01*
X191057697Y-64609547D01*
X191057694Y-64609545D01*
X190898056Y-64553685D01*
X190730003Y-64534751D01*
X190729997Y-64534751D01*
X190561943Y-64553685D01*
X190402305Y-64609545D01*
X190402302Y-64609547D01*
X190259115Y-64699518D01*
X190259109Y-64699523D01*
X190139523Y-64819109D01*
X190139518Y-64819115D01*
X190049547Y-64962302D01*
X190049545Y-64962305D01*
X189993685Y-65121943D01*
X189974751Y-65289997D01*
X189974751Y-65290002D01*
X173300500Y-65290002D01*
X173300500Y-63770002D01*
X188124751Y-63770002D01*
X188143685Y-63938056D01*
X188199545Y-64097694D01*
X188199547Y-64097697D01*
X188289518Y-64240884D01*
X188289523Y-64240890D01*
X188409109Y-64360476D01*
X188409115Y-64360481D01*
X188552302Y-64450452D01*
X188552305Y-64450454D01*
X188552309Y-64450455D01*
X188552310Y-64450456D01*
X188580946Y-64460476D01*
X188711943Y-64506314D01*
X188879997Y-64525249D01*
X188880000Y-64525249D01*
X188880003Y-64525249D01*
X189048056Y-64506314D01*
X189048059Y-64506313D01*
X189207690Y-64450456D01*
X189207692Y-64450454D01*
X189207694Y-64450454D01*
X189207697Y-64450452D01*
X189350884Y-64360481D01*
X189350885Y-64360480D01*
X189350890Y-64360477D01*
X189470477Y-64240890D01*
X189508178Y-64180890D01*
X189560452Y-64097697D01*
X189560454Y-64097694D01*
X189560454Y-64097692D01*
X189560456Y-64097690D01*
X189616313Y-63938059D01*
X189616313Y-63938058D01*
X189616314Y-63938056D01*
X189635249Y-63770002D01*
X189635249Y-63769997D01*
X189616314Y-63601943D01*
X189560454Y-63442305D01*
X189560452Y-63442302D01*
X189470481Y-63299115D01*
X189470476Y-63299109D01*
X189350890Y-63179523D01*
X189350884Y-63179518D01*
X189207697Y-63089547D01*
X189207694Y-63089545D01*
X189048056Y-63033685D01*
X188880003Y-63014751D01*
X188879997Y-63014751D01*
X188711943Y-63033685D01*
X188552305Y-63089545D01*
X188552302Y-63089547D01*
X188409115Y-63179518D01*
X188409109Y-63179523D01*
X188289523Y-63299109D01*
X188289518Y-63299115D01*
X188199547Y-63442302D01*
X188199545Y-63442305D01*
X188143685Y-63601943D01*
X188124751Y-63769997D01*
X188124751Y-63770002D01*
X173300500Y-63770002D01*
X173300500Y-61810002D01*
X189974751Y-61810002D01*
X189993685Y-61978056D01*
X190049545Y-62137692D01*
X190139524Y-62280892D01*
X190142347Y-62284432D01*
X190168757Y-62349118D01*
X190156003Y-62417814D01*
X190150396Y-62427719D01*
X190059545Y-62572307D01*
X190003685Y-62731943D01*
X189984751Y-62899997D01*
X189984751Y-62900002D01*
X190003685Y-63068056D01*
X190059545Y-63227694D01*
X190059547Y-63227697D01*
X190149518Y-63370884D01*
X190149523Y-63370890D01*
X190269109Y-63490476D01*
X190269115Y-63490481D01*
X190412302Y-63580452D01*
X190412305Y-63580454D01*
X190412309Y-63580455D01*
X190412310Y-63580456D01*
X190473711Y-63601941D01*
X190571943Y-63636314D01*
X190739997Y-63655249D01*
X190740000Y-63655249D01*
X190740003Y-63655249D01*
X190908056Y-63636314D01*
X190908059Y-63636313D01*
X191067690Y-63580456D01*
X191067692Y-63580454D01*
X191067694Y-63580454D01*
X191067697Y-63580452D01*
X191210884Y-63490481D01*
X191210885Y-63490480D01*
X191210890Y-63490477D01*
X191330477Y-63370890D01*
X191375320Y-63299523D01*
X191419004Y-63230002D01*
X197214751Y-63230002D01*
X197233685Y-63398056D01*
X197289545Y-63557694D01*
X197289547Y-63557697D01*
X197379518Y-63700884D01*
X197379523Y-63700890D01*
X197499109Y-63820476D01*
X197499115Y-63820481D01*
X197642302Y-63910452D01*
X197642305Y-63910454D01*
X197642309Y-63910455D01*
X197642310Y-63910456D01*
X197713165Y-63935249D01*
X197801943Y-63966314D01*
X197969997Y-63985249D01*
X197970000Y-63985249D01*
X197970003Y-63985249D01*
X198138056Y-63966314D01*
X198176154Y-63952983D01*
X198297690Y-63910456D01*
X198297692Y-63910454D01*
X198297694Y-63910454D01*
X198297697Y-63910452D01*
X198440884Y-63820481D01*
X198440885Y-63820480D01*
X198440890Y-63820477D01*
X198551365Y-63710002D01*
X202034751Y-63710002D01*
X202053685Y-63878056D01*
X202109545Y-64037694D01*
X202109547Y-64037697D01*
X202199518Y-64180884D01*
X202199523Y-64180890D01*
X202319109Y-64300476D01*
X202319115Y-64300481D01*
X202462302Y-64390452D01*
X202462305Y-64390454D01*
X202462309Y-64390455D01*
X202462310Y-64390456D01*
X202471544Y-64393687D01*
X202621943Y-64446314D01*
X202789997Y-64465249D01*
X202790000Y-64465249D01*
X202790003Y-64465249D01*
X202958056Y-64446314D01*
X202958059Y-64446313D01*
X203117690Y-64390456D01*
X203117692Y-64390454D01*
X203117694Y-64390454D01*
X203117697Y-64390452D01*
X203260884Y-64300481D01*
X203260885Y-64300480D01*
X203260890Y-64300477D01*
X203380477Y-64180890D01*
X203432753Y-64097694D01*
X203470452Y-64037697D01*
X203470454Y-64037693D01*
X203470453Y-64037693D01*
X203470456Y-64037690D01*
X203480229Y-64009757D01*
X203520948Y-63952983D01*
X203585900Y-63927233D01*
X203611149Y-63927490D01*
X203680000Y-63935249D01*
X203680003Y-63935249D01*
X203848056Y-63916314D01*
X203864809Y-63910452D01*
X203980409Y-63870002D01*
X207934751Y-63870002D01*
X207953685Y-64038056D01*
X208009545Y-64197694D01*
X208009547Y-64197697D01*
X208099518Y-64340884D01*
X208099523Y-64340890D01*
X208219109Y-64460476D01*
X208219115Y-64460481D01*
X208362302Y-64550452D01*
X208362305Y-64550454D01*
X208362309Y-64550455D01*
X208362310Y-64550456D01*
X208371544Y-64553687D01*
X208521943Y-64606314D01*
X208689997Y-64625249D01*
X208690000Y-64625249D01*
X208690003Y-64625249D01*
X208858056Y-64606314D01*
X208858059Y-64606313D01*
X209017690Y-64550456D01*
X209017692Y-64550454D01*
X209017694Y-64550454D01*
X209017697Y-64550452D01*
X209160884Y-64460481D01*
X209160885Y-64460480D01*
X209160890Y-64460477D01*
X209280477Y-64340890D01*
X209305868Y-64300481D01*
X209370452Y-64197697D01*
X209370454Y-64197694D01*
X209370454Y-64197692D01*
X209370456Y-64197690D01*
X209426313Y-64038059D01*
X209426313Y-64038058D01*
X209426314Y-64038056D01*
X209442996Y-63890002D01*
X214754751Y-63890002D01*
X214773685Y-64058056D01*
X214829545Y-64217694D01*
X214829547Y-64217697D01*
X214919518Y-64360884D01*
X214919523Y-64360890D01*
X215039109Y-64480476D01*
X215039115Y-64480481D01*
X215182302Y-64570452D01*
X215182305Y-64570454D01*
X215182309Y-64570455D01*
X215182310Y-64570456D01*
X215254913Y-64595860D01*
X215341943Y-64626314D01*
X215509997Y-64645249D01*
X215510000Y-64645249D01*
X215510003Y-64645249D01*
X215678056Y-64626314D01*
X215681100Y-64625249D01*
X215837690Y-64570456D01*
X215837692Y-64570454D01*
X215837694Y-64570454D01*
X215837697Y-64570452D01*
X215980884Y-64480481D01*
X215980885Y-64480480D01*
X215980890Y-64480477D01*
X216100477Y-64360890D01*
X216138435Y-64300481D01*
X216190452Y-64217697D01*
X216190454Y-64217694D01*
X216190454Y-64217692D01*
X216190456Y-64217690D01*
X216246313Y-64058059D01*
X216246313Y-64058058D01*
X216246314Y-64058056D01*
X216265249Y-63890002D01*
X216265249Y-63889997D01*
X216246314Y-63721943D01*
X216204323Y-63601941D01*
X216190456Y-63562310D01*
X216190455Y-63562309D01*
X216190454Y-63562305D01*
X216190452Y-63562302D01*
X216100481Y-63419115D01*
X216100476Y-63419109D01*
X215980890Y-63299523D01*
X215980884Y-63299518D01*
X215837697Y-63209547D01*
X215837694Y-63209545D01*
X215678056Y-63153685D01*
X215510003Y-63134751D01*
X215509997Y-63134751D01*
X215341943Y-63153685D01*
X215182305Y-63209545D01*
X215182302Y-63209547D01*
X215039115Y-63299518D01*
X215039109Y-63299523D01*
X214919523Y-63419109D01*
X214919518Y-63419115D01*
X214829547Y-63562302D01*
X214829545Y-63562305D01*
X214773685Y-63721943D01*
X214754751Y-63889997D01*
X214754751Y-63890002D01*
X209442996Y-63890002D01*
X209445249Y-63870002D01*
X209445249Y-63869997D01*
X209426314Y-63701943D01*
X209377454Y-63562310D01*
X209370456Y-63542310D01*
X209370455Y-63542309D01*
X209370454Y-63542305D01*
X209370452Y-63542302D01*
X209280481Y-63399115D01*
X209280476Y-63399109D01*
X209160890Y-63279523D01*
X209160884Y-63279518D01*
X209017697Y-63189547D01*
X209017694Y-63189545D01*
X208858056Y-63133685D01*
X208690003Y-63114751D01*
X208689997Y-63114751D01*
X208521943Y-63133685D01*
X208362305Y-63189545D01*
X208362302Y-63189547D01*
X208219115Y-63279518D01*
X208219109Y-63279523D01*
X208099523Y-63399109D01*
X208099518Y-63399115D01*
X208009547Y-63542302D01*
X208009545Y-63542305D01*
X207953685Y-63701943D01*
X207934751Y-63869997D01*
X207934751Y-63870002D01*
X203980409Y-63870002D01*
X204007690Y-63860456D01*
X204007692Y-63860454D01*
X204007694Y-63860454D01*
X204007697Y-63860452D01*
X204150884Y-63770481D01*
X204150885Y-63770480D01*
X204150890Y-63770477D01*
X204270477Y-63650890D01*
X204279636Y-63636314D01*
X204360452Y-63507697D01*
X204360455Y-63507692D01*
X204360456Y-63507690D01*
X204409489Y-63367558D01*
X204450209Y-63310785D01*
X204515162Y-63285037D01*
X204535766Y-63285249D01*
X204540000Y-63285249D01*
X204540003Y-63285249D01*
X204708056Y-63266314D01*
X204708059Y-63266313D01*
X204867690Y-63210456D01*
X204867692Y-63210454D01*
X204867694Y-63210454D01*
X204867697Y-63210452D01*
X205010884Y-63120481D01*
X205010885Y-63120480D01*
X205010890Y-63120477D01*
X205130477Y-63000890D01*
X205159468Y-62954751D01*
X205220452Y-62857697D01*
X205220454Y-62857694D01*
X205220454Y-62857692D01*
X205220456Y-62857690D01*
X205276313Y-62698059D01*
X205276313Y-62698058D01*
X205276314Y-62698056D01*
X205295249Y-62530002D01*
X205295249Y-62529997D01*
X205276314Y-62361943D01*
X205220454Y-62202305D01*
X205220452Y-62202302D01*
X205130481Y-62059115D01*
X205130476Y-62059109D01*
X205010890Y-61939523D01*
X205010884Y-61939518D01*
X204867697Y-61849547D01*
X204867694Y-61849545D01*
X204708055Y-61793685D01*
X204648347Y-61786958D01*
X204583933Y-61759891D01*
X204544378Y-61702296D01*
X204542241Y-61632459D01*
X204578200Y-61572553D01*
X204621278Y-61546696D01*
X204667690Y-61530456D01*
X204667693Y-61530453D01*
X204667697Y-61530452D01*
X204810884Y-61440481D01*
X204810885Y-61440480D01*
X204810890Y-61440477D01*
X204930477Y-61320890D01*
X204953029Y-61284999D01*
X205020452Y-61177697D01*
X205020454Y-61177694D01*
X205020454Y-61177692D01*
X205020456Y-61177690D01*
X205076313Y-61018059D01*
X205076313Y-61018058D01*
X205076314Y-61018056D01*
X205095249Y-60850002D01*
X205095249Y-60849997D01*
X205076314Y-60681943D01*
X205020454Y-60522305D01*
X205020452Y-60522302D01*
X204930481Y-60379115D01*
X204930476Y-60379109D01*
X204810890Y-60259523D01*
X204810884Y-60259518D01*
X204667697Y-60169547D01*
X204667694Y-60169545D01*
X204508056Y-60113685D01*
X204340003Y-60094751D01*
X204339997Y-60094751D01*
X204171943Y-60113685D01*
X204012305Y-60169545D01*
X204012302Y-60169547D01*
X203869115Y-60259518D01*
X203869109Y-60259523D01*
X203749523Y-60379109D01*
X203749518Y-60379115D01*
X203659547Y-60522302D01*
X203659545Y-60522305D01*
X203603685Y-60681943D01*
X203584751Y-60849997D01*
X203584751Y-60850002D01*
X203603685Y-61018056D01*
X203659545Y-61177694D01*
X203659547Y-61177697D01*
X203749518Y-61320884D01*
X203749523Y-61320890D01*
X203869109Y-61440476D01*
X203869115Y-61440481D01*
X204012302Y-61530452D01*
X204012305Y-61530454D01*
X204012309Y-61530455D01*
X204012310Y-61530456D01*
X204058722Y-61546696D01*
X204171944Y-61586314D01*
X204231651Y-61593041D01*
X204296065Y-61620107D01*
X204335620Y-61677702D01*
X204337759Y-61747538D01*
X204301801Y-61807445D01*
X204258724Y-61833302D01*
X204212311Y-61849543D01*
X204212302Y-61849547D01*
X204069115Y-61939518D01*
X204069109Y-61939523D01*
X203949523Y-62059109D01*
X203949518Y-62059115D01*
X203859547Y-62202302D01*
X203859542Y-62202313D01*
X203810510Y-62342438D01*
X203769789Y-62399214D01*
X203704836Y-62424961D01*
X203684137Y-62424751D01*
X203679997Y-62424751D01*
X203511943Y-62443685D01*
X203352305Y-62499545D01*
X203352302Y-62499547D01*
X203209115Y-62589518D01*
X203209109Y-62589523D01*
X203089523Y-62709109D01*
X203089518Y-62709115D01*
X202999548Y-62852300D01*
X202999543Y-62852312D01*
X202989768Y-62880245D01*
X202949045Y-62937020D01*
X202884091Y-62962765D01*
X202858845Y-62962507D01*
X202790004Y-62954751D01*
X202789997Y-62954751D01*
X202621943Y-62973685D01*
X202462305Y-63029545D01*
X202462302Y-63029547D01*
X202319115Y-63119518D01*
X202319109Y-63119523D01*
X202199523Y-63239109D01*
X202199518Y-63239115D01*
X202109547Y-63382302D01*
X202109545Y-63382305D01*
X202053685Y-63541943D01*
X202034751Y-63709997D01*
X202034751Y-63710002D01*
X198551365Y-63710002D01*
X198560477Y-63700890D01*
X198560481Y-63700884D01*
X198650452Y-63557697D01*
X198650454Y-63557694D01*
X198650454Y-63557692D01*
X198650456Y-63557690D01*
X198706313Y-63398059D01*
X198706313Y-63398058D01*
X198706314Y-63398056D01*
X198725249Y-63230002D01*
X198725249Y-63229997D01*
X198706314Y-63061943D01*
X198650454Y-62902305D01*
X198650452Y-62902302D01*
X198560481Y-62759115D01*
X198560476Y-62759109D01*
X198440890Y-62639523D01*
X198440884Y-62639518D01*
X198297697Y-62549547D01*
X198297694Y-62549545D01*
X198138056Y-62493685D01*
X197970003Y-62474751D01*
X197969997Y-62474751D01*
X197801943Y-62493685D01*
X197642305Y-62549545D01*
X197642302Y-62549547D01*
X197499115Y-62639518D01*
X197499109Y-62639523D01*
X197379523Y-62759109D01*
X197379518Y-62759115D01*
X197289547Y-62902302D01*
X197289545Y-62902305D01*
X197233685Y-63061943D01*
X197214751Y-63229997D01*
X197214751Y-63230002D01*
X191419004Y-63230002D01*
X191420452Y-63227697D01*
X191420454Y-63227694D01*
X191420454Y-63227692D01*
X191420456Y-63227690D01*
X191476313Y-63068059D01*
X191476313Y-63068058D01*
X191476314Y-63068056D01*
X191495249Y-62900002D01*
X191495249Y-62899997D01*
X191476314Y-62731943D01*
X191420454Y-62572305D01*
X191420452Y-62572302D01*
X191330480Y-62429113D01*
X191327653Y-62425569D01*
X191301241Y-62360884D01*
X191313994Y-62292188D01*
X191319603Y-62282279D01*
X191320475Y-62280892D01*
X191320477Y-62280890D01*
X191410456Y-62137690D01*
X191466313Y-61978059D01*
X191466313Y-61978058D01*
X191466314Y-61978056D01*
X191485249Y-61810002D01*
X191485249Y-61809997D01*
X191466314Y-61641943D01*
X191442033Y-61572553D01*
X191410456Y-61482310D01*
X191410454Y-61482307D01*
X191410454Y-61482306D01*
X191329789Y-61353930D01*
X191310788Y-61286693D01*
X191329789Y-61221984D01*
X191330475Y-61220891D01*
X191330477Y-61220890D01*
X191420456Y-61077690D01*
X191476313Y-60918059D01*
X191476313Y-60918058D01*
X191476314Y-60918056D01*
X191495249Y-60750002D01*
X191495249Y-60749997D01*
X191476314Y-60581943D01*
X191420454Y-60422305D01*
X191420452Y-60422302D01*
X191330481Y-60279115D01*
X191330476Y-60279109D01*
X191210890Y-60159523D01*
X191210884Y-60159518D01*
X191067697Y-60069547D01*
X191067694Y-60069545D01*
X190908056Y-60013685D01*
X190740003Y-59994751D01*
X190739997Y-59994751D01*
X190571943Y-60013685D01*
X190412305Y-60069545D01*
X190412302Y-60069547D01*
X190269115Y-60159518D01*
X190269109Y-60159523D01*
X190149523Y-60279109D01*
X190149518Y-60279115D01*
X190059547Y-60422302D01*
X190059545Y-60422305D01*
X190003685Y-60581943D01*
X189984751Y-60749997D01*
X189984751Y-60750002D01*
X190003685Y-60918056D01*
X190059545Y-61077692D01*
X190140211Y-61206070D01*
X190159211Y-61273306D01*
X190140211Y-61338014D01*
X190049545Y-61482307D01*
X189993685Y-61641943D01*
X189974751Y-61809997D01*
X189974751Y-61810002D01*
X173300500Y-61810002D01*
X173300500Y-59330002D01*
X196604751Y-59330002D01*
X196623685Y-59498056D01*
X196679545Y-59657694D01*
X196679547Y-59657697D01*
X196769518Y-59800884D01*
X196769523Y-59800890D01*
X196889109Y-59920476D01*
X196889115Y-59920481D01*
X197032302Y-60010452D01*
X197032305Y-60010454D01*
X197032309Y-60010455D01*
X197032310Y-60010456D01*
X197041544Y-60013687D01*
X197191943Y-60066314D01*
X197359997Y-60085249D01*
X197360000Y-60085249D01*
X197360003Y-60085249D01*
X197528056Y-60066314D01*
X197559678Y-60055249D01*
X197687690Y-60010456D01*
X197687692Y-60010454D01*
X197687694Y-60010454D01*
X197687697Y-60010452D01*
X197830884Y-59920481D01*
X197830885Y-59920480D01*
X197830890Y-59920477D01*
X197950477Y-59800890D01*
X197950481Y-59800884D01*
X198040452Y-59657697D01*
X198040454Y-59657694D01*
X198040454Y-59657692D01*
X198040456Y-59657690D01*
X198096313Y-59498059D01*
X198096313Y-59498058D01*
X198096314Y-59498056D01*
X198115249Y-59330002D01*
X198115249Y-59329997D01*
X198111869Y-59300002D01*
X198564751Y-59300002D01*
X198583685Y-59468056D01*
X198639545Y-59627694D01*
X198639547Y-59627697D01*
X198729518Y-59770884D01*
X198729523Y-59770890D01*
X198849109Y-59890476D01*
X198849115Y-59890481D01*
X198992302Y-59980452D01*
X198992305Y-59980454D01*
X198992309Y-59980455D01*
X198992310Y-59980456D01*
X199033163Y-59994751D01*
X199151943Y-60036314D01*
X199319997Y-60055249D01*
X199320000Y-60055249D01*
X199320003Y-60055249D01*
X199488056Y-60036314D01*
X199488059Y-60036313D01*
X199647690Y-59980456D01*
X199647692Y-59980454D01*
X199647694Y-59980454D01*
X199647697Y-59980452D01*
X199790884Y-59890481D01*
X199790885Y-59890480D01*
X199790890Y-59890477D01*
X199910477Y-59770890D01*
X199910481Y-59770884D01*
X200000452Y-59627697D01*
X200000454Y-59627694D01*
X200000454Y-59627692D01*
X200000456Y-59627690D01*
X200056313Y-59468059D01*
X200056313Y-59468058D01*
X200056314Y-59468056D01*
X200075249Y-59300002D01*
X200075249Y-59299997D01*
X200056314Y-59131943D01*
X200010952Y-59002305D01*
X200000456Y-58972310D01*
X200000455Y-58972309D01*
X200000454Y-58972305D01*
X200000452Y-58972302D01*
X199910481Y-58829115D01*
X199910476Y-58829109D01*
X199790890Y-58709523D01*
X199790884Y-58709518D01*
X199647697Y-58619547D01*
X199647694Y-58619545D01*
X199488056Y-58563685D01*
X199320003Y-58544751D01*
X199319997Y-58544751D01*
X199151943Y-58563685D01*
X198992305Y-58619545D01*
X198992302Y-58619547D01*
X198849115Y-58709518D01*
X198849109Y-58709523D01*
X198729523Y-58829109D01*
X198729518Y-58829115D01*
X198639547Y-58972302D01*
X198639545Y-58972305D01*
X198583685Y-59131943D01*
X198564751Y-59299997D01*
X198564751Y-59300002D01*
X198111869Y-59300002D01*
X198096314Y-59161943D01*
X198040454Y-59002305D01*
X198040452Y-59002302D01*
X197950481Y-58859115D01*
X197950476Y-58859109D01*
X197830890Y-58739523D01*
X197830884Y-58739518D01*
X197687697Y-58649547D01*
X197687694Y-58649545D01*
X197528056Y-58593685D01*
X197360003Y-58574751D01*
X197359997Y-58574751D01*
X197191943Y-58593685D01*
X197032305Y-58649545D01*
X197032302Y-58649547D01*
X196889115Y-58739518D01*
X196889109Y-58739523D01*
X196769523Y-58859109D01*
X196769518Y-58859115D01*
X196679547Y-59002302D01*
X196679545Y-59002305D01*
X196623685Y-59161943D01*
X196604751Y-59329997D01*
X196604751Y-59330002D01*
X173300500Y-59330002D01*
X173300500Y-57310002D01*
X183844751Y-57310002D01*
X183863685Y-57478056D01*
X183919545Y-57637694D01*
X183919547Y-57637697D01*
X184009518Y-57780884D01*
X184009523Y-57780890D01*
X184129109Y-57900476D01*
X184129115Y-57900481D01*
X184272302Y-57990452D01*
X184272305Y-57990454D01*
X184272309Y-57990455D01*
X184272310Y-57990456D01*
X184344913Y-58015860D01*
X184431943Y-58046314D01*
X184599997Y-58065249D01*
X184600000Y-58065249D01*
X184600003Y-58065249D01*
X184768056Y-58046314D01*
X184768059Y-58046313D01*
X184927690Y-57990456D01*
X184927692Y-57990454D01*
X184927694Y-57990454D01*
X184927697Y-57990452D01*
X185070884Y-57900481D01*
X185070885Y-57900480D01*
X185070890Y-57900477D01*
X185190477Y-57780890D01*
X185280452Y-57637697D01*
X185280454Y-57637694D01*
X185280454Y-57637692D01*
X185280456Y-57637690D01*
X185336313Y-57478059D01*
X185336313Y-57478058D01*
X185336314Y-57478056D01*
X185355249Y-57310002D01*
X185355249Y-57309997D01*
X185336314Y-57141943D01*
X185280454Y-56982305D01*
X185280452Y-56982302D01*
X185190481Y-56839115D01*
X185190476Y-56839109D01*
X185081369Y-56730002D01*
X192714751Y-56730002D01*
X192733685Y-56898056D01*
X192789545Y-57057694D01*
X192789547Y-57057697D01*
X192879518Y-57200884D01*
X192879523Y-57200890D01*
X192999109Y-57320476D01*
X192999115Y-57320481D01*
X193142302Y-57410452D01*
X193142305Y-57410454D01*
X193142309Y-57410455D01*
X193142310Y-57410456D01*
X193214913Y-57435860D01*
X193301943Y-57466314D01*
X193469997Y-57485249D01*
X193470000Y-57485249D01*
X193470003Y-57485249D01*
X193638056Y-57466314D01*
X193638059Y-57466313D01*
X193797690Y-57410456D01*
X193929027Y-57327930D01*
X193996264Y-57308930D01*
X194060973Y-57327931D01*
X194192307Y-57410454D01*
X194192305Y-57410454D01*
X194192309Y-57410455D01*
X194192310Y-57410456D01*
X194264913Y-57435860D01*
X194351943Y-57466314D01*
X194519997Y-57485249D01*
X194520000Y-57485249D01*
X194520003Y-57485249D01*
X194688056Y-57466314D01*
X194688059Y-57466313D01*
X194847690Y-57410456D01*
X194847692Y-57410454D01*
X194847694Y-57410454D01*
X194847697Y-57410452D01*
X194990884Y-57320481D01*
X194990884Y-57320480D01*
X194990890Y-57320477D01*
X195077322Y-57234044D01*
X195138641Y-57200562D01*
X195208333Y-57205546D01*
X195252676Y-57234043D01*
X195329110Y-57310477D01*
X195329112Y-57310478D01*
X195329114Y-57310480D01*
X195329115Y-57310481D01*
X195472302Y-57400452D01*
X195472305Y-57400454D01*
X195472309Y-57400455D01*
X195472310Y-57400456D01*
X195500883Y-57410454D01*
X195631943Y-57456314D01*
X195799997Y-57475249D01*
X195800000Y-57475249D01*
X195800003Y-57475249D01*
X195968056Y-57456314D01*
X195968059Y-57456313D01*
X196127690Y-57400456D01*
X196259027Y-57317930D01*
X196326264Y-57298930D01*
X196390973Y-57317931D01*
X196522307Y-57400454D01*
X196522305Y-57400454D01*
X196522309Y-57400455D01*
X196522310Y-57400456D01*
X196550883Y-57410454D01*
X196681943Y-57456314D01*
X196849997Y-57475249D01*
X196850000Y-57475249D01*
X196850003Y-57475249D01*
X197018056Y-57456314D01*
X197018059Y-57456313D01*
X197177690Y-57400456D01*
X197177692Y-57400454D01*
X197177694Y-57400454D01*
X197177697Y-57400452D01*
X197320884Y-57310481D01*
X197320885Y-57310480D01*
X197320890Y-57310477D01*
X197440477Y-57190890D01*
X197471234Y-57141941D01*
X197530452Y-57047697D01*
X197530454Y-57047694D01*
X197530454Y-57047692D01*
X197530456Y-57047690D01*
X197586313Y-56888059D01*
X197586313Y-56888058D01*
X197586314Y-56888056D01*
X197605249Y-56720002D01*
X197605249Y-56719997D01*
X197586314Y-56551943D01*
X197530454Y-56392305D01*
X197530452Y-56392302D01*
X197440481Y-56249115D01*
X197440476Y-56249109D01*
X197320890Y-56129523D01*
X197320884Y-56129518D01*
X197177697Y-56039547D01*
X197177694Y-56039545D01*
X197018056Y-55983685D01*
X196850003Y-55964751D01*
X196849997Y-55964751D01*
X196681943Y-55983685D01*
X196522307Y-56039545D01*
X196390971Y-56122069D01*
X196323734Y-56141069D01*
X196259027Y-56122069D01*
X196127692Y-56039545D01*
X196127691Y-56039544D01*
X196127690Y-56039544D01*
X196089370Y-56026135D01*
X195968056Y-55983685D01*
X195800003Y-55964751D01*
X195799997Y-55964751D01*
X195631943Y-55983685D01*
X195472305Y-56039545D01*
X195472302Y-56039547D01*
X195329115Y-56129518D01*
X195329109Y-56129523D01*
X195242681Y-56215952D01*
X195181358Y-56249437D01*
X195111666Y-56244453D01*
X195067319Y-56215952D01*
X194990890Y-56139523D01*
X194990884Y-56139518D01*
X194847697Y-56049547D01*
X194847694Y-56049545D01*
X194688056Y-55993685D01*
X194520003Y-55974751D01*
X194519997Y-55974751D01*
X194351943Y-55993685D01*
X194192307Y-56049545D01*
X194060972Y-56132069D01*
X193993735Y-56151069D01*
X193929028Y-56132069D01*
X193797692Y-56049545D01*
X193797691Y-56049544D01*
X193797690Y-56049544D01*
X193759370Y-56036135D01*
X193638056Y-55993685D01*
X193470003Y-55974751D01*
X193469997Y-55974751D01*
X193301943Y-55993685D01*
X193142305Y-56049545D01*
X193142302Y-56049547D01*
X192999115Y-56139518D01*
X192999109Y-56139523D01*
X192879523Y-56259109D01*
X192879518Y-56259115D01*
X192789547Y-56402302D01*
X192789545Y-56402305D01*
X192733685Y-56561943D01*
X192714751Y-56729997D01*
X192714751Y-56730002D01*
X185081369Y-56730002D01*
X185070890Y-56719523D01*
X185070884Y-56719518D01*
X184927697Y-56629547D01*
X184927694Y-56629545D01*
X184768056Y-56573685D01*
X184600003Y-56554751D01*
X184599997Y-56554751D01*
X184431943Y-56573685D01*
X184272305Y-56629545D01*
X184272302Y-56629547D01*
X184129115Y-56719518D01*
X184129109Y-56719523D01*
X184009523Y-56839109D01*
X184009518Y-56839115D01*
X183919547Y-56982302D01*
X183919545Y-56982305D01*
X183863685Y-57141943D01*
X183844751Y-57309997D01*
X183844751Y-57310002D01*
X173300500Y-57310002D01*
X173300500Y-54710002D01*
X200874751Y-54710002D01*
X200893685Y-54878056D01*
X200949545Y-55037694D01*
X200949547Y-55037697D01*
X201039518Y-55180884D01*
X201039523Y-55180890D01*
X201159109Y-55300476D01*
X201159115Y-55300481D01*
X201302302Y-55390452D01*
X201302305Y-55390454D01*
X201302309Y-55390455D01*
X201302310Y-55390456D01*
X201374913Y-55415860D01*
X201461943Y-55446314D01*
X201629997Y-55465249D01*
X201630000Y-55465249D01*
X201630003Y-55465249D01*
X201798056Y-55446314D01*
X201798059Y-55446313D01*
X201957690Y-55390456D01*
X201957692Y-55390454D01*
X201957694Y-55390454D01*
X201957697Y-55390452D01*
X202100884Y-55300481D01*
X202100885Y-55300480D01*
X202100890Y-55300477D01*
X202220477Y-55180890D01*
X202310452Y-55037697D01*
X202310454Y-55037694D01*
X202310454Y-55037692D01*
X202310456Y-55037690D01*
X202366313Y-54878059D01*
X202366313Y-54878058D01*
X202366314Y-54878056D01*
X202385249Y-54710002D01*
X202385249Y-54709997D01*
X202366314Y-54541943D01*
X202310454Y-54382305D01*
X202310452Y-54382302D01*
X202220481Y-54239115D01*
X202220476Y-54239109D01*
X202100890Y-54119523D01*
X202100884Y-54119518D01*
X201957697Y-54029547D01*
X201957694Y-54029545D01*
X201798056Y-53973685D01*
X201630003Y-53954751D01*
X201629997Y-53954751D01*
X201461943Y-53973685D01*
X201302305Y-54029545D01*
X201302302Y-54029547D01*
X201159115Y-54119518D01*
X201159109Y-54119523D01*
X201039523Y-54239109D01*
X201039518Y-54239115D01*
X200949547Y-54382302D01*
X200949545Y-54382305D01*
X200893685Y-54541943D01*
X200874751Y-54709997D01*
X200874751Y-54710002D01*
X173300500Y-54710002D01*
X173300500Y-51680002D01*
X201034751Y-51680002D01*
X201053685Y-51848056D01*
X201109545Y-52007694D01*
X201109547Y-52007697D01*
X201199518Y-52150884D01*
X201199523Y-52150890D01*
X201319109Y-52270476D01*
X201319115Y-52270481D01*
X201462302Y-52360452D01*
X201462305Y-52360454D01*
X201462309Y-52360455D01*
X201462310Y-52360456D01*
X201534913Y-52385860D01*
X201621943Y-52416314D01*
X201789997Y-52435249D01*
X201790000Y-52435249D01*
X201790003Y-52435249D01*
X201958056Y-52416314D01*
X201958059Y-52416313D01*
X202117690Y-52360456D01*
X202117692Y-52360454D01*
X202117694Y-52360454D01*
X202117697Y-52360452D01*
X202260884Y-52270481D01*
X202260885Y-52270480D01*
X202260890Y-52270477D01*
X202380477Y-52150890D01*
X202470452Y-52007697D01*
X202470454Y-52007694D01*
X202470454Y-52007692D01*
X202470456Y-52007690D01*
X202526313Y-51848059D01*
X202526313Y-51848058D01*
X202526314Y-51848056D01*
X202545249Y-51680002D01*
X202545249Y-51679997D01*
X202526314Y-51511943D01*
X202470454Y-51352305D01*
X202470452Y-51352302D01*
X202380481Y-51209115D01*
X202380476Y-51209109D01*
X202260890Y-51089523D01*
X202260884Y-51089518D01*
X202117697Y-50999547D01*
X202117694Y-50999545D01*
X201958056Y-50943685D01*
X201790003Y-50924751D01*
X201789997Y-50924751D01*
X201621943Y-50943685D01*
X201462305Y-50999545D01*
X201462302Y-50999547D01*
X201319115Y-51089518D01*
X201319109Y-51089523D01*
X201199523Y-51209109D01*
X201199518Y-51209115D01*
X201109547Y-51352302D01*
X201109545Y-51352305D01*
X201053685Y-51511943D01*
X201034751Y-51679997D01*
X201034751Y-51680002D01*
X173300500Y-51680002D01*
X173300500Y-48760002D01*
X195744751Y-48760002D01*
X195763685Y-48928056D01*
X195819545Y-49087694D01*
X195819547Y-49087697D01*
X195909518Y-49230884D01*
X195909523Y-49230890D01*
X196029109Y-49350476D01*
X196029115Y-49350481D01*
X196172302Y-49440452D01*
X196172305Y-49440454D01*
X196172309Y-49440455D01*
X196172310Y-49440456D01*
X196244913Y-49465860D01*
X196331943Y-49496314D01*
X196499997Y-49515249D01*
X196500000Y-49515249D01*
X196500003Y-49515249D01*
X196668056Y-49496314D01*
X196668059Y-49496313D01*
X196827690Y-49440456D01*
X196827692Y-49440454D01*
X196827694Y-49440454D01*
X196827697Y-49440452D01*
X196970884Y-49350481D01*
X196970885Y-49350480D01*
X196970890Y-49350477D01*
X197090477Y-49230890D01*
X197142753Y-49147694D01*
X197180452Y-49087697D01*
X197180454Y-49087694D01*
X197180454Y-49087692D01*
X197180456Y-49087690D01*
X197236313Y-48928059D01*
X197236313Y-48928058D01*
X197236314Y-48928056D01*
X197248489Y-48820002D01*
X202424751Y-48820002D01*
X202443685Y-48988056D01*
X202499545Y-49147694D01*
X202499547Y-49147697D01*
X202589518Y-49290884D01*
X202589523Y-49290890D01*
X202709109Y-49410476D01*
X202709115Y-49410481D01*
X202852302Y-49500452D01*
X202852305Y-49500454D01*
X202852309Y-49500455D01*
X202852310Y-49500456D01*
X202894586Y-49515249D01*
X203011943Y-49556314D01*
X203179997Y-49575249D01*
X203180000Y-49575249D01*
X203180003Y-49575249D01*
X203348056Y-49556314D01*
X203348059Y-49556313D01*
X203507690Y-49500456D01*
X203507692Y-49500454D01*
X203507694Y-49500454D01*
X203507697Y-49500452D01*
X203650884Y-49410481D01*
X203650885Y-49410480D01*
X203650890Y-49410477D01*
X203770477Y-49290890D01*
X203808178Y-49230890D01*
X203860452Y-49147697D01*
X203860454Y-49147694D01*
X203860454Y-49147692D01*
X203860456Y-49147690D01*
X203916313Y-48988059D01*
X203916313Y-48988058D01*
X203916314Y-48988056D01*
X203935249Y-48820002D01*
X203935249Y-48819997D01*
X203916314Y-48651943D01*
X203860454Y-48492305D01*
X203860452Y-48492302D01*
X203770481Y-48349115D01*
X203770476Y-48349109D01*
X203650890Y-48229523D01*
X203650884Y-48229518D01*
X203507697Y-48139547D01*
X203507694Y-48139545D01*
X203348056Y-48083685D01*
X203180003Y-48064751D01*
X203179997Y-48064751D01*
X203011943Y-48083685D01*
X202852305Y-48139545D01*
X202852302Y-48139547D01*
X202709115Y-48229518D01*
X202709109Y-48229523D01*
X202589523Y-48349109D01*
X202589518Y-48349115D01*
X202499547Y-48492302D01*
X202499545Y-48492305D01*
X202443685Y-48651943D01*
X202424751Y-48819997D01*
X202424751Y-48820002D01*
X197248489Y-48820002D01*
X197255249Y-48760002D01*
X197255249Y-48759997D01*
X197236314Y-48591943D01*
X197180454Y-48432305D01*
X197180452Y-48432302D01*
X197090481Y-48289115D01*
X197090476Y-48289109D01*
X196970890Y-48169523D01*
X196970884Y-48169518D01*
X196827697Y-48079547D01*
X196827694Y-48079545D01*
X196668056Y-48023685D01*
X196500003Y-48004751D01*
X196499997Y-48004751D01*
X196331943Y-48023685D01*
X196172305Y-48079545D01*
X196172302Y-48079547D01*
X196029115Y-48169518D01*
X196029109Y-48169523D01*
X195909523Y-48289109D01*
X195909518Y-48289115D01*
X195819547Y-48432302D01*
X195819545Y-48432305D01*
X195763685Y-48591943D01*
X195744751Y-48759997D01*
X195744751Y-48760002D01*
X173300500Y-48760002D01*
X173300500Y-47424500D01*
X173320185Y-47357461D01*
X173372989Y-47311706D01*
X173424500Y-47300500D01*
X222575500Y-47300500D01*
X222642539Y-47320185D01*
G37*
%TD.AperFunction*%
%TD*%
M02*
