%TF.GenerationSoftware,KiCad,Pcbnew,7.0.6-7.0.6~ubuntu22.04.1*%
%TF.CreationDate,2023-08-04T06:45:18-03:00*%
%TF.ProjectId,RF_Board,52465f42-6f61-4726-942e-6b696361645f,rev?*%
%TF.SameCoordinates,Original*%
%TF.FileFunction,Legend,Top*%
%TF.FilePolarity,Positive*%
%FSLAX46Y46*%
G04 Gerber Fmt 4.6, Leading zero omitted, Abs format (unit mm)*
G04 Created by KiCad (PCBNEW 7.0.6-7.0.6~ubuntu22.04.1) date 2023-08-04 06:45:18*
%MOMM*%
%LPD*%
G01*
G04 APERTURE LIST*
%ADD10C,0.080000*%
%ADD11C,0.150000*%
%ADD12C,0.120000*%
%ADD13C,0.127000*%
%ADD14C,0.200000*%
%ADD15C,0.300000*%
%ADD16C,0.100000*%
%ADD17C,0.152400*%
G04 APERTURE END LIST*
D10*
X210866588Y-82367143D02*
X211466588Y-82367143D01*
X211466588Y-82367143D02*
X211466588Y-82510000D01*
X211466588Y-82510000D02*
X211438017Y-82595714D01*
X211438017Y-82595714D02*
X211380874Y-82652857D01*
X211380874Y-82652857D02*
X211323731Y-82681428D01*
X211323731Y-82681428D02*
X211209445Y-82710000D01*
X211209445Y-82710000D02*
X211123731Y-82710000D01*
X211123731Y-82710000D02*
X211009445Y-82681428D01*
X211009445Y-82681428D02*
X210952302Y-82652857D01*
X210952302Y-82652857D02*
X210895160Y-82595714D01*
X210895160Y-82595714D02*
X210866588Y-82510000D01*
X210866588Y-82510000D02*
X210866588Y-82367143D01*
X211409445Y-82938571D02*
X211438017Y-82967143D01*
X211438017Y-82967143D02*
X211466588Y-83024286D01*
X211466588Y-83024286D02*
X211466588Y-83167143D01*
X211466588Y-83167143D02*
X211438017Y-83224286D01*
X211438017Y-83224286D02*
X211409445Y-83252857D01*
X211409445Y-83252857D02*
X211352302Y-83281428D01*
X211352302Y-83281428D02*
X211295160Y-83281428D01*
X211295160Y-83281428D02*
X211209445Y-83252857D01*
X211209445Y-83252857D02*
X210866588Y-82910000D01*
X210866588Y-82910000D02*
X210866588Y-83281428D01*
X199043411Y-53269999D02*
X199043411Y-53555713D01*
X199043411Y-53555713D02*
X198443411Y-53555713D01*
X198643411Y-52812857D02*
X199043411Y-52812857D01*
X198414840Y-52955714D02*
X198843411Y-53098571D01*
X198843411Y-53098571D02*
X198843411Y-52727142D01*
X202244285Y-51846268D02*
X202215713Y-51874840D01*
X202215713Y-51874840D02*
X202129999Y-51903411D01*
X202129999Y-51903411D02*
X202072856Y-51903411D01*
X202072856Y-51903411D02*
X201987142Y-51874840D01*
X201987142Y-51874840D02*
X201929999Y-51817697D01*
X201929999Y-51817697D02*
X201901428Y-51760554D01*
X201901428Y-51760554D02*
X201872856Y-51646268D01*
X201872856Y-51646268D02*
X201872856Y-51560554D01*
X201872856Y-51560554D02*
X201901428Y-51446268D01*
X201901428Y-51446268D02*
X201929999Y-51389125D01*
X201929999Y-51389125D02*
X201987142Y-51331982D01*
X201987142Y-51331982D02*
X202072856Y-51303411D01*
X202072856Y-51303411D02*
X202129999Y-51303411D01*
X202129999Y-51303411D02*
X202215713Y-51331982D01*
X202215713Y-51331982D02*
X202244285Y-51360554D01*
X202444285Y-51303411D02*
X202815713Y-51303411D01*
X202815713Y-51303411D02*
X202615713Y-51531982D01*
X202615713Y-51531982D02*
X202701428Y-51531982D01*
X202701428Y-51531982D02*
X202758571Y-51560554D01*
X202758571Y-51560554D02*
X202787142Y-51589125D01*
X202787142Y-51589125D02*
X202815713Y-51646268D01*
X202815713Y-51646268D02*
X202815713Y-51789125D01*
X202815713Y-51789125D02*
X202787142Y-51846268D01*
X202787142Y-51846268D02*
X202758571Y-51874840D01*
X202758571Y-51874840D02*
X202701428Y-51903411D01*
X202701428Y-51903411D02*
X202529999Y-51903411D01*
X202529999Y-51903411D02*
X202472856Y-51874840D01*
X202472856Y-51874840D02*
X202444285Y-51846268D01*
X203158571Y-51560554D02*
X203101428Y-51531982D01*
X203101428Y-51531982D02*
X203072857Y-51503411D01*
X203072857Y-51503411D02*
X203044285Y-51446268D01*
X203044285Y-51446268D02*
X203044285Y-51417697D01*
X203044285Y-51417697D02*
X203072857Y-51360554D01*
X203072857Y-51360554D02*
X203101428Y-51331982D01*
X203101428Y-51331982D02*
X203158571Y-51303411D01*
X203158571Y-51303411D02*
X203272857Y-51303411D01*
X203272857Y-51303411D02*
X203330000Y-51331982D01*
X203330000Y-51331982D02*
X203358571Y-51360554D01*
X203358571Y-51360554D02*
X203387142Y-51417697D01*
X203387142Y-51417697D02*
X203387142Y-51446268D01*
X203387142Y-51446268D02*
X203358571Y-51503411D01*
X203358571Y-51503411D02*
X203330000Y-51531982D01*
X203330000Y-51531982D02*
X203272857Y-51560554D01*
X203272857Y-51560554D02*
X203158571Y-51560554D01*
X203158571Y-51560554D02*
X203101428Y-51589125D01*
X203101428Y-51589125D02*
X203072857Y-51617697D01*
X203072857Y-51617697D02*
X203044285Y-51674840D01*
X203044285Y-51674840D02*
X203044285Y-51789125D01*
X203044285Y-51789125D02*
X203072857Y-51846268D01*
X203072857Y-51846268D02*
X203101428Y-51874840D01*
X203101428Y-51874840D02*
X203158571Y-51903411D01*
X203158571Y-51903411D02*
X203272857Y-51903411D01*
X203272857Y-51903411D02*
X203330000Y-51874840D01*
X203330000Y-51874840D02*
X203358571Y-51846268D01*
X203358571Y-51846268D02*
X203387142Y-51789125D01*
X203387142Y-51789125D02*
X203387142Y-51674840D01*
X203387142Y-51674840D02*
X203358571Y-51617697D01*
X203358571Y-51617697D02*
X203330000Y-51589125D01*
X203330000Y-51589125D02*
X203272857Y-51560554D01*
X181468411Y-95080000D02*
X181896982Y-95080000D01*
X181896982Y-95080000D02*
X181982697Y-95108571D01*
X181982697Y-95108571D02*
X182039840Y-95165714D01*
X182039840Y-95165714D02*
X182068411Y-95251428D01*
X182068411Y-95251428D02*
X182068411Y-95308571D01*
X181468411Y-94508571D02*
X181468411Y-94794285D01*
X181468411Y-94794285D02*
X181754125Y-94822857D01*
X181754125Y-94822857D02*
X181725554Y-94794285D01*
X181725554Y-94794285D02*
X181696982Y-94737143D01*
X181696982Y-94737143D02*
X181696982Y-94594285D01*
X181696982Y-94594285D02*
X181725554Y-94537143D01*
X181725554Y-94537143D02*
X181754125Y-94508571D01*
X181754125Y-94508571D02*
X181811268Y-94480000D01*
X181811268Y-94480000D02*
X181954125Y-94480000D01*
X181954125Y-94480000D02*
X182011268Y-94508571D01*
X182011268Y-94508571D02*
X182039840Y-94537143D01*
X182039840Y-94537143D02*
X182068411Y-94594285D01*
X182068411Y-94594285D02*
X182068411Y-94737143D01*
X182068411Y-94737143D02*
X182039840Y-94794285D01*
X182039840Y-94794285D02*
X182011268Y-94822857D01*
X183970000Y-66003411D02*
X183770000Y-65717697D01*
X183627143Y-66003411D02*
X183627143Y-65403411D01*
X183627143Y-65403411D02*
X183855714Y-65403411D01*
X183855714Y-65403411D02*
X183912857Y-65431982D01*
X183912857Y-65431982D02*
X183941428Y-65460554D01*
X183941428Y-65460554D02*
X183970000Y-65517697D01*
X183970000Y-65517697D02*
X183970000Y-65603411D01*
X183970000Y-65603411D02*
X183941428Y-65660554D01*
X183941428Y-65660554D02*
X183912857Y-65689125D01*
X183912857Y-65689125D02*
X183855714Y-65717697D01*
X183855714Y-65717697D02*
X183627143Y-65717697D01*
X184541428Y-66003411D02*
X184198571Y-66003411D01*
X184370000Y-66003411D02*
X184370000Y-65403411D01*
X184370000Y-65403411D02*
X184312857Y-65489125D01*
X184312857Y-65489125D02*
X184255714Y-65546268D01*
X184255714Y-65546268D02*
X184198571Y-65574840D01*
X206760000Y-91233411D02*
X206560000Y-90947697D01*
X206417143Y-91233411D02*
X206417143Y-90633411D01*
X206417143Y-90633411D02*
X206645714Y-90633411D01*
X206645714Y-90633411D02*
X206702857Y-90661982D01*
X206702857Y-90661982D02*
X206731428Y-90690554D01*
X206731428Y-90690554D02*
X206760000Y-90747697D01*
X206760000Y-90747697D02*
X206760000Y-90833411D01*
X206760000Y-90833411D02*
X206731428Y-90890554D01*
X206731428Y-90890554D02*
X206702857Y-90919125D01*
X206702857Y-90919125D02*
X206645714Y-90947697D01*
X206645714Y-90947697D02*
X206417143Y-90947697D01*
X207302857Y-90633411D02*
X207017143Y-90633411D01*
X207017143Y-90633411D02*
X206988571Y-90919125D01*
X206988571Y-90919125D02*
X207017143Y-90890554D01*
X207017143Y-90890554D02*
X207074286Y-90861982D01*
X207074286Y-90861982D02*
X207217143Y-90861982D01*
X207217143Y-90861982D02*
X207274286Y-90890554D01*
X207274286Y-90890554D02*
X207302857Y-90919125D01*
X207302857Y-90919125D02*
X207331428Y-90976268D01*
X207331428Y-90976268D02*
X207331428Y-91119125D01*
X207331428Y-91119125D02*
X207302857Y-91176268D01*
X207302857Y-91176268D02*
X207274286Y-91204840D01*
X207274286Y-91204840D02*
X207217143Y-91233411D01*
X207217143Y-91233411D02*
X207074286Y-91233411D01*
X207074286Y-91233411D02*
X207017143Y-91204840D01*
X207017143Y-91204840D02*
X206988571Y-91176268D01*
X202526268Y-87059999D02*
X202554840Y-87088571D01*
X202554840Y-87088571D02*
X202583411Y-87174285D01*
X202583411Y-87174285D02*
X202583411Y-87231428D01*
X202583411Y-87231428D02*
X202554840Y-87317142D01*
X202554840Y-87317142D02*
X202497697Y-87374285D01*
X202497697Y-87374285D02*
X202440554Y-87402856D01*
X202440554Y-87402856D02*
X202326268Y-87431428D01*
X202326268Y-87431428D02*
X202240554Y-87431428D01*
X202240554Y-87431428D02*
X202126268Y-87402856D01*
X202126268Y-87402856D02*
X202069125Y-87374285D01*
X202069125Y-87374285D02*
X202011982Y-87317142D01*
X202011982Y-87317142D02*
X201983411Y-87231428D01*
X201983411Y-87231428D02*
X201983411Y-87174285D01*
X201983411Y-87174285D02*
X202011982Y-87088571D01*
X202011982Y-87088571D02*
X202040554Y-87059999D01*
X202240554Y-86717142D02*
X202211982Y-86774285D01*
X202211982Y-86774285D02*
X202183411Y-86802856D01*
X202183411Y-86802856D02*
X202126268Y-86831428D01*
X202126268Y-86831428D02*
X202097697Y-86831428D01*
X202097697Y-86831428D02*
X202040554Y-86802856D01*
X202040554Y-86802856D02*
X202011982Y-86774285D01*
X202011982Y-86774285D02*
X201983411Y-86717142D01*
X201983411Y-86717142D02*
X201983411Y-86602856D01*
X201983411Y-86602856D02*
X202011982Y-86545714D01*
X202011982Y-86545714D02*
X202040554Y-86517142D01*
X202040554Y-86517142D02*
X202097697Y-86488571D01*
X202097697Y-86488571D02*
X202126268Y-86488571D01*
X202126268Y-86488571D02*
X202183411Y-86517142D01*
X202183411Y-86517142D02*
X202211982Y-86545714D01*
X202211982Y-86545714D02*
X202240554Y-86602856D01*
X202240554Y-86602856D02*
X202240554Y-86717142D01*
X202240554Y-86717142D02*
X202269125Y-86774285D01*
X202269125Y-86774285D02*
X202297697Y-86802856D01*
X202297697Y-86802856D02*
X202354840Y-86831428D01*
X202354840Y-86831428D02*
X202469125Y-86831428D01*
X202469125Y-86831428D02*
X202526268Y-86802856D01*
X202526268Y-86802856D02*
X202554840Y-86774285D01*
X202554840Y-86774285D02*
X202583411Y-86717142D01*
X202583411Y-86717142D02*
X202583411Y-86602856D01*
X202583411Y-86602856D02*
X202554840Y-86545714D01*
X202554840Y-86545714D02*
X202526268Y-86517142D01*
X202526268Y-86517142D02*
X202469125Y-86488571D01*
X202469125Y-86488571D02*
X202354840Y-86488571D01*
X202354840Y-86488571D02*
X202297697Y-86517142D01*
X202297697Y-86517142D02*
X202269125Y-86545714D01*
X202269125Y-86545714D02*
X202240554Y-86602856D01*
X194856268Y-56215714D02*
X194884840Y-56244286D01*
X194884840Y-56244286D02*
X194913411Y-56330000D01*
X194913411Y-56330000D02*
X194913411Y-56387143D01*
X194913411Y-56387143D02*
X194884840Y-56472857D01*
X194884840Y-56472857D02*
X194827697Y-56530000D01*
X194827697Y-56530000D02*
X194770554Y-56558571D01*
X194770554Y-56558571D02*
X194656268Y-56587143D01*
X194656268Y-56587143D02*
X194570554Y-56587143D01*
X194570554Y-56587143D02*
X194456268Y-56558571D01*
X194456268Y-56558571D02*
X194399125Y-56530000D01*
X194399125Y-56530000D02*
X194341982Y-56472857D01*
X194341982Y-56472857D02*
X194313411Y-56387143D01*
X194313411Y-56387143D02*
X194313411Y-56330000D01*
X194313411Y-56330000D02*
X194341982Y-56244286D01*
X194341982Y-56244286D02*
X194370554Y-56215714D01*
X194913411Y-55644286D02*
X194913411Y-55987143D01*
X194913411Y-55815714D02*
X194313411Y-55815714D01*
X194313411Y-55815714D02*
X194399125Y-55872857D01*
X194399125Y-55872857D02*
X194456268Y-55930000D01*
X194456268Y-55930000D02*
X194484840Y-55987143D01*
X194313411Y-55272857D02*
X194313411Y-55215714D01*
X194313411Y-55215714D02*
X194341982Y-55158571D01*
X194341982Y-55158571D02*
X194370554Y-55130000D01*
X194370554Y-55130000D02*
X194427697Y-55101428D01*
X194427697Y-55101428D02*
X194541982Y-55072857D01*
X194541982Y-55072857D02*
X194684840Y-55072857D01*
X194684840Y-55072857D02*
X194799125Y-55101428D01*
X194799125Y-55101428D02*
X194856268Y-55130000D01*
X194856268Y-55130000D02*
X194884840Y-55158571D01*
X194884840Y-55158571D02*
X194913411Y-55215714D01*
X194913411Y-55215714D02*
X194913411Y-55272857D01*
X194913411Y-55272857D02*
X194884840Y-55330000D01*
X194884840Y-55330000D02*
X194856268Y-55358571D01*
X194856268Y-55358571D02*
X194799125Y-55387142D01*
X194799125Y-55387142D02*
X194684840Y-55415714D01*
X194684840Y-55415714D02*
X194541982Y-55415714D01*
X194541982Y-55415714D02*
X194427697Y-55387142D01*
X194427697Y-55387142D02*
X194370554Y-55358571D01*
X194370554Y-55358571D02*
X194341982Y-55330000D01*
X194341982Y-55330000D02*
X194313411Y-55272857D01*
X203926268Y-87099999D02*
X203954840Y-87128571D01*
X203954840Y-87128571D02*
X203983411Y-87214285D01*
X203983411Y-87214285D02*
X203983411Y-87271428D01*
X203983411Y-87271428D02*
X203954840Y-87357142D01*
X203954840Y-87357142D02*
X203897697Y-87414285D01*
X203897697Y-87414285D02*
X203840554Y-87442856D01*
X203840554Y-87442856D02*
X203726268Y-87471428D01*
X203726268Y-87471428D02*
X203640554Y-87471428D01*
X203640554Y-87471428D02*
X203526268Y-87442856D01*
X203526268Y-87442856D02*
X203469125Y-87414285D01*
X203469125Y-87414285D02*
X203411982Y-87357142D01*
X203411982Y-87357142D02*
X203383411Y-87271428D01*
X203383411Y-87271428D02*
X203383411Y-87214285D01*
X203383411Y-87214285D02*
X203411982Y-87128571D01*
X203411982Y-87128571D02*
X203440554Y-87099999D01*
X203383411Y-86899999D02*
X203383411Y-86499999D01*
X203383411Y-86499999D02*
X203983411Y-86757142D01*
X205614285Y-67596268D02*
X205585713Y-67624840D01*
X205585713Y-67624840D02*
X205499999Y-67653411D01*
X205499999Y-67653411D02*
X205442856Y-67653411D01*
X205442856Y-67653411D02*
X205357142Y-67624840D01*
X205357142Y-67624840D02*
X205299999Y-67567697D01*
X205299999Y-67567697D02*
X205271428Y-67510554D01*
X205271428Y-67510554D02*
X205242856Y-67396268D01*
X205242856Y-67396268D02*
X205242856Y-67310554D01*
X205242856Y-67310554D02*
X205271428Y-67196268D01*
X205271428Y-67196268D02*
X205299999Y-67139125D01*
X205299999Y-67139125D02*
X205357142Y-67081982D01*
X205357142Y-67081982D02*
X205442856Y-67053411D01*
X205442856Y-67053411D02*
X205499999Y-67053411D01*
X205499999Y-67053411D02*
X205585713Y-67081982D01*
X205585713Y-67081982D02*
X205614285Y-67110554D01*
X206185713Y-67653411D02*
X205842856Y-67653411D01*
X206014285Y-67653411D02*
X206014285Y-67053411D01*
X206014285Y-67053411D02*
X205957142Y-67139125D01*
X205957142Y-67139125D02*
X205899999Y-67196268D01*
X205899999Y-67196268D02*
X205842856Y-67224840D01*
X206528571Y-67310554D02*
X206471428Y-67281982D01*
X206471428Y-67281982D02*
X206442857Y-67253411D01*
X206442857Y-67253411D02*
X206414285Y-67196268D01*
X206414285Y-67196268D02*
X206414285Y-67167697D01*
X206414285Y-67167697D02*
X206442857Y-67110554D01*
X206442857Y-67110554D02*
X206471428Y-67081982D01*
X206471428Y-67081982D02*
X206528571Y-67053411D01*
X206528571Y-67053411D02*
X206642857Y-67053411D01*
X206642857Y-67053411D02*
X206700000Y-67081982D01*
X206700000Y-67081982D02*
X206728571Y-67110554D01*
X206728571Y-67110554D02*
X206757142Y-67167697D01*
X206757142Y-67167697D02*
X206757142Y-67196268D01*
X206757142Y-67196268D02*
X206728571Y-67253411D01*
X206728571Y-67253411D02*
X206700000Y-67281982D01*
X206700000Y-67281982D02*
X206642857Y-67310554D01*
X206642857Y-67310554D02*
X206528571Y-67310554D01*
X206528571Y-67310554D02*
X206471428Y-67339125D01*
X206471428Y-67339125D02*
X206442857Y-67367697D01*
X206442857Y-67367697D02*
X206414285Y-67424840D01*
X206414285Y-67424840D02*
X206414285Y-67539125D01*
X206414285Y-67539125D02*
X206442857Y-67596268D01*
X206442857Y-67596268D02*
X206471428Y-67624840D01*
X206471428Y-67624840D02*
X206528571Y-67653411D01*
X206528571Y-67653411D02*
X206642857Y-67653411D01*
X206642857Y-67653411D02*
X206700000Y-67624840D01*
X206700000Y-67624840D02*
X206728571Y-67596268D01*
X206728571Y-67596268D02*
X206757142Y-67539125D01*
X206757142Y-67539125D02*
X206757142Y-67424840D01*
X206757142Y-67424840D02*
X206728571Y-67367697D01*
X206728571Y-67367697D02*
X206700000Y-67339125D01*
X206700000Y-67339125D02*
X206642857Y-67310554D01*
X207204285Y-64086268D02*
X207175713Y-64114840D01*
X207175713Y-64114840D02*
X207089999Y-64143411D01*
X207089999Y-64143411D02*
X207032856Y-64143411D01*
X207032856Y-64143411D02*
X206947142Y-64114840D01*
X206947142Y-64114840D02*
X206889999Y-64057697D01*
X206889999Y-64057697D02*
X206861428Y-64000554D01*
X206861428Y-64000554D02*
X206832856Y-63886268D01*
X206832856Y-63886268D02*
X206832856Y-63800554D01*
X206832856Y-63800554D02*
X206861428Y-63686268D01*
X206861428Y-63686268D02*
X206889999Y-63629125D01*
X206889999Y-63629125D02*
X206947142Y-63571982D01*
X206947142Y-63571982D02*
X207032856Y-63543411D01*
X207032856Y-63543411D02*
X207089999Y-63543411D01*
X207089999Y-63543411D02*
X207175713Y-63571982D01*
X207175713Y-63571982D02*
X207204285Y-63600554D01*
X207432856Y-63600554D02*
X207461428Y-63571982D01*
X207461428Y-63571982D02*
X207518571Y-63543411D01*
X207518571Y-63543411D02*
X207661428Y-63543411D01*
X207661428Y-63543411D02*
X207718571Y-63571982D01*
X207718571Y-63571982D02*
X207747142Y-63600554D01*
X207747142Y-63600554D02*
X207775713Y-63657697D01*
X207775713Y-63657697D02*
X207775713Y-63714840D01*
X207775713Y-63714840D02*
X207747142Y-63800554D01*
X207747142Y-63800554D02*
X207404285Y-64143411D01*
X207404285Y-64143411D02*
X207775713Y-64143411D01*
X208347142Y-64143411D02*
X208004285Y-64143411D01*
X208175714Y-64143411D02*
X208175714Y-63543411D01*
X208175714Y-63543411D02*
X208118571Y-63629125D01*
X208118571Y-63629125D02*
X208061428Y-63686268D01*
X208061428Y-63686268D02*
X208004285Y-63714840D01*
X205100000Y-61118411D02*
X204814286Y-61118411D01*
X204814286Y-61118411D02*
X204814286Y-60518411D01*
X205271428Y-60575554D02*
X205300000Y-60546982D01*
X205300000Y-60546982D02*
X205357143Y-60518411D01*
X205357143Y-60518411D02*
X205500000Y-60518411D01*
X205500000Y-60518411D02*
X205557143Y-60546982D01*
X205557143Y-60546982D02*
X205585714Y-60575554D01*
X205585714Y-60575554D02*
X205614285Y-60632697D01*
X205614285Y-60632697D02*
X205614285Y-60689840D01*
X205614285Y-60689840D02*
X205585714Y-60775554D01*
X205585714Y-60775554D02*
X205242857Y-61118411D01*
X205242857Y-61118411D02*
X205614285Y-61118411D01*
X208773411Y-83609999D02*
X208487697Y-83809999D01*
X208773411Y-83952856D02*
X208173411Y-83952856D01*
X208173411Y-83952856D02*
X208173411Y-83724285D01*
X208173411Y-83724285D02*
X208201982Y-83667142D01*
X208201982Y-83667142D02*
X208230554Y-83638571D01*
X208230554Y-83638571D02*
X208287697Y-83609999D01*
X208287697Y-83609999D02*
X208373411Y-83609999D01*
X208373411Y-83609999D02*
X208430554Y-83638571D01*
X208430554Y-83638571D02*
X208459125Y-83667142D01*
X208459125Y-83667142D02*
X208487697Y-83724285D01*
X208487697Y-83724285D02*
X208487697Y-83952856D01*
X208773411Y-83324285D02*
X208773411Y-83209999D01*
X208773411Y-83209999D02*
X208744840Y-83152856D01*
X208744840Y-83152856D02*
X208716268Y-83124285D01*
X208716268Y-83124285D02*
X208630554Y-83067142D01*
X208630554Y-83067142D02*
X208516268Y-83038571D01*
X208516268Y-83038571D02*
X208287697Y-83038571D01*
X208287697Y-83038571D02*
X208230554Y-83067142D01*
X208230554Y-83067142D02*
X208201982Y-83095714D01*
X208201982Y-83095714D02*
X208173411Y-83152856D01*
X208173411Y-83152856D02*
X208173411Y-83267142D01*
X208173411Y-83267142D02*
X208201982Y-83324285D01*
X208201982Y-83324285D02*
X208230554Y-83352856D01*
X208230554Y-83352856D02*
X208287697Y-83381428D01*
X208287697Y-83381428D02*
X208430554Y-83381428D01*
X208430554Y-83381428D02*
X208487697Y-83352856D01*
X208487697Y-83352856D02*
X208516268Y-83324285D01*
X208516268Y-83324285D02*
X208544840Y-83267142D01*
X208544840Y-83267142D02*
X208544840Y-83152856D01*
X208544840Y-83152856D02*
X208516268Y-83095714D01*
X208516268Y-83095714D02*
X208487697Y-83067142D01*
X208487697Y-83067142D02*
X208430554Y-83038571D01*
X192926268Y-80415714D02*
X192954840Y-80444286D01*
X192954840Y-80444286D02*
X192983411Y-80530000D01*
X192983411Y-80530000D02*
X192983411Y-80587143D01*
X192983411Y-80587143D02*
X192954840Y-80672857D01*
X192954840Y-80672857D02*
X192897697Y-80730000D01*
X192897697Y-80730000D02*
X192840554Y-80758571D01*
X192840554Y-80758571D02*
X192726268Y-80787143D01*
X192726268Y-80787143D02*
X192640554Y-80787143D01*
X192640554Y-80787143D02*
X192526268Y-80758571D01*
X192526268Y-80758571D02*
X192469125Y-80730000D01*
X192469125Y-80730000D02*
X192411982Y-80672857D01*
X192411982Y-80672857D02*
X192383411Y-80587143D01*
X192383411Y-80587143D02*
X192383411Y-80530000D01*
X192383411Y-80530000D02*
X192411982Y-80444286D01*
X192411982Y-80444286D02*
X192440554Y-80415714D01*
X192383411Y-80215714D02*
X192383411Y-79844286D01*
X192383411Y-79844286D02*
X192611982Y-80044286D01*
X192611982Y-80044286D02*
X192611982Y-79958571D01*
X192611982Y-79958571D02*
X192640554Y-79901429D01*
X192640554Y-79901429D02*
X192669125Y-79872857D01*
X192669125Y-79872857D02*
X192726268Y-79844286D01*
X192726268Y-79844286D02*
X192869125Y-79844286D01*
X192869125Y-79844286D02*
X192926268Y-79872857D01*
X192926268Y-79872857D02*
X192954840Y-79901429D01*
X192954840Y-79901429D02*
X192983411Y-79958571D01*
X192983411Y-79958571D02*
X192983411Y-80130000D01*
X192983411Y-80130000D02*
X192954840Y-80187143D01*
X192954840Y-80187143D02*
X192926268Y-80215714D01*
X192983411Y-79272857D02*
X192983411Y-79615714D01*
X192983411Y-79444285D02*
X192383411Y-79444285D01*
X192383411Y-79444285D02*
X192469125Y-79501428D01*
X192469125Y-79501428D02*
X192526268Y-79558571D01*
X192526268Y-79558571D02*
X192554840Y-79615714D01*
X190564285Y-75266268D02*
X190535713Y-75294840D01*
X190535713Y-75294840D02*
X190449999Y-75323411D01*
X190449999Y-75323411D02*
X190392856Y-75323411D01*
X190392856Y-75323411D02*
X190307142Y-75294840D01*
X190307142Y-75294840D02*
X190249999Y-75237697D01*
X190249999Y-75237697D02*
X190221428Y-75180554D01*
X190221428Y-75180554D02*
X190192856Y-75066268D01*
X190192856Y-75066268D02*
X190192856Y-74980554D01*
X190192856Y-74980554D02*
X190221428Y-74866268D01*
X190221428Y-74866268D02*
X190249999Y-74809125D01*
X190249999Y-74809125D02*
X190307142Y-74751982D01*
X190307142Y-74751982D02*
X190392856Y-74723411D01*
X190392856Y-74723411D02*
X190449999Y-74723411D01*
X190449999Y-74723411D02*
X190535713Y-74751982D01*
X190535713Y-74751982D02*
X190564285Y-74780554D01*
X190764285Y-74723411D02*
X191135713Y-74723411D01*
X191135713Y-74723411D02*
X190935713Y-74951982D01*
X190935713Y-74951982D02*
X191021428Y-74951982D01*
X191021428Y-74951982D02*
X191078571Y-74980554D01*
X191078571Y-74980554D02*
X191107142Y-75009125D01*
X191107142Y-75009125D02*
X191135713Y-75066268D01*
X191135713Y-75066268D02*
X191135713Y-75209125D01*
X191135713Y-75209125D02*
X191107142Y-75266268D01*
X191107142Y-75266268D02*
X191078571Y-75294840D01*
X191078571Y-75294840D02*
X191021428Y-75323411D01*
X191021428Y-75323411D02*
X190849999Y-75323411D01*
X190849999Y-75323411D02*
X190792856Y-75294840D01*
X190792856Y-75294840D02*
X190764285Y-75266268D01*
X191364285Y-74780554D02*
X191392857Y-74751982D01*
X191392857Y-74751982D02*
X191450000Y-74723411D01*
X191450000Y-74723411D02*
X191592857Y-74723411D01*
X191592857Y-74723411D02*
X191650000Y-74751982D01*
X191650000Y-74751982D02*
X191678571Y-74780554D01*
X191678571Y-74780554D02*
X191707142Y-74837697D01*
X191707142Y-74837697D02*
X191707142Y-74894840D01*
X191707142Y-74894840D02*
X191678571Y-74980554D01*
X191678571Y-74980554D02*
X191335714Y-75323411D01*
X191335714Y-75323411D02*
X191707142Y-75323411D01*
X205100000Y-94453411D02*
X204900000Y-94167697D01*
X204757143Y-94453411D02*
X204757143Y-93853411D01*
X204757143Y-93853411D02*
X204985714Y-93853411D01*
X204985714Y-93853411D02*
X205042857Y-93881982D01*
X205042857Y-93881982D02*
X205071428Y-93910554D01*
X205071428Y-93910554D02*
X205100000Y-93967697D01*
X205100000Y-93967697D02*
X205100000Y-94053411D01*
X205100000Y-94053411D02*
X205071428Y-94110554D01*
X205071428Y-94110554D02*
X205042857Y-94139125D01*
X205042857Y-94139125D02*
X204985714Y-94167697D01*
X204985714Y-94167697D02*
X204757143Y-94167697D01*
X205300000Y-93853411D02*
X205700000Y-93853411D01*
X205700000Y-93853411D02*
X205442857Y-94453411D01*
D11*
X220666666Y-64394819D02*
X220666666Y-65109104D01*
X220666666Y-65109104D02*
X220619047Y-65251961D01*
X220619047Y-65251961D02*
X220523809Y-65347200D01*
X220523809Y-65347200D02*
X220380952Y-65394819D01*
X220380952Y-65394819D02*
X220285714Y-65394819D01*
X221047619Y-64394819D02*
X221714285Y-64394819D01*
X221714285Y-64394819D02*
X221285714Y-65394819D01*
D10*
X194163411Y-78049999D02*
X193877697Y-78249999D01*
X194163411Y-78392856D02*
X193563411Y-78392856D01*
X193563411Y-78392856D02*
X193563411Y-78164285D01*
X193563411Y-78164285D02*
X193591982Y-78107142D01*
X193591982Y-78107142D02*
X193620554Y-78078571D01*
X193620554Y-78078571D02*
X193677697Y-78049999D01*
X193677697Y-78049999D02*
X193763411Y-78049999D01*
X193763411Y-78049999D02*
X193820554Y-78078571D01*
X193820554Y-78078571D02*
X193849125Y-78107142D01*
X193849125Y-78107142D02*
X193877697Y-78164285D01*
X193877697Y-78164285D02*
X193877697Y-78392856D01*
X193620554Y-77821428D02*
X193591982Y-77792856D01*
X193591982Y-77792856D02*
X193563411Y-77735714D01*
X193563411Y-77735714D02*
X193563411Y-77592856D01*
X193563411Y-77592856D02*
X193591982Y-77535714D01*
X193591982Y-77535714D02*
X193620554Y-77507142D01*
X193620554Y-77507142D02*
X193677697Y-77478571D01*
X193677697Y-77478571D02*
X193734840Y-77478571D01*
X193734840Y-77478571D02*
X193820554Y-77507142D01*
X193820554Y-77507142D02*
X194163411Y-77849999D01*
X194163411Y-77849999D02*
X194163411Y-77478571D01*
X209568411Y-74155000D02*
X209996982Y-74155000D01*
X209996982Y-74155000D02*
X210082697Y-74183571D01*
X210082697Y-74183571D02*
X210139840Y-74240714D01*
X210139840Y-74240714D02*
X210168411Y-74326428D01*
X210168411Y-74326428D02*
X210168411Y-74383571D01*
X209768411Y-73612143D02*
X210168411Y-73612143D01*
X209539840Y-73755000D02*
X209968411Y-73897857D01*
X209968411Y-73897857D02*
X209968411Y-73526428D01*
X205670000Y-66336268D02*
X205641428Y-66364840D01*
X205641428Y-66364840D02*
X205555714Y-66393411D01*
X205555714Y-66393411D02*
X205498571Y-66393411D01*
X205498571Y-66393411D02*
X205412857Y-66364840D01*
X205412857Y-66364840D02*
X205355714Y-66307697D01*
X205355714Y-66307697D02*
X205327143Y-66250554D01*
X205327143Y-66250554D02*
X205298571Y-66136268D01*
X205298571Y-66136268D02*
X205298571Y-66050554D01*
X205298571Y-66050554D02*
X205327143Y-65936268D01*
X205327143Y-65936268D02*
X205355714Y-65879125D01*
X205355714Y-65879125D02*
X205412857Y-65821982D01*
X205412857Y-65821982D02*
X205498571Y-65793411D01*
X205498571Y-65793411D02*
X205555714Y-65793411D01*
X205555714Y-65793411D02*
X205641428Y-65821982D01*
X205641428Y-65821982D02*
X205670000Y-65850554D01*
X205955714Y-66393411D02*
X206070000Y-66393411D01*
X206070000Y-66393411D02*
X206127143Y-66364840D01*
X206127143Y-66364840D02*
X206155714Y-66336268D01*
X206155714Y-66336268D02*
X206212857Y-66250554D01*
X206212857Y-66250554D02*
X206241428Y-66136268D01*
X206241428Y-66136268D02*
X206241428Y-65907697D01*
X206241428Y-65907697D02*
X206212857Y-65850554D01*
X206212857Y-65850554D02*
X206184286Y-65821982D01*
X206184286Y-65821982D02*
X206127143Y-65793411D01*
X206127143Y-65793411D02*
X206012857Y-65793411D01*
X206012857Y-65793411D02*
X205955714Y-65821982D01*
X205955714Y-65821982D02*
X205927143Y-65850554D01*
X205927143Y-65850554D02*
X205898571Y-65907697D01*
X205898571Y-65907697D02*
X205898571Y-66050554D01*
X205898571Y-66050554D02*
X205927143Y-66107697D01*
X205927143Y-66107697D02*
X205955714Y-66136268D01*
X205955714Y-66136268D02*
X206012857Y-66164840D01*
X206012857Y-66164840D02*
X206127143Y-66164840D01*
X206127143Y-66164840D02*
X206184286Y-66136268D01*
X206184286Y-66136268D02*
X206212857Y-66107697D01*
X206212857Y-66107697D02*
X206241428Y-66050554D01*
X214843411Y-90172856D02*
X214243411Y-90172856D01*
X214243411Y-90172856D02*
X214243411Y-90029999D01*
X214243411Y-90029999D02*
X214271982Y-89944285D01*
X214271982Y-89944285D02*
X214329125Y-89887142D01*
X214329125Y-89887142D02*
X214386268Y-89858571D01*
X214386268Y-89858571D02*
X214500554Y-89829999D01*
X214500554Y-89829999D02*
X214586268Y-89829999D01*
X214586268Y-89829999D02*
X214700554Y-89858571D01*
X214700554Y-89858571D02*
X214757697Y-89887142D01*
X214757697Y-89887142D02*
X214814840Y-89944285D01*
X214814840Y-89944285D02*
X214843411Y-90029999D01*
X214843411Y-90029999D02*
X214843411Y-90172856D01*
X214843411Y-89258571D02*
X214843411Y-89601428D01*
X214843411Y-89429999D02*
X214243411Y-89429999D01*
X214243411Y-89429999D02*
X214329125Y-89487142D01*
X214329125Y-89487142D02*
X214386268Y-89544285D01*
X214386268Y-89544285D02*
X214414840Y-89601428D01*
X216449999Y-91953411D02*
X216449999Y-92381982D01*
X216449999Y-92381982D02*
X216421428Y-92467697D01*
X216421428Y-92467697D02*
X216364285Y-92524840D01*
X216364285Y-92524840D02*
X216278571Y-92553411D01*
X216278571Y-92553411D02*
X216221428Y-92553411D01*
X216678571Y-91953411D02*
X217049999Y-91953411D01*
X217049999Y-91953411D02*
X216849999Y-92181982D01*
X216849999Y-92181982D02*
X216935714Y-92181982D01*
X216935714Y-92181982D02*
X216992857Y-92210554D01*
X216992857Y-92210554D02*
X217021428Y-92239125D01*
X217021428Y-92239125D02*
X217049999Y-92296268D01*
X217049999Y-92296268D02*
X217049999Y-92439125D01*
X217049999Y-92439125D02*
X217021428Y-92496268D01*
X217021428Y-92496268D02*
X216992857Y-92524840D01*
X216992857Y-92524840D02*
X216935714Y-92553411D01*
X216935714Y-92553411D02*
X216764285Y-92553411D01*
X216764285Y-92553411D02*
X216707142Y-92524840D01*
X216707142Y-92524840D02*
X216678571Y-92496268D01*
X199053411Y-56289999D02*
X199053411Y-56575713D01*
X199053411Y-56575713D02*
X198453411Y-56575713D01*
X198453411Y-56147142D02*
X198453411Y-55775714D01*
X198453411Y-55775714D02*
X198681982Y-55975714D01*
X198681982Y-55975714D02*
X198681982Y-55889999D01*
X198681982Y-55889999D02*
X198710554Y-55832857D01*
X198710554Y-55832857D02*
X198739125Y-55804285D01*
X198739125Y-55804285D02*
X198796268Y-55775714D01*
X198796268Y-55775714D02*
X198939125Y-55775714D01*
X198939125Y-55775714D02*
X198996268Y-55804285D01*
X198996268Y-55804285D02*
X199024840Y-55832857D01*
X199024840Y-55832857D02*
X199053411Y-55889999D01*
X199053411Y-55889999D02*
X199053411Y-56061428D01*
X199053411Y-56061428D02*
X199024840Y-56118571D01*
X199024840Y-56118571D02*
X198996268Y-56147142D01*
X204274285Y-58796268D02*
X204245713Y-58824840D01*
X204245713Y-58824840D02*
X204159999Y-58853411D01*
X204159999Y-58853411D02*
X204102856Y-58853411D01*
X204102856Y-58853411D02*
X204017142Y-58824840D01*
X204017142Y-58824840D02*
X203959999Y-58767697D01*
X203959999Y-58767697D02*
X203931428Y-58710554D01*
X203931428Y-58710554D02*
X203902856Y-58596268D01*
X203902856Y-58596268D02*
X203902856Y-58510554D01*
X203902856Y-58510554D02*
X203931428Y-58396268D01*
X203931428Y-58396268D02*
X203959999Y-58339125D01*
X203959999Y-58339125D02*
X204017142Y-58281982D01*
X204017142Y-58281982D02*
X204102856Y-58253411D01*
X204102856Y-58253411D02*
X204159999Y-58253411D01*
X204159999Y-58253411D02*
X204245713Y-58281982D01*
X204245713Y-58281982D02*
X204274285Y-58310554D01*
X204845713Y-58853411D02*
X204502856Y-58853411D01*
X204674285Y-58853411D02*
X204674285Y-58253411D01*
X204674285Y-58253411D02*
X204617142Y-58339125D01*
X204617142Y-58339125D02*
X204559999Y-58396268D01*
X204559999Y-58396268D02*
X204502856Y-58424840D01*
X205388571Y-58253411D02*
X205102857Y-58253411D01*
X205102857Y-58253411D02*
X205074285Y-58539125D01*
X205074285Y-58539125D02*
X205102857Y-58510554D01*
X205102857Y-58510554D02*
X205160000Y-58481982D01*
X205160000Y-58481982D02*
X205302857Y-58481982D01*
X205302857Y-58481982D02*
X205360000Y-58510554D01*
X205360000Y-58510554D02*
X205388571Y-58539125D01*
X205388571Y-58539125D02*
X205417142Y-58596268D01*
X205417142Y-58596268D02*
X205417142Y-58739125D01*
X205417142Y-58739125D02*
X205388571Y-58796268D01*
X205388571Y-58796268D02*
X205360000Y-58824840D01*
X205360000Y-58824840D02*
X205302857Y-58853411D01*
X205302857Y-58853411D02*
X205160000Y-58853411D01*
X205160000Y-58853411D02*
X205102857Y-58824840D01*
X205102857Y-58824840D02*
X205074285Y-58796268D01*
X211374285Y-90836268D02*
X211345713Y-90864840D01*
X211345713Y-90864840D02*
X211259999Y-90893411D01*
X211259999Y-90893411D02*
X211202856Y-90893411D01*
X211202856Y-90893411D02*
X211117142Y-90864840D01*
X211117142Y-90864840D02*
X211059999Y-90807697D01*
X211059999Y-90807697D02*
X211031428Y-90750554D01*
X211031428Y-90750554D02*
X211002856Y-90636268D01*
X211002856Y-90636268D02*
X211002856Y-90550554D01*
X211002856Y-90550554D02*
X211031428Y-90436268D01*
X211031428Y-90436268D02*
X211059999Y-90379125D01*
X211059999Y-90379125D02*
X211117142Y-90321982D01*
X211117142Y-90321982D02*
X211202856Y-90293411D01*
X211202856Y-90293411D02*
X211259999Y-90293411D01*
X211259999Y-90293411D02*
X211345713Y-90321982D01*
X211345713Y-90321982D02*
X211374285Y-90350554D01*
X211574285Y-90293411D02*
X211945713Y-90293411D01*
X211945713Y-90293411D02*
X211745713Y-90521982D01*
X211745713Y-90521982D02*
X211831428Y-90521982D01*
X211831428Y-90521982D02*
X211888571Y-90550554D01*
X211888571Y-90550554D02*
X211917142Y-90579125D01*
X211917142Y-90579125D02*
X211945713Y-90636268D01*
X211945713Y-90636268D02*
X211945713Y-90779125D01*
X211945713Y-90779125D02*
X211917142Y-90836268D01*
X211917142Y-90836268D02*
X211888571Y-90864840D01*
X211888571Y-90864840D02*
X211831428Y-90893411D01*
X211831428Y-90893411D02*
X211659999Y-90893411D01*
X211659999Y-90893411D02*
X211602856Y-90864840D01*
X211602856Y-90864840D02*
X211574285Y-90836268D01*
X212231428Y-90893411D02*
X212345714Y-90893411D01*
X212345714Y-90893411D02*
X212402857Y-90864840D01*
X212402857Y-90864840D02*
X212431428Y-90836268D01*
X212431428Y-90836268D02*
X212488571Y-90750554D01*
X212488571Y-90750554D02*
X212517142Y-90636268D01*
X212517142Y-90636268D02*
X212517142Y-90407697D01*
X212517142Y-90407697D02*
X212488571Y-90350554D01*
X212488571Y-90350554D02*
X212460000Y-90321982D01*
X212460000Y-90321982D02*
X212402857Y-90293411D01*
X212402857Y-90293411D02*
X212288571Y-90293411D01*
X212288571Y-90293411D02*
X212231428Y-90321982D01*
X212231428Y-90321982D02*
X212202857Y-90350554D01*
X212202857Y-90350554D02*
X212174285Y-90407697D01*
X212174285Y-90407697D02*
X212174285Y-90550554D01*
X212174285Y-90550554D02*
X212202857Y-90607697D01*
X212202857Y-90607697D02*
X212231428Y-90636268D01*
X212231428Y-90636268D02*
X212288571Y-90664840D01*
X212288571Y-90664840D02*
X212402857Y-90664840D01*
X212402857Y-90664840D02*
X212460000Y-90636268D01*
X212460000Y-90636268D02*
X212488571Y-90607697D01*
X212488571Y-90607697D02*
X212517142Y-90550554D01*
X195906268Y-56290714D02*
X195934840Y-56319286D01*
X195934840Y-56319286D02*
X195963411Y-56405000D01*
X195963411Y-56405000D02*
X195963411Y-56462143D01*
X195963411Y-56462143D02*
X195934840Y-56547857D01*
X195934840Y-56547857D02*
X195877697Y-56605000D01*
X195877697Y-56605000D02*
X195820554Y-56633571D01*
X195820554Y-56633571D02*
X195706268Y-56662143D01*
X195706268Y-56662143D02*
X195620554Y-56662143D01*
X195620554Y-56662143D02*
X195506268Y-56633571D01*
X195506268Y-56633571D02*
X195449125Y-56605000D01*
X195449125Y-56605000D02*
X195391982Y-56547857D01*
X195391982Y-56547857D02*
X195363411Y-56462143D01*
X195363411Y-56462143D02*
X195363411Y-56405000D01*
X195363411Y-56405000D02*
X195391982Y-56319286D01*
X195391982Y-56319286D02*
X195420554Y-56290714D01*
X195963411Y-55719286D02*
X195963411Y-56062143D01*
X195963411Y-55890714D02*
X195363411Y-55890714D01*
X195363411Y-55890714D02*
X195449125Y-55947857D01*
X195449125Y-55947857D02*
X195506268Y-56005000D01*
X195506268Y-56005000D02*
X195534840Y-56062143D01*
X195363411Y-55519285D02*
X195363411Y-55147857D01*
X195363411Y-55147857D02*
X195591982Y-55347857D01*
X195591982Y-55347857D02*
X195591982Y-55262142D01*
X195591982Y-55262142D02*
X195620554Y-55205000D01*
X195620554Y-55205000D02*
X195649125Y-55176428D01*
X195649125Y-55176428D02*
X195706268Y-55147857D01*
X195706268Y-55147857D02*
X195849125Y-55147857D01*
X195849125Y-55147857D02*
X195906268Y-55176428D01*
X195906268Y-55176428D02*
X195934840Y-55205000D01*
X195934840Y-55205000D02*
X195963411Y-55262142D01*
X195963411Y-55262142D02*
X195963411Y-55433571D01*
X195963411Y-55433571D02*
X195934840Y-55490714D01*
X195934840Y-55490714D02*
X195906268Y-55519285D01*
X189650000Y-60936268D02*
X189621428Y-60964840D01*
X189621428Y-60964840D02*
X189535714Y-60993411D01*
X189535714Y-60993411D02*
X189478571Y-60993411D01*
X189478571Y-60993411D02*
X189392857Y-60964840D01*
X189392857Y-60964840D02*
X189335714Y-60907697D01*
X189335714Y-60907697D02*
X189307143Y-60850554D01*
X189307143Y-60850554D02*
X189278571Y-60736268D01*
X189278571Y-60736268D02*
X189278571Y-60650554D01*
X189278571Y-60650554D02*
X189307143Y-60536268D01*
X189307143Y-60536268D02*
X189335714Y-60479125D01*
X189335714Y-60479125D02*
X189392857Y-60421982D01*
X189392857Y-60421982D02*
X189478571Y-60393411D01*
X189478571Y-60393411D02*
X189535714Y-60393411D01*
X189535714Y-60393411D02*
X189621428Y-60421982D01*
X189621428Y-60421982D02*
X189650000Y-60450554D01*
X189850000Y-60393411D02*
X190221428Y-60393411D01*
X190221428Y-60393411D02*
X190021428Y-60621982D01*
X190021428Y-60621982D02*
X190107143Y-60621982D01*
X190107143Y-60621982D02*
X190164286Y-60650554D01*
X190164286Y-60650554D02*
X190192857Y-60679125D01*
X190192857Y-60679125D02*
X190221428Y-60736268D01*
X190221428Y-60736268D02*
X190221428Y-60879125D01*
X190221428Y-60879125D02*
X190192857Y-60936268D01*
X190192857Y-60936268D02*
X190164286Y-60964840D01*
X190164286Y-60964840D02*
X190107143Y-60993411D01*
X190107143Y-60993411D02*
X189935714Y-60993411D01*
X189935714Y-60993411D02*
X189878571Y-60964840D01*
X189878571Y-60964840D02*
X189850000Y-60936268D01*
X183544285Y-76996268D02*
X183515713Y-77024840D01*
X183515713Y-77024840D02*
X183429999Y-77053411D01*
X183429999Y-77053411D02*
X183372856Y-77053411D01*
X183372856Y-77053411D02*
X183287142Y-77024840D01*
X183287142Y-77024840D02*
X183229999Y-76967697D01*
X183229999Y-76967697D02*
X183201428Y-76910554D01*
X183201428Y-76910554D02*
X183172856Y-76796268D01*
X183172856Y-76796268D02*
X183172856Y-76710554D01*
X183172856Y-76710554D02*
X183201428Y-76596268D01*
X183201428Y-76596268D02*
X183229999Y-76539125D01*
X183229999Y-76539125D02*
X183287142Y-76481982D01*
X183287142Y-76481982D02*
X183372856Y-76453411D01*
X183372856Y-76453411D02*
X183429999Y-76453411D01*
X183429999Y-76453411D02*
X183515713Y-76481982D01*
X183515713Y-76481982D02*
X183544285Y-76510554D01*
X183744285Y-76453411D02*
X184115713Y-76453411D01*
X184115713Y-76453411D02*
X183915713Y-76681982D01*
X183915713Y-76681982D02*
X184001428Y-76681982D01*
X184001428Y-76681982D02*
X184058571Y-76710554D01*
X184058571Y-76710554D02*
X184087142Y-76739125D01*
X184087142Y-76739125D02*
X184115713Y-76796268D01*
X184115713Y-76796268D02*
X184115713Y-76939125D01*
X184115713Y-76939125D02*
X184087142Y-76996268D01*
X184087142Y-76996268D02*
X184058571Y-77024840D01*
X184058571Y-77024840D02*
X184001428Y-77053411D01*
X184001428Y-77053411D02*
X183829999Y-77053411D01*
X183829999Y-77053411D02*
X183772856Y-77024840D01*
X183772856Y-77024840D02*
X183744285Y-76996268D01*
X184630000Y-76453411D02*
X184515714Y-76453411D01*
X184515714Y-76453411D02*
X184458571Y-76481982D01*
X184458571Y-76481982D02*
X184430000Y-76510554D01*
X184430000Y-76510554D02*
X184372857Y-76596268D01*
X184372857Y-76596268D02*
X184344285Y-76710554D01*
X184344285Y-76710554D02*
X184344285Y-76939125D01*
X184344285Y-76939125D02*
X184372857Y-76996268D01*
X184372857Y-76996268D02*
X184401428Y-77024840D01*
X184401428Y-77024840D02*
X184458571Y-77053411D01*
X184458571Y-77053411D02*
X184572857Y-77053411D01*
X184572857Y-77053411D02*
X184630000Y-77024840D01*
X184630000Y-77024840D02*
X184658571Y-76996268D01*
X184658571Y-76996268D02*
X184687142Y-76939125D01*
X184687142Y-76939125D02*
X184687142Y-76796268D01*
X184687142Y-76796268D02*
X184658571Y-76739125D01*
X184658571Y-76739125D02*
X184630000Y-76710554D01*
X184630000Y-76710554D02*
X184572857Y-76681982D01*
X184572857Y-76681982D02*
X184458571Y-76681982D01*
X184458571Y-76681982D02*
X184401428Y-76710554D01*
X184401428Y-76710554D02*
X184372857Y-76739125D01*
X184372857Y-76739125D02*
X184344285Y-76796268D01*
X212478411Y-79534999D02*
X212192697Y-79734999D01*
X212478411Y-79877856D02*
X211878411Y-79877856D01*
X211878411Y-79877856D02*
X211878411Y-79649285D01*
X211878411Y-79649285D02*
X211906982Y-79592142D01*
X211906982Y-79592142D02*
X211935554Y-79563571D01*
X211935554Y-79563571D02*
X211992697Y-79534999D01*
X211992697Y-79534999D02*
X212078411Y-79534999D01*
X212078411Y-79534999D02*
X212135554Y-79563571D01*
X212135554Y-79563571D02*
X212164125Y-79592142D01*
X212164125Y-79592142D02*
X212192697Y-79649285D01*
X212192697Y-79649285D02*
X212192697Y-79877856D01*
X212078411Y-79020714D02*
X212478411Y-79020714D01*
X211849840Y-79163571D02*
X212278411Y-79306428D01*
X212278411Y-79306428D02*
X212278411Y-78934999D01*
X178046268Y-80865714D02*
X178074840Y-80894286D01*
X178074840Y-80894286D02*
X178103411Y-80980000D01*
X178103411Y-80980000D02*
X178103411Y-81037143D01*
X178103411Y-81037143D02*
X178074840Y-81122857D01*
X178074840Y-81122857D02*
X178017697Y-81180000D01*
X178017697Y-81180000D02*
X177960554Y-81208571D01*
X177960554Y-81208571D02*
X177846268Y-81237143D01*
X177846268Y-81237143D02*
X177760554Y-81237143D01*
X177760554Y-81237143D02*
X177646268Y-81208571D01*
X177646268Y-81208571D02*
X177589125Y-81180000D01*
X177589125Y-81180000D02*
X177531982Y-81122857D01*
X177531982Y-81122857D02*
X177503411Y-81037143D01*
X177503411Y-81037143D02*
X177503411Y-80980000D01*
X177503411Y-80980000D02*
X177531982Y-80894286D01*
X177531982Y-80894286D02*
X177560554Y-80865714D01*
X177503411Y-80665714D02*
X177503411Y-80294286D01*
X177503411Y-80294286D02*
X177731982Y-80494286D01*
X177731982Y-80494286D02*
X177731982Y-80408571D01*
X177731982Y-80408571D02*
X177760554Y-80351429D01*
X177760554Y-80351429D02*
X177789125Y-80322857D01*
X177789125Y-80322857D02*
X177846268Y-80294286D01*
X177846268Y-80294286D02*
X177989125Y-80294286D01*
X177989125Y-80294286D02*
X178046268Y-80322857D01*
X178046268Y-80322857D02*
X178074840Y-80351429D01*
X178074840Y-80351429D02*
X178103411Y-80408571D01*
X178103411Y-80408571D02*
X178103411Y-80580000D01*
X178103411Y-80580000D02*
X178074840Y-80637143D01*
X178074840Y-80637143D02*
X178046268Y-80665714D01*
X177503411Y-80094285D02*
X177503411Y-79722857D01*
X177503411Y-79722857D02*
X177731982Y-79922857D01*
X177731982Y-79922857D02*
X177731982Y-79837142D01*
X177731982Y-79837142D02*
X177760554Y-79780000D01*
X177760554Y-79780000D02*
X177789125Y-79751428D01*
X177789125Y-79751428D02*
X177846268Y-79722857D01*
X177846268Y-79722857D02*
X177989125Y-79722857D01*
X177989125Y-79722857D02*
X178046268Y-79751428D01*
X178046268Y-79751428D02*
X178074840Y-79780000D01*
X178074840Y-79780000D02*
X178103411Y-79837142D01*
X178103411Y-79837142D02*
X178103411Y-80008571D01*
X178103411Y-80008571D02*
X178074840Y-80065714D01*
X178074840Y-80065714D02*
X178046268Y-80094285D01*
X202422857Y-63183411D02*
X202422857Y-63669125D01*
X202422857Y-63669125D02*
X202451428Y-63726268D01*
X202451428Y-63726268D02*
X202480000Y-63754840D01*
X202480000Y-63754840D02*
X202537142Y-63783411D01*
X202537142Y-63783411D02*
X202651428Y-63783411D01*
X202651428Y-63783411D02*
X202708571Y-63754840D01*
X202708571Y-63754840D02*
X202737142Y-63726268D01*
X202737142Y-63726268D02*
X202765714Y-63669125D01*
X202765714Y-63669125D02*
X202765714Y-63183411D01*
X203022856Y-63240554D02*
X203051428Y-63211982D01*
X203051428Y-63211982D02*
X203108571Y-63183411D01*
X203108571Y-63183411D02*
X203251428Y-63183411D01*
X203251428Y-63183411D02*
X203308571Y-63211982D01*
X203308571Y-63211982D02*
X203337142Y-63240554D01*
X203337142Y-63240554D02*
X203365713Y-63297697D01*
X203365713Y-63297697D02*
X203365713Y-63354840D01*
X203365713Y-63354840D02*
X203337142Y-63440554D01*
X203337142Y-63440554D02*
X202994285Y-63783411D01*
X202994285Y-63783411D02*
X203365713Y-63783411D01*
X216264285Y-66853411D02*
X216064285Y-66567697D01*
X215921428Y-66853411D02*
X215921428Y-66253411D01*
X215921428Y-66253411D02*
X216149999Y-66253411D01*
X216149999Y-66253411D02*
X216207142Y-66281982D01*
X216207142Y-66281982D02*
X216235713Y-66310554D01*
X216235713Y-66310554D02*
X216264285Y-66367697D01*
X216264285Y-66367697D02*
X216264285Y-66453411D01*
X216264285Y-66453411D02*
X216235713Y-66510554D01*
X216235713Y-66510554D02*
X216207142Y-66539125D01*
X216207142Y-66539125D02*
X216149999Y-66567697D01*
X216149999Y-66567697D02*
X215921428Y-66567697D01*
X216835713Y-66853411D02*
X216492856Y-66853411D01*
X216664285Y-66853411D02*
X216664285Y-66253411D01*
X216664285Y-66253411D02*
X216607142Y-66339125D01*
X216607142Y-66339125D02*
X216549999Y-66396268D01*
X216549999Y-66396268D02*
X216492856Y-66424840D01*
X217035714Y-66253411D02*
X217407142Y-66253411D01*
X217407142Y-66253411D02*
X217207142Y-66481982D01*
X217207142Y-66481982D02*
X217292857Y-66481982D01*
X217292857Y-66481982D02*
X217350000Y-66510554D01*
X217350000Y-66510554D02*
X217378571Y-66539125D01*
X217378571Y-66539125D02*
X217407142Y-66596268D01*
X217407142Y-66596268D02*
X217407142Y-66739125D01*
X217407142Y-66739125D02*
X217378571Y-66796268D01*
X217378571Y-66796268D02*
X217350000Y-66824840D01*
X217350000Y-66824840D02*
X217292857Y-66853411D01*
X217292857Y-66853411D02*
X217121428Y-66853411D01*
X217121428Y-66853411D02*
X217064285Y-66824840D01*
X217064285Y-66824840D02*
X217035714Y-66796268D01*
X181036268Y-86665714D02*
X181064840Y-86694286D01*
X181064840Y-86694286D02*
X181093411Y-86780000D01*
X181093411Y-86780000D02*
X181093411Y-86837143D01*
X181093411Y-86837143D02*
X181064840Y-86922857D01*
X181064840Y-86922857D02*
X181007697Y-86980000D01*
X181007697Y-86980000D02*
X180950554Y-87008571D01*
X180950554Y-87008571D02*
X180836268Y-87037143D01*
X180836268Y-87037143D02*
X180750554Y-87037143D01*
X180750554Y-87037143D02*
X180636268Y-87008571D01*
X180636268Y-87008571D02*
X180579125Y-86980000D01*
X180579125Y-86980000D02*
X180521982Y-86922857D01*
X180521982Y-86922857D02*
X180493411Y-86837143D01*
X180493411Y-86837143D02*
X180493411Y-86780000D01*
X180493411Y-86780000D02*
X180521982Y-86694286D01*
X180521982Y-86694286D02*
X180550554Y-86665714D01*
X180693411Y-86151429D02*
X181093411Y-86151429D01*
X180464840Y-86294286D02*
X180893411Y-86437143D01*
X180893411Y-86437143D02*
X180893411Y-86065714D01*
X180493411Y-85722857D02*
X180493411Y-85665714D01*
X180493411Y-85665714D02*
X180521982Y-85608571D01*
X180521982Y-85608571D02*
X180550554Y-85580000D01*
X180550554Y-85580000D02*
X180607697Y-85551428D01*
X180607697Y-85551428D02*
X180721982Y-85522857D01*
X180721982Y-85522857D02*
X180864840Y-85522857D01*
X180864840Y-85522857D02*
X180979125Y-85551428D01*
X180979125Y-85551428D02*
X181036268Y-85580000D01*
X181036268Y-85580000D02*
X181064840Y-85608571D01*
X181064840Y-85608571D02*
X181093411Y-85665714D01*
X181093411Y-85665714D02*
X181093411Y-85722857D01*
X181093411Y-85722857D02*
X181064840Y-85780000D01*
X181064840Y-85780000D02*
X181036268Y-85808571D01*
X181036268Y-85808571D02*
X180979125Y-85837142D01*
X180979125Y-85837142D02*
X180864840Y-85865714D01*
X180864840Y-85865714D02*
X180721982Y-85865714D01*
X180721982Y-85865714D02*
X180607697Y-85837142D01*
X180607697Y-85837142D02*
X180550554Y-85808571D01*
X180550554Y-85808571D02*
X180521982Y-85780000D01*
X180521982Y-85780000D02*
X180493411Y-85722857D01*
X191119999Y-94333411D02*
X191119999Y-94761982D01*
X191119999Y-94761982D02*
X191091428Y-94847697D01*
X191091428Y-94847697D02*
X191034285Y-94904840D01*
X191034285Y-94904840D02*
X190948571Y-94933411D01*
X190948571Y-94933411D02*
X190891428Y-94933411D01*
X191719999Y-94933411D02*
X191377142Y-94933411D01*
X191548571Y-94933411D02*
X191548571Y-94333411D01*
X191548571Y-94333411D02*
X191491428Y-94419125D01*
X191491428Y-94419125D02*
X191434285Y-94476268D01*
X191434285Y-94476268D02*
X191377142Y-94504840D01*
X216058411Y-79534999D02*
X215772697Y-79734999D01*
X216058411Y-79877856D02*
X215458411Y-79877856D01*
X215458411Y-79877856D02*
X215458411Y-79649285D01*
X215458411Y-79649285D02*
X215486982Y-79592142D01*
X215486982Y-79592142D02*
X215515554Y-79563571D01*
X215515554Y-79563571D02*
X215572697Y-79534999D01*
X215572697Y-79534999D02*
X215658411Y-79534999D01*
X215658411Y-79534999D02*
X215715554Y-79563571D01*
X215715554Y-79563571D02*
X215744125Y-79592142D01*
X215744125Y-79592142D02*
X215772697Y-79649285D01*
X215772697Y-79649285D02*
X215772697Y-79877856D01*
X215458411Y-79334999D02*
X215458411Y-78963571D01*
X215458411Y-78963571D02*
X215686982Y-79163571D01*
X215686982Y-79163571D02*
X215686982Y-79077856D01*
X215686982Y-79077856D02*
X215715554Y-79020714D01*
X215715554Y-79020714D02*
X215744125Y-78992142D01*
X215744125Y-78992142D02*
X215801268Y-78963571D01*
X215801268Y-78963571D02*
X215944125Y-78963571D01*
X215944125Y-78963571D02*
X216001268Y-78992142D01*
X216001268Y-78992142D02*
X216029840Y-79020714D01*
X216029840Y-79020714D02*
X216058411Y-79077856D01*
X216058411Y-79077856D02*
X216058411Y-79249285D01*
X216058411Y-79249285D02*
X216029840Y-79306428D01*
X216029840Y-79306428D02*
X216001268Y-79334999D01*
X190474285Y-72286268D02*
X190445713Y-72314840D01*
X190445713Y-72314840D02*
X190359999Y-72343411D01*
X190359999Y-72343411D02*
X190302856Y-72343411D01*
X190302856Y-72343411D02*
X190217142Y-72314840D01*
X190217142Y-72314840D02*
X190159999Y-72257697D01*
X190159999Y-72257697D02*
X190131428Y-72200554D01*
X190131428Y-72200554D02*
X190102856Y-72086268D01*
X190102856Y-72086268D02*
X190102856Y-72000554D01*
X190102856Y-72000554D02*
X190131428Y-71886268D01*
X190131428Y-71886268D02*
X190159999Y-71829125D01*
X190159999Y-71829125D02*
X190217142Y-71771982D01*
X190217142Y-71771982D02*
X190302856Y-71743411D01*
X190302856Y-71743411D02*
X190359999Y-71743411D01*
X190359999Y-71743411D02*
X190445713Y-71771982D01*
X190445713Y-71771982D02*
X190474285Y-71800554D01*
X191045713Y-72343411D02*
X190702856Y-72343411D01*
X190874285Y-72343411D02*
X190874285Y-71743411D01*
X190874285Y-71743411D02*
X190817142Y-71829125D01*
X190817142Y-71829125D02*
X190759999Y-71886268D01*
X190759999Y-71886268D02*
X190702856Y-71914840D01*
X191331428Y-72343411D02*
X191445714Y-72343411D01*
X191445714Y-72343411D02*
X191502857Y-72314840D01*
X191502857Y-72314840D02*
X191531428Y-72286268D01*
X191531428Y-72286268D02*
X191588571Y-72200554D01*
X191588571Y-72200554D02*
X191617142Y-72086268D01*
X191617142Y-72086268D02*
X191617142Y-71857697D01*
X191617142Y-71857697D02*
X191588571Y-71800554D01*
X191588571Y-71800554D02*
X191560000Y-71771982D01*
X191560000Y-71771982D02*
X191502857Y-71743411D01*
X191502857Y-71743411D02*
X191388571Y-71743411D01*
X191388571Y-71743411D02*
X191331428Y-71771982D01*
X191331428Y-71771982D02*
X191302857Y-71800554D01*
X191302857Y-71800554D02*
X191274285Y-71857697D01*
X191274285Y-71857697D02*
X191274285Y-72000554D01*
X191274285Y-72000554D02*
X191302857Y-72057697D01*
X191302857Y-72057697D02*
X191331428Y-72086268D01*
X191331428Y-72086268D02*
X191388571Y-72114840D01*
X191388571Y-72114840D02*
X191502857Y-72114840D01*
X191502857Y-72114840D02*
X191560000Y-72086268D01*
X191560000Y-72086268D02*
X191588571Y-72057697D01*
X191588571Y-72057697D02*
X191617142Y-72000554D01*
X197086268Y-56170714D02*
X197114840Y-56199286D01*
X197114840Y-56199286D02*
X197143411Y-56285000D01*
X197143411Y-56285000D02*
X197143411Y-56342143D01*
X197143411Y-56342143D02*
X197114840Y-56427857D01*
X197114840Y-56427857D02*
X197057697Y-56485000D01*
X197057697Y-56485000D02*
X197000554Y-56513571D01*
X197000554Y-56513571D02*
X196886268Y-56542143D01*
X196886268Y-56542143D02*
X196800554Y-56542143D01*
X196800554Y-56542143D02*
X196686268Y-56513571D01*
X196686268Y-56513571D02*
X196629125Y-56485000D01*
X196629125Y-56485000D02*
X196571982Y-56427857D01*
X196571982Y-56427857D02*
X196543411Y-56342143D01*
X196543411Y-56342143D02*
X196543411Y-56285000D01*
X196543411Y-56285000D02*
X196571982Y-56199286D01*
X196571982Y-56199286D02*
X196600554Y-56170714D01*
X197143411Y-55599286D02*
X197143411Y-55942143D01*
X197143411Y-55770714D02*
X196543411Y-55770714D01*
X196543411Y-55770714D02*
X196629125Y-55827857D01*
X196629125Y-55827857D02*
X196686268Y-55885000D01*
X196686268Y-55885000D02*
X196714840Y-55942143D01*
X196743411Y-55085000D02*
X197143411Y-55085000D01*
X196514840Y-55227857D02*
X196943411Y-55370714D01*
X196943411Y-55370714D02*
X196943411Y-54999285D01*
X205036268Y-77515714D02*
X205064840Y-77544286D01*
X205064840Y-77544286D02*
X205093411Y-77630000D01*
X205093411Y-77630000D02*
X205093411Y-77687143D01*
X205093411Y-77687143D02*
X205064840Y-77772857D01*
X205064840Y-77772857D02*
X205007697Y-77830000D01*
X205007697Y-77830000D02*
X204950554Y-77858571D01*
X204950554Y-77858571D02*
X204836268Y-77887143D01*
X204836268Y-77887143D02*
X204750554Y-77887143D01*
X204750554Y-77887143D02*
X204636268Y-77858571D01*
X204636268Y-77858571D02*
X204579125Y-77830000D01*
X204579125Y-77830000D02*
X204521982Y-77772857D01*
X204521982Y-77772857D02*
X204493411Y-77687143D01*
X204493411Y-77687143D02*
X204493411Y-77630000D01*
X204493411Y-77630000D02*
X204521982Y-77544286D01*
X204521982Y-77544286D02*
X204550554Y-77515714D01*
X204550554Y-77287143D02*
X204521982Y-77258571D01*
X204521982Y-77258571D02*
X204493411Y-77201429D01*
X204493411Y-77201429D02*
X204493411Y-77058571D01*
X204493411Y-77058571D02*
X204521982Y-77001429D01*
X204521982Y-77001429D02*
X204550554Y-76972857D01*
X204550554Y-76972857D02*
X204607697Y-76944286D01*
X204607697Y-76944286D02*
X204664840Y-76944286D01*
X204664840Y-76944286D02*
X204750554Y-76972857D01*
X204750554Y-76972857D02*
X205093411Y-77315714D01*
X205093411Y-77315714D02*
X205093411Y-76944286D01*
X204493411Y-76572857D02*
X204493411Y-76515714D01*
X204493411Y-76515714D02*
X204521982Y-76458571D01*
X204521982Y-76458571D02*
X204550554Y-76430000D01*
X204550554Y-76430000D02*
X204607697Y-76401428D01*
X204607697Y-76401428D02*
X204721982Y-76372857D01*
X204721982Y-76372857D02*
X204864840Y-76372857D01*
X204864840Y-76372857D02*
X204979125Y-76401428D01*
X204979125Y-76401428D02*
X205036268Y-76430000D01*
X205036268Y-76430000D02*
X205064840Y-76458571D01*
X205064840Y-76458571D02*
X205093411Y-76515714D01*
X205093411Y-76515714D02*
X205093411Y-76572857D01*
X205093411Y-76572857D02*
X205064840Y-76630000D01*
X205064840Y-76630000D02*
X205036268Y-76658571D01*
X205036268Y-76658571D02*
X204979125Y-76687142D01*
X204979125Y-76687142D02*
X204864840Y-76715714D01*
X204864840Y-76715714D02*
X204721982Y-76715714D01*
X204721982Y-76715714D02*
X204607697Y-76687142D01*
X204607697Y-76687142D02*
X204550554Y-76658571D01*
X204550554Y-76658571D02*
X204521982Y-76630000D01*
X204521982Y-76630000D02*
X204493411Y-76572857D01*
X182674285Y-92573411D02*
X182474285Y-92287697D01*
X182331428Y-92573411D02*
X182331428Y-91973411D01*
X182331428Y-91973411D02*
X182559999Y-91973411D01*
X182559999Y-91973411D02*
X182617142Y-92001982D01*
X182617142Y-92001982D02*
X182645713Y-92030554D01*
X182645713Y-92030554D02*
X182674285Y-92087697D01*
X182674285Y-92087697D02*
X182674285Y-92173411D01*
X182674285Y-92173411D02*
X182645713Y-92230554D01*
X182645713Y-92230554D02*
X182617142Y-92259125D01*
X182617142Y-92259125D02*
X182559999Y-92287697D01*
X182559999Y-92287697D02*
X182331428Y-92287697D01*
X183245713Y-92573411D02*
X182902856Y-92573411D01*
X183074285Y-92573411D02*
X183074285Y-91973411D01*
X183074285Y-91973411D02*
X183017142Y-92059125D01*
X183017142Y-92059125D02*
X182959999Y-92116268D01*
X182959999Y-92116268D02*
X182902856Y-92144840D01*
X183617142Y-91973411D02*
X183674285Y-91973411D01*
X183674285Y-91973411D02*
X183731428Y-92001982D01*
X183731428Y-92001982D02*
X183760000Y-92030554D01*
X183760000Y-92030554D02*
X183788571Y-92087697D01*
X183788571Y-92087697D02*
X183817142Y-92201982D01*
X183817142Y-92201982D02*
X183817142Y-92344840D01*
X183817142Y-92344840D02*
X183788571Y-92459125D01*
X183788571Y-92459125D02*
X183760000Y-92516268D01*
X183760000Y-92516268D02*
X183731428Y-92544840D01*
X183731428Y-92544840D02*
X183674285Y-92573411D01*
X183674285Y-92573411D02*
X183617142Y-92573411D01*
X183617142Y-92573411D02*
X183560000Y-92544840D01*
X183560000Y-92544840D02*
X183531428Y-92516268D01*
X183531428Y-92516268D02*
X183502857Y-92459125D01*
X183502857Y-92459125D02*
X183474285Y-92344840D01*
X183474285Y-92344840D02*
X183474285Y-92201982D01*
X183474285Y-92201982D02*
X183502857Y-92087697D01*
X183502857Y-92087697D02*
X183531428Y-92030554D01*
X183531428Y-92030554D02*
X183560000Y-92001982D01*
X183560000Y-92001982D02*
X183617142Y-91973411D01*
D11*
X174666666Y-64394819D02*
X174666666Y-65109104D01*
X174666666Y-65109104D02*
X174619047Y-65251961D01*
X174619047Y-65251961D02*
X174523809Y-65347200D01*
X174523809Y-65347200D02*
X174380952Y-65394819D01*
X174380952Y-65394819D02*
X174285714Y-65394819D01*
X175571428Y-64394819D02*
X175380952Y-64394819D01*
X175380952Y-64394819D02*
X175285714Y-64442438D01*
X175285714Y-64442438D02*
X175238095Y-64490057D01*
X175238095Y-64490057D02*
X175142857Y-64632914D01*
X175142857Y-64632914D02*
X175095238Y-64823390D01*
X175095238Y-64823390D02*
X175095238Y-65204342D01*
X175095238Y-65204342D02*
X175142857Y-65299580D01*
X175142857Y-65299580D02*
X175190476Y-65347200D01*
X175190476Y-65347200D02*
X175285714Y-65394819D01*
X175285714Y-65394819D02*
X175476190Y-65394819D01*
X175476190Y-65394819D02*
X175571428Y-65347200D01*
X175571428Y-65347200D02*
X175619047Y-65299580D01*
X175619047Y-65299580D02*
X175666666Y-65204342D01*
X175666666Y-65204342D02*
X175666666Y-64966247D01*
X175666666Y-64966247D02*
X175619047Y-64871009D01*
X175619047Y-64871009D02*
X175571428Y-64823390D01*
X175571428Y-64823390D02*
X175476190Y-64775771D01*
X175476190Y-64775771D02*
X175285714Y-64775771D01*
X175285714Y-64775771D02*
X175190476Y-64823390D01*
X175190476Y-64823390D02*
X175142857Y-64871009D01*
X175142857Y-64871009D02*
X175095238Y-64966247D01*
D10*
X189720000Y-63116268D02*
X189691428Y-63144840D01*
X189691428Y-63144840D02*
X189605714Y-63173411D01*
X189605714Y-63173411D02*
X189548571Y-63173411D01*
X189548571Y-63173411D02*
X189462857Y-63144840D01*
X189462857Y-63144840D02*
X189405714Y-63087697D01*
X189405714Y-63087697D02*
X189377143Y-63030554D01*
X189377143Y-63030554D02*
X189348571Y-62916268D01*
X189348571Y-62916268D02*
X189348571Y-62830554D01*
X189348571Y-62830554D02*
X189377143Y-62716268D01*
X189377143Y-62716268D02*
X189405714Y-62659125D01*
X189405714Y-62659125D02*
X189462857Y-62601982D01*
X189462857Y-62601982D02*
X189548571Y-62573411D01*
X189548571Y-62573411D02*
X189605714Y-62573411D01*
X189605714Y-62573411D02*
X189691428Y-62601982D01*
X189691428Y-62601982D02*
X189720000Y-62630554D01*
X190234286Y-62773411D02*
X190234286Y-63173411D01*
X190091428Y-62544840D02*
X189948571Y-62973411D01*
X189948571Y-62973411D02*
X190320000Y-62973411D01*
X185034285Y-80337697D02*
X185034285Y-80623411D01*
X184834285Y-80023411D02*
X185034285Y-80337697D01*
X185034285Y-80337697D02*
X185234285Y-80023411D01*
X185748571Y-80623411D02*
X185405714Y-80623411D01*
X185577143Y-80623411D02*
X185577143Y-80023411D01*
X185577143Y-80023411D02*
X185520000Y-80109125D01*
X185520000Y-80109125D02*
X185462857Y-80166268D01*
X185462857Y-80166268D02*
X185405714Y-80194840D01*
X184922857Y-87453411D02*
X184922857Y-87939125D01*
X184922857Y-87939125D02*
X184951428Y-87996268D01*
X184951428Y-87996268D02*
X184980000Y-88024840D01*
X184980000Y-88024840D02*
X185037142Y-88053411D01*
X185037142Y-88053411D02*
X185151428Y-88053411D01*
X185151428Y-88053411D02*
X185208571Y-88024840D01*
X185208571Y-88024840D02*
X185237142Y-87996268D01*
X185237142Y-87996268D02*
X185265714Y-87939125D01*
X185265714Y-87939125D02*
X185265714Y-87453411D01*
X185808571Y-87653411D02*
X185808571Y-88053411D01*
X185665713Y-87424840D02*
X185522856Y-87853411D01*
X185522856Y-87853411D02*
X185894285Y-87853411D01*
X191643411Y-66644285D02*
X192243411Y-66244285D01*
X191643411Y-66244285D02*
X192243411Y-66644285D01*
X191643411Y-66101428D02*
X191643411Y-65758571D01*
X192243411Y-65929999D02*
X191643411Y-65929999D01*
X192071982Y-65587142D02*
X192071982Y-65301428D01*
X192243411Y-65644285D02*
X191643411Y-65444285D01*
X191643411Y-65444285D02*
X192243411Y-65244285D01*
X192243411Y-64758570D02*
X192243411Y-65044284D01*
X192243411Y-65044284D02*
X191643411Y-65044284D01*
X192243411Y-64244285D02*
X192243411Y-64587142D01*
X192243411Y-64415713D02*
X191643411Y-64415713D01*
X191643411Y-64415713D02*
X191729125Y-64472856D01*
X191729125Y-64472856D02*
X191786268Y-64529999D01*
X191786268Y-64529999D02*
X191814840Y-64587142D01*
X189204285Y-62081268D02*
X189175713Y-62109840D01*
X189175713Y-62109840D02*
X189089999Y-62138411D01*
X189089999Y-62138411D02*
X189032856Y-62138411D01*
X189032856Y-62138411D02*
X188947142Y-62109840D01*
X188947142Y-62109840D02*
X188889999Y-62052697D01*
X188889999Y-62052697D02*
X188861428Y-61995554D01*
X188861428Y-61995554D02*
X188832856Y-61881268D01*
X188832856Y-61881268D02*
X188832856Y-61795554D01*
X188832856Y-61795554D02*
X188861428Y-61681268D01*
X188861428Y-61681268D02*
X188889999Y-61624125D01*
X188889999Y-61624125D02*
X188947142Y-61566982D01*
X188947142Y-61566982D02*
X189032856Y-61538411D01*
X189032856Y-61538411D02*
X189089999Y-61538411D01*
X189089999Y-61538411D02*
X189175713Y-61566982D01*
X189175713Y-61566982D02*
X189204285Y-61595554D01*
X189775713Y-62138411D02*
X189432856Y-62138411D01*
X189604285Y-62138411D02*
X189604285Y-61538411D01*
X189604285Y-61538411D02*
X189547142Y-61624125D01*
X189547142Y-61624125D02*
X189489999Y-61681268D01*
X189489999Y-61681268D02*
X189432856Y-61709840D01*
X190004285Y-61595554D02*
X190032857Y-61566982D01*
X190032857Y-61566982D02*
X190090000Y-61538411D01*
X190090000Y-61538411D02*
X190232857Y-61538411D01*
X190232857Y-61538411D02*
X190290000Y-61566982D01*
X190290000Y-61566982D02*
X190318571Y-61595554D01*
X190318571Y-61595554D02*
X190347142Y-61652697D01*
X190347142Y-61652697D02*
X190347142Y-61709840D01*
X190347142Y-61709840D02*
X190318571Y-61795554D01*
X190318571Y-61795554D02*
X189975714Y-62138411D01*
X189975714Y-62138411D02*
X190347142Y-62138411D01*
X186546268Y-59315714D02*
X186574840Y-59344286D01*
X186574840Y-59344286D02*
X186603411Y-59430000D01*
X186603411Y-59430000D02*
X186603411Y-59487143D01*
X186603411Y-59487143D02*
X186574840Y-59572857D01*
X186574840Y-59572857D02*
X186517697Y-59630000D01*
X186517697Y-59630000D02*
X186460554Y-59658571D01*
X186460554Y-59658571D02*
X186346268Y-59687143D01*
X186346268Y-59687143D02*
X186260554Y-59687143D01*
X186260554Y-59687143D02*
X186146268Y-59658571D01*
X186146268Y-59658571D02*
X186089125Y-59630000D01*
X186089125Y-59630000D02*
X186031982Y-59572857D01*
X186031982Y-59572857D02*
X186003411Y-59487143D01*
X186003411Y-59487143D02*
X186003411Y-59430000D01*
X186003411Y-59430000D02*
X186031982Y-59344286D01*
X186031982Y-59344286D02*
X186060554Y-59315714D01*
X186003411Y-59115714D02*
X186003411Y-58744286D01*
X186003411Y-58744286D02*
X186231982Y-58944286D01*
X186231982Y-58944286D02*
X186231982Y-58858571D01*
X186231982Y-58858571D02*
X186260554Y-58801429D01*
X186260554Y-58801429D02*
X186289125Y-58772857D01*
X186289125Y-58772857D02*
X186346268Y-58744286D01*
X186346268Y-58744286D02*
X186489125Y-58744286D01*
X186489125Y-58744286D02*
X186546268Y-58772857D01*
X186546268Y-58772857D02*
X186574840Y-58801429D01*
X186574840Y-58801429D02*
X186603411Y-58858571D01*
X186603411Y-58858571D02*
X186603411Y-59030000D01*
X186603411Y-59030000D02*
X186574840Y-59087143D01*
X186574840Y-59087143D02*
X186546268Y-59115714D01*
X186003411Y-58544285D02*
X186003411Y-58144285D01*
X186003411Y-58144285D02*
X186603411Y-58401428D01*
X202224285Y-54826268D02*
X202195713Y-54854840D01*
X202195713Y-54854840D02*
X202109999Y-54883411D01*
X202109999Y-54883411D02*
X202052856Y-54883411D01*
X202052856Y-54883411D02*
X201967142Y-54854840D01*
X201967142Y-54854840D02*
X201909999Y-54797697D01*
X201909999Y-54797697D02*
X201881428Y-54740554D01*
X201881428Y-54740554D02*
X201852856Y-54626268D01*
X201852856Y-54626268D02*
X201852856Y-54540554D01*
X201852856Y-54540554D02*
X201881428Y-54426268D01*
X201881428Y-54426268D02*
X201909999Y-54369125D01*
X201909999Y-54369125D02*
X201967142Y-54311982D01*
X201967142Y-54311982D02*
X202052856Y-54283411D01*
X202052856Y-54283411D02*
X202109999Y-54283411D01*
X202109999Y-54283411D02*
X202195713Y-54311982D01*
X202195713Y-54311982D02*
X202224285Y-54340554D01*
X202795713Y-54883411D02*
X202452856Y-54883411D01*
X202624285Y-54883411D02*
X202624285Y-54283411D01*
X202624285Y-54283411D02*
X202567142Y-54369125D01*
X202567142Y-54369125D02*
X202509999Y-54426268D01*
X202509999Y-54426268D02*
X202452856Y-54454840D01*
X202995714Y-54283411D02*
X203395714Y-54283411D01*
X203395714Y-54283411D02*
X203138571Y-54883411D01*
X217223411Y-83619999D02*
X216937697Y-83819999D01*
X217223411Y-83962856D02*
X216623411Y-83962856D01*
X216623411Y-83962856D02*
X216623411Y-83734285D01*
X216623411Y-83734285D02*
X216651982Y-83677142D01*
X216651982Y-83677142D02*
X216680554Y-83648571D01*
X216680554Y-83648571D02*
X216737697Y-83619999D01*
X216737697Y-83619999D02*
X216823411Y-83619999D01*
X216823411Y-83619999D02*
X216880554Y-83648571D01*
X216880554Y-83648571D02*
X216909125Y-83677142D01*
X216909125Y-83677142D02*
X216937697Y-83734285D01*
X216937697Y-83734285D02*
X216937697Y-83962856D01*
X216880554Y-83277142D02*
X216851982Y-83334285D01*
X216851982Y-83334285D02*
X216823411Y-83362856D01*
X216823411Y-83362856D02*
X216766268Y-83391428D01*
X216766268Y-83391428D02*
X216737697Y-83391428D01*
X216737697Y-83391428D02*
X216680554Y-83362856D01*
X216680554Y-83362856D02*
X216651982Y-83334285D01*
X216651982Y-83334285D02*
X216623411Y-83277142D01*
X216623411Y-83277142D02*
X216623411Y-83162856D01*
X216623411Y-83162856D02*
X216651982Y-83105714D01*
X216651982Y-83105714D02*
X216680554Y-83077142D01*
X216680554Y-83077142D02*
X216737697Y-83048571D01*
X216737697Y-83048571D02*
X216766268Y-83048571D01*
X216766268Y-83048571D02*
X216823411Y-83077142D01*
X216823411Y-83077142D02*
X216851982Y-83105714D01*
X216851982Y-83105714D02*
X216880554Y-83162856D01*
X216880554Y-83162856D02*
X216880554Y-83277142D01*
X216880554Y-83277142D02*
X216909125Y-83334285D01*
X216909125Y-83334285D02*
X216937697Y-83362856D01*
X216937697Y-83362856D02*
X216994840Y-83391428D01*
X216994840Y-83391428D02*
X217109125Y-83391428D01*
X217109125Y-83391428D02*
X217166268Y-83362856D01*
X217166268Y-83362856D02*
X217194840Y-83334285D01*
X217194840Y-83334285D02*
X217223411Y-83277142D01*
X217223411Y-83277142D02*
X217223411Y-83162856D01*
X217223411Y-83162856D02*
X217194840Y-83105714D01*
X217194840Y-83105714D02*
X217166268Y-83077142D01*
X217166268Y-83077142D02*
X217109125Y-83048571D01*
X217109125Y-83048571D02*
X216994840Y-83048571D01*
X216994840Y-83048571D02*
X216937697Y-83077142D01*
X216937697Y-83077142D02*
X216909125Y-83105714D01*
X216909125Y-83105714D02*
X216880554Y-83162856D01*
D11*
X199612800Y-46049911D02*
X199612800Y-46622256D01*
X199612800Y-46622256D02*
X199574644Y-46736725D01*
X199574644Y-46736725D02*
X199498331Y-46813038D01*
X199498331Y-46813038D02*
X199383862Y-46851194D01*
X199383862Y-46851194D02*
X199307550Y-46851194D01*
X199956207Y-46126224D02*
X199994363Y-46088067D01*
X199994363Y-46088067D02*
X200070676Y-46049911D01*
X200070676Y-46049911D02*
X200261458Y-46049911D01*
X200261458Y-46049911D02*
X200337770Y-46088067D01*
X200337770Y-46088067D02*
X200375927Y-46126224D01*
X200375927Y-46126224D02*
X200414083Y-46202536D01*
X200414083Y-46202536D02*
X200414083Y-46278849D01*
X200414083Y-46278849D02*
X200375927Y-46393318D01*
X200375927Y-46393318D02*
X199918051Y-46851194D01*
X199918051Y-46851194D02*
X200414083Y-46851194D01*
D10*
X206780000Y-92373411D02*
X206580000Y-92087697D01*
X206437143Y-92373411D02*
X206437143Y-91773411D01*
X206437143Y-91773411D02*
X206665714Y-91773411D01*
X206665714Y-91773411D02*
X206722857Y-91801982D01*
X206722857Y-91801982D02*
X206751428Y-91830554D01*
X206751428Y-91830554D02*
X206780000Y-91887697D01*
X206780000Y-91887697D02*
X206780000Y-91973411D01*
X206780000Y-91973411D02*
X206751428Y-92030554D01*
X206751428Y-92030554D02*
X206722857Y-92059125D01*
X206722857Y-92059125D02*
X206665714Y-92087697D01*
X206665714Y-92087697D02*
X206437143Y-92087697D01*
X207294286Y-91773411D02*
X207180000Y-91773411D01*
X207180000Y-91773411D02*
X207122857Y-91801982D01*
X207122857Y-91801982D02*
X207094286Y-91830554D01*
X207094286Y-91830554D02*
X207037143Y-91916268D01*
X207037143Y-91916268D02*
X207008571Y-92030554D01*
X207008571Y-92030554D02*
X207008571Y-92259125D01*
X207008571Y-92259125D02*
X207037143Y-92316268D01*
X207037143Y-92316268D02*
X207065714Y-92344840D01*
X207065714Y-92344840D02*
X207122857Y-92373411D01*
X207122857Y-92373411D02*
X207237143Y-92373411D01*
X207237143Y-92373411D02*
X207294286Y-92344840D01*
X207294286Y-92344840D02*
X207322857Y-92316268D01*
X207322857Y-92316268D02*
X207351428Y-92259125D01*
X207351428Y-92259125D02*
X207351428Y-92116268D01*
X207351428Y-92116268D02*
X207322857Y-92059125D01*
X207322857Y-92059125D02*
X207294286Y-92030554D01*
X207294286Y-92030554D02*
X207237143Y-92001982D01*
X207237143Y-92001982D02*
X207122857Y-92001982D01*
X207122857Y-92001982D02*
X207065714Y-92030554D01*
X207065714Y-92030554D02*
X207037143Y-92059125D01*
X207037143Y-92059125D02*
X207008571Y-92116268D01*
X209184285Y-66713411D02*
X208984285Y-66427697D01*
X208841428Y-66713411D02*
X208841428Y-66113411D01*
X208841428Y-66113411D02*
X209069999Y-66113411D01*
X209069999Y-66113411D02*
X209127142Y-66141982D01*
X209127142Y-66141982D02*
X209155713Y-66170554D01*
X209155713Y-66170554D02*
X209184285Y-66227697D01*
X209184285Y-66227697D02*
X209184285Y-66313411D01*
X209184285Y-66313411D02*
X209155713Y-66370554D01*
X209155713Y-66370554D02*
X209127142Y-66399125D01*
X209127142Y-66399125D02*
X209069999Y-66427697D01*
X209069999Y-66427697D02*
X208841428Y-66427697D01*
X209755713Y-66713411D02*
X209412856Y-66713411D01*
X209584285Y-66713411D02*
X209584285Y-66113411D01*
X209584285Y-66113411D02*
X209527142Y-66199125D01*
X209527142Y-66199125D02*
X209469999Y-66256268D01*
X209469999Y-66256268D02*
X209412856Y-66284840D01*
X209984285Y-66170554D02*
X210012857Y-66141982D01*
X210012857Y-66141982D02*
X210070000Y-66113411D01*
X210070000Y-66113411D02*
X210212857Y-66113411D01*
X210212857Y-66113411D02*
X210270000Y-66141982D01*
X210270000Y-66141982D02*
X210298571Y-66170554D01*
X210298571Y-66170554D02*
X210327142Y-66227697D01*
X210327142Y-66227697D02*
X210327142Y-66284840D01*
X210327142Y-66284840D02*
X210298571Y-66370554D01*
X210298571Y-66370554D02*
X209955714Y-66713411D01*
X209955714Y-66713411D02*
X210327142Y-66713411D01*
X192296268Y-87039999D02*
X192324840Y-87068571D01*
X192324840Y-87068571D02*
X192353411Y-87154285D01*
X192353411Y-87154285D02*
X192353411Y-87211428D01*
X192353411Y-87211428D02*
X192324840Y-87297142D01*
X192324840Y-87297142D02*
X192267697Y-87354285D01*
X192267697Y-87354285D02*
X192210554Y-87382856D01*
X192210554Y-87382856D02*
X192096268Y-87411428D01*
X192096268Y-87411428D02*
X192010554Y-87411428D01*
X192010554Y-87411428D02*
X191896268Y-87382856D01*
X191896268Y-87382856D02*
X191839125Y-87354285D01*
X191839125Y-87354285D02*
X191781982Y-87297142D01*
X191781982Y-87297142D02*
X191753411Y-87211428D01*
X191753411Y-87211428D02*
X191753411Y-87154285D01*
X191753411Y-87154285D02*
X191781982Y-87068571D01*
X191781982Y-87068571D02*
X191810554Y-87039999D01*
X191753411Y-86525714D02*
X191753411Y-86639999D01*
X191753411Y-86639999D02*
X191781982Y-86697142D01*
X191781982Y-86697142D02*
X191810554Y-86725714D01*
X191810554Y-86725714D02*
X191896268Y-86782856D01*
X191896268Y-86782856D02*
X192010554Y-86811428D01*
X192010554Y-86811428D02*
X192239125Y-86811428D01*
X192239125Y-86811428D02*
X192296268Y-86782856D01*
X192296268Y-86782856D02*
X192324840Y-86754285D01*
X192324840Y-86754285D02*
X192353411Y-86697142D01*
X192353411Y-86697142D02*
X192353411Y-86582856D01*
X192353411Y-86582856D02*
X192324840Y-86525714D01*
X192324840Y-86525714D02*
X192296268Y-86497142D01*
X192296268Y-86497142D02*
X192239125Y-86468571D01*
X192239125Y-86468571D02*
X192096268Y-86468571D01*
X192096268Y-86468571D02*
X192039125Y-86497142D01*
X192039125Y-86497142D02*
X192010554Y-86525714D01*
X192010554Y-86525714D02*
X191981982Y-86582856D01*
X191981982Y-86582856D02*
X191981982Y-86697142D01*
X191981982Y-86697142D02*
X192010554Y-86754285D01*
X192010554Y-86754285D02*
X192039125Y-86782856D01*
X192039125Y-86782856D02*
X192096268Y-86811428D01*
X182514285Y-67476268D02*
X182485713Y-67504840D01*
X182485713Y-67504840D02*
X182399999Y-67533411D01*
X182399999Y-67533411D02*
X182342856Y-67533411D01*
X182342856Y-67533411D02*
X182257142Y-67504840D01*
X182257142Y-67504840D02*
X182199999Y-67447697D01*
X182199999Y-67447697D02*
X182171428Y-67390554D01*
X182171428Y-67390554D02*
X182142856Y-67276268D01*
X182142856Y-67276268D02*
X182142856Y-67190554D01*
X182142856Y-67190554D02*
X182171428Y-67076268D01*
X182171428Y-67076268D02*
X182199999Y-67019125D01*
X182199999Y-67019125D02*
X182257142Y-66961982D01*
X182257142Y-66961982D02*
X182342856Y-66933411D01*
X182342856Y-66933411D02*
X182399999Y-66933411D01*
X182399999Y-66933411D02*
X182485713Y-66961982D01*
X182485713Y-66961982D02*
X182514285Y-66990554D01*
X182714285Y-66933411D02*
X183085713Y-66933411D01*
X183085713Y-66933411D02*
X182885713Y-67161982D01*
X182885713Y-67161982D02*
X182971428Y-67161982D01*
X182971428Y-67161982D02*
X183028571Y-67190554D01*
X183028571Y-67190554D02*
X183057142Y-67219125D01*
X183057142Y-67219125D02*
X183085713Y-67276268D01*
X183085713Y-67276268D02*
X183085713Y-67419125D01*
X183085713Y-67419125D02*
X183057142Y-67476268D01*
X183057142Y-67476268D02*
X183028571Y-67504840D01*
X183028571Y-67504840D02*
X182971428Y-67533411D01*
X182971428Y-67533411D02*
X182799999Y-67533411D01*
X182799999Y-67533411D02*
X182742856Y-67504840D01*
X182742856Y-67504840D02*
X182714285Y-67476268D01*
X183628571Y-66933411D02*
X183342857Y-66933411D01*
X183342857Y-66933411D02*
X183314285Y-67219125D01*
X183314285Y-67219125D02*
X183342857Y-67190554D01*
X183342857Y-67190554D02*
X183400000Y-67161982D01*
X183400000Y-67161982D02*
X183542857Y-67161982D01*
X183542857Y-67161982D02*
X183600000Y-67190554D01*
X183600000Y-67190554D02*
X183628571Y-67219125D01*
X183628571Y-67219125D02*
X183657142Y-67276268D01*
X183657142Y-67276268D02*
X183657142Y-67419125D01*
X183657142Y-67419125D02*
X183628571Y-67476268D01*
X183628571Y-67476268D02*
X183600000Y-67504840D01*
X183600000Y-67504840D02*
X183542857Y-67533411D01*
X183542857Y-67533411D02*
X183400000Y-67533411D01*
X183400000Y-67533411D02*
X183342857Y-67504840D01*
X183342857Y-67504840D02*
X183314285Y-67476268D01*
D11*
X215252857Y-64629771D02*
X215252857Y-65115485D01*
X215252857Y-65115485D02*
X215281428Y-65172628D01*
X215281428Y-65172628D02*
X215310000Y-65201200D01*
X215310000Y-65201200D02*
X215367142Y-65229771D01*
X215367142Y-65229771D02*
X215481428Y-65229771D01*
X215481428Y-65229771D02*
X215538571Y-65201200D01*
X215538571Y-65201200D02*
X215567142Y-65172628D01*
X215567142Y-65172628D02*
X215595714Y-65115485D01*
X215595714Y-65115485D02*
X215595714Y-64629771D01*
X216167142Y-64629771D02*
X215881428Y-64629771D01*
X215881428Y-64629771D02*
X215852856Y-64915485D01*
X215852856Y-64915485D02*
X215881428Y-64886914D01*
X215881428Y-64886914D02*
X215938571Y-64858342D01*
X215938571Y-64858342D02*
X216081428Y-64858342D01*
X216081428Y-64858342D02*
X216138571Y-64886914D01*
X216138571Y-64886914D02*
X216167142Y-64915485D01*
X216167142Y-64915485D02*
X216195713Y-64972628D01*
X216195713Y-64972628D02*
X216195713Y-65115485D01*
X216195713Y-65115485D02*
X216167142Y-65172628D01*
X216167142Y-65172628D02*
X216138571Y-65201200D01*
X216138571Y-65201200D02*
X216081428Y-65229771D01*
X216081428Y-65229771D02*
X215938571Y-65229771D01*
X215938571Y-65229771D02*
X215881428Y-65201200D01*
X215881428Y-65201200D02*
X215852856Y-65172628D01*
D10*
X197512857Y-85193411D02*
X197512857Y-85679125D01*
X197512857Y-85679125D02*
X197541428Y-85736268D01*
X197541428Y-85736268D02*
X197570000Y-85764840D01*
X197570000Y-85764840D02*
X197627142Y-85793411D01*
X197627142Y-85793411D02*
X197741428Y-85793411D01*
X197741428Y-85793411D02*
X197798571Y-85764840D01*
X197798571Y-85764840D02*
X197827142Y-85736268D01*
X197827142Y-85736268D02*
X197855714Y-85679125D01*
X197855714Y-85679125D02*
X197855714Y-85193411D01*
X198084285Y-85193411D02*
X198455713Y-85193411D01*
X198455713Y-85193411D02*
X198255713Y-85421982D01*
X198255713Y-85421982D02*
X198341428Y-85421982D01*
X198341428Y-85421982D02*
X198398571Y-85450554D01*
X198398571Y-85450554D02*
X198427142Y-85479125D01*
X198427142Y-85479125D02*
X198455713Y-85536268D01*
X198455713Y-85536268D02*
X198455713Y-85679125D01*
X198455713Y-85679125D02*
X198427142Y-85736268D01*
X198427142Y-85736268D02*
X198398571Y-85764840D01*
X198398571Y-85764840D02*
X198341428Y-85793411D01*
X198341428Y-85793411D02*
X198169999Y-85793411D01*
X198169999Y-85793411D02*
X198112856Y-85764840D01*
X198112856Y-85764840D02*
X198084285Y-85736268D01*
X197425817Y-73402315D02*
X197769269Y-73745767D01*
X197769269Y-73745767D02*
X197829878Y-73765970D01*
X197829878Y-73765970D02*
X197870284Y-73765970D01*
X197870284Y-73765970D02*
X197930893Y-73745767D01*
X197930893Y-73745767D02*
X198011705Y-73664955D01*
X198011705Y-73664955D02*
X198031908Y-73604346D01*
X198031908Y-73604346D02*
X198031908Y-73563940D01*
X198031908Y-73563940D02*
X198011705Y-73503331D01*
X198011705Y-73503331D02*
X197668253Y-73159879D01*
X198516781Y-73159879D02*
X198274345Y-73402316D01*
X198395563Y-73281097D02*
X197971299Y-72856833D01*
X197971299Y-72856833D02*
X197991502Y-72957849D01*
X197991502Y-72957849D02*
X197991502Y-73038661D01*
X197991502Y-73038661D02*
X197971299Y-73099270D01*
X193916268Y-82995714D02*
X193944840Y-83024286D01*
X193944840Y-83024286D02*
X193973411Y-83110000D01*
X193973411Y-83110000D02*
X193973411Y-83167143D01*
X193973411Y-83167143D02*
X193944840Y-83252857D01*
X193944840Y-83252857D02*
X193887697Y-83310000D01*
X193887697Y-83310000D02*
X193830554Y-83338571D01*
X193830554Y-83338571D02*
X193716268Y-83367143D01*
X193716268Y-83367143D02*
X193630554Y-83367143D01*
X193630554Y-83367143D02*
X193516268Y-83338571D01*
X193516268Y-83338571D02*
X193459125Y-83310000D01*
X193459125Y-83310000D02*
X193401982Y-83252857D01*
X193401982Y-83252857D02*
X193373411Y-83167143D01*
X193373411Y-83167143D02*
X193373411Y-83110000D01*
X193373411Y-83110000D02*
X193401982Y-83024286D01*
X193401982Y-83024286D02*
X193430554Y-82995714D01*
X193373411Y-82795714D02*
X193373411Y-82424286D01*
X193373411Y-82424286D02*
X193601982Y-82624286D01*
X193601982Y-82624286D02*
X193601982Y-82538571D01*
X193601982Y-82538571D02*
X193630554Y-82481429D01*
X193630554Y-82481429D02*
X193659125Y-82452857D01*
X193659125Y-82452857D02*
X193716268Y-82424286D01*
X193716268Y-82424286D02*
X193859125Y-82424286D01*
X193859125Y-82424286D02*
X193916268Y-82452857D01*
X193916268Y-82452857D02*
X193944840Y-82481429D01*
X193944840Y-82481429D02*
X193973411Y-82538571D01*
X193973411Y-82538571D02*
X193973411Y-82710000D01*
X193973411Y-82710000D02*
X193944840Y-82767143D01*
X193944840Y-82767143D02*
X193916268Y-82795714D01*
X193573411Y-81910000D02*
X193973411Y-81910000D01*
X193344840Y-82052857D02*
X193773411Y-82195714D01*
X193773411Y-82195714D02*
X193773411Y-81824285D01*
X187350000Y-66356268D02*
X187321428Y-66384840D01*
X187321428Y-66384840D02*
X187235714Y-66413411D01*
X187235714Y-66413411D02*
X187178571Y-66413411D01*
X187178571Y-66413411D02*
X187092857Y-66384840D01*
X187092857Y-66384840D02*
X187035714Y-66327697D01*
X187035714Y-66327697D02*
X187007143Y-66270554D01*
X187007143Y-66270554D02*
X186978571Y-66156268D01*
X186978571Y-66156268D02*
X186978571Y-66070554D01*
X186978571Y-66070554D02*
X187007143Y-65956268D01*
X187007143Y-65956268D02*
X187035714Y-65899125D01*
X187035714Y-65899125D02*
X187092857Y-65841982D01*
X187092857Y-65841982D02*
X187178571Y-65813411D01*
X187178571Y-65813411D02*
X187235714Y-65813411D01*
X187235714Y-65813411D02*
X187321428Y-65841982D01*
X187321428Y-65841982D02*
X187350000Y-65870554D01*
X187578571Y-65870554D02*
X187607143Y-65841982D01*
X187607143Y-65841982D02*
X187664286Y-65813411D01*
X187664286Y-65813411D02*
X187807143Y-65813411D01*
X187807143Y-65813411D02*
X187864286Y-65841982D01*
X187864286Y-65841982D02*
X187892857Y-65870554D01*
X187892857Y-65870554D02*
X187921428Y-65927697D01*
X187921428Y-65927697D02*
X187921428Y-65984840D01*
X187921428Y-65984840D02*
X187892857Y-66070554D01*
X187892857Y-66070554D02*
X187550000Y-66413411D01*
X187550000Y-66413411D02*
X187921428Y-66413411D01*
X201116268Y-58505714D02*
X201144840Y-58534286D01*
X201144840Y-58534286D02*
X201173411Y-58620000D01*
X201173411Y-58620000D02*
X201173411Y-58677143D01*
X201173411Y-58677143D02*
X201144840Y-58762857D01*
X201144840Y-58762857D02*
X201087697Y-58820000D01*
X201087697Y-58820000D02*
X201030554Y-58848571D01*
X201030554Y-58848571D02*
X200916268Y-58877143D01*
X200916268Y-58877143D02*
X200830554Y-58877143D01*
X200830554Y-58877143D02*
X200716268Y-58848571D01*
X200716268Y-58848571D02*
X200659125Y-58820000D01*
X200659125Y-58820000D02*
X200601982Y-58762857D01*
X200601982Y-58762857D02*
X200573411Y-58677143D01*
X200573411Y-58677143D02*
X200573411Y-58620000D01*
X200573411Y-58620000D02*
X200601982Y-58534286D01*
X200601982Y-58534286D02*
X200630554Y-58505714D01*
X201173411Y-57934286D02*
X201173411Y-58277143D01*
X201173411Y-58105714D02*
X200573411Y-58105714D01*
X200573411Y-58105714D02*
X200659125Y-58162857D01*
X200659125Y-58162857D02*
X200716268Y-58220000D01*
X200716268Y-58220000D02*
X200744840Y-58277143D01*
X200573411Y-57420000D02*
X200573411Y-57534285D01*
X200573411Y-57534285D02*
X200601982Y-57591428D01*
X200601982Y-57591428D02*
X200630554Y-57620000D01*
X200630554Y-57620000D02*
X200716268Y-57677142D01*
X200716268Y-57677142D02*
X200830554Y-57705714D01*
X200830554Y-57705714D02*
X201059125Y-57705714D01*
X201059125Y-57705714D02*
X201116268Y-57677142D01*
X201116268Y-57677142D02*
X201144840Y-57648571D01*
X201144840Y-57648571D02*
X201173411Y-57591428D01*
X201173411Y-57591428D02*
X201173411Y-57477142D01*
X201173411Y-57477142D02*
X201144840Y-57420000D01*
X201144840Y-57420000D02*
X201116268Y-57391428D01*
X201116268Y-57391428D02*
X201059125Y-57362857D01*
X201059125Y-57362857D02*
X200916268Y-57362857D01*
X200916268Y-57362857D02*
X200859125Y-57391428D01*
X200859125Y-57391428D02*
X200830554Y-57420000D01*
X200830554Y-57420000D02*
X200801982Y-57477142D01*
X200801982Y-57477142D02*
X200801982Y-57591428D01*
X200801982Y-57591428D02*
X200830554Y-57648571D01*
X200830554Y-57648571D02*
X200859125Y-57677142D01*
X200859125Y-57677142D02*
X200916268Y-57705714D01*
X193796268Y-56215714D02*
X193824840Y-56244286D01*
X193824840Y-56244286D02*
X193853411Y-56330000D01*
X193853411Y-56330000D02*
X193853411Y-56387143D01*
X193853411Y-56387143D02*
X193824840Y-56472857D01*
X193824840Y-56472857D02*
X193767697Y-56530000D01*
X193767697Y-56530000D02*
X193710554Y-56558571D01*
X193710554Y-56558571D02*
X193596268Y-56587143D01*
X193596268Y-56587143D02*
X193510554Y-56587143D01*
X193510554Y-56587143D02*
X193396268Y-56558571D01*
X193396268Y-56558571D02*
X193339125Y-56530000D01*
X193339125Y-56530000D02*
X193281982Y-56472857D01*
X193281982Y-56472857D02*
X193253411Y-56387143D01*
X193253411Y-56387143D02*
X193253411Y-56330000D01*
X193253411Y-56330000D02*
X193281982Y-56244286D01*
X193281982Y-56244286D02*
X193310554Y-56215714D01*
X193853411Y-55644286D02*
X193853411Y-55987143D01*
X193853411Y-55815714D02*
X193253411Y-55815714D01*
X193253411Y-55815714D02*
X193339125Y-55872857D01*
X193339125Y-55872857D02*
X193396268Y-55930000D01*
X193396268Y-55930000D02*
X193424840Y-55987143D01*
X193853411Y-55072857D02*
X193853411Y-55415714D01*
X193853411Y-55244285D02*
X193253411Y-55244285D01*
X193253411Y-55244285D02*
X193339125Y-55301428D01*
X193339125Y-55301428D02*
X193396268Y-55358571D01*
X193396268Y-55358571D02*
X193424840Y-55415714D01*
X198305000Y-57673411D02*
X198019286Y-57673411D01*
X198019286Y-57673411D02*
X198019286Y-57073411D01*
X198819285Y-57673411D02*
X198476428Y-57673411D01*
X198647857Y-57673411D02*
X198647857Y-57073411D01*
X198647857Y-57073411D02*
X198590714Y-57159125D01*
X198590714Y-57159125D02*
X198533571Y-57216268D01*
X198533571Y-57216268D02*
X198476428Y-57244840D01*
X193906268Y-87049999D02*
X193934840Y-87078571D01*
X193934840Y-87078571D02*
X193963411Y-87164285D01*
X193963411Y-87164285D02*
X193963411Y-87221428D01*
X193963411Y-87221428D02*
X193934840Y-87307142D01*
X193934840Y-87307142D02*
X193877697Y-87364285D01*
X193877697Y-87364285D02*
X193820554Y-87392856D01*
X193820554Y-87392856D02*
X193706268Y-87421428D01*
X193706268Y-87421428D02*
X193620554Y-87421428D01*
X193620554Y-87421428D02*
X193506268Y-87392856D01*
X193506268Y-87392856D02*
X193449125Y-87364285D01*
X193449125Y-87364285D02*
X193391982Y-87307142D01*
X193391982Y-87307142D02*
X193363411Y-87221428D01*
X193363411Y-87221428D02*
X193363411Y-87164285D01*
X193363411Y-87164285D02*
X193391982Y-87078571D01*
X193391982Y-87078571D02*
X193420554Y-87049999D01*
X193363411Y-86507142D02*
X193363411Y-86792856D01*
X193363411Y-86792856D02*
X193649125Y-86821428D01*
X193649125Y-86821428D02*
X193620554Y-86792856D01*
X193620554Y-86792856D02*
X193591982Y-86735714D01*
X193591982Y-86735714D02*
X193591982Y-86592856D01*
X193591982Y-86592856D02*
X193620554Y-86535714D01*
X193620554Y-86535714D02*
X193649125Y-86507142D01*
X193649125Y-86507142D02*
X193706268Y-86478571D01*
X193706268Y-86478571D02*
X193849125Y-86478571D01*
X193849125Y-86478571D02*
X193906268Y-86507142D01*
X193906268Y-86507142D02*
X193934840Y-86535714D01*
X193934840Y-86535714D02*
X193963411Y-86592856D01*
X193963411Y-86592856D02*
X193963411Y-86735714D01*
X193963411Y-86735714D02*
X193934840Y-86792856D01*
X193934840Y-86792856D02*
X193906268Y-86821428D01*
X176664840Y-61640000D02*
X176693411Y-61554286D01*
X176693411Y-61554286D02*
X176693411Y-61411428D01*
X176693411Y-61411428D02*
X176664840Y-61354286D01*
X176664840Y-61354286D02*
X176636268Y-61325714D01*
X176636268Y-61325714D02*
X176579125Y-61297143D01*
X176579125Y-61297143D02*
X176521982Y-61297143D01*
X176521982Y-61297143D02*
X176464840Y-61325714D01*
X176464840Y-61325714D02*
X176436268Y-61354286D01*
X176436268Y-61354286D02*
X176407697Y-61411428D01*
X176407697Y-61411428D02*
X176379125Y-61525714D01*
X176379125Y-61525714D02*
X176350554Y-61582857D01*
X176350554Y-61582857D02*
X176321982Y-61611428D01*
X176321982Y-61611428D02*
X176264840Y-61640000D01*
X176264840Y-61640000D02*
X176207697Y-61640000D01*
X176207697Y-61640000D02*
X176150554Y-61611428D01*
X176150554Y-61611428D02*
X176121982Y-61582857D01*
X176121982Y-61582857D02*
X176093411Y-61525714D01*
X176093411Y-61525714D02*
X176093411Y-61382857D01*
X176093411Y-61382857D02*
X176121982Y-61297143D01*
X176093411Y-61097142D02*
X176693411Y-60954285D01*
X176693411Y-60954285D02*
X176264840Y-60839999D01*
X176264840Y-60839999D02*
X176693411Y-60725714D01*
X176693411Y-60725714D02*
X176093411Y-60582857D01*
X176693411Y-60040000D02*
X176693411Y-60382857D01*
X176693411Y-60211428D02*
X176093411Y-60211428D01*
X176093411Y-60211428D02*
X176179125Y-60268571D01*
X176179125Y-60268571D02*
X176236268Y-60325714D01*
X176236268Y-60325714D02*
X176264840Y-60382857D01*
X187450000Y-64926268D02*
X187421428Y-64954840D01*
X187421428Y-64954840D02*
X187335714Y-64983411D01*
X187335714Y-64983411D02*
X187278571Y-64983411D01*
X187278571Y-64983411D02*
X187192857Y-64954840D01*
X187192857Y-64954840D02*
X187135714Y-64897697D01*
X187135714Y-64897697D02*
X187107143Y-64840554D01*
X187107143Y-64840554D02*
X187078571Y-64726268D01*
X187078571Y-64726268D02*
X187078571Y-64640554D01*
X187078571Y-64640554D02*
X187107143Y-64526268D01*
X187107143Y-64526268D02*
X187135714Y-64469125D01*
X187135714Y-64469125D02*
X187192857Y-64411982D01*
X187192857Y-64411982D02*
X187278571Y-64383411D01*
X187278571Y-64383411D02*
X187335714Y-64383411D01*
X187335714Y-64383411D02*
X187421428Y-64411982D01*
X187421428Y-64411982D02*
X187450000Y-64440554D01*
X188021428Y-64983411D02*
X187678571Y-64983411D01*
X187850000Y-64983411D02*
X187850000Y-64383411D01*
X187850000Y-64383411D02*
X187792857Y-64469125D01*
X187792857Y-64469125D02*
X187735714Y-64526268D01*
X187735714Y-64526268D02*
X187678571Y-64554840D01*
X185385714Y-72122302D02*
X185385714Y-71836588D01*
X185585714Y-72436588D02*
X185385714Y-72122302D01*
X185385714Y-72122302D02*
X185185714Y-72436588D01*
X185014285Y-72379445D02*
X184985713Y-72408017D01*
X184985713Y-72408017D02*
X184928571Y-72436588D01*
X184928571Y-72436588D02*
X184785713Y-72436588D01*
X184785713Y-72436588D02*
X184728571Y-72408017D01*
X184728571Y-72408017D02*
X184699999Y-72379445D01*
X184699999Y-72379445D02*
X184671428Y-72322302D01*
X184671428Y-72322302D02*
X184671428Y-72265160D01*
X184671428Y-72265160D02*
X184699999Y-72179445D01*
X184699999Y-72179445D02*
X185042856Y-71836588D01*
X185042856Y-71836588D02*
X184671428Y-71836588D01*
X196096268Y-80465714D02*
X196124840Y-80494286D01*
X196124840Y-80494286D02*
X196153411Y-80580000D01*
X196153411Y-80580000D02*
X196153411Y-80637143D01*
X196153411Y-80637143D02*
X196124840Y-80722857D01*
X196124840Y-80722857D02*
X196067697Y-80780000D01*
X196067697Y-80780000D02*
X196010554Y-80808571D01*
X196010554Y-80808571D02*
X195896268Y-80837143D01*
X195896268Y-80837143D02*
X195810554Y-80837143D01*
X195810554Y-80837143D02*
X195696268Y-80808571D01*
X195696268Y-80808571D02*
X195639125Y-80780000D01*
X195639125Y-80780000D02*
X195581982Y-80722857D01*
X195581982Y-80722857D02*
X195553411Y-80637143D01*
X195553411Y-80637143D02*
X195553411Y-80580000D01*
X195553411Y-80580000D02*
X195581982Y-80494286D01*
X195581982Y-80494286D02*
X195610554Y-80465714D01*
X195553411Y-80265714D02*
X195553411Y-79894286D01*
X195553411Y-79894286D02*
X195781982Y-80094286D01*
X195781982Y-80094286D02*
X195781982Y-80008571D01*
X195781982Y-80008571D02*
X195810554Y-79951429D01*
X195810554Y-79951429D02*
X195839125Y-79922857D01*
X195839125Y-79922857D02*
X195896268Y-79894286D01*
X195896268Y-79894286D02*
X196039125Y-79894286D01*
X196039125Y-79894286D02*
X196096268Y-79922857D01*
X196096268Y-79922857D02*
X196124840Y-79951429D01*
X196124840Y-79951429D02*
X196153411Y-80008571D01*
X196153411Y-80008571D02*
X196153411Y-80180000D01*
X196153411Y-80180000D02*
X196124840Y-80237143D01*
X196124840Y-80237143D02*
X196096268Y-80265714D01*
X195553411Y-79522857D02*
X195553411Y-79465714D01*
X195553411Y-79465714D02*
X195581982Y-79408571D01*
X195581982Y-79408571D02*
X195610554Y-79380000D01*
X195610554Y-79380000D02*
X195667697Y-79351428D01*
X195667697Y-79351428D02*
X195781982Y-79322857D01*
X195781982Y-79322857D02*
X195924840Y-79322857D01*
X195924840Y-79322857D02*
X196039125Y-79351428D01*
X196039125Y-79351428D02*
X196096268Y-79380000D01*
X196096268Y-79380000D02*
X196124840Y-79408571D01*
X196124840Y-79408571D02*
X196153411Y-79465714D01*
X196153411Y-79465714D02*
X196153411Y-79522857D01*
X196153411Y-79522857D02*
X196124840Y-79580000D01*
X196124840Y-79580000D02*
X196096268Y-79608571D01*
X196096268Y-79608571D02*
X196039125Y-79637142D01*
X196039125Y-79637142D02*
X195924840Y-79665714D01*
X195924840Y-79665714D02*
X195781982Y-79665714D01*
X195781982Y-79665714D02*
X195667697Y-79637142D01*
X195667697Y-79637142D02*
X195610554Y-79608571D01*
X195610554Y-79608571D02*
X195581982Y-79580000D01*
X195581982Y-79580000D02*
X195553411Y-79522857D01*
D12*
%TO.C,D2*%
X212255000Y-84025000D02*
X209985000Y-84025000D01*
X209985000Y-84025000D02*
X209985000Y-87910000D01*
X212255000Y-87910000D02*
X212255000Y-84025000D01*
%TO.C,C38*%
X200282164Y-51320000D02*
X200497836Y-51320000D01*
X200282164Y-52040000D02*
X200497836Y-52040000D01*
%TO.C,J5*%
X182795000Y-96210000D02*
X182795000Y-94880000D01*
X184125000Y-96210000D02*
X182795000Y-96210000D01*
X185395000Y-96210000D02*
X187995000Y-96210000D01*
X185395000Y-96210000D02*
X185395000Y-93550000D01*
X187995000Y-96210000D02*
X187995000Y-93550000D01*
X185395000Y-93550000D02*
X187995000Y-93550000D01*
%TO.C,R1*%
X184273641Y-64920000D02*
X183966359Y-64920000D01*
X184273641Y-64160000D02*
X183966359Y-64160000D01*
%TO.C,R5*%
X204976359Y-90550000D02*
X205283641Y-90550000D01*
X204976359Y-91310000D02*
X205283641Y-91310000D01*
%TO.C,C8*%
X201980000Y-88897836D02*
X201980000Y-88682164D01*
X202700000Y-88897836D02*
X202700000Y-88682164D01*
%TO.C,C10*%
X194880000Y-57932164D02*
X194880000Y-58147836D01*
X194160000Y-57932164D02*
X194160000Y-58147836D01*
%TO.C,C7*%
X203370000Y-88897836D02*
X203370000Y-88682164D01*
X204090000Y-88897836D02*
X204090000Y-88682164D01*
%TO.C,C18*%
X203842164Y-67090000D02*
X204057836Y-67090000D01*
X203842164Y-67810000D02*
X204057836Y-67810000D01*
%TO.C,C21*%
X210052164Y-63500000D02*
X210267836Y-63500000D01*
X210052164Y-64220000D02*
X210267836Y-64220000D01*
%TO.C,R9*%
X208850000Y-85276359D02*
X208850000Y-85583641D01*
X208090000Y-85276359D02*
X208090000Y-85583641D01*
%TO.C,C31*%
X194030000Y-80022164D02*
X194030000Y-80237836D01*
X193310000Y-80022164D02*
X193310000Y-80237836D01*
%TO.C,C32*%
X191067836Y-74270000D02*
X190852164Y-74270000D01*
X191067836Y-73550000D02*
X190852164Y-73550000D01*
%TO.C,R7*%
X204976359Y-92760000D02*
X205283641Y-92760000D01*
X204976359Y-93520000D02*
X205283641Y-93520000D01*
%TO.C,J7*%
X219670000Y-65940000D02*
X221000000Y-65940000D01*
X219670000Y-67270000D02*
X219670000Y-65940000D01*
X219670000Y-68540000D02*
X219670000Y-94000000D01*
X219670000Y-68540000D02*
X222330000Y-68540000D01*
X219670000Y-94000000D02*
X222330000Y-94000000D01*
X222330000Y-68540000D02*
X222330000Y-94000000D01*
%TO.C,R2*%
X193250000Y-77866359D02*
X193250000Y-78173641D01*
X192490000Y-77866359D02*
X192490000Y-78173641D01*
%TO.C,J4*%
X216505000Y-77685000D02*
X215175000Y-77685000D01*
X216505000Y-76355000D02*
X216505000Y-77685000D01*
X216505000Y-75085000D02*
X216505000Y-69945000D01*
X216505000Y-75085000D02*
X213905000Y-75085000D01*
X216505000Y-69945000D02*
X211305000Y-69945000D01*
X213905000Y-77685000D02*
X211305000Y-77685000D01*
X213905000Y-75085000D02*
X213905000Y-77685000D01*
X211305000Y-77685000D02*
X211305000Y-69945000D01*
%TO.C,C9*%
X204047836Y-66560000D02*
X203832164Y-66560000D01*
X204047836Y-65840000D02*
X203832164Y-65840000D01*
%TO.C,D1*%
X213375000Y-88595000D02*
X215645000Y-88595000D01*
X215645000Y-88595000D02*
X215645000Y-84710000D01*
X213375000Y-84710000D02*
X213375000Y-88595000D01*
%TO.C,J3*%
X207520000Y-95970000D02*
X207520000Y-94640000D01*
X208850000Y-95970000D02*
X207520000Y-95970000D01*
X210120000Y-95970000D02*
X217800000Y-95970000D01*
X210120000Y-95970000D02*
X210120000Y-93310000D01*
X217800000Y-95970000D02*
X217800000Y-93310000D01*
X210120000Y-93310000D02*
X217800000Y-93310000D01*
%TO.C,C15*%
X202157836Y-58970000D02*
X201942164Y-58970000D01*
X202157836Y-58250000D02*
X201942164Y-58250000D01*
%TO.C,G\u002A\u002A\u002A*%
G36*
X180482032Y-49589151D02*
G01*
X180491235Y-49599608D01*
X180498736Y-49623200D01*
X180504756Y-49664499D01*
X180509515Y-49728076D01*
X180513234Y-49818501D01*
X180516134Y-49940344D01*
X180518436Y-50098177D01*
X180520360Y-50296569D01*
X180522128Y-50540092D01*
X180522921Y-50663916D01*
X180529671Y-51743804D01*
X181098430Y-51743804D01*
X181667189Y-51743804D01*
X181667189Y-52028325D01*
X181667189Y-52312846D01*
X180736028Y-52312846D01*
X179804867Y-52312846D01*
X179804867Y-50954903D01*
X179804867Y-49596960D01*
X180115254Y-49593727D01*
X180240559Y-49592200D01*
X180349747Y-49590458D01*
X180430782Y-49588720D01*
X180470906Y-49587261D01*
X180482032Y-49589151D01*
G37*
G36*
X182367978Y-52624454D02*
G01*
X182602049Y-52715293D01*
X182859714Y-52766561D01*
X183130746Y-52777831D01*
X183404919Y-52748678D01*
X183671771Y-52678758D01*
X183904562Y-52597749D01*
X183949826Y-52652155D01*
X183983329Y-52698432D01*
X183995091Y-52724805D01*
X183972113Y-52748331D01*
X183910337Y-52782322D01*
X183820497Y-52822325D01*
X183713330Y-52863890D01*
X183599570Y-52902563D01*
X183492307Y-52933299D01*
X183356905Y-52959331D01*
X183201274Y-52976400D01*
X183044035Y-52983532D01*
X182903809Y-52979752D01*
X182818207Y-52968598D01*
X182685073Y-52936645D01*
X182548421Y-52896515D01*
X182417421Y-52851780D01*
X182301242Y-52806011D01*
X182209054Y-52762782D01*
X182150024Y-52725665D01*
X182132769Y-52701542D01*
X182145931Y-52660697D01*
X182173987Y-52610239D01*
X182215204Y-52547334D01*
X182367978Y-52624454D01*
G37*
G36*
X183038026Y-49626420D02*
G01*
X183095499Y-49628348D01*
X183237755Y-49634941D01*
X183345750Y-49644638D01*
X183436958Y-49660763D01*
X183528847Y-49686637D01*
X183638890Y-49725584D01*
X183671771Y-49737937D01*
X183804178Y-49788597D01*
X183894453Y-49826308D01*
X183948973Y-49856106D01*
X183974109Y-49883027D01*
X183976235Y-49912106D01*
X183961727Y-49948380D01*
X183954947Y-49961680D01*
X183931040Y-50005508D01*
X183908263Y-50025840D01*
X183873668Y-50022973D01*
X183814302Y-49997206D01*
X183752338Y-49966335D01*
X183502763Y-49869584D01*
X183234721Y-49817347D01*
X182956805Y-49810050D01*
X182677610Y-49848119D01*
X182481955Y-49903394D01*
X182378704Y-49939164D01*
X182293576Y-49968395D01*
X182238631Y-49986959D01*
X182225679Y-49991117D01*
X182198084Y-49975888D01*
X182163142Y-49929744D01*
X182161015Y-49926097D01*
X182140499Y-49885675D01*
X182138087Y-49855394D01*
X182160649Y-49829080D01*
X182215054Y-49800560D01*
X182308172Y-49763662D01*
X182365560Y-49742300D01*
X182516996Y-49689009D01*
X182641909Y-49653593D01*
X182758351Y-49633235D01*
X182884372Y-49625117D01*
X183038026Y-49626420D01*
G37*
G36*
X183588288Y-48391026D02*
G01*
X184003999Y-48485271D01*
X184253747Y-48566419D01*
X184330082Y-48597423D01*
X184424741Y-48640723D01*
X184526978Y-48690752D01*
X184626044Y-48741944D01*
X184711193Y-48788733D01*
X184771675Y-48825553D01*
X184796745Y-48846838D01*
X184796899Y-48847710D01*
X184781221Y-48876653D01*
X184739233Y-48934434D01*
X184678567Y-49010855D01*
X184641731Y-49055098D01*
X184620483Y-49075285D01*
X184594600Y-49081086D01*
X184553695Y-49069778D01*
X184487379Y-49038637D01*
X184396008Y-48990668D01*
X184077803Y-48845740D01*
X183747305Y-48744975D01*
X183398091Y-48686988D01*
X183023738Y-48670396D01*
X182921670Y-48672685D01*
X182553733Y-48703952D01*
X182217732Y-48771662D01*
X181907369Y-48877408D01*
X181679536Y-48987045D01*
X181585547Y-49033958D01*
X181526839Y-49051699D01*
X181498477Y-49043572D01*
X181468133Y-49006132D01*
X181421851Y-48945991D01*
X181402702Y-48920524D01*
X181332207Y-48826110D01*
X181402702Y-48778792D01*
X181515060Y-48713438D01*
X181662271Y-48642614D01*
X181828979Y-48573317D01*
X181951710Y-48528554D01*
X182355339Y-48416970D01*
X182763170Y-48356862D01*
X183174415Y-48348218D01*
X183588288Y-48391026D01*
G37*
G36*
X182046091Y-53106542D02*
G01*
X182211776Y-53180226D01*
X182350043Y-53233884D01*
X182478232Y-53273429D01*
X182613683Y-53304777D01*
X182645890Y-53311105D01*
X182962301Y-53346657D01*
X183290199Y-53336419D01*
X183619748Y-53281736D01*
X183941111Y-53183949D01*
X184114161Y-53110706D01*
X184233979Y-53054385D01*
X184308527Y-53139768D01*
X184353934Y-53195102D01*
X184380312Y-53233688D01*
X184383013Y-53241046D01*
X184361296Y-53261132D01*
X184304376Y-53295532D01*
X184224480Y-53337901D01*
X184133831Y-53381892D01*
X184044655Y-53421161D01*
X184008024Y-53435691D01*
X183783814Y-53509930D01*
X183563135Y-53558922D01*
X183326385Y-53586258D01*
X183141527Y-53594411D01*
X183006713Y-53596278D01*
X182885785Y-53596100D01*
X182790632Y-53594022D01*
X182733142Y-53590192D01*
X182727678Y-53589321D01*
X182623525Y-53566615D01*
X182496709Y-53535369D01*
X182365546Y-53500459D01*
X182248351Y-53466758D01*
X182163573Y-53439191D01*
X182055277Y-53395589D01*
X181948993Y-53346039D01*
X181855289Y-53296294D01*
X181784732Y-53252106D01*
X181747889Y-53219228D01*
X181744914Y-53211303D01*
X181760094Y-53171580D01*
X181797403Y-53114281D01*
X181806963Y-53101951D01*
X181868884Y-53024559D01*
X182046091Y-53106542D01*
G37*
G36*
X183219217Y-48999812D02*
G01*
X183383027Y-49012966D01*
X183464847Y-49025821D01*
X183798642Y-49115496D01*
X184147815Y-49252836D01*
X184171131Y-49263461D01*
X184272542Y-49311481D01*
X184333716Y-49345434D01*
X184362176Y-49371124D01*
X184365446Y-49394355D01*
X184359092Y-49408432D01*
X184325522Y-49458124D01*
X184282957Y-49511800D01*
X184244540Y-49553879D01*
X184223735Y-49568894D01*
X184198096Y-49557432D01*
X184136955Y-49528638D01*
X184051365Y-49487737D01*
X184008024Y-49466874D01*
X183852793Y-49396858D01*
X183710717Y-49345408D01*
X183568756Y-49309968D01*
X183413875Y-49287981D01*
X183233034Y-49276889D01*
X183025132Y-49274116D01*
X182810040Y-49277644D01*
X182632850Y-49289408D01*
X182480040Y-49312000D01*
X182338091Y-49348011D01*
X182193481Y-49400033D01*
X182055942Y-49459892D01*
X181862719Y-49548747D01*
X181791516Y-49462925D01*
X181747640Y-49406735D01*
X181722154Y-49367711D01*
X181719616Y-49360679D01*
X181742068Y-49331145D01*
X181805521Y-49291146D01*
X181901183Y-49244242D01*
X182020262Y-49193997D01*
X182153967Y-49143973D01*
X182293506Y-49097730D01*
X182430087Y-49058832D01*
X182513145Y-49039168D01*
X182662317Y-49016024D01*
X182841376Y-49001587D01*
X183032838Y-48996101D01*
X183219217Y-48999812D01*
G37*
G36*
X181529241Y-53513617D02*
G01*
X181590848Y-53543294D01*
X181678969Y-53586914D01*
X181764670Y-53629999D01*
X182101586Y-53772057D01*
X182457333Y-53869133D01*
X182825127Y-53921189D01*
X183198184Y-53928186D01*
X183569723Y-53890087D01*
X183932958Y-53806854D01*
X184281108Y-53678449D01*
X184354400Y-53644425D01*
X184454852Y-53596779D01*
X184535928Y-53559879D01*
X184587791Y-53538106D01*
X184601600Y-53534341D01*
X184618446Y-53557081D01*
X184657008Y-53607694D01*
X184688473Y-53648646D01*
X184735172Y-53713301D01*
X184764862Y-53762196D01*
X184770526Y-53777974D01*
X184748440Y-53797562D01*
X184689056Y-53833463D01*
X184601989Y-53880187D01*
X184518336Y-53921928D01*
X184158390Y-54069264D01*
X183779431Y-54174100D01*
X183390205Y-54235313D01*
X182999459Y-54251782D01*
X182615941Y-54222383D01*
X182428812Y-54189963D01*
X182283116Y-54156186D01*
X182127912Y-54114539D01*
X181986945Y-54071610D01*
X181924433Y-54049970D01*
X181807236Y-54003574D01*
X181684387Y-53949661D01*
X181566325Y-53893439D01*
X181463491Y-53840117D01*
X181386324Y-53794903D01*
X181345264Y-53763005D01*
X181342986Y-53759890D01*
X181349893Y-53730526D01*
X181378001Y-53675275D01*
X181417567Y-53609707D01*
X181458850Y-53549390D01*
X181492107Y-53509895D01*
X181503933Y-53502663D01*
X181529241Y-53513617D01*
G37*
G36*
X183275784Y-50238387D02*
G01*
X183496136Y-50290594D01*
X183697724Y-50378194D01*
X183861400Y-50492675D01*
X184004629Y-50640601D01*
X184106117Y-50800769D01*
X184169590Y-50982051D01*
X184198773Y-51193319D01*
X184201709Y-51303057D01*
X184183713Y-51542028D01*
X184129211Y-51747482D01*
X184036217Y-51924434D01*
X183902743Y-52077898D01*
X183890060Y-52089487D01*
X183700245Y-52225895D01*
X183482396Y-52320916D01*
X183240892Y-52373478D01*
X182980112Y-52382512D01*
X182779409Y-52360895D01*
X182602201Y-52312796D01*
X182421170Y-52231199D01*
X182259001Y-52127032D01*
X182210366Y-52086791D01*
X182079088Y-51936351D01*
X181983720Y-51757406D01*
X181924184Y-51558612D01*
X181900403Y-51348627D01*
X181901772Y-51324177D01*
X182546619Y-51324177D01*
X182565504Y-51510060D01*
X182620708Y-51662657D01*
X182710055Y-51779459D01*
X182831368Y-51857959D01*
X182982471Y-51895651D01*
X183045362Y-51898752D01*
X183144930Y-51892597D01*
X183236949Y-51876571D01*
X183278152Y-51863532D01*
X183397087Y-51788398D01*
X183483007Y-51677390D01*
X183536865Y-51528561D01*
X183559612Y-51339965D01*
X183560549Y-51286373D01*
X183547361Y-51102658D01*
X183506009Y-50957563D01*
X183433810Y-50844685D01*
X183342979Y-50767152D01*
X183208989Y-50706774D01*
X183058032Y-50684473D01*
X182908520Y-50701513D01*
X182826114Y-50731658D01*
X182708909Y-50811023D01*
X182624870Y-50920690D01*
X182572017Y-51064860D01*
X182548366Y-51247735D01*
X182546619Y-51324177D01*
X181901772Y-51324177D01*
X181912299Y-51136107D01*
X181959796Y-50929708D01*
X182042814Y-50738089D01*
X182161277Y-50569904D01*
X182224531Y-50505630D01*
X182396431Y-50381994D01*
X182596991Y-50293377D01*
X182816726Y-50239853D01*
X183046152Y-50221498D01*
X183275784Y-50238387D01*
G37*
G36*
X185521160Y-49596249D02*
G01*
X185777857Y-49597273D01*
X185988980Y-49599450D01*
X186160682Y-49603358D01*
X186299117Y-49609574D01*
X186410440Y-49618677D01*
X186500804Y-49631245D01*
X186576363Y-49647856D01*
X186643270Y-49669088D01*
X186707680Y-49695518D01*
X186740741Y-49710802D01*
X186889494Y-49809180D01*
X187006544Y-49946315D01*
X187089792Y-50118543D01*
X187137141Y-50322198D01*
X187145957Y-50418815D01*
X187148690Y-50553440D01*
X187139136Y-50655225D01*
X187115504Y-50741983D01*
X187112734Y-50749378D01*
X187046649Y-50869451D01*
X186947069Y-50988146D01*
X186829655Y-51089739D01*
X186710070Y-51158506D01*
X186702129Y-51161643D01*
X186624884Y-51196652D01*
X186590962Y-51228260D01*
X186589205Y-51252590D01*
X186605591Y-51286608D01*
X186645134Y-51357625D01*
X186703759Y-51458659D01*
X186777390Y-51582728D01*
X186861952Y-51722849D01*
X186901499Y-51787668D01*
X186988615Y-51930706D01*
X187065835Y-52058876D01*
X187129296Y-52165653D01*
X187175136Y-52244514D01*
X187199494Y-52288934D01*
X187202423Y-52296057D01*
X187178024Y-52301809D01*
X187110689Y-52306712D01*
X187009210Y-52310398D01*
X186882380Y-52312499D01*
X186801268Y-52312846D01*
X186400112Y-52312846D01*
X186316288Y-52178175D01*
X186257261Y-52081948D01*
X186185936Y-51963556D01*
X186108710Y-51833856D01*
X186031979Y-51703706D01*
X185962141Y-51583963D01*
X185905593Y-51485484D01*
X185868732Y-51419125D01*
X185866031Y-51414017D01*
X185821966Y-51329954D01*
X185593967Y-51329954D01*
X185365967Y-51329954D01*
X185365967Y-51821400D01*
X185365967Y-52312846D01*
X185003620Y-52312846D01*
X184641273Y-52312846D01*
X184647968Y-50953563D01*
X184652252Y-50083861D01*
X185365967Y-50083861D01*
X185365967Y-50448252D01*
X185365967Y-50812643D01*
X185795336Y-50812643D01*
X186224704Y-50812643D01*
X186310607Y-50726740D01*
X186389908Y-50615453D01*
X186420339Y-50488370D01*
X186402185Y-50344161D01*
X186396613Y-50325182D01*
X186368583Y-50251108D01*
X186331870Y-50195127D01*
X186279262Y-50154549D01*
X186203547Y-50126682D01*
X186097515Y-50108835D01*
X185953953Y-50098317D01*
X185773350Y-50092600D01*
X185365967Y-50083861D01*
X184652252Y-50083861D01*
X184654663Y-49594279D01*
X185521160Y-49596249D01*
G37*
G36*
X188798942Y-50248667D02*
G01*
X188851486Y-50258717D01*
X189005263Y-50295887D01*
X189121318Y-50338227D01*
X189213653Y-50391851D01*
X189277445Y-50444721D01*
X189315815Y-50484678D01*
X189346985Y-50529302D01*
X189371760Y-50584258D01*
X189390948Y-50655211D01*
X189405358Y-50747827D01*
X189415796Y-50867772D01*
X189423070Y-51020710D01*
X189427987Y-51212306D01*
X189431356Y-51448227D01*
X189432204Y-51530429D01*
X189439796Y-52312880D01*
X189163267Y-52312863D01*
X189048796Y-52310780D01*
X188954544Y-52305159D01*
X188891853Y-52296918D01*
X188872181Y-52289291D01*
X188859053Y-52247272D01*
X188852080Y-52198762D01*
X188845794Y-52149024D01*
X188840002Y-52131787D01*
X188817004Y-52145225D01*
X188765084Y-52179686D01*
X188722782Y-52208768D01*
X188580484Y-52282803D01*
X188407814Y-52334241D01*
X188222250Y-52360142D01*
X188041271Y-52357565D01*
X187939592Y-52340512D01*
X187784994Y-52283151D01*
X187648297Y-52194495D01*
X187541317Y-52083866D01*
X187482833Y-51980187D01*
X187462624Y-51887586D01*
X187457099Y-51767961D01*
X187462092Y-51693402D01*
X188066149Y-51693402D01*
X188069358Y-51771661D01*
X188108640Y-51839233D01*
X188185051Y-51888865D01*
X188286259Y-51917782D01*
X188399934Y-51923209D01*
X188513747Y-51902369D01*
X188563433Y-51882875D01*
X188640005Y-51832369D01*
X188703974Y-51767715D01*
X188706166Y-51764699D01*
X188736523Y-51701749D01*
X188762532Y-51612949D01*
X188781119Y-51515635D01*
X188789209Y-51427145D01*
X188783729Y-51364813D01*
X188779018Y-51353869D01*
X188748973Y-51349725D01*
X188681892Y-51359874D01*
X188589394Y-51381030D01*
X188483094Y-51409908D01*
X188374610Y-51443220D01*
X188275560Y-51477683D01*
X188197561Y-51510009D01*
X188164762Y-51527605D01*
X188098455Y-51598078D01*
X188066149Y-51693402D01*
X187462092Y-51693402D01*
X187465425Y-51643637D01*
X187486773Y-51536939D01*
X187500714Y-51499970D01*
X187580467Y-51375535D01*
X187694313Y-51270164D01*
X187845604Y-51182259D01*
X188037690Y-51110221D01*
X188273923Y-51052454D01*
X188525139Y-51011599D01*
X188767291Y-50979274D01*
X188775010Y-50847090D01*
X188776367Y-50764621D01*
X188763887Y-50713764D01*
X188731098Y-50674929D01*
X188713324Y-50660312D01*
X188621840Y-50616883D01*
X188507436Y-50601602D01*
X188390296Y-50614016D01*
X188290606Y-50653672D01*
X188267720Y-50670306D01*
X188212365Y-50729978D01*
X188177085Y-50791775D01*
X188174713Y-50799634D01*
X188166356Y-50826928D01*
X188151492Y-50845217D01*
X188121038Y-50856302D01*
X188065911Y-50861989D01*
X187977029Y-50864078D01*
X187848570Y-50864374D01*
X187538676Y-50864374D01*
X187538676Y-50791856D01*
X187559824Y-50683844D01*
X187616682Y-50567532D01*
X187699375Y-50459068D01*
X187791039Y-50379236D01*
X187941893Y-50303047D01*
X188128688Y-50250694D01*
X188340845Y-50223378D01*
X188567789Y-50222302D01*
X188798942Y-50248667D01*
G37*
%TO.C,C39*%
X211682164Y-91620000D02*
X211897836Y-91620000D01*
X211682164Y-92340000D02*
X211897836Y-92340000D01*
%TO.C,C13*%
X195430000Y-58112836D02*
X195430000Y-57897164D01*
X196150000Y-58112836D02*
X196150000Y-57897164D01*
%TO.C,G\u002A\u002A\u002A*%
G36*
X211825387Y-56598151D02*
G01*
X211833143Y-56605028D01*
X211868368Y-56665067D01*
X211867182Y-56725437D01*
X211834015Y-56771241D01*
X211778827Y-56787708D01*
X211715700Y-56787708D01*
X211770855Y-56846418D01*
X211804766Y-56889270D01*
X211813862Y-56931177D01*
X211801986Y-56994168D01*
X211798756Y-57006339D01*
X211765864Y-57107319D01*
X211716825Y-57233038D01*
X211659172Y-57366211D01*
X211600438Y-57489549D01*
X211548156Y-57585766D01*
X211541797Y-57596061D01*
X211508276Y-57657574D01*
X211500539Y-57692528D01*
X211507492Y-57697486D01*
X211565978Y-57677669D01*
X211643293Y-57623043D01*
X211732759Y-57540839D01*
X211827696Y-57438292D01*
X211921425Y-57322634D01*
X212007268Y-57201099D01*
X212078544Y-57080921D01*
X212080807Y-57076610D01*
X212122186Y-57000434D01*
X212153975Y-56958163D01*
X212188770Y-56939812D01*
X212239166Y-56935398D01*
X212259074Y-56935298D01*
X212322916Y-56938856D01*
X212359885Y-56947870D01*
X212363576Y-56952375D01*
X212356273Y-56979569D01*
X212336197Y-57044987D01*
X212306095Y-57140189D01*
X212268716Y-57256733D01*
X212226806Y-57386181D01*
X212183115Y-57520092D01*
X212140391Y-57650026D01*
X212101380Y-57767542D01*
X212068831Y-57864202D01*
X212045491Y-57931564D01*
X212038878Y-57949667D01*
X212008988Y-57996294D01*
X211948315Y-58067510D01*
X211863956Y-58156542D01*
X211763011Y-58256622D01*
X211652576Y-58360976D01*
X211539750Y-58462835D01*
X211431631Y-58555428D01*
X211335318Y-58631984D01*
X211287240Y-58666659D01*
X211133910Y-58754608D01*
X210997765Y-58797349D01*
X210879346Y-58794768D01*
X210811743Y-58768509D01*
X210757304Y-58720216D01*
X210714405Y-58653648D01*
X210713388Y-58651286D01*
X210690208Y-58558462D01*
X210680697Y-58432019D01*
X210684389Y-58285441D01*
X210700817Y-58132211D01*
X210729513Y-57985813D01*
X210737481Y-57955666D01*
X210779460Y-57828666D01*
X210840042Y-57675683D01*
X210912550Y-57511182D01*
X210990307Y-57349632D01*
X211066635Y-57205500D01*
X211134858Y-57093251D01*
X211136910Y-57090234D01*
X211243639Y-56948743D01*
X211356690Y-56824633D01*
X211470595Y-56721712D01*
X211579885Y-56643793D01*
X211679093Y-56594686D01*
X211762749Y-56578202D01*
X211825387Y-56598151D01*
G37*
G36*
X213370653Y-54005968D02*
G01*
X213751951Y-54061188D01*
X214127483Y-54157212D01*
X214493840Y-54294344D01*
X214847616Y-54472889D01*
X215185403Y-54693150D01*
X215503793Y-54955432D01*
X215675141Y-55123695D01*
X215948940Y-55444969D01*
X216182114Y-55792099D01*
X216373205Y-56161457D01*
X216520755Y-56549419D01*
X216623305Y-56952357D01*
X216679398Y-57366644D01*
X216690264Y-57648309D01*
X216666392Y-58067331D01*
X216596120Y-58474697D01*
X216481463Y-58867374D01*
X216324437Y-59242327D01*
X216127055Y-59596523D01*
X215891334Y-59926930D01*
X215619288Y-60230513D01*
X215312932Y-60504238D01*
X214974283Y-60745073D01*
X214605354Y-60949983D01*
X214449637Y-61021261D01*
X214128531Y-61138513D01*
X213781843Y-61226988D01*
X213423618Y-61284472D01*
X213067898Y-61308754D01*
X212728726Y-61297622D01*
X212707816Y-61295642D01*
X212291263Y-61230809D01*
X211891501Y-61121700D01*
X211511261Y-60970844D01*
X211153275Y-60780770D01*
X210820275Y-60554007D01*
X210514992Y-60293085D01*
X210240157Y-60000532D01*
X209998503Y-59678876D01*
X209792761Y-59330648D01*
X209625663Y-58958375D01*
X209499940Y-58564588D01*
X209449945Y-58331121D01*
X210306046Y-58331121D01*
X210307668Y-58349083D01*
X210349173Y-58538331D01*
X210430196Y-58709712D01*
X210545335Y-58855827D01*
X210689188Y-58969276D01*
X210800340Y-59023868D01*
X210937673Y-59063764D01*
X211059110Y-59067041D01*
X211181912Y-59033401D01*
X211220408Y-59016620D01*
X211362756Y-58933170D01*
X211515759Y-58812929D01*
X211670028Y-58664013D01*
X211798026Y-58517369D01*
X211867683Y-58431622D01*
X211911788Y-58380781D01*
X211935217Y-58361119D01*
X211942847Y-58368908D01*
X211939554Y-58400422D01*
X211937779Y-58410554D01*
X211916447Y-58534814D01*
X211904979Y-58621736D01*
X211903103Y-58682105D01*
X211910544Y-58726703D01*
X211927031Y-58766314D01*
X211928699Y-58769527D01*
X211974993Y-58839597D01*
X212035995Y-58908605D01*
X212100835Y-58966782D01*
X212158644Y-59004357D01*
X212198149Y-59011721D01*
X212238495Y-58980872D01*
X212297109Y-58916316D01*
X212367261Y-58826696D01*
X212442222Y-58720657D01*
X212515260Y-58606839D01*
X212521565Y-58596415D01*
X212609461Y-58450330D01*
X212609461Y-58598873D01*
X212613705Y-58693289D01*
X212630920Y-58761838D01*
X212667829Y-58827435D01*
X212682739Y-58848573D01*
X212733150Y-58909589D01*
X212789543Y-58965488D01*
X212841233Y-59007175D01*
X212877534Y-59025556D01*
X212887060Y-59022452D01*
X212897038Y-58996193D01*
X212918215Y-58935628D01*
X212946281Y-58853120D01*
X212950402Y-58840855D01*
X212974671Y-58776973D01*
X213013505Y-58684555D01*
X213063339Y-58571201D01*
X213120607Y-58444515D01*
X213181742Y-58312097D01*
X213243179Y-58181549D01*
X213301350Y-58060475D01*
X213352691Y-57956475D01*
X213393634Y-57877151D01*
X213420614Y-57830106D01*
X213429096Y-57820429D01*
X213426858Y-57842088D01*
X213411801Y-57900400D01*
X213386658Y-57985361D01*
X213366933Y-58047873D01*
X213329078Y-58173539D01*
X213292989Y-58307450D01*
X213264959Y-58425868D01*
X213259016Y-58455060D01*
X213242018Y-58551871D01*
X213236644Y-58615986D01*
X213243105Y-58662542D01*
X213261611Y-58706679D01*
X213262546Y-58708495D01*
X213301690Y-58758464D01*
X213365412Y-58816163D01*
X213439054Y-58870720D01*
X213507954Y-58911260D01*
X213557044Y-58926915D01*
X213581136Y-58905654D01*
X213606810Y-58852609D01*
X213613651Y-58832022D01*
X213637488Y-58767578D01*
X213677759Y-58674952D01*
X213730645Y-58561560D01*
X213792322Y-58434818D01*
X213858970Y-58302143D01*
X213926767Y-58170949D01*
X213991893Y-58048654D01*
X214050525Y-57942673D01*
X214098842Y-57860421D01*
X214133023Y-57809316D01*
X214147585Y-57795840D01*
X214144055Y-57817157D01*
X214127471Y-57873645D01*
X214101176Y-57954113D01*
X214094356Y-57974107D01*
X214051996Y-58106282D01*
X214012322Y-58246084D01*
X213978299Y-58381353D01*
X213952893Y-58499930D01*
X213939070Y-58589658D01*
X213937417Y-58617625D01*
X213957171Y-58680935D01*
X214008663Y-58754472D01*
X214079847Y-58826070D01*
X214158677Y-58883562D01*
X214231229Y-58914384D01*
X214284926Y-58920314D01*
X214330445Y-58907122D01*
X214376334Y-58868286D01*
X214431141Y-58797286D01*
X214479223Y-58725217D01*
X214570123Y-58584990D01*
X214614343Y-58683052D01*
X214677682Y-58783495D01*
X214767552Y-58874636D01*
X214872628Y-58949223D01*
X214981587Y-59000003D01*
X215083108Y-59019722D01*
X215131976Y-59014623D01*
X215205542Y-58977414D01*
X215293931Y-58903374D01*
X215391645Y-58800455D01*
X215493185Y-58676609D01*
X215593054Y-58539786D01*
X215685753Y-58397939D01*
X215765783Y-58259020D01*
X215827648Y-58130979D01*
X215865847Y-58021768D01*
X215874967Y-57940120D01*
X215869938Y-57907567D01*
X215859590Y-57897018D01*
X215837848Y-57912836D01*
X215798638Y-57959386D01*
X215737584Y-58038794D01*
X215639182Y-58159731D01*
X215529444Y-58280517D01*
X215414208Y-58396147D01*
X215299315Y-58501618D01*
X215190604Y-58591927D01*
X215093917Y-58662070D01*
X215015093Y-58707043D01*
X214959972Y-58721844D01*
X214945104Y-58717743D01*
X214927680Y-58681314D01*
X214921458Y-58607883D01*
X214925878Y-58508195D01*
X214940381Y-58392999D01*
X214964406Y-58273042D01*
X214969276Y-58253420D01*
X215009750Y-58115372D01*
X215061747Y-57968116D01*
X215121494Y-57819587D01*
X215185215Y-57677717D01*
X215249136Y-57550438D01*
X215309483Y-57445684D01*
X215362481Y-57371387D01*
X215404355Y-57335480D01*
X215406412Y-57334726D01*
X215431174Y-57345262D01*
X215440034Y-57393141D01*
X215434630Y-57469763D01*
X215416597Y-57566526D01*
X215387572Y-57674830D01*
X215349194Y-57786075D01*
X215303099Y-57891660D01*
X215298754Y-57900341D01*
X215265478Y-57967858D01*
X215253829Y-58002537D01*
X215263027Y-58015317D01*
X215290423Y-58017137D01*
X215380052Y-57995213D01*
X215477732Y-57933395D01*
X215559517Y-57854209D01*
X215650915Y-57725407D01*
X215698269Y-57593443D01*
X215707622Y-57492238D01*
X215702306Y-57421984D01*
X215680191Y-57366623D01*
X215632025Y-57306331D01*
X215610111Y-57283286D01*
X215505572Y-57187870D01*
X215401201Y-57114425D01*
X215307359Y-57069409D01*
X215249007Y-57058183D01*
X215176223Y-57081289D01*
X215095450Y-57147299D01*
X215009972Y-57251248D01*
X214923073Y-57388173D01*
X214838040Y-57553109D01*
X214758154Y-57741092D01*
X214711422Y-57870684D01*
X214597643Y-58135240D01*
X214435835Y-58395242D01*
X214328802Y-58533497D01*
X214277914Y-58594969D01*
X214294055Y-58496614D01*
X214315267Y-58401423D01*
X214351810Y-58272725D01*
X214399735Y-58122252D01*
X214455092Y-57961738D01*
X214513933Y-57802915D01*
X214572308Y-57657518D01*
X214591566Y-57612728D01*
X214698960Y-57368145D01*
X214643901Y-57309125D01*
X214585239Y-57259052D01*
X214510045Y-57210115D01*
X214493842Y-57201397D01*
X214398842Y-57152688D01*
X214325366Y-57222231D01*
X214252713Y-57302811D01*
X214165345Y-57418282D01*
X214069284Y-57558947D01*
X213970554Y-57715105D01*
X213875177Y-57877059D01*
X213789176Y-58035110D01*
X213718575Y-58179559D01*
X213690676Y-58244280D01*
X213659602Y-58316075D01*
X213635335Y-58363511D01*
X213624032Y-58376013D01*
X213623320Y-58344712D01*
X213639375Y-58275902D01*
X213669493Y-58177234D01*
X213710970Y-58056358D01*
X213761101Y-57920924D01*
X213817181Y-57778580D01*
X213876506Y-57636978D01*
X213919504Y-57540233D01*
X213996997Y-57370686D01*
X213893453Y-57278799D01*
X213807181Y-57209010D01*
X213741629Y-57176126D01*
X213686747Y-57178694D01*
X213632484Y-57215260D01*
X213609913Y-57237789D01*
X213546937Y-57314209D01*
X213468419Y-57424169D01*
X213381007Y-57557324D01*
X213291350Y-57703328D01*
X213206095Y-57851835D01*
X213158652Y-57940076D01*
X213108363Y-58033544D01*
X213077015Y-58084250D01*
X213063140Y-58094171D01*
X213065065Y-58066314D01*
X213083912Y-57995222D01*
X213117252Y-57891348D01*
X213160478Y-57767225D01*
X213208983Y-57635389D01*
X213258161Y-57508374D01*
X213303406Y-57398713D01*
X213338769Y-57321588D01*
X213369186Y-57251100D01*
X213383508Y-57196745D01*
X213381849Y-57177643D01*
X213345751Y-57147787D01*
X213280410Y-57113278D01*
X213204121Y-57082055D01*
X213135181Y-57062057D01*
X213107794Y-57058723D01*
X213070636Y-57071111D01*
X213032132Y-57111668D01*
X212990314Y-57184386D01*
X212943212Y-57293256D01*
X212888856Y-57442271D01*
X212829002Y-57623720D01*
X212784346Y-57755092D01*
X212737130Y-57879517D01*
X212692466Y-57984382D01*
X212655465Y-58057073D01*
X212649651Y-58066314D01*
X212582101Y-58164357D01*
X212509318Y-58263923D01*
X212437106Y-58357823D01*
X212371268Y-58438870D01*
X212317607Y-58499874D01*
X212281928Y-58533648D01*
X212270245Y-58536274D01*
X212273463Y-58500872D01*
X212290545Y-58425879D01*
X212319326Y-58318195D01*
X212357643Y-58184720D01*
X212403331Y-58032355D01*
X212454225Y-57868001D01*
X212508162Y-57698557D01*
X212562977Y-57530924D01*
X212616506Y-57372002D01*
X212666584Y-57228693D01*
X212711048Y-57107895D01*
X212744653Y-57023712D01*
X212785363Y-56927769D01*
X213183037Y-56944274D01*
X213321908Y-56950783D01*
X213446799Y-56958026D01*
X213547944Y-56965328D01*
X213615578Y-56972019D01*
X213636034Y-56975466D01*
X213679401Y-56972824D01*
X213691535Y-56936979D01*
X213672151Y-56872946D01*
X213644788Y-56822287D01*
X213620015Y-56785654D01*
X213592269Y-56762218D01*
X213549837Y-56747909D01*
X213481009Y-56738656D01*
X213382017Y-56730946D01*
X213261473Y-56725484D01*
X213139013Y-56724900D01*
X213037833Y-56729215D01*
X213022784Y-56730606D01*
X212936286Y-56736417D01*
X212891024Y-56726622D01*
X212883333Y-56694355D01*
X212909549Y-56632747D01*
X212940959Y-56577253D01*
X213001982Y-56473125D01*
X212939226Y-56432006D01*
X212854929Y-56385736D01*
X212768973Y-56352927D01*
X212695334Y-56337667D01*
X212647990Y-56344045D01*
X212645256Y-56346017D01*
X212621215Y-56379675D01*
X212585163Y-56445958D01*
X212543931Y-56532067D01*
X212533632Y-56555153D01*
X212489489Y-56649761D01*
X212455330Y-56706253D01*
X212425029Y-56732976D01*
X212399088Y-56738531D01*
X212334453Y-56743448D01*
X212271035Y-56753351D01*
X212220762Y-56758474D01*
X212192323Y-56739536D01*
X212169508Y-56685035D01*
X212167892Y-56680165D01*
X212123625Y-56600824D01*
X212046032Y-56513458D01*
X211947043Y-56429280D01*
X211838588Y-56359507D01*
X211812709Y-56346264D01*
X211665564Y-56300893D01*
X211512545Y-56303291D01*
X211355403Y-56352642D01*
X211195896Y-56448133D01*
X211035776Y-56588951D01*
X210876800Y-56774281D01*
X210869744Y-56783597D01*
X210727276Y-56993547D01*
X210600236Y-57221741D01*
X210491755Y-57459458D01*
X210404963Y-57697977D01*
X210342994Y-57928574D01*
X210308978Y-58142530D01*
X210306046Y-58331121D01*
X209449945Y-58331121D01*
X209436155Y-58266727D01*
X209389736Y-57853119D01*
X209390719Y-57438269D01*
X209438084Y-57027022D01*
X209530815Y-56624219D01*
X209667892Y-56234704D01*
X209848299Y-55863320D01*
X209990216Y-55631079D01*
X210241756Y-55294986D01*
X210521606Y-54996656D01*
X210826358Y-54736393D01*
X211152605Y-54514500D01*
X211496939Y-54331283D01*
X211855954Y-54187045D01*
X212226240Y-54082090D01*
X212604390Y-54016723D01*
X212986997Y-53991247D01*
X213370653Y-54005968D01*
G37*
%TO.C,C3*%
X191882164Y-60390000D02*
X192097836Y-60390000D01*
X191882164Y-61110000D02*
X192097836Y-61110000D01*
%TO.C,C36*%
X184037836Y-75980000D02*
X183822164Y-75980000D01*
X184037836Y-75260000D02*
X183822164Y-75260000D01*
%TO.C,R4*%
X212995000Y-79588641D02*
X212995000Y-79281359D01*
X213755000Y-79588641D02*
X213755000Y-79281359D01*
%TO.C,C33*%
X177440000Y-82797836D02*
X177440000Y-82582164D01*
X178160000Y-82797836D02*
X178160000Y-82582164D01*
D13*
%TO.C,U2*%
X194950000Y-60130000D02*
X194950000Y-60750000D01*
X194950000Y-60130000D02*
X195570000Y-60130000D01*
X194950000Y-66230000D02*
X194950000Y-65610000D01*
X194950000Y-66230000D02*
X195570000Y-66230000D01*
X201050000Y-60130000D02*
X200430000Y-60130000D01*
X201050000Y-60130000D02*
X201050000Y-60750000D01*
X201050000Y-66230000D02*
X200430000Y-66230000D01*
X201050000Y-66230000D02*
X201050000Y-65610000D01*
D14*
X194105000Y-61230000D02*
G75*
G03*
X194105000Y-61230000I-100000J0D01*
G01*
D12*
%TO.C,R13*%
X214526359Y-66140000D02*
X214833641Y-66140000D01*
X214526359Y-66900000D02*
X214833641Y-66900000D01*
%TO.C,C40*%
X181620000Y-86387836D02*
X181620000Y-86172164D01*
X182340000Y-86387836D02*
X182340000Y-86172164D01*
D13*
%TO.C,J1*%
X194250000Y-94035000D02*
X194250000Y-94385000D01*
X194250000Y-96735000D02*
X194250000Y-97010000D01*
X194250000Y-97010000D02*
X201750000Y-97010000D01*
X196170000Y-92660000D02*
X196280000Y-92660000D01*
X199720000Y-92660000D02*
X199830000Y-92660000D01*
X201750000Y-94035000D02*
X201750000Y-94385000D01*
X201750000Y-97010000D02*
X201750000Y-96735000D01*
D15*
X196700000Y-91585000D02*
G75*
G03*
X196700000Y-91585000I-100000J0D01*
G01*
D12*
%TO.C,R3*%
X214995000Y-79281359D02*
X214995000Y-79588641D01*
X214235000Y-79281359D02*
X214235000Y-79588641D01*
%TO.C,C19*%
X190987836Y-71250000D02*
X190772164Y-71250000D01*
X190987836Y-70530000D02*
X190772164Y-70530000D01*
%TO.C,C14*%
X196490000Y-58132836D02*
X196490000Y-57917164D01*
X197210000Y-58132836D02*
X197210000Y-57917164D01*
%TO.C,C20*%
X205190000Y-75082164D02*
X205190000Y-75297836D01*
X204470000Y-75082164D02*
X204470000Y-75297836D01*
%TO.C,R10*%
X185623641Y-92680000D02*
X185316359Y-92680000D01*
X185623641Y-91920000D02*
X185316359Y-91920000D01*
%TO.C,J6*%
X173670000Y-65940000D02*
X175000000Y-65940000D01*
X173670000Y-67270000D02*
X173670000Y-65940000D01*
X173670000Y-68540000D02*
X173670000Y-94000000D01*
X173670000Y-68540000D02*
X176330000Y-68540000D01*
X173670000Y-94000000D02*
X176330000Y-94000000D01*
X176330000Y-68540000D02*
X176330000Y-94000000D01*
%TO.C,C4*%
X191882164Y-62560000D02*
X192097836Y-62560000D01*
X191882164Y-63280000D02*
X192097836Y-63280000D01*
D16*
%TO.C,Y1*%
X179570000Y-78100000D02*
X191070000Y-78100000D01*
X179570000Y-82600000D02*
X179570000Y-78100000D01*
X191070000Y-78100000D02*
X191070000Y-82600000D01*
X191070000Y-82600000D02*
X179570000Y-82600000D01*
D13*
%TO.C,U4*%
X188005000Y-85825000D02*
X188005000Y-89725000D01*
X182955000Y-85825000D02*
X182955000Y-89725000D01*
D14*
X187885000Y-83735000D02*
G75*
G03*
X187885000Y-83735000I-100000J0D01*
G01*
D17*
%TO.C,XTAL1*%
X191396600Y-67986500D02*
G75*
G03*
X191396600Y-67986500I-101600J0D01*
G01*
D12*
%TO.C,C12*%
X191882164Y-61475000D02*
X192097836Y-61475000D01*
X191882164Y-62195000D02*
X192097836Y-62195000D01*
%TO.C,C37*%
X186760000Y-60822164D02*
X186760000Y-61037836D01*
X186040000Y-60822164D02*
X186040000Y-61037836D01*
%TO.C,C17*%
X200302164Y-54330000D02*
X200517836Y-54330000D01*
X200302164Y-55050000D02*
X200517836Y-55050000D01*
%TO.C,R8*%
X217300000Y-85276359D02*
X217300000Y-85583641D01*
X216540000Y-85276359D02*
X216540000Y-85583641D01*
D13*
%TO.C,J2*%
X198640000Y-47500000D02*
X201240000Y-47500000D01*
X198640000Y-50100000D02*
X199270000Y-50100000D01*
X201240000Y-50100000D02*
X200610000Y-50100000D01*
%TO.C,G\u002A\u002A\u002A*%
G36*
X212184845Y-49972203D02*
G01*
X212510078Y-50084378D01*
X212827580Y-50222585D01*
X213136642Y-50386415D01*
X213436556Y-50575464D01*
X213726615Y-50789322D01*
X213983371Y-51006923D01*
X214045465Y-51064270D01*
X214108104Y-51124288D01*
X214164637Y-51180469D01*
X214208412Y-51226308D01*
X214214359Y-51232887D01*
X214294421Y-51322514D01*
X214217390Y-51423086D01*
X214147921Y-51507918D01*
X214076990Y-51580930D01*
X213995673Y-51650771D01*
X213933913Y-51697909D01*
X213783925Y-51791968D01*
X213619708Y-51865054D01*
X213445771Y-51916127D01*
X213266624Y-51944144D01*
X213086776Y-51948065D01*
X212928367Y-51930188D01*
X212741031Y-51883280D01*
X212567469Y-51812820D01*
X212406728Y-51718309D01*
X212257852Y-51599245D01*
X212211502Y-51554820D01*
X212085460Y-51410249D01*
X211983133Y-51253493D01*
X211904940Y-51086706D01*
X211851300Y-50912042D01*
X211822630Y-50731654D01*
X211819349Y-50547697D01*
X211841876Y-50362323D01*
X211890629Y-50177687D01*
X211925813Y-50084293D01*
X211949182Y-50031515D01*
X211972034Y-49985520D01*
X211990104Y-49954777D01*
X211992873Y-49951075D01*
X212016750Y-49921588D01*
X212184845Y-49972203D01*
G37*
G36*
X213247388Y-49279684D02*
G01*
X213332734Y-49285201D01*
X213406377Y-49295760D01*
X213436721Y-49302086D01*
X213619941Y-49357365D01*
X213790325Y-49435768D01*
X213946215Y-49535454D01*
X214085953Y-49654579D01*
X214207882Y-49791300D01*
X214310343Y-49943774D01*
X214391679Y-50110160D01*
X214450232Y-50288612D01*
X214482944Y-50465099D01*
X214489324Y-50537171D01*
X214492383Y-50612401D01*
X214491712Y-50678081D01*
X214490418Y-50697625D01*
X214484014Y-50754183D01*
X214474881Y-50815982D01*
X214464156Y-50877266D01*
X214452974Y-50932278D01*
X214442473Y-50975261D01*
X214433789Y-51000460D01*
X214429815Y-51004627D01*
X214417399Y-50994688D01*
X214389979Y-50969255D01*
X214351757Y-50932311D01*
X214312111Y-50893030D01*
X214079751Y-50677302D01*
X213825890Y-50472788D01*
X213554828Y-50282127D01*
X213270863Y-50107958D01*
X212978294Y-49952918D01*
X212681421Y-49819647D01*
X212387001Y-49711579D01*
X212325683Y-49690930D01*
X212275145Y-49672529D01*
X212240375Y-49658292D01*
X212226360Y-49650136D01*
X212226284Y-49649823D01*
X212237199Y-49633903D01*
X212266984Y-49607237D01*
X212311005Y-49573079D01*
X212364632Y-49534684D01*
X212423231Y-49495306D01*
X212482170Y-49458199D01*
X212536818Y-49426618D01*
X212564426Y-49412261D01*
X212704377Y-49351691D01*
X212841378Y-49310604D01*
X212984380Y-49286929D01*
X213142334Y-49278598D01*
X213142644Y-49278595D01*
X213247388Y-49279684D01*
G37*
G36*
X216671562Y-50610000D02*
G01*
X216671562Y-52825832D01*
X213170000Y-52825832D01*
X209668439Y-52825832D01*
X209668439Y-50611368D01*
X210359176Y-50611368D01*
X210370013Y-50621257D01*
X210401451Y-50645934D01*
X210451880Y-50684232D01*
X210519690Y-50734982D01*
X210603273Y-50797019D01*
X210701017Y-50869174D01*
X210811315Y-50950280D01*
X210932556Y-51039170D01*
X211063131Y-51134676D01*
X211201430Y-51235631D01*
X211345843Y-51340868D01*
X211494761Y-51449219D01*
X211646575Y-51559516D01*
X211799674Y-51670593D01*
X211952450Y-51781282D01*
X212103292Y-51890416D01*
X212250591Y-51996827D01*
X212392737Y-52099348D01*
X212528122Y-52196812D01*
X212655135Y-52288050D01*
X212772166Y-52371897D01*
X212877607Y-52447184D01*
X212969847Y-52512744D01*
X213047277Y-52567409D01*
X213108287Y-52610013D01*
X213151268Y-52639388D01*
X213174610Y-52654366D01*
X213178438Y-52656085D01*
X213191208Y-52647464D01*
X213224764Y-52623718D01*
X213277768Y-52585812D01*
X213348884Y-52534712D01*
X213436775Y-52471385D01*
X213540104Y-52396796D01*
X213657534Y-52311913D01*
X213787730Y-52217702D01*
X213929353Y-52115128D01*
X214081067Y-52005158D01*
X214241535Y-51888758D01*
X214409422Y-51766895D01*
X214583389Y-51640535D01*
X214591138Y-51634905D01*
X214765054Y-51508432D01*
X214932673Y-51386333D01*
X215092679Y-51269576D01*
X215243759Y-51159129D01*
X215384595Y-51055961D01*
X215513873Y-50961041D01*
X215630277Y-50875338D01*
X215732492Y-50799819D01*
X215819202Y-50735453D01*
X215889092Y-50683210D01*
X215940846Y-50644057D01*
X215973150Y-50618963D01*
X215984687Y-50608897D01*
X215984693Y-50608799D01*
X215973567Y-50600031D01*
X215941924Y-50576350D01*
X215891372Y-50538928D01*
X215823520Y-50488938D01*
X215739977Y-50427554D01*
X215642351Y-50355950D01*
X215532250Y-50275298D01*
X215411282Y-50186772D01*
X215281058Y-50091545D01*
X215143184Y-49990792D01*
X214999270Y-49885684D01*
X214850923Y-49777396D01*
X214699754Y-49667100D01*
X214547369Y-49555970D01*
X214395377Y-49445180D01*
X214245388Y-49335903D01*
X214099009Y-49229312D01*
X213957848Y-49126580D01*
X213823516Y-49028881D01*
X213697619Y-48937389D01*
X213581767Y-48853275D01*
X213477568Y-48777715D01*
X213386630Y-48711881D01*
X213310562Y-48656947D01*
X213250973Y-48614085D01*
X213214401Y-48587965D01*
X213169894Y-48556366D01*
X211764535Y-49577541D01*
X211590043Y-49704430D01*
X211421789Y-49826974D01*
X211261091Y-49944203D01*
X211109265Y-50055149D01*
X210967626Y-50158844D01*
X210837493Y-50254321D01*
X210720180Y-50340609D01*
X210617005Y-50416741D01*
X210529283Y-50481748D01*
X210458332Y-50534663D01*
X210405467Y-50574516D01*
X210372005Y-50600340D01*
X210359262Y-50611166D01*
X210359176Y-50611368D01*
X209668439Y-50611368D01*
X209668439Y-50610000D01*
X209668439Y-48394168D01*
X213170000Y-48394168D01*
X216671562Y-48394168D01*
X216671562Y-50610000D01*
G37*
D12*
%TO.C,R6*%
X204956359Y-91630000D02*
X205263641Y-91630000D01*
X204956359Y-92390000D02*
X205263641Y-92390000D01*
%TO.C,R12*%
X211833641Y-66770000D02*
X211526359Y-66770000D01*
X211833641Y-66010000D02*
X211526359Y-66010000D01*
%TO.C,C6*%
X191730000Y-88897836D02*
X191730000Y-88682164D01*
X192450000Y-88897836D02*
X192450000Y-88682164D01*
%TO.C,C35*%
X182957836Y-68910000D02*
X182742164Y-68910000D01*
X182957836Y-68190000D02*
X182742164Y-68190000D01*
D13*
%TO.C,U5*%
X211720000Y-62285000D02*
X214720000Y-62285000D01*
X214720000Y-65455000D02*
X211720000Y-65455000D01*
D14*
X211065000Y-62870000D02*
G75*
G03*
X211065000Y-62870000I-100000J0D01*
G01*
D13*
%TO.C,U3*%
X194747500Y-87242500D02*
X194747500Y-83737500D01*
X201252500Y-87242500D02*
X194747500Y-87242500D01*
X194747500Y-83737500D02*
X201252500Y-83737500D01*
X201252500Y-83737500D02*
X201252500Y-87242500D01*
D14*
X195810000Y-90490000D02*
G75*
G03*
X195810000Y-90490000I-100000J0D01*
G01*
D13*
%TO.C,U1*%
X192908831Y-73520000D02*
X193184603Y-73795772D01*
X197724228Y-78335397D02*
X198000000Y-78611169D01*
X198000000Y-78611169D02*
X198275772Y-78335397D01*
X193184603Y-73244228D02*
X192908831Y-73520000D01*
X202815397Y-73795772D02*
X203091169Y-73520000D01*
X198000000Y-68428831D02*
X197724228Y-68704603D01*
X198275772Y-68704603D02*
X198000000Y-68428831D01*
X203091169Y-73520000D02*
X202815397Y-73244228D01*
D14*
X191821394Y-75676676D02*
G75*
G03*
X191821394Y-75676676I-150000J0D01*
G01*
D12*
%TO.C,C34*%
X192380000Y-82777836D02*
X192380000Y-82562164D01*
X193100000Y-82777836D02*
X193100000Y-82562164D01*
%TO.C,C2*%
X189477836Y-66510000D02*
X189262164Y-66510000D01*
X189477836Y-65790000D02*
X189262164Y-65790000D01*
%TO.C,C16*%
X200320000Y-58032164D02*
X200320000Y-58247836D01*
X199600000Y-58032164D02*
X199600000Y-58247836D01*
%TO.C,C11*%
X193830000Y-57922164D02*
X193830000Y-58137836D01*
X193110000Y-57922164D02*
X193110000Y-58137836D01*
%TO.C,C5*%
X193310000Y-88897836D02*
X193310000Y-88682164D01*
X194030000Y-88897836D02*
X194030000Y-88682164D01*
%TO.C,SW1*%
X178700000Y-59820000D02*
X178700000Y-61820000D01*
X179750000Y-58520000D02*
X180200000Y-58070000D01*
X179750000Y-63120000D02*
X180200000Y-63570000D01*
X180200000Y-58070000D02*
X182700000Y-58070000D01*
X180200000Y-63570000D02*
X182700000Y-63570000D01*
X183150000Y-58520000D02*
X182700000Y-58070000D01*
X183150000Y-63120000D02*
X182700000Y-63570000D01*
X184200000Y-59820000D02*
X184200000Y-61820000D01*
%TO.C,C1*%
X189467836Y-65040000D02*
X189252164Y-65040000D01*
X189467836Y-64320000D02*
X189252164Y-64320000D01*
D13*
%TO.C,Y2*%
X181190000Y-73950000D02*
X181470000Y-73950000D01*
X181190000Y-73950000D02*
X181190000Y-70150000D01*
X183410000Y-73950000D02*
X186970000Y-73950000D01*
X189190000Y-73950000D02*
X188910000Y-73950000D01*
X189190000Y-73950000D02*
X189190000Y-70150000D01*
X181190000Y-70150000D02*
X181470000Y-70150000D01*
X183410000Y-70150000D02*
X186970000Y-70150000D01*
X189190000Y-70150000D02*
X188910000Y-70150000D01*
D14*
X182540000Y-75350000D02*
G75*
G03*
X182540000Y-75350000I-100000J0D01*
G01*
D12*
%TO.C,C30*%
X195150000Y-80032164D02*
X195150000Y-80247836D01*
X194430000Y-80032164D02*
X194430000Y-80247836D01*
%TD*%
M02*
